<?xml version="1.0" encoding="utf-8"?>
<!-- Generator: Adobe Illustrator 26.3.1, SVG Export Plug-In . SVG Version: 6.00 Build 0)  -->
<svg version="1.1" id="Layer_1" xmlns="http://www.w3.org/2000/svg" xmlns:xlink="http://www.w3.org/1999/xlink" x="0px" y="0px"
	 viewBox="0 0 339.45 390.22" style="enable-background:new 0 0 339.45 390.22;" xml:space="preserve">
<style type="text/css">
	.st0{fill:#66D7D1;}
	.st1{opacity:0.2;fill:#221F20;}
	.st2{fill:#FFFFFF;}
	.st3{opacity:0.77;}
</style>
<g>
	<g>
		<rect x="169.31" y="7.72" class="st0" width="19.33" height="178.75"/>
		<path d="M189.14,186.97h-20.33V7.22h20.33V186.97z M169.81,185.97h18.33V8.22h-18.33V185.97z"/>
	</g>
	<g>
		<rect x="167.89" y="6.93" class="st0" width="22.18" height="6.32"/>
		<path d="M190.56,13.75h-23.17V6.43h23.17V13.75z M168.39,12.75h21.17V7.43h-21.17V12.75z"/>
	</g>
	<rect x="167.89" y="6.93" class="st1" width="22.18" height="6.32"/>
	<g>
		<rect x="151.78" y="178.07" class="st0" width="54.38" height="60.46"/>
		<path d="M206.67,239.03h-55.38v-61.46h55.38V239.03z M152.28,238.03h53.38v-59.46h-53.38V238.03z"/>
	</g>
	<rect x="151.78" y="178.07" class="st1" width="54.38" height="60.46"/>
	<g>
		<g>
			<rect x="72.12" y="176.87" class="st2" width="9.09" height="72.84"/>
			<path d="M81.71,250.21H71.62v-73.84h10.09V250.21z M72.62,249.21h8.09v-71.84h-8.09V249.21z"/>
		</g>
		<g>
			<rect x="103.86" y="176.87" class="st2" width="9.09" height="72.84"/>
			<path d="M113.45,250.21h-10.09v-73.84h10.09V250.21z M104.36,249.21h8.09v-71.84h-8.09V249.21z"/>
		</g>
	</g>
	<g>
		<g>
			<rect x="239.02" y="176.87" class="st2" width="9.09" height="72.84"/>
			<path d="M248.62,250.21h-10.09v-73.84h10.09V250.21z M239.52,249.21h8.09v-71.84h-8.09V249.21z"/>
		</g>
		<g>
			<rect x="270.77" y="176.87" class="st2" width="9.09" height="72.84"/>
			<path d="M280.36,250.21h-10.09v-73.84h10.09V250.21z M271.27,249.21h8.09v-71.84h-8.09V249.21z"/>
		</g>
	</g>
	<g>
		<rect x="29.66" y="194.9" class="st2" width="298.64" height="26.81"/>
		<path d="M328.8,222.2H29.16V194.4H328.8V222.2z M30.16,221.2H327.8V195.4H30.16V221.2z"/>
	</g>
	<g>
		<rect x="145.39" y="0.5" class="st0" width="67.17" height="6.43"/>
		<path d="M213.06,7.43h-68.17V0h68.17V7.43z M145.89,6.43h66.17V1h-66.17V6.43z"/>
	</g>
	<g class="st3">
		<g>
			
				<rect x="132.61" y="130.8" transform="matrix(4.490015e-11 -1 1 4.490015e-11 53.0762 469.7541)" class="st2" width="257.62" height="155.08"/>
			<path d="M339.45,337.65H183.38V79.03h156.08V337.65z M184.38,336.65h154.08V80.03H184.38V336.65z"/>
		</g>
		<g>
			
				<rect x="-32.27" y="130.8" transform="matrix(4.490015e-11 -1 1 4.490015e-11 -111.8003 304.8775)" class="st2" width="257.62" height="155.08"/>
			<path d="M174.58,337.65H18.5V79.03h156.08V337.65z M19.5,336.65h154.08V80.03H19.5V336.65z"/>
		</g>
	</g>
	<g>
		<path d="M339.45,337.65H183.38V79.03h156.08V337.65z M184.38,336.65h154.08V80.03H184.38V336.65z"/>
		<g>
			<rect x="183.63" y="371.4" width="0.5" height="1"/>
			<path d="M184.13,369.4h-0.5v-2h0.5V369.4z M184.13,365.4h-0.5v-2h0.5V365.4z M184.13,361.41h-0.5v-2h0.5V361.41z M184.13,357.41
				h-0.5v-2h0.5V357.41z M184.13,353.42h-0.5v-2h0.5V353.42z M184.13,349.42h-0.5v-2h0.5V349.42z M184.13,345.42h-0.5v-2h0.5V345.42
				z M184.13,341.43h-0.5v-2h0.5V341.43z M184.13,337.43h-0.5v-2h0.5V337.43z M184.13,333.44h-0.5v-2h0.5V333.44z M184.13,329.44
				h-0.5v-2h0.5V329.44z M184.13,325.45h-0.5v-2h0.5V325.45z M184.13,321.45h-0.5v-2h0.5V321.45z M184.13,317.45h-0.5v-2h0.5V317.45
				z M184.13,313.46h-0.5v-2h0.5V313.46z M184.13,309.46h-0.5v-2h0.5V309.46z M184.13,305.47h-0.5v-2h0.5V305.47z M184.13,301.47
				h-0.5v-2h0.5V301.47z M184.13,297.47h-0.5v-2h0.5V297.47z M184.13,293.48h-0.5v-2h0.5V293.48z M184.13,289.48h-0.5v-2h0.5V289.48
				z M184.13,285.49h-0.5v-2h0.5V285.49z M184.13,281.49h-0.5v-2h0.5V281.49z M184.13,277.5h-0.5v-2h0.5V277.5z M184.13,273.5h-0.5
				v-2h0.5V273.5z M184.13,269.5h-0.5v-2h0.5V269.5z M184.13,265.51h-0.5v-2h0.5V265.51z M184.13,261.51h-0.5v-2h0.5V261.51z
				 M184.13,257.52h-0.5v-2h0.5V257.52z M184.13,253.52h-0.5v-2h0.5V253.52z M184.13,249.52h-0.5v-2h0.5V249.52z M184.13,245.53
				h-0.5v-2h0.5V245.53z M184.13,241.53h-0.5v-2h0.5V241.53z M184.13,237.54h-0.5v-2h0.5V237.54z M184.13,233.54h-0.5v-2h0.5V233.54
				z M184.13,229.54h-0.5v-2h0.5V229.54z M184.13,225.55h-0.5v-2h0.5V225.55z M184.13,221.55h-0.5v-2h0.5V221.55z M184.13,217.56
				h-0.5v-2h0.5V217.56z M184.13,213.56h-0.5v-2h0.5V213.56z M184.13,209.56h-0.5v-2h0.5V209.56z M184.13,205.57h-0.5v-2h0.5V205.57
				z M184.13,201.57h-0.5v-2h0.5V201.57z M184.13,197.58h-0.5v-2h0.5V197.58z M184.13,193.58h-0.5v-2h0.5V193.58z M184.13,189.59
				h-0.5v-2h0.5V189.59z M184.13,185.59h-0.5v-2h0.5V185.59z M184.13,181.59h-0.5v-2h0.5V181.59z M184.13,177.6h-0.5v-2h0.5V177.6z
				 M184.13,173.6h-0.5v-2h0.5V173.6z M184.13,169.61h-0.5v-2h0.5V169.61z M184.13,165.61h-0.5v-2h0.5V165.61z M184.13,161.61h-0.5
				v-2h0.5V161.61z M184.13,157.62h-0.5v-2h0.5V157.62z M184.13,153.62h-0.5v-2h0.5V153.62z M184.13,149.63h-0.5v-2h0.5V149.63z
				 M184.13,145.63h-0.5v-2h0.5V145.63z M184.13,141.64h-0.5v-2h0.5V141.64z M184.13,137.64h-0.5v-2h0.5V137.64z M184.13,133.64
				h-0.5v-2h0.5V133.64z M184.13,129.65h-0.5v-2h0.5V129.65z M184.13,125.65h-0.5v-2h0.5V125.65z M184.13,121.66h-0.5v-2h0.5V121.66
				z M184.13,117.66h-0.5v-2h0.5V117.66z M184.13,113.66h-0.5v-2h0.5V113.66z M184.13,109.67h-0.5v-2h0.5V109.67z M184.13,105.67
				h-0.5v-2h0.5V105.67z M184.13,101.68h-0.5v-2h0.5V101.68z M184.13,97.68h-0.5v-2h0.5V97.68z M184.13,93.68h-0.5v-2h0.5V93.68z
				 M184.13,89.69h-0.5v-2h0.5V89.69z M184.13,85.69h-0.5v-2h0.5V85.69z M184.13,81.7h-0.5v-2h0.5V81.7z M184.13,77.7h-0.5v-2h0.5
				V77.7z M184.13,73.71h-0.5v-2h0.5V73.71z M184.13,69.71h-0.5v-2h0.5V69.71z M184.13,65.71h-0.5v-2h0.5V65.71z M184.13,61.72h-0.5
				v-2h0.5V61.72z"/>
			<rect x="183.63" y="56.72" width="0.5" height="1"/>
		</g>
		<path d="M174.58,337.65H18.5V79.03h156.08V337.65z M19.5,336.65h154.08V80.03H19.5V336.65z"/>
		<g>
			<rect x="173.83" y="56.72" width="0.5" height="1"/>
			<path d="M174.33,369.4h-0.5v-2h0.5V369.4z M174.33,365.4h-0.5v-2h0.5V365.4z M174.33,361.41h-0.5v-2h0.5V361.41z M174.33,357.41
				h-0.5v-2h0.5V357.41z M174.33,353.42h-0.5v-2h0.5V353.42z M174.33,349.42h-0.5v-2h0.5V349.42z M174.33,345.42h-0.5v-2h0.5V345.42
				z M174.33,341.43h-0.5v-2h0.5V341.43z M174.33,337.43h-0.5v-2h0.5V337.43z M174.33,333.44h-0.5v-2h0.5V333.44z M174.33,329.44
				h-0.5v-2h0.5V329.44z M174.33,325.45h-0.5v-2h0.5V325.45z M174.33,321.45h-0.5v-2h0.5V321.45z M174.33,317.45h-0.5v-2h0.5V317.45
				z M174.33,313.46h-0.5v-2h0.5V313.46z M174.33,309.46h-0.5v-2h0.5V309.46z M174.33,305.47h-0.5v-2h0.5V305.47z M174.33,301.47
				h-0.5v-2h0.5V301.47z M174.33,297.47h-0.5v-2h0.5V297.47z M174.33,293.48h-0.5v-2h0.5V293.48z M174.33,289.48h-0.5v-2h0.5V289.48
				z M174.33,285.49h-0.5v-2h0.5V285.49z M174.33,281.49h-0.5v-2h0.5V281.49z M174.33,277.49h-0.5v-2h0.5V277.49z M174.33,273.5
				h-0.5v-2h0.5V273.5z M174.33,269.5h-0.5v-2h0.5V269.5z M174.33,265.51h-0.5v-2h0.5V265.51z M174.33,261.51h-0.5v-2h0.5V261.51z
				 M174.33,257.52h-0.5v-2h0.5V257.52z M174.33,253.52h-0.5v-2h0.5V253.52z M174.33,249.52h-0.5v-2h0.5V249.52z M174.33,245.53
				h-0.5v-2h0.5V245.53z M174.33,241.53h-0.5v-2h0.5V241.53z M174.33,237.54h-0.5v-2h0.5V237.54z M174.33,233.54h-0.5v-2h0.5V233.54
				z M174.33,229.54h-0.5v-2h0.5V229.54z M174.33,225.55h-0.5v-2h0.5V225.55z M174.33,221.55h-0.5v-2h0.5V221.55z M174.33,217.56
				h-0.5v-2h0.5V217.56z M174.33,213.56h-0.5v-2h0.5V213.56z M174.33,209.56h-0.5v-2h0.5V209.56z M174.33,205.57h-0.5v-2h0.5V205.57
				z M174.33,201.57h-0.5v-2h0.5V201.57z M174.33,197.58h-0.5v-2h0.5V197.58z M174.33,193.58h-0.5v-2h0.5V193.58z M174.33,189.59
				h-0.5v-2h0.5V189.59z M174.33,185.59h-0.5v-2h0.5V185.59z M174.33,181.59h-0.5v-2h0.5V181.59z M174.33,177.6h-0.5v-2h0.5V177.6z
				 M174.33,173.6h-0.5v-2h0.5V173.6z M174.33,169.61h-0.5v-2h0.5V169.61z M174.33,165.61h-0.5v-2h0.5V165.61z M174.33,161.61h-0.5
				v-2h0.5V161.61z M174.33,157.62h-0.5v-2h0.5V157.62z M174.33,153.62h-0.5v-2h0.5V153.62z M174.33,149.63h-0.5v-2h0.5V149.63z
				 M174.33,145.63h-0.5v-2h0.5V145.63z M174.33,141.64h-0.5v-2h0.5V141.64z M174.33,137.64h-0.5v-2h0.5V137.64z M174.33,133.64
				h-0.5v-2h0.5V133.64z M174.33,129.65h-0.5v-2h0.5V129.65z M174.33,125.65h-0.5v-2h0.5V125.65z M174.33,121.66h-0.5v-2h0.5V121.66
				z M174.33,117.66h-0.5v-2h0.5V117.66z M174.33,113.66h-0.5v-2h0.5V113.66z M174.33,109.67h-0.5v-2h0.5V109.67z M174.33,105.67
				h-0.5v-2h0.5V105.67z M174.33,101.68h-0.5v-2h0.5V101.68z M174.33,97.68h-0.5v-2h0.5V97.68z M174.33,93.68h-0.5v-2h0.5V93.68z
				 M174.33,89.69h-0.5v-2h0.5V89.69z M174.33,85.69h-0.5v-2h0.5V85.69z M174.33,81.7h-0.5v-2h0.5V81.7z M174.33,77.7h-0.5v-2h0.5
				V77.7z M174.33,73.71h-0.5v-2h0.5V73.71z M174.33,69.71h-0.5v-2h0.5V69.71z M174.33,65.71h-0.5v-2h0.5V65.71z M174.33,61.72h-0.5
				v-2h0.5V61.72z"/>
			<rect x="173.83" y="371.4" width="0.5" height="1"/>
		</g>
	</g>
	<g>
		<g>
			<g>
				<rect x="3.22" y="219.05" width="0.5" height="117.47"/>
				<g>
					<path d="M1.07,333.1c0.12-0.07,0.27-0.04,0.35,0.08l2.05,3.23l2.05-3.23c0.07-0.12,0.23-0.15,0.35-0.08
						c0.12,0.07,0.15,0.23,0.08,0.35l-2.27,3.56c-0.05,0.07-0.13,0.12-0.21,0.12s-0.17-0.04-0.21-0.12L1,333.45
						c-0.03-0.04-0.04-0.09-0.04-0.13C0.96,333.23,1,333.15,1.07,333.1z"/>
				</g>
			</g>
			<g>
				<rect x="3.22" y="80.13" width="0.5" height="118.18"/>
				<g>
					<path d="M1.07,83.55c0.12,0.07,0.27,0.04,0.35-0.08l2.05-3.23l2.05,3.23c0.07,0.12,0.23,0.15,0.35,0.08
						c0.12-0.07,0.15-0.23,0.08-0.35l-2.27-3.56c-0.05-0.07-0.13-0.12-0.21-0.12s-0.17,0.04-0.21,0.12L1,83.2
						c-0.03,0.04-0.04,0.09-0.04,0.13C0.96,83.42,1,83.5,1.07,83.55z"/>
				</g>
			</g>
			<g>
				<path d="M6.95,204.2v8.38H5.27v-3.56H1.68v3.56H0v-8.38h1.68v3.44h3.59v-3.44H6.95z"/>
			</g>
		</g>
		<g>
			<g>
				<rect x="20.72" y="352.4" width="65.63" height="0.5"/>
				<g>
					<path d="M24.14,350.25c0.07,0.12,0.04,0.27-0.08,0.35l-3.23,2.05l3.23,2.05c0.12,0.07,0.15,0.23,0.08,0.35
						s-0.23,0.15-0.35,0.08l-3.56-2.27c-0.07-0.05-0.12-0.13-0.12-0.21s0.04-0.17,0.12-0.21l3.56-2.27
						c0.04-0.03,0.09-0.04,0.13-0.04C24.01,350.14,24.09,350.18,24.14,350.25z"/>
				</g>
			</g>
			<g>
				<rect x="107.09" y="352.4" width="66.34" height="0.5"/>
				<g>
					<path d="M170.01,350.25c-0.07,0.12-0.04,0.27,0.08,0.35l3.23,2.05l-3.23,2.05c-0.12,0.07-0.15,0.23-0.08,0.35
						s0.23,0.15,0.35,0.08l3.56-2.27c0.07-0.05,0.12-0.13,0.12-0.21s-0.04-0.17-0.12-0.21l-3.56-2.27
						c-0.04-0.03-0.09-0.04-0.13-0.04C170.14,350.14,170.06,350.18,170.01,350.25z"/>
				</g>
			</g>
		</g>
		<g>
			<path d="M102.96,348.68l-2.34,8.38h-1.98l-1.57-5.96l-1.64,5.96l-1.97,0.01l-2.26-8.39H93l1.48,6.5l1.7-6.5h1.87l1.61,6.47
				l1.49-6.47H102.96z"/>
		</g>
	</g>
	<g>
		<path d="M172.86,381.2c-0.19-0.35-0.46-0.62-0.79-0.8c-0.34-0.18-0.73-0.28-1.18-0.28c-0.5,0-0.94,0.11-1.32,0.34
			c-0.38,0.22-0.68,0.54-0.9,0.96c-0.22,0.42-0.32,0.9-0.32,1.44c0,0.56,0.11,1.05,0.33,1.46c0.22,0.42,0.53,0.74,0.92,0.96
			c0.39,0.22,0.85,0.34,1.37,0.34c0.64,0,1.16-0.17,1.57-0.51c0.41-0.34,0.68-0.81,0.8-1.42h-2.88v-1.28H175v1.46
			c-0.11,0.58-0.35,1.12-0.72,1.62s-0.84,0.89-1.42,1.19c-0.58,0.3-1.23,0.45-1.95,0.45c-0.81,0-1.54-0.18-2.19-0.55
			c-0.65-0.36-1.16-0.87-1.54-1.52c-0.37-0.65-0.56-1.38-0.56-2.21c0-0.82,0.19-1.56,0.56-2.21c0.37-0.65,0.88-1.16,1.54-1.52
			c0.65-0.36,1.38-0.55,2.18-0.55c0.94,0,1.76,0.23,2.46,0.69c0.7,0.46,1.18,1.11,1.44,1.94H172.86z"/>
		<path d="M176.32,381.92c0.27-0.52,0.63-0.92,1.09-1.2c0.46-0.28,0.97-0.42,1.54-0.42c0.5,0,0.93,0.1,1.3,0.3
			c0.37,0.2,0.67,0.45,0.89,0.76v-0.95h1.69v6.65h-1.69v-0.97c-0.22,0.31-0.51,0.57-0.89,0.77c-0.38,0.2-0.82,0.31-1.31,0.31
			c-0.56,0-1.07-0.14-1.53-0.43c-0.46-0.29-0.82-0.69-1.09-1.22c-0.27-0.52-0.4-1.13-0.4-1.81
			C175.92,383.04,176.05,382.44,176.32,381.92z M180.91,382.68c-0.16-0.29-0.38-0.52-0.65-0.67c-0.27-0.16-0.56-0.23-0.88-0.23
			c-0.31,0-0.6,0.08-0.86,0.23c-0.26,0.15-0.48,0.37-0.64,0.67c-0.16,0.29-0.25,0.64-0.25,1.04c0,0.4,0.08,0.75,0.25,1.05
			c0.16,0.3,0.38,0.53,0.65,0.69c0.27,0.16,0.55,0.24,0.86,0.24c0.31,0,0.6-0.08,0.88-0.23c0.27-0.16,0.49-0.38,0.65-0.67
			s0.24-0.64,0.24-1.05C181.15,383.32,181.07,382.97,180.91,382.68z"/>
		<path d="M187.02,380.61c0.38-0.2,0.81-0.31,1.3-0.31c0.57,0,1.08,0.14,1.54,0.42c0.46,0.28,0.82,0.68,1.09,1.19s0.4,1.11,0.4,1.79
			c0,0.68-0.13,1.28-0.4,1.81s-0.63,0.93-1.09,1.22c-0.46,0.29-0.97,0.43-1.54,0.43c-0.49,0-0.92-0.1-1.29-0.3
			c-0.37-0.2-0.67-0.45-0.91-0.76v4.12h-1.68v-9.82h1.68v0.96C186.34,381.06,186.64,380.81,187.02,380.61z M189.39,382.67
			c-0.16-0.29-0.38-0.51-0.65-0.67c-0.27-0.15-0.56-0.23-0.87-0.23c-0.3,0-0.59,0.08-0.86,0.23c-0.27,0.16-0.48,0.38-0.65,0.68
			c-0.16,0.3-0.25,0.64-0.25,1.04c0,0.4,0.08,0.75,0.25,1.04s0.38,0.52,0.65,0.68c0.27,0.16,0.55,0.23,0.86,0.23
			c0.31,0,0.6-0.08,0.87-0.24s0.48-0.39,0.65-0.68c0.16-0.3,0.25-0.65,0.25-1.06C189.64,383.31,189.56,382.96,189.39,382.67z"/>
	</g>
</g>
</svg>
