<?xml version="1.0" encoding="utf-8"?>
<!-- Generator: Adobe Illustrator 26.3.1, SVG Export Plug-In . SVG Version: 6.00 Build 0)  -->
<svg version="1.1" id="Layer_1" xmlns="http://www.w3.org/2000/svg" xmlns:xlink="http://www.w3.org/1999/xlink" x="0px" y="0px"
	 viewBox="0 0 463.7 331.41" style="enable-background:new 0 0 463.7 331.41;" xml:space="preserve">
<style type="text/css">
	.st0{fill:#66D7D1;}
	.st1{opacity:0.2;fill:#221F20;}
	.st2{fill:#FFFFFF;}
	.st3{opacity:0.77;}
</style>
<g>
	<g>
		<g>
			<rect x="230.85" y="11.87" class="st0" width="19.33" height="174.6"/>
			<path d="M250.68,186.97h-20.33V11.37h20.33V186.97z M231.35,185.97h18.33V12.37h-18.33V185.97z"/>
		</g>
		<g>
			<rect x="229.42" y="6.93" class="st0" width="22.18" height="6.32"/>
			<path d="M252.1,13.75h-23.18V6.43h23.18V13.75z M229.92,12.75h21.18V7.43h-21.18V12.75z"/>
		</g>
		<rect x="229.42" y="6.93" class="st1" width="22.18" height="6.32"/>
		<g>
			<rect x="213.32" y="178.07" class="st0" width="54.38" height="60.46"/>
			<path d="M268.2,239.03h-55.38v-61.46h55.38V239.03z M213.82,238.03h53.38v-59.46h-53.38V238.03z"/>
		</g>
		<rect x="213.32" y="178.07" class="st1" width="54.38" height="60.46"/>
		<g>
			<g>
				<g>
					<rect x="112.39" y="176.87" class="st2" width="9.09" height="72.84"/>
					<path d="M121.98,250.21h-10.09v-73.84h10.09V250.21z M112.89,249.21h8.09v-71.84h-8.09V249.21z"/>
				</g>
				<g>
					<rect x="144.13" y="176.87" class="st2" width="9.09" height="72.84"/>
					<path d="M153.73,250.21h-10.09v-73.84h10.09V250.21z M144.63,249.21h8.09v-71.84h-8.09V249.21z"/>
				</g>
			</g>
			<g>
				<g>
					<rect x="327.8" y="176.87" class="st2" width="9.09" height="72.84"/>
					<path d="M337.39,250.21H327.3v-73.84h10.09V250.21z M328.3,249.21h8.09v-71.84h-8.09V249.21z"/>
				</g>
				<g>
					<rect x="359.54" y="176.87" class="st2" width="9.09" height="72.84"/>
					<path d="M369.14,250.21h-10.09v-73.84h10.09V250.21z M360.04,249.21h8.09v-71.84h-8.09V249.21z"/>
				</g>
			</g>
		</g>
		<g>
			<rect x="80.83" y="194.9" class="st2" width="319.38" height="26.81"/>
			<path d="M400.7,222.2H80.32V194.4H400.7V222.2z M81.32,221.2H399.7V195.4H81.32V221.2z"/>
		</g>
		<g>
			<rect x="206.93" y="0.5" class="st0" width="67.17" height="6.43"/>
			<path d="M274.6,7.43h-68.17V0h68.17V7.43z M207.43,6.43h66.17V1h-66.17V6.43z"/>
		</g>
	</g>
	<g class="st3">
		<g>
			<rect x="17.82" y="147.38" class="st2" width="217.79" height="131.1"/>
			<path d="M236.11,278.99H17.32v-132.1h218.79V278.99z M18.32,277.99h216.79v-130.1H18.32V277.99z"/>
		</g>
		<g>
			<rect x="245.41" y="147.38" class="st2" width="217.79" height="131.1"/>
			<path d="M463.7,278.99H244.91v-132.1H463.7V278.99z M245.91,277.99H462.7v-130.1H245.91V277.99z"/>
		</g>
	</g>
	<g>
		<path d="M236.11,278.99H17.32v-132.1h218.79V278.99z M18.32,277.99h216.79v-130.1H18.32V277.99z"/>
		<path d="M463.7,278.99H244.91v-132.1H463.7V278.99z M245.91,277.99H462.7v-130.1H245.91V277.99z"/>
	</g>
	<g>
		<g>
			<rect x="3.22" y="223.66" width="0.5" height="54.23"/>
			<g>
				<path d="M1.07,274.47c0.12-0.07,0.27-0.04,0.35,0.08l2.05,3.23l2.05-3.23c0.07-0.12,0.23-0.15,0.35-0.08s0.15,0.23,0.08,0.35
					l-2.27,3.56c-0.05,0.07-0.13,0.12-0.21,0.12s-0.17-0.04-0.21-0.12L1,274.81c-0.03-0.04-0.04-0.09-0.04-0.13
					C0.96,274.6,1,274.52,1.07,274.47z"/>
			</g>
		</g>
		<g>
			<rect x="3.22" y="147.98" width="0.5" height="54.94"/>
			<g>
				<path d="M1.07,151.4c0.12,0.07,0.27,0.04,0.35-0.08l2.05-3.23l2.05,3.23c0.07,0.12,0.23,0.15,0.35,0.08s0.15-0.23,0.08-0.35
					l-2.27-3.56c-0.05-0.07-0.13-0.12-0.21-0.12s-0.17,0.04-0.21,0.12L1,151.06c-0.03,0.04-0.04,0.09-0.04,0.13
					C0.96,151.27,1,151.35,1.07,151.4z"/>
			</g>
		</g>
		<g>
			<path d="M6.95,208.81v8.38H5.27v-3.56H1.68v3.56H0v-8.38h1.68v3.44h3.59v-3.44H6.95z"/>
		</g>
		<g>
			<g>
				<rect x="20.6" y="293.65" width="96.74" height="0.5"/>
				<g>
					<path d="M24.02,291.5c0.07,0.12,0.04,0.27-0.08,0.35l-3.23,2.05l3.23,2.05c0.12,0.07,0.15,0.23,0.08,0.35s-0.23,0.15-0.35,0.08
						l-3.56-2.27c-0.07-0.05-0.12-0.13-0.12-0.21s0.04-0.17,0.12-0.21l3.56-2.27c0.04-0.03,0.09-0.04,0.13-0.04
						C23.89,291.38,23.97,291.42,24.02,291.5z"/>
				</g>
			</g>
			<g>
				<rect x="138.07" y="293.65" width="97.44" height="0.5"/>
				<g>
					<path d="M232.1,291.5c-0.07,0.12-0.04,0.27,0.08,0.35l3.23,2.05l-3.23,2.05c-0.12,0.07-0.15,0.23-0.08,0.35
						s0.23,0.15,0.35,0.08l3.56-2.27c0.07-0.05,0.12-0.13,0.12-0.21s-0.04-0.17-0.12-0.21l-3.56-2.27
						c-0.04-0.03-0.09-0.04-0.13-0.04C232.23,291.38,232.15,291.42,232.1,291.5z"/>
				</g>
			</g>
		</g>
		<g>
			<path d="M133.94,289.92l-2.34,8.38h-1.98l-1.57-5.96l-1.64,5.96l-1.97,0.01l-2.26-8.39h1.8l1.48,6.5l1.7-6.5h1.87l1.61,6.47
				l1.49-6.47H133.94z"/>
		</g>
	</g>
	<g>
		<g>
			<rect x="245.16" y="312.59" width="0.5" height="1"/>
			<path d="M245.66,310.6h-0.5v-1.99h0.5V310.6z M245.66,306.61h-0.5v-1.99h0.5V306.61z M245.66,302.63h-0.5v-1.99h0.5V302.63z
				 M245.66,298.64h-0.5v-1.99h0.5V298.64z M245.66,294.66h-0.5v-1.99h0.5V294.66z M245.66,290.67h-0.5v-1.99h0.5V290.67z
				 M245.66,286.69h-0.5v-1.99h0.5V286.69z M245.66,282.7h-0.5v-1.99h0.5V282.7z M245.66,278.72h-0.5v-1.99h0.5V278.72z
				 M245.66,274.73h-0.5v-1.99h0.5V274.73z M245.66,270.75h-0.5v-1.99h0.5V270.75z M245.66,266.77h-0.5v-1.99h0.5V266.77z
				 M245.66,262.78h-0.5v-1.99h0.5V262.78z M245.66,258.8h-0.5v-1.99h0.5V258.8z M245.66,254.81h-0.5v-1.99h0.5V254.81z
				 M245.66,250.83h-0.5v-1.99h0.5V250.83z M245.66,246.84h-0.5v-1.99h0.5V246.84z M245.66,242.86h-0.5v-1.99h0.5V242.86z
				 M245.66,238.87h-0.5v-1.99h0.5V238.87z M245.66,234.89h-0.5v-1.99h0.5V234.89z M245.66,230.9h-0.5v-1.99h0.5V230.9z
				 M245.66,226.92h-0.5v-1.99h0.5V226.92z M245.66,222.93h-0.5v-1.99h0.5V222.93z M245.66,218.95h-0.5v-1.99h0.5V218.95z
				 M245.66,214.96h-0.5v-1.99h0.5V214.96z M245.66,210.98h-0.5v-1.99h0.5V210.98z M245.66,207h-0.5V205h0.5V207z M245.66,203.01
				h-0.5v-1.99h0.5V203.01z M245.66,199.03h-0.5v-1.99h0.5V199.03z M245.66,195.04h-0.5v-1.99h0.5V195.04z M245.66,191.06h-0.5
				v-1.99h0.5V191.06z M245.66,187.07h-0.5v-1.99h0.5V187.07z M245.66,183.09h-0.5v-1.99h0.5V183.09z M245.66,179.1h-0.5v-1.99h0.5
				V179.1z M245.66,175.12h-0.5v-1.99h0.5V175.12z M245.66,171.13h-0.5v-1.99h0.5V171.13z M245.66,167.15h-0.5v-1.99h0.5V167.15z
				 M245.66,163.17h-0.5v-1.99h0.5V163.17z M245.66,159.18h-0.5v-1.99h0.5V159.18z M245.66,155.2h-0.5v-1.99h0.5V155.2z
				 M245.66,151.21h-0.5v-1.99h0.5V151.21z M245.66,147.23h-0.5v-1.99h0.5V147.23z M245.66,143.24h-0.5v-1.99h0.5V143.24z
				 M245.66,139.26h-0.5v-1.99h0.5V139.26z M245.66,135.27h-0.5v-1.99h0.5V135.27z M245.66,131.29h-0.5v-1.99h0.5V131.29z"/>
			<rect x="245.16" y="126.3" width="0.5" height="1"/>
		</g>
		<g>
			<rect x="235.36" y="126.3" width="0.5" height="1"/>
			<path d="M235.86,310.6h-0.5v-1.99h0.5V310.6z M235.86,306.61h-0.5v-1.99h0.5V306.61z M235.86,302.63h-0.5v-1.99h0.5V302.63z
				 M235.86,298.64h-0.5v-1.99h0.5V298.64z M235.86,294.66h-0.5v-1.99h0.5V294.66z M235.86,290.67h-0.5v-1.99h0.5V290.67z
				 M235.86,286.69h-0.5v-1.99h0.5V286.69z M235.86,282.7h-0.5v-1.99h0.5V282.7z M235.86,278.72h-0.5v-1.99h0.5V278.72z
				 M235.86,274.73h-0.5v-1.99h0.5V274.73z M235.86,270.75h-0.5v-1.99h0.5V270.75z M235.86,266.77h-0.5v-1.99h0.5V266.77z
				 M235.86,262.78h-0.5v-1.99h0.5V262.78z M235.86,258.8h-0.5v-1.99h0.5V258.8z M235.86,254.81h-0.5v-1.99h0.5V254.81z
				 M235.86,250.83h-0.5v-1.99h0.5V250.83z M235.86,246.84h-0.5v-1.99h0.5V246.84z M235.86,242.86h-0.5v-1.99h0.5V242.86z
				 M235.86,238.87h-0.5v-1.99h0.5V238.87z M235.86,234.89h-0.5v-1.99h0.5V234.89z M235.86,230.9h-0.5v-1.99h0.5V230.9z
				 M235.86,226.92h-0.5v-1.99h0.5V226.92z M235.86,222.93h-0.5v-1.99h0.5V222.93z M235.86,218.95h-0.5v-1.99h0.5V218.95z
				 M235.86,214.97h-0.5v-1.99h0.5V214.97z M235.86,210.98h-0.5v-1.99h0.5V210.98z M235.86,207h-0.5V205h0.5V207z M235.86,203.01
				h-0.5v-1.99h0.5V203.01z M235.86,199.03h-0.5v-1.99h0.5V199.03z M235.86,195.04h-0.5v-1.99h0.5V195.04z M235.86,191.06h-0.5
				v-1.99h0.5V191.06z M235.86,187.07h-0.5v-1.99h0.5V187.07z M235.86,183.09h-0.5v-1.99h0.5V183.09z M235.86,179.1h-0.5v-1.99h0.5
				V179.1z M235.86,175.12h-0.5v-1.99h0.5V175.12z M235.86,171.13h-0.5v-1.99h0.5V171.13z M235.86,167.15h-0.5v-1.99h0.5V167.15z
				 M235.86,163.17h-0.5v-1.99h0.5V163.17z M235.86,159.18h-0.5v-1.99h0.5V159.18z M235.86,155.2h-0.5v-1.99h0.5V155.2z
				 M235.86,151.21h-0.5v-1.99h0.5V151.21z M235.86,147.23h-0.5v-1.99h0.5V147.23z M235.86,143.24h-0.5v-1.99h0.5V143.24z
				 M235.86,139.26h-0.5v-1.99h0.5V139.26z M235.86,135.27h-0.5v-1.99h0.5V135.27z M235.86,131.29h-0.5v-1.99h0.5V131.29z"/>
			<rect x="235.36" y="312.59" width="0.5" height="1"/>
		</g>
		<g>
			<path d="M234.4,322.39c-0.19-0.35-0.46-0.62-0.79-0.8c-0.34-0.18-0.73-0.28-1.18-0.28c-0.5,0-0.94,0.11-1.32,0.34
				c-0.38,0.22-0.68,0.54-0.9,0.96c-0.22,0.42-0.32,0.9-0.32,1.44c0,0.56,0.11,1.05,0.33,1.46c0.22,0.42,0.53,0.74,0.92,0.96
				c0.39,0.22,0.85,0.34,1.37,0.34c0.64,0,1.16-0.17,1.57-0.51c0.41-0.34,0.68-0.81,0.8-1.42H232v-1.28h4.54v1.46
				c-0.11,0.58-0.35,1.12-0.72,1.62s-0.84,0.89-1.42,1.19c-0.58,0.3-1.23,0.45-1.95,0.45c-0.81,0-1.54-0.18-2.19-0.55
				c-0.65-0.36-1.16-0.87-1.54-1.52c-0.37-0.65-0.56-1.38-0.56-2.21c0-0.82,0.19-1.56,0.56-2.21c0.37-0.65,0.88-1.16,1.54-1.52
				c0.65-0.36,1.38-0.55,2.18-0.55c0.94,0,1.76,0.23,2.46,0.69c0.7,0.46,1.18,1.11,1.44,1.94H234.4z"/>
			<path d="M237.86,323.11c0.27-0.52,0.63-0.92,1.09-1.2c0.46-0.28,0.97-0.42,1.54-0.42c0.5,0,0.93,0.1,1.3,0.3
				c0.37,0.2,0.67,0.45,0.89,0.76v-0.95h1.69v6.65h-1.69v-0.97c-0.22,0.31-0.51,0.57-0.89,0.77c-0.38,0.2-0.82,0.31-1.31,0.31
				c-0.56,0-1.07-0.14-1.53-0.43c-0.46-0.29-0.82-0.69-1.09-1.22c-0.27-0.52-0.4-1.13-0.4-1.81
				C237.45,324.23,237.59,323.63,237.86,323.11z M242.44,323.87c-0.16-0.29-0.38-0.52-0.65-0.67c-0.27-0.16-0.56-0.23-0.88-0.23
				c-0.31,0-0.6,0.08-0.86,0.23c-0.26,0.15-0.48,0.37-0.64,0.67c-0.16,0.29-0.25,0.64-0.25,1.04c0,0.4,0.08,0.75,0.25,1.05
				c0.16,0.3,0.38,0.53,0.65,0.69c0.27,0.16,0.55,0.24,0.86,0.24c0.31,0,0.6-0.08,0.88-0.23c0.27-0.16,0.49-0.38,0.65-0.67
				s0.24-0.64,0.24-1.05C242.69,324.51,242.61,324.16,242.44,323.87z"/>
			<path d="M248.55,321.8c0.38-0.2,0.81-0.31,1.3-0.31c0.57,0,1.08,0.14,1.54,0.42c0.46,0.28,0.82,0.68,1.09,1.19s0.4,1.11,0.4,1.79
				c0,0.68-0.13,1.28-0.4,1.81s-0.63,0.93-1.09,1.22c-0.46,0.29-0.97,0.43-1.54,0.43c-0.49,0-0.92-0.1-1.29-0.3
				c-0.37-0.2-0.67-0.45-0.91-0.76v4.12h-1.68v-9.82h1.68v0.96C247.87,322.25,248.17,322,248.55,321.8z M250.93,323.86
				c-0.16-0.29-0.38-0.51-0.65-0.67c-0.27-0.15-0.56-0.23-0.87-0.23c-0.3,0-0.59,0.08-0.86,0.23c-0.27,0.16-0.48,0.38-0.65,0.68
				c-0.16,0.3-0.25,0.64-0.25,1.04c0,0.4,0.08,0.75,0.25,1.04s0.38,0.52,0.65,0.68c0.27,0.16,0.55,0.23,0.86,0.23
				c0.31,0,0.6-0.08,0.87-0.24s0.48-0.39,0.65-0.68c0.16-0.3,0.25-0.65,0.25-1.06C251.17,324.5,251.09,324.15,250.93,323.86z"/>
		</g>
	</g>
</g>
</svg>
