<?xml version="1.0" encoding="utf-8"?>
<!-- Generator: Adobe Illustrator 26.2.1, SVG Export Plug-In . SVG Version: 6.00 Build 0)  -->
<svg version="1.1" id="Layer_1" xmlns="http://www.w3.org/2000/svg" xmlns:xlink="http://www.w3.org/1999/xlink" x="0px" y="0px"
	 viewBox="0 0 43.99 43.99" style="enable-background:new 0 0 43.99 43.99;" xml:space="preserve">
<style type="text/css">
	.st0{fill:#71C1C2;}
	.st1{opacity:0.15;clip-path:url(#SVGID_00000013879140853226939430000006521548426827496072_);}
	.st2{fill:#221F20;}
	.st3{clip-path:url(#SVGID_00000013879140853226939430000006521548426827496072_);}
	.st4{fill:#010101;}
	.st5{clip-path:url(#SVGID_00000139271279950981870080000016334749256564865204_);}
	.st6{fill:#FFFFFF;}
	.st7{opacity:0.15;}
</style>
<g>
	<path class="st0" d="M41.65,43.99H2.34C1.05,43.99,0,42.95,0,41.65V2.34C0,1.05,1.05,0,2.34,0h39.31C42.95,0,44,1.05,44,2.34v39.31
		C44,42.95,42.95,43.99,41.65,43.99z"/>
</g>
<g>
	<g>
		<defs>
			<rect id="SVGID_1_" x="0" y="13.16" width="44.01" height="13.64"/>
		</defs>
		<clipPath id="SVGID_00000145033288940663803390000009512997900227389624_">
			<use xlink:href="#SVGID_1_"  style="overflow:visible;"/>
		</clipPath>
		<g style="opacity:0.15;clip-path:url(#SVGID_00000145033288940663803390000009512997900227389624_);">
			<g>
				<g>
					<rect x="-2.12" y="14.06" class="st2" width="13.89" height="10.03"/>
				</g>
			</g>
			<g>
				<g>
					<rect x="14.98" y="14.06" class="st2" width="13.89" height="10.03"/>
				</g>
			</g>
			<g>
				<g>
					<rect x="32.08" y="14.06" class="st2" width="13.89" height="10.03"/>
				</g>
			</g>
		</g>
		<g style="clip-path:url(#SVGID_00000145033288940663803390000009512997900227389624_);">
			<g>
				<g>
					<path class="st4" d="M11.77,24.27H-1.12c-0.1,0-0.17-0.08-0.17-0.17V14.06c0-0.1,0.08-0.17,0.17-0.17h12.89
						c0.1,0,0.17,0.08,0.17,0.17v10.03C11.95,24.19,11.87,24.27,11.77,24.27z M-0.94,23.92H11.6v-9.68H-0.94V23.92z"/>
				</g>
			</g>
			<g>
				<g>
					<path class="st4" d="M28.87,24.27H14.98c-0.1,0-0.17-0.08-0.17-0.17V14.06c0-0.1,0.08-0.17,0.17-0.17h13.89
						c0.1,0,0.17,0.08,0.17,0.17v10.03C29.05,24.19,28.97,24.27,28.87,24.27z M15.15,23.92H28.7v-9.68H15.15V23.92z"/>
				</g>
			</g>
			<g>
				<g>
					<path class="st4" d="M44.97,24.27H32.08c-0.1,0-0.17-0.08-0.17-0.17V14.06c0-0.1,0.08-0.17,0.17-0.17h12.89
						c0.1,0,0.17,0.08,0.17,0.17v10.03C45.15,24.19,45.07,24.27,44.97,24.27z M32.25,23.92H44.8v-9.68H32.25V23.92z"/>
				</g>
			</g>
		</g>
	</g>
	<g>
		<defs>
			<rect id="SVGID_00000012450911089424433210000017615198754034875828_" x="-0.01" y="15.62" width="44" height="16"/>
		</defs>
		<clipPath id="SVGID_00000104664509838056874020000018016416361025278383_">
			<use xlink:href="#SVGID_00000012450911089424433210000017615198754034875828_"  style="overflow:visible;"/>
		</clipPath>
		<g style="clip-path:url(#SVGID_00000104664509838056874020000018016416361025278383_);">
			<g>
				<g>
					<rect x="-7.86" y="17.11" class="st6" width="18" height="13"/>
					<path class="st4" d="M10.14,30.29h-18c-0.1,0-0.17-0.08-0.17-0.17v-13c0-0.1,0.08-0.17,0.17-0.17h18c0.1,0,0.17,0.08,0.17,0.17
						v13C10.32,30.21,10.24,30.29,10.14,30.29z M-7.68,29.94H9.97V17.29H-7.68V29.94z"/>
				</g>
				<g class="st7">
					<polygon class="st2" points="10.14,19.19 -7.86,25.61 -7.86,16.94 10.14,16.94 					"/>
				</g>
			</g>
			<g>
				<g>
					<rect x="13" y="17.11" class="st6" width="18" height="13"/>
					<path class="st4" d="M31,30.29H13c-0.1,0-0.17-0.08-0.17-0.17v-13c0-0.1,0.08-0.17,0.17-0.17h18c0.1,0,0.17,0.08,0.17,0.17v13
						C31.17,30.21,31.09,30.29,31,30.29z M13.17,29.94h17.65V17.29H13.17V29.94z"/>
				</g>
				<g class="st7">
					<polygon class="st2" points="31,19.19 13,25.61 13,16.94 31,16.94 					"/>
				</g>
			</g>
			<g>
				<g>
					<rect x="33.85" y="17.11" class="st6" width="18" height="13"/>
					<path class="st4" d="M51.85,30.29h-18c-0.1,0-0.17-0.08-0.17-0.17v-13c0-0.1,0.08-0.17,0.17-0.17h18c0.1,0,0.17,0.08,0.17,0.17
						v13C52.03,30.21,51.95,30.29,51.85,30.29z M34.03,29.94h17.65V17.29H34.03V29.94z"/>
				</g>
				<g class="st7">
					<polygon class="st2" points="51.85,19.19 33.85,25.61 33.85,16.94 51.85,16.94 					"/>
				</g>
			</g>
		</g>
	</g>
</g>
</svg>
