<?xml version="1.0" encoding="utf-8"?>
<!-- Generator: Adobe Illustrator 26.2.1, SVG Export Plug-In . SVG Version: 6.00 Build 0)  -->
<svg version="1.1" id="Layer_1" xmlns="http://www.w3.org/2000/svg" xmlns:xlink="http://www.w3.org/1999/xlink" x="0px" y="0px"
	 viewBox="0 0 43.99 43.99" style="enable-background:new 0 0 43.99 43.99;" xml:space="preserve">
<style type="text/css">
	.st0{fill:#71C1C2;}
	.st1{clip-path:url(#SVGID_00000165200925033869957050000002938335221240344252_);}
	.st2{fill:#FFFFFF;}
	.st3{fill:#010101;}
	.st4{opacity:0.15;}
	.st5{fill:#221F20;}
	.st6{opacity:0.5;fill:none;stroke:#000000;stroke-width:0.2;stroke-linecap:round;stroke-linejoin:round;stroke-miterlimit:10;}
	.st7{fill:#FFFFFF;stroke:#010101;stroke-width:0.35;stroke-linejoin:round;stroke-miterlimit:10;}
</style>
<g>
	<path class="st0" d="M41.65,43.99H2.34C1.05,43.99,0,42.95,0,41.65V2.34C0,1.05,1.05,0,2.34,0h39.31C42.95,0,44,1.05,44,2.34v39.31
		C44,42.95,42.95,43.99,41.65,43.99z"/>
</g>
<g>
	<defs>
		<rect id="SVGID_1_" x="15.5" y="3.06" width="12.99" height="40.93"/>
	</defs>
	<clipPath id="SVGID_00000086661328887365846350000001010544836188879790_">
		<use xlink:href="#SVGID_1_"  style="overflow:visible;"/>
	</clipPath>
	<g style="clip-path:url(#SVGID_00000086661328887365846350000001010544836188879790_);">
		<g>
			<path class="st2" d="M26.2,5.88h-8.42V44.7h0c0,0,0,0,0,0.01c0,0.64,1.88,1.16,4.21,1.16s4.21-0.52,4.21-1.16c0,0,0,0,0-0.01
				h0.01V5.88z"/>
			<path class="st3" d="M21.99,46.04c-2.16,0-4.35-0.45-4.38-1.32c0-0.01,0-0.02,0-0.02V5.88c0-0.1,0.08-0.17,0.17-0.17h8.42
				c0.1,0,0.17,0.08,0.17,0.17V44.7c0,0.01,0,0.03,0,0.04C26.31,45.59,24.14,46.04,21.99,46.04z M17.96,44.67c0,0.02,0,0.05,0,0.07
				c0,0.38,1.54,0.95,4.03,0.95c2.47,0,3.99-0.56,4.03-0.97c0-0.01,0-0.01,0-0.02c0-0.02,0-0.03,0.01-0.04V6.05h-8.07V44.67z"/>
		</g>
		<g>
			<ellipse class="st2" cx="21.99" cy="5.85" rx="4.21" ry="1.16"/>
			<path class="st3" d="M21.99,7.19c-2.18,0-4.38-0.46-4.38-1.34c0-0.88,2.2-1.34,4.38-1.34s4.38,0.46,4.38,1.34
				C26.37,6.73,24.17,7.19,21.99,7.19z M21.99,4.86c-2.5,0-4.03,0.58-4.03,0.99s1.53,0.99,4.03,0.99s4.03-0.57,4.03-0.99
				S24.49,4.86,21.99,4.86z"/>
		</g>
		<g>
			<ellipse class="st2" cx="21.99" cy="5.85" rx="3.34" ry="0.6"/>
			<path class="st3" d="M21.99,6.63c-0.36,0-3.51-0.02-3.51-0.77c0-0.75,3.15-0.78,3.51-0.78s3.51,0.02,3.51,0.78
				C25.51,6.61,22.35,6.63,21.99,6.63z M18.85,5.85c0.19,0.16,1.24,0.42,3.15,0.42s2.96-0.27,3.15-0.42
				c-0.19-0.16-1.24-0.43-3.15-0.43S19.03,5.7,18.85,5.85z"/>
		</g>
		<g class="st4">
			<ellipse class="st5" cx="21.99" cy="5.85" rx="3.34" ry="0.6"/>
		</g>
		<g>
			<path class="st6" d="M26.12,6.48c0,0.57-1.84,1.03-4.11,1.03s-4.11-0.46-4.11-1.03"/>
			<path class="st6" d="M26.12,7c0,0.57-1.84,1.03-4.11,1.03S17.89,7.56,17.89,7"/>
			<path class="st6" d="M26.12,7.51c0,0.57-1.84,1.03-4.11,1.03s-4.11-0.46-4.11-1.03"/>
			<path class="st6" d="M26.12,8.03c0,0.57-1.84,1.03-4.11,1.03s-4.11-0.46-4.11-1.03"/>
			<path class="st6" d="M26.12,8.55c0,0.57-1.84,1.03-4.11,1.03s-4.11-0.46-4.11-1.03"/>
			<path class="st6" d="M26.12,9.06c0,0.57-1.84,1.03-4.11,1.03s-4.11-0.46-4.11-1.03"/>
			<path class="st6" d="M26.12,9.58c0,0.57-1.84,1.03-4.11,1.03s-4.11-0.46-4.11-1.03"/>
		</g>
		<g>
			<path class="st2" d="M26.2,11.16c-0.39,0.28-0.93,0.51-1.53,0.58c-0.43,0.06-1.19,0.16-1.49,0.18c-0.31,0.02-0.55,0.27-0.55,0.58
				v7.74c0,0.33,0.27,0.6,0.61,0.58c0.46-0.02,0.91-0.03,1.64-0.21c0.73-0.18,1.33-0.65,1.33-0.65L26.2,11.16z"/>
			<path class="st3" d="M23.21,21c-0.2,0-0.38-0.07-0.52-0.21c-0.15-0.14-0.23-0.34-0.23-0.55V12.5c0-0.4,0.31-0.73,0.71-0.76
				c0.25-0.01,0.84-0.09,1.27-0.15l0.21-0.03c0.52-0.07,1.05-0.27,1.45-0.55c0.05-0.04,0.12-0.04,0.18-0.01
				c0.06,0.03,0.09,0.09,0.09,0.16l0.01,8.79c0,0.05-0.02,0.1-0.07,0.14c-0.03,0.02-0.64,0.5-1.4,0.69
				c-0.7,0.18-1.15,0.19-1.59,0.21l-0.09,0C23.23,21,23.22,21,23.21,21z M26.02,11.48c-0.4,0.22-0.87,0.38-1.33,0.44l-0.21,0.03
				c-0.44,0.06-1.03,0.13-1.29,0.15c-0.21,0.01-0.38,0.19-0.38,0.41v7.74c0,0.11,0.04,0.22,0.13,0.29c0.08,0.08,0.17,0.11,0.3,0.11
				l0.09,0c0.44-0.02,0.85-0.03,1.52-0.2c0.55-0.14,1.03-0.45,1.2-0.57L26.02,11.48z"/>
		</g>
		<g>
			<path class="st3" d="M22.69,20.41c-0.04,0-0.06,0-0.07,0l0-0.35c0.02,0,1.19,0.01,1.74-0.09c0.4-0.07,0.71-0.25,0.85-0.34v-8.02
				h0.35v8.11c0,0.05-0.03,0.11-0.07,0.14c-0.02,0.01-0.46,0.34-1.07,0.45C23.92,20.41,22.96,20.41,22.69,20.41z"/>
		</g>
		<g class="st4">
			<path class="st5" d="M22.63,20.24c0,0,1.2,0.01,1.78-0.1c0.58-0.1,0.99-0.42,0.99-0.42v-8.11l-1.82,0.29l-0.68,0.14l-0.27,0.46
				V20.24z"/>
		</g>
		<g>
			<path class="st7" d="M22.61,12.72"/>
		</g>
	</g>
</g>
</svg>
