<?xml version="1.0" encoding="utf-8"?>
<!-- Generator: Adobe Illustrator 26.2.1, SVG Export Plug-In . SVG Version: 6.00 Build 0)  -->
<svg version="1.1" id="Layer_1" xmlns="http://www.w3.org/2000/svg" xmlns:xlink="http://www.w3.org/1999/xlink" x="0px" y="0px"
	 viewBox="0 0 43.99 43.99" style="enable-background:new 0 0 43.99 43.99;" xml:space="preserve">
<style type="text/css">
	.st0{fill:#71C1C2;}
	.st1{fill:#FFFFFF;}
	.st2{fill:#010101;}
	.st3{opacity:0.15;}
	.st4{fill:#221F20;}
	.st5{clip-path:url(#SVGID_00000117654091799260228180000001614991742932148104_);}
	.st6{opacity:0.5;}
	.st7{clip-path:url(#SVGID_00000000926570179155936060000014365343843881852860_);}
</style>
<g>
	<path class="st0" d="M41.65,43.99H2.34C1.05,43.99,0,42.95,0,41.65V2.34C0,1.05,1.05,0,2.34,0h39.31C42.95,0,44,1.05,44,2.34v39.31
		C44,42.95,42.95,43.99,41.65,43.99z"/>
</g>
<g>
	<g>
		<polygon class="st1" points="34.15,30.97 23.91,26.3 23.77,19.73 20.18,17.89 20.17,7.66 34.19,14.49 		"/>
		<path class="st2" d="M34.15,31.15c-0.02,0-0.05,0-0.07-0.02l-10.23-4.67c-0.06-0.03-0.1-0.09-0.1-0.16l-0.15-6.46l-3.5-1.79
			c-0.06-0.03-0.1-0.09-0.1-0.16L19.99,7.66c0-0.06,0.03-0.12,0.08-0.15c0.05-0.03,0.11-0.04,0.17-0.01l14.02,6.84
			c0.06,0.03,0.1,0.09,0.1,0.16l-0.04,16.48c0,0.06-0.03,0.12-0.08,0.15C34.21,31.14,34.18,31.15,34.15,31.15z M24.09,26.18
			l9.89,4.52l0.04-16.09L20.34,7.94l0.01,9.85l3.49,1.79c0.06,0.03,0.09,0.09,0.1,0.15L24.09,26.18z"/>
	</g>
	<g>
		<g class="st3">
			<polygon class="st4" points="37.97,29.39 33.98,31.13 33.98,14.49 37.97,12.75 			"/>
		</g>
		<g>
			<path d="M34.2,14.71c-0.03,0-0.05-0.01-0.08-0.02L20.09,7.81c-0.06-0.03-0.1-0.09-0.1-0.16c0-0.07,0.04-0.13,0.1-0.16l3.81-1.9
				c0.05-0.03,0.11-0.02,0.16,0l14.04,6.96c0.06,0.03,0.1,0.09,0.1,0.16c0,0.07-0.04,0.13-0.1,0.16l-3.81,1.82
				C34.26,14.7,34.23,14.71,34.2,14.71z M20.56,7.65l13.64,6.69l3.41-1.63L23.98,5.95L20.56,7.65z"/>
		</g>
		<g>
			<rect x="19.99" y="7.65" width="0.35" height="10.17"/>
		</g>
		<g>
			<path d="M34.2,31.37c-0.03,0-0.05-0.01-0.08-0.02l-10.28-4.93l0.15-0.32L34.2,31l3.64-1.74V12.71h0.35v16.66
				c0,0.07-0.04,0.13-0.1,0.16l-3.81,1.82C34.26,31.37,34.23,31.37,34.2,31.37z"/>
		</g>
		<g>
			<rect x="34.03" y="14.54" width="0.35" height="16.21"/>
		</g>
	</g>
	<g>
		<defs>
			<polygon id="SVGID_1_" points="34.25,31.21 23.89,26.2 23.86,19.85 20.19,17.88 20.17,7.66 34.25,14.52 			"/>
		</defs>
		<clipPath id="SVGID_00000033361748608386696850000005362294589876061354_">
			<use xlink:href="#SVGID_1_"  style="overflow:visible;"/>
		</clipPath>
		<g style="clip-path:url(#SVGID_00000033361748608386696850000005362294589876061354_);">
			<g>
				<path d="M7.6,38.52c-0.05,0-0.1-0.04-0.1-0.1L7.24,21.72c-0.01-0.92-0.03-1.86,0.01-2.79c0.03-0.69,0.1-1.39,0.16-2.07
					c0.04-0.39,0.07-0.77,0.1-1.16c0.27-3.51,0.07-7.09-0.12-10.54c0-0.06,0.04-0.1,0.09-0.11c0.06,0,0.1,0.04,0.1,0.09
					c0.19,3.46,0.39,7.04,0.12,10.57c-0.03,0.39-0.07,0.77-0.1,1.16c-0.06,0.67-0.13,1.37-0.16,2.06c-0.04,0.92-0.03,1.87-0.01,2.78
					L7.7,38.42C7.7,38.48,7.66,38.52,7.6,38.52C7.6,38.52,7.6,38.52,7.6,38.52z"/>
			</g>
			<g>
				<path d="M9.42,38.56c-0.05,0-0.09-0.03-0.1-0.08c-0.22-1.39-0.46-2.83-0.44-4.28c0.01-0.71,0.08-1.42,0.15-2.11
					c0.09-0.91,0.18-1.84,0.13-2.76c-0.03-0.65-0.14-1.31-0.24-1.95c-0.08-0.48-0.15-0.98-0.2-1.47c-0.1-1.03-0.07-2.08-0.04-3.09
					l0.47-17.4c0-0.05,0.04-0.09,0.1-0.1c0.06,0,0.1,0.05,0.1,0.1l-0.47,17.4c-0.03,1.01-0.06,2.05,0.04,3.07
					c0.05,0.49,0.12,0.98,0.2,1.46c0.1,0.64,0.2,1.3,0.24,1.97c0.05,0.93-0.04,1.88-0.13,2.79c-0.07,0.69-0.13,1.39-0.14,2.09
					c-0.02,1.43,0.21,2.86,0.43,4.24c0.01,0.05-0.03,0.11-0.08,0.11C9.43,38.56,9.42,38.56,9.42,38.56z"/>
			</g>
			<g>
				<path d="M11.35,38.84c-0.05,0-0.09-0.03-0.1-0.08c-0.28-1.6-0.56-3.25-0.53-4.91c0.01-0.42,0.04-0.84,0.07-1.25
					c0.05-0.79,0.11-1.6,0.02-2.4c-0.06-0.5-0.18-1.01-0.29-1.49c-0.06-0.26-0.12-0.52-0.17-0.78c-0.21-1.02-0.29-2.07-0.36-3.08
					l-0.2-2.65c-0.06-0.77-0.12-1.56-0.1-2.35c0.04-1.17,0.27-2.34,0.49-3.48l0.07-0.35c0.54-2.79,1.21-6.92,0.89-10.71
					c0-0.06,0.04-0.1,0.09-0.11c0.06,0,0.1,0.04,0.11,0.09c0.32,3.81-0.36,7.97-0.9,10.76l-0.07,0.35
					c-0.22,1.12-0.44,2.29-0.48,3.44c-0.02,0.78,0.04,1.57,0.09,2.33l0.2,2.65c0.08,1.01,0.16,2.05,0.36,3.06
					c0.05,0.26,0.11,0.52,0.17,0.78c0.12,0.49,0.23,1,0.29,1.52c0.09,0.81,0.04,1.64-0.02,2.43c-0.03,0.4-0.06,0.82-0.06,1.23
					c-0.03,1.64,0.25,3.29,0.52,4.88c0.01,0.05-0.03,0.11-0.08,0.12C11.36,38.84,11.35,38.84,11.35,38.84z"/>
			</g>
			<g>
				<path d="M12.93,38.79c0,0-0.01,0-0.02,0c-0.05-0.01-0.09-0.06-0.08-0.11c0.22-1.47,0.09-2.99-0.04-4.46
					c-0.13-1.45-0.26-2.94-0.05-4.4c0.04-0.3,0.1-0.6,0.15-0.9c0.1-0.52,0.2-1.06,0.22-1.59c0.05-1.27-0.37-2.52-0.78-3.73
					c-0.18-0.54-0.37-1.1-0.51-1.66c-0.75-2.9-0.39-6.1,0.99-8.76l0.1-0.19c0.21-0.39,0.42-0.79,0.48-1.22
					c0.06-0.43-0.03-0.87-0.12-1.31l-0.01-0.04c-0.24-1.14-0.37-2.62-0.48-3.94c-0.04-0.49-0.08-0.96-0.13-1.38
					c-0.01-0.05,0.03-0.1,0.09-0.11c0.05,0,0.1,0.04,0.11,0.09c0.04,0.42,0.08,0.89,0.13,1.38c0.11,1.31,0.24,2.79,0.48,3.92
					l0.01,0.04c0.09,0.45,0.19,0.91,0.12,1.37c-0.07,0.47-0.29,0.89-0.5,1.29l-0.1,0.18c-1.36,2.62-1.72,5.76-0.98,8.61
					c0.14,0.55,0.33,1.11,0.51,1.65c0.41,1.22,0.83,2.49,0.79,3.8c-0.02,0.55-0.12,1.09-0.22,1.62c-0.05,0.29-0.11,0.59-0.15,0.89
					c-0.2,1.44-0.07,2.92,0.05,4.36c0.13,1.48,0.26,3.02,0.04,4.51C13.02,38.76,12.97,38.79,12.93,38.79z"/>
			</g>
			<g>
				<path d="M14.78,39.02c-0.05,0-0.09-0.03-0.1-0.08c-0.43-2.36-0.26-4.8-0.1-7.16c0.11-1.61,0.22-3.27,0.15-4.9
					c-0.01-0.15-0.01-0.29-0.02-0.44c-0.06-1.17-0.13-2.37,0.41-3.41c0.12-0.23,0.27-0.45,0.42-0.66c0.15-0.21,0.3-0.43,0.41-0.66
					c0.47-0.92,0.44-2.03,0.36-3.09c-0.26-3.37-0.76-6.55-1.51-9.47c-0.25-0.98-0.63-2.82-0.31-4.09c0.01-0.05,0.07-0.08,0.12-0.07
					c0.05,0.01,0.09,0.07,0.07,0.12c-0.3,1.22,0.07,3.02,0.31,3.99c0.75,2.93,1.26,6.12,1.51,9.5c0.08,1.09,0.12,2.23-0.38,3.2
					c-0.12,0.24-0.28,0.46-0.43,0.68c-0.14,0.21-0.29,0.42-0.41,0.64c-0.52,0.99-0.45,2.16-0.39,3.3c0.01,0.15,0.02,0.3,0.02,0.44
					c0.08,1.64-0.04,3.31-0.15,4.92c-0.16,2.35-0.32,4.77,0.1,7.11c0.01,0.05-0.03,0.11-0.08,0.12
					C14.79,39.02,14.79,39.02,14.78,39.02z"/>
			</g>
			<g>
				<path d="M14.22,23.59c-0.04,0-0.07-0.02-0.09-0.05c-1.33-2.28-1.58-5.13-0.69-7.62l0,0c0.02-0.06,0.05-0.13,0.07-0.21
					c0.14-0.42,0.31-0.95,0.68-1.09c0.05-0.02,0.1,0,0.13,0.05c0.19,0.37,0.35,0.78,0.46,1.1c0.7,1.89,0.27,4.05-0.08,5.78
					l-0.39,1.97c-0.01,0.04-0.04,0.07-0.08,0.08C14.23,23.59,14.22,23.59,14.22,23.59z M13.63,15.99L13.63,15.99
					c-0.84,2.35-0.64,5.02,0.54,7.22l0.34-1.7c0.34-1.71,0.77-3.83,0.08-5.67c-0.1-0.29-0.24-0.65-0.41-0.99
					c-0.24,0.16-0.38,0.6-0.49,0.92C13.67,15.85,13.65,15.92,13.63,15.99z"/>
			</g>
			<g>
				<path d="M13.9,20.35c-0.04,0-0.08-0.02-0.09-0.06c-0.26-0.67-0.09-1.39,0.07-2.07c0.11-0.48,0.23-0.98,0.2-1.46
					c0-0.06,0.04-0.1,0.09-0.11c0.05-0.01,0.1,0.04,0.11,0.09c0.03,0.51-0.09,1.02-0.2,1.52c-0.16,0.69-0.31,1.34-0.08,1.96
					c0.02,0.05-0.01,0.11-0.06,0.13C13.93,20.34,13.91,20.35,13.9,20.35z"/>
			</g>
			<g>
				<path d="M18.1,38.69C18.1,38.69,18.1,38.69,18.1,38.69c-0.06,0-0.1-0.05-0.1-0.1c0.06-1.2-0.03-2.43-0.11-3.62
					c-0.11-1.51-0.23-3.08-0.03-4.61c0.08-0.58,0.2-1.17,0.32-1.73c0.06-0.31,0.13-0.62,0.19-0.93c0.48-2.56,0.47-5.2,0.43-7.48
					c-0.09-4.94-0.44-9.93-1.03-14.84c-0.01-0.05,0.03-0.1,0.09-0.11c0.06,0,0.1,0.03,0.11,0.09c0.59,4.91,0.94,9.91,1.03,14.86
					c0.04,2.29,0.05,4.95-0.43,7.52c-0.06,0.31-0.12,0.62-0.19,0.93c-0.12,0.56-0.24,1.14-0.32,1.72c-0.2,1.51-0.08,3.07,0.03,4.57
					c0.09,1.19,0.18,2.43,0.12,3.64C18.2,38.65,18.15,38.69,18.1,38.69z"/>
			</g>
			<g class="st6">
				<path d="M19.87,38.66c-0.05,0-0.09-0.03-0.1-0.08c-0.28-1.2-0.17-2.45-0.06-3.66c0.05-0.55,0.1-1.12,0.11-1.67
					c0.02-0.77-0.04-1.55-0.09-2.31c-0.08-1.24-0.17-2.52,0.05-3.76c0.07-0.38,0.16-0.76,0.26-1.13c0.13-0.52,0.27-1.05,0.32-1.59
					c0.05-0.5,0.03-1.02,0-1.52c-0.02-0.37-0.03-0.76-0.02-1.14c0.02-0.48,0.08-0.96,0.14-1.43c0.08-0.58,0.15-1.18,0.14-1.77
					c-0.02-0.64-0.14-1.28-0.26-1.9c-0.04-0.22-0.09-0.45-0.12-0.67c-0.27-1.6-0.31-3.25-0.35-4.84c-0.05-1.92-0.09-3.9-0.55-5.78
					c-0.01-0.05,0.02-0.11,0.07-0.12c0.06-0.01,0.11,0.02,0.12,0.07c0.46,1.91,0.51,3.9,0.55,5.82c0.04,1.59,0.08,3.23,0.35,4.81
					c0.04,0.22,0.08,0.44,0.12,0.67c0.12,0.63,0.25,1.28,0.26,1.93c0.01,0.6-0.06,1.21-0.14,1.8c-0.06,0.46-0.12,0.94-0.14,1.41
					c-0.01,0.37,0.01,0.76,0.02,1.13c0.02,0.51,0.05,1.03,0,1.55c-0.05,0.55-0.19,1.09-0.32,1.62c-0.09,0.36-0.19,0.74-0.25,1.12
					c-0.21,1.22-0.13,2.49-0.04,3.71c0.05,0.76,0.11,1.55,0.09,2.33c-0.01,0.56-0.06,1.13-0.11,1.69c-0.11,1.19-0.22,2.43,0.06,3.6
					c0.01,0.05-0.02,0.11-0.07,0.12C19.89,38.66,19.88,38.66,19.87,38.66z"/>
			</g>
			<g class="st6">
				<path d="M21.67,38.7c-0.05,0-0.09-0.03-0.1-0.08c-0.33-1.48-0.49-3-0.47-4.52c0.01-0.45,0.03-0.9,0.05-1.33
					c0.03-0.56,0.06-1.14,0.05-1.71c0-0.53-0.04-1.07-0.07-1.59c-0.06-0.97-0.12-1.97,0-2.95c0.08-0.62,0.23-1.23,0.37-1.83
					c0.05-0.21,0.1-0.43,0.15-0.64c0.76-3.34,0.74-6.86-0.07-10.19c-0.05-0.19-0.09-0.38-0.14-0.57c-0.18-0.71-0.37-1.45-0.42-2.2
					c-0.06-0.88,0.08-1.77,0.21-2.62c0.15-0.96,0.3-1.94,0.18-2.91c-0.01-0.05,0.03-0.1,0.09-0.11c0.06,0,0.1,0.03,0.11,0.09
					c0.13,0.99-0.03,1.99-0.18,2.96c-0.13,0.85-0.27,1.72-0.21,2.58c0.05,0.73,0.23,1.46,0.41,2.16c0.05,0.19,0.1,0.38,0.14,0.57
					c0.81,3.36,0.84,6.91,0.07,10.28c-0.05,0.22-0.1,0.43-0.15,0.65c-0.14,0.59-0.29,1.2-0.37,1.8c-0.12,0.96-0.06,1.96,0,2.91
					c0.03,0.53,0.07,1.07,0.07,1.6c0,0.58-0.03,1.16-0.05,1.72c-0.02,0.43-0.05,0.88-0.05,1.33c-0.02,1.5,0.13,3.01,0.46,4.47
					c0.01,0.05-0.02,0.11-0.08,0.12C21.69,38.7,21.68,38.7,21.67,38.7z"/>
			</g>
			<g class="st6">
				<path d="M23.78,38.84c-0.04,0-0.08-0.02-0.09-0.06c-0.34-0.86-0.24-1.93,0.3-3.17c0.14-0.31,0.29-0.62,0.44-0.93
					c0.32-0.64,0.64-1.29,0.81-1.99c0.31-1.27,0.08-2.61-0.11-3.8c-0.11-0.67-0.23-1.36-0.46-2.02c-0.06-0.16-0.12-0.31-0.18-0.46
					c-0.12-0.3-0.25-0.61-0.32-0.93c-0.13-0.55-0.1-1.12-0.08-1.67c0.01-0.23,0.02-0.48,0.02-0.71c-0.01-0.85-0.17-1.71-0.33-2.54
					c-0.12-0.65-0.25-1.32-0.31-1.99c-0.04-0.56-0.04-1.12-0.03-1.67c0.01-0.63,0.01-1.28-0.06-1.91c-0.05-0.41-0.13-0.83-0.21-1.23
					c-0.07-0.37-0.15-0.76-0.2-1.14c-0.15-1.18-0.05-2.39,0.05-3.56l0.3-3.71c0-0.06,0.04-0.1,0.11-0.09c0.05,0,0.1,0.05,0.09,0.11
					l-0.3,3.71c-0.09,1.16-0.19,2.35-0.05,3.52c0.05,0.38,0.12,0.76,0.19,1.13c0.08,0.41,0.16,0.83,0.21,1.25
					c0.07,0.64,0.07,1.3,0.06,1.93c-0.01,0.54-0.01,1.1,0.03,1.65c0.05,0.66,0.18,1.33,0.31,1.97c0.16,0.84,0.33,1.71,0.33,2.58
					c0,0.24-0.01,0.49-0.02,0.72c-0.02,0.54-0.05,1.09,0.07,1.61c0.07,0.31,0.19,0.61,0.31,0.9c0.06,0.16,0.13,0.31,0.18,0.47
					c0.24,0.67,0.36,1.38,0.47,2.06c0.2,1.21,0.43,2.58,0.11,3.88c-0.17,0.72-0.5,1.38-0.82,2.03c-0.15,0.3-0.3,0.61-0.44,0.92
					c-0.52,1.2-0.62,2.21-0.3,3.02c0.02,0.05,0,0.11-0.06,0.13C23.81,38.84,23.8,38.84,23.78,38.84z"/>
			</g>
			<g>
				<path d="M22.83,36.08C22.83,36.08,22.83,36.08,22.83,36.08c-0.05,0-0.09-0.04-0.1-0.08c-0.47-2.63-0.85-6.52,0.02-10.09
					c0.01-0.04,0.05-0.07,0.1-0.08c0.04,0,0.08,0.03,0.1,0.07c0.17,0.54,0.39,1.08,0.62,1.6c0.32,0.74,0.64,1.51,0.8,2.3
					c0.19,0.93,0.09,1.98-0.3,3.21c-0.18,0.57-0.4,1.13-0.62,1.67c-0.17,0.44-0.35,0.88-0.51,1.33
					C22.91,36.05,22.88,36.08,22.83,36.08z M22.87,26.29c-0.72,3.28-0.42,6.78,0,9.29c0.12-0.33,0.25-0.66,0.38-0.99
					c0.22-0.54,0.44-1.1,0.62-1.66c0.38-1.2,0.48-2.21,0.3-3.11c-0.15-0.77-0.48-1.53-0.79-2.26C23.2,27.15,23.02,26.73,22.87,26.29
					z"/>
			</g>
			<g>
				<path d="M23.37,32.06c-0.05,0-0.09-0.04-0.1-0.08c-0.14-0.94-0.21-1.9-0.23-2.85c0-0.05,0.04-0.1,0.1-0.1c0,0,0,0,0,0
					c0.05,0,0.1,0.04,0.1,0.1c0.01,0.94,0.09,1.89,0.23,2.83c0.01,0.05-0.03,0.11-0.08,0.11C23.38,32.06,23.37,32.06,23.37,32.06z"
					/>
			</g>
			<g class="st6">
				<path d="M25.91,38.57c-0.04,0-0.08-0.02-0.09-0.06c-0.52-1.19-0.21-2.5,0.1-3.77c0.09-0.38,0.18-0.76,0.25-1.14
					c0.19-1.04,0.19-2.09,0.17-2.98c-0.05-2.15-0.3-4.32-0.54-6.42c-0.15-1.27-0.3-2.58-0.4-3.88c-0.4-4.94-0.19-9.98,0.02-14.85
					c0-0.05,0.05-0.09,0.1-0.1c0.06,0,0.1,0.05,0.1,0.1c-0.21,4.87-0.42,9.9-0.02,14.83c0.11,1.29,0.26,2.6,0.4,3.87
					c0.24,2.11,0.49,4.28,0.54,6.44c0.02,0.9,0.02,1.96-0.17,3.02c-0.07,0.38-0.16,0.77-0.25,1.15c-0.3,1.23-0.6,2.51-0.11,3.64
					c0.02,0.05,0,0.11-0.05,0.13C25.93,38.57,25.92,38.57,25.91,38.57z"/>
			</g>
			<g class="st6">
				<path d="M27.6,38.49c-0.04,0-0.08-0.03-0.1-0.07c-0.36-1.12-0.2-2.31-0.05-3.46c0.02-0.19,0.05-0.38,0.07-0.57
					c0.3-2.55,0.16-5.16,0.02-7.69c-0.08-1.43-0.16-2.91-0.16-4.37c0-0.55,0.01-1.11,0.02-1.65c0.02-1.1,0.05-2.24-0.03-3.36
					c-0.04-0.64-0.12-1.29-0.19-1.92c-0.09-0.75-0.18-1.52-0.21-2.29c-0.06-1.29,0.04-2.59,0.13-3.85l0.28-3.88
					c0-0.05,0.05-0.09,0.11-0.09c0.06,0,0.1,0.05,0.09,0.11l-0.28,3.87c-0.09,1.26-0.19,2.56-0.13,3.83
					c0.03,0.76,0.12,1.53,0.21,2.28c0.07,0.63,0.15,1.28,0.19,1.93c0.07,1.12,0.05,2.27,0.03,3.37c-0.01,0.54-0.02,1.1-0.02,1.64
					c0,1.45,0.08,2.93,0.16,4.36c0.14,2.54,0.28,5.16-0.02,7.72c-0.02,0.19-0.05,0.38-0.07,0.57c-0.15,1.13-0.3,2.3,0.04,3.38
					c0.02,0.05-0.01,0.11-0.06,0.13C27.62,38.48,27.61,38.49,27.6,38.49z"/>
			</g>
			<g class="st6">
				<path d="M28.84,38.75C28.84,38.75,28.84,38.75,28.84,38.75c-0.06,0-0.1-0.05-0.1-0.1l0.74-15.3c0.09-1.86,0.18-3.78-0.03-5.65
					c-0.09-0.76-0.23-1.53-0.36-2.27c-0.12-0.66-0.25-1.35-0.33-2.03c-0.35-2.74-0.12-5.52,0.09-8.21c0-0.05,0.05-0.09,0.1-0.09
					c0,0,0.01,0,0.01,0c0.05,0,0.1,0.05,0.09,0.11c-0.22,2.68-0.44,5.45-0.1,8.17c0.09,0.68,0.21,1.36,0.33,2.02
					c0.14,0.75,0.28,1.52,0.36,2.28c0.22,1.89,0.12,3.82,0.03,5.69l-0.74,15.3C28.94,38.71,28.89,38.75,28.84,38.75z"/>
			</g>
			<g>
				<path d="M32.27,11.97L32.27,11.97c-0.05,0-0.09-0.04-0.1-0.08c-0.07-0.46-0.3-0.88-0.53-1.29c-0.08-0.14-0.15-0.28-0.22-0.42
					c-0.78-1.56-0.9-3.47-0.32-5.11c0.02-0.05,0.08-0.08,0.13-0.06c0.05,0.02,0.08,0.08,0.06,0.13c-0.56,1.59-0.45,3.45,0.31,4.96
					c0.07,0.14,0.14,0.27,0.22,0.41c0.16,0.29,0.32,0.58,0.43,0.9l0.18-1.07c0.09-0.52,0.2-1.01,0.57-1.32
					c0.11-0.1,0.25-0.17,0.38-0.24c0.18-0.1,0.36-0.2,0.46-0.35c0.11-0.17,0.12-0.39,0.14-0.59l0.18-2.72c0-0.05,0.05-0.09,0.1-0.09
					c0,0,0,0,0.01,0c0.06,0,0.1,0.05,0.09,0.11l-0.18,2.72C34.16,8.05,34.14,8.32,34,8.53c-0.13,0.2-0.33,0.31-0.53,0.42
					c-0.12,0.07-0.24,0.13-0.34,0.22c-0.32,0.27-0.42,0.72-0.5,1.2l-0.26,1.52C32.36,11.93,32.32,11.97,32.27,11.97z"/>
			</g>
			<g>
				<path d="M32.13,8.69C32.12,8.69,32.12,8.69,32.13,8.69c-0.05,0-0.08-0.03-0.09-0.06l-0.31-0.75c-0.05-0.12-0.11-0.26-0.13-0.41
					c-0.05-0.31,0.03-0.6,0.11-0.89c0.02-0.07,0.04-0.14,0.06-0.21c0.1-0.39,0.13-0.79,0.08-1.19c-0.01-0.05,0.03-0.1,0.09-0.11
					c0.07,0,0.1,0.04,0.11,0.09c0.05,0.43,0.02,0.85-0.09,1.26c-0.02,0.07-0.04,0.15-0.06,0.22c-0.08,0.28-0.15,0.54-0.11,0.8
					c0.02,0.13,0.07,0.25,0.12,0.37l0.24,0.58c0.08-0.11,0.17-0.21,0.26-0.31c0.11-0.12,0.22-0.24,0.31-0.37
					C33.2,7,33.2,6.06,33.15,5.08c0-0.06,0.04-0.1,0.1-0.1c0.06,0,0.1,0.04,0.1,0.09c0.05,1.02,0.05,1.99-0.48,2.75
					c-0.1,0.14-0.21,0.27-0.32,0.39c-0.13,0.14-0.25,0.28-0.35,0.43C32.19,8.67,32.16,8.69,32.13,8.69z"/>
			</g>
			<g class="st6">
				<path d="M35.03,38.93c0,0-0.01,0-0.01,0c-0.05-0.01-0.09-0.06-0.09-0.11c0.2-1.58-0.3-3.08-0.84-4.67
					c-0.34-1-0.69-2.04-0.83-3.1c-0.08-0.6-0.1-1.22-0.12-1.82l-0.01-0.31c-0.05-1.45-0.17-2.93-0.28-4.37
					c-0.33-4.2-0.67-8.54,0.61-12.58c0.13-0.39,0.27-0.79,0.41-1.17c0.17-0.48,0.35-0.98,0.5-1.47c0.38-1.29,0.55-2.63,0.51-3.98
					c0-0.06,0.04-0.1,0.1-0.1c0.06,0,0.1,0.04,0.1,0.1c0.04,1.37-0.14,2.73-0.52,4.04c-0.15,0.5-0.33,1-0.5,1.48
					c-0.14,0.38-0.28,0.77-0.4,1.17c-1.27,4.01-0.93,8.33-0.6,12.51c0.11,1.44,0.23,2.93,0.28,4.38l0.01,0.31
					c0.02,0.59,0.04,1.2,0.12,1.79c0.14,1.04,0.49,2.06,0.82,3.06c0.52,1.54,1.05,3.13,0.84,4.75
					C35.12,38.89,35.08,38.93,35.03,38.93z"/>
			</g>
			<g>
				<path d="M34.23,38.83C34.23,38.83,34.23,38.83,34.23,38.83c-0.06,0-0.1-0.05-0.1-0.11c0.05-0.76,0.1-1.62-0.21-2.36
					c-0.11-0.26-0.26-0.51-0.41-0.75c-0.19-0.31-0.39-0.62-0.5-0.98c-0.09-0.28-0.11-0.55-0.14-0.83c-0.03-0.31-0.05-0.6-0.16-0.88
					c-0.04,0.11-0.07,0.21-0.11,0.31c-0.09,0.28-0.18,0.52-0.34,0.77c-0.07,0.1-0.14,0.21-0.21,0.31c-0.19,0.28-0.37,0.54-0.48,0.84
					c-0.02,0.06-0.04,0.12-0.06,0.18c-0.07,0.23-0.14,0.47-0.34,0.63c-0.05,0.04-0.11,0.08-0.17,0.11c-0.08,0.05-0.16,0.09-0.2,0.16
					c-0.07,0.1-0.06,0.24-0.05,0.37c0.05,0.66,0.19,1.31,0.4,1.93c0.02,0.05-0.01,0.11-0.06,0.13c-0.05,0.02-0.11-0.01-0.13-0.06
					c-0.21-0.64-0.35-1.31-0.41-1.98c-0.01-0.16-0.02-0.35,0.08-0.5c0.07-0.1,0.17-0.16,0.27-0.22c0.05-0.03,0.1-0.06,0.14-0.1
					c0.15-0.12,0.21-0.32,0.28-0.53c0.02-0.06,0.04-0.13,0.06-0.19c0.12-0.32,0.31-0.61,0.5-0.88c0.07-0.1,0.14-0.2,0.2-0.3
					c0.15-0.23,0.23-0.46,0.32-0.73c0.05-0.16,0.11-0.33,0.19-0.53c0.01-0.04,0.05-0.06,0.09-0.06c0.04,0,0.07,0.02,0.09,0.05
					c0.22,0.37,0.25,0.77,0.29,1.16c0.02,0.26,0.05,0.53,0.13,0.78c0.1,0.33,0.29,0.62,0.48,0.93c0.15,0.25,0.31,0.5,0.43,0.78
					c0.33,0.79,0.27,1.67,0.23,2.45C34.33,38.79,34.28,38.83,34.23,38.83z"/>
			</g>
			<g>
				<path d="M33.3,38.65c0,0-0.01,0-0.01,0c-0.05-0.01-0.09-0.06-0.09-0.11c0.07-0.54-0.04-1.1-0.3-1.57
					c-0.07-0.12-0.15-0.25-0.23-0.37c-0.13-0.2-0.27-0.4-0.36-0.63c-0.05,0.16-0.12,0.32-0.18,0.47c-0.07,0.16-0.14,0.33-0.19,0.5
					c-0.15,0.49-0.17,1.04-0.04,1.54c0.01,0.05-0.02,0.11-0.07,0.12c-0.06,0.01-0.11-0.02-0.12-0.07c-0.14-0.54-0.12-1.11,0.04-1.64
					c0.05-0.18,0.12-0.35,0.19-0.52c0.12-0.29,0.23-0.55,0.26-0.84c0.01-0.05,0.06-0.09,0.1-0.09c0.05,0,0.09,0.04,0.1,0.09
					c0.02,0.35,0.22,0.64,0.43,0.96c0.08,0.12,0.17,0.25,0.24,0.38c0.29,0.51,0.4,1.12,0.32,1.7C33.39,38.61,33.35,38.65,33.3,38.65
					z"/>
			</g>
			<g>
				<path d="M36.13,38.68C36.12,38.68,36.12,38.68,36.13,38.68c-0.06,0-0.1-0.05-0.1-0.11c0.11-1.46-0.13-2.95-0.36-4.38
					c-0.06-0.38-0.12-0.76-0.18-1.14c-0.19-1.33-0.31-2.68-0.35-4.01c-0.01-0.24-0.01-0.48-0.02-0.72
					c-0.01-0.51-0.02-1.04-0.06-1.56c-0.07-1.01-0.24-2.02-0.4-3.01c-0.17-1.02-0.34-2.07-0.4-3.12c-0.18-2.72,0.34-5.45,0.84-8.09
					c0.45-2.38,0.91-4.83,0.87-7.28c0-0.06,0.04-0.1,0.1-0.1c0,0,0,0,0,0c0.05,0,0.1,0.04,0.1,0.1c0.04,2.46-0.42,4.93-0.87,7.32
					c-0.5,2.63-1.01,5.35-0.84,8.04c0.07,1.04,0.24,2.09,0.4,3.1c0.16,0.99,0.33,2.01,0.4,3.03c0.04,0.52,0.05,1.06,0.06,1.57
					c0.01,0.24,0.01,0.48,0.02,0.72c0.04,1.33,0.16,2.67,0.35,3.99c0.05,0.38,0.11,0.76,0.18,1.14c0.23,1.45,0.47,2.94,0.36,4.43
					C36.22,38.64,36.18,38.68,36.13,38.68z"/>
			</g>
			<g>
				<path d="M37.59,39.61c-0.05,0-0.09-0.03-0.1-0.08c-0.17-1.04-0.17-2.12-0.16-3.15l0-0.36c0.02-3.97-0.26-7.99-0.83-11.92
					l-0.02-0.17c-0.13-0.87-0.26-1.77-0.17-2.66c0.04-0.47,0.15-0.93,0.25-1.38c0.07-0.29,0.13-0.6,0.18-0.9
					c0.13-0.77,0.15-1.57,0.16-2.34l0.27-11.41c0-0.05,0.05-0.1,0.1-0.1c0,0,0,0,0,0c0.06,0,0.1,0.05,0.1,0.1L37.1,16.66
					c-0.02,0.78-0.04,1.59-0.17,2.37c-0.05,0.31-0.12,0.61-0.19,0.91c-0.1,0.44-0.2,0.9-0.24,1.36c-0.08,0.87,0.05,1.75,0.17,2.61
					l0.02,0.17c0.57,3.95,0.85,7.96,0.83,11.95l0,0.36c-0.01,1.03-0.01,2.09,0.16,3.12c0.01,0.05-0.03,0.11-0.08,0.12
					C37.6,39.61,37.59,39.61,37.59,39.61z"/>
			</g>
			<g>
				<path d="M38.7,38.47c-0.01,0-0.01,0-0.02,0c-0.05-0.01-0.09-0.06-0.08-0.12c0.26-1.42,0.53-2.89,0.35-4.35
					c-0.03-0.21-0.06-0.41-0.09-0.62c-0.05-0.29-0.1-0.59-0.12-0.89c-0.04-0.58,0.01-1.16,0.06-1.73c0.02-0.27,0.05-0.56,0.06-0.84
					c0.07-1.38-0.14-2.77-0.34-4.12c-0.05-0.34-0.1-0.69-0.15-1.03c-0.11-0.8-0.21-1.72-0.07-2.61c0.04-0.25,0.1-0.49,0.16-0.73
					c0.09-0.35,0.17-0.71,0.2-1.07c0.03-0.47-0.05-0.95-0.12-1.42c-0.02-0.12-0.04-0.25-0.06-0.37c-0.16-1.07-0.17-2.14-0.17-3.33
					c-0.01-3.25,0.06-6.55,0.12-9.75c0-0.05,0.05-0.1,0.1-0.1c0,0,0,0,0,0c0.06,0,0.1,0.05,0.1,0.1c-0.06,3.19-0.13,6.5-0.12,9.75
					c0,1.18,0.02,2.24,0.17,3.3c0.02,0.12,0.04,0.25,0.06,0.37c0.08,0.48,0.16,0.97,0.12,1.47c-0.02,0.38-0.12,0.75-0.2,1.11
					c-0.06,0.23-0.12,0.47-0.16,0.71c-0.14,0.86-0.04,1.77,0.07,2.55c0.05,0.34,0.1,0.69,0.15,1.03c0.2,1.36,0.41,2.76,0.34,4.16
					c-0.01,0.28-0.04,0.57-0.06,0.85c-0.05,0.56-0.1,1.13-0.06,1.69c0.02,0.29,0.07,0.59,0.12,0.87c0.03,0.21,0.07,0.42,0.09,0.63
					c0.18,1.49-0.09,2.97-0.36,4.41C38.79,38.44,38.75,38.47,38.7,38.47z"/>
			</g>
		</g>
	</g>
	<g>
		<polygon class="st1" points="20.04,38 5.98,31.35 6.05,14.69 20.08,21.52 		"/>
		<path class="st2" d="M20.04,38.18c-0.03,0-0.05,0-0.07-0.02L5.9,31.51c-0.06-0.03-0.1-0.09-0.1-0.16l0.08-16.67
			c0-0.06,0.03-0.12,0.08-0.15c0.05-0.03,0.12-0.04,0.17-0.01l14.03,6.84c0.06,0.03,0.1,0.09,0.1,0.16L20.21,38
			c0,0.06-0.03,0.12-0.08,0.15C20.1,38.17,20.07,38.18,20.04,38.18z M6.15,31.24l13.71,6.48l0.04-16.09L6.23,14.96L6.15,31.24z"/>
	</g>
	<g>
		<g class="st3">
			<polygon class="st4" points="23.86,36.43 19.87,38.17 19.87,21.52 23.86,19.78 			"/>
		</g>
		<g>
			<path d="M20.09,21.74c-0.03,0-0.05-0.01-0.08-0.02L5.98,14.84c-0.06-0.03-0.1-0.09-0.1-0.16c0-0.07,0.04-0.13,0.1-0.16l3.81-1.9
				c0.05-0.03,0.11-0.02,0.16,0l14.04,6.96c0.06,0.03,0.1,0.09,0.1,0.16c0,0.07-0.04,0.13-0.1,0.16l-3.81,1.82
				C20.15,21.73,20.12,21.74,20.09,21.74z M6.45,14.68l13.64,6.69l3.41-1.63L9.87,12.98L6.45,14.68z"/>
		</g>
		<g>
			<path d="M20.09,38.4c-0.03,0-0.05-0.01-0.08-0.02L5.98,31.5c-0.06-0.03-0.1-0.09-0.1-0.16l0-16.66h0.35l0,16.55l13.86,6.8
				l3.64-1.74V19.74h0.35v16.66c0,0.07-0.04,0.13-0.1,0.16l-3.81,1.82C20.15,38.4,20.12,38.4,20.09,38.4z"/>
		</g>
		<g>
			<rect x="19.92" y="21.57" width="0.35" height="16.21"/>
		</g>
	</g>
	<g>
		<defs>
			<polygon id="SVGID_00000109716823642875480530000005305127742816190889_" points="20.14,38.24 6.06,31.38 6.06,14.69 
				20.14,21.55 			"/>
		</defs>
		<clipPath id="SVGID_00000163065967447345074560000009675889984947388590_">
			<use xlink:href="#SVGID_00000109716823642875480530000005305127742816190889_"  style="overflow:visible;"/>
		</clipPath>
		<g style="clip-path:url(#SVGID_00000163065967447345074560000009675889984947388590_);">
			<g>
				<path d="M-3.17,37.71c-0.05,0-0.1-0.04-0.1-0.1l-0.26-16.71c-0.01-0.92-0.03-1.86,0.01-2.79c0.03-0.69,0.1-1.39,0.16-2.07
					c0.04-0.39,0.07-0.77,0.1-1.16c0.27-3.51,0.07-7.09-0.12-10.54c0-0.06,0.04-0.1,0.09-0.11c0.06,0,0.1,0.04,0.1,0.09
					c0.19,3.46,0.39,7.04,0.12,10.57c-0.03,0.39-0.07,0.77-0.1,1.16c-0.06,0.67-0.13,1.37-0.16,2.06c-0.04,0.93-0.03,1.87-0.01,2.78
					l0.26,16.71C-3.07,37.67-3.11,37.71-3.17,37.71C-3.17,37.71-3.17,37.71-3.17,37.71z"/>
			</g>
			<g>
				<path d="M-1.36,37.76c-0.05,0-0.09-0.03-0.1-0.08c-0.22-1.39-0.46-2.83-0.44-4.28c0.01-0.71,0.08-1.42,0.15-2.11
					c0.09-0.91,0.18-1.84,0.13-2.76c-0.03-0.65-0.14-1.31-0.24-1.94c-0.08-0.48-0.15-0.98-0.2-1.47c-0.1-1.03-0.07-2.08-0.04-3.09
					l0.47-17.4c0-0.05,0.05-0.1,0.1-0.1c0,0,0,0,0,0c0.06,0,0.1,0.05,0.1,0.1l-0.47,17.4c-0.03,1.01-0.06,2.05,0.04,3.07
					c0.05,0.49,0.12,0.98,0.2,1.46c0.1,0.64,0.2,1.3,0.24,1.96c0.05,0.93-0.04,1.88-0.13,2.79c-0.07,0.69-0.13,1.39-0.14,2.09
					c-0.02,1.43,0.21,2.86,0.43,4.24c0.01,0.05-0.03,0.11-0.08,0.11C-1.35,37.76-1.35,37.76-1.36,37.76z"/>
			</g>
			<g>
				<path d="M0.57,38.04c-0.05,0-0.09-0.03-0.1-0.08c-0.28-1.6-0.56-3.25-0.53-4.91c0.01-0.42,0.04-0.84,0.07-1.25
					c0.05-0.79,0.11-1.6,0.02-2.4c-0.06-0.5-0.18-1.01-0.29-1.49c-0.06-0.26-0.12-0.52-0.17-0.78c-0.21-1.02-0.29-2.07-0.36-3.08
					L-1,21.38c-0.06-0.77-0.12-1.56-0.1-2.35c0.04-1.17,0.27-2.34,0.49-3.48l0.07-0.35C0,12.42,0.67,8.28,0.35,4.5
					c0-0.06,0.04-0.1,0.09-0.11c0.06,0,0.1,0.04,0.11,0.09c0.32,3.81-0.36,7.97-0.9,10.76l-0.07,0.35
					c-0.22,1.12-0.44,2.29-0.48,3.44c-0.02,0.78,0.04,1.57,0.09,2.33l0.2,2.65c0.08,1.01,0.16,2.05,0.36,3.06
					c0.05,0.26,0.11,0.52,0.17,0.78c0.12,0.49,0.23,1,0.29,1.52c0.09,0.81,0.04,1.64-0.02,2.43c-0.03,0.4-0.06,0.82-0.06,1.23
					c-0.03,1.64,0.25,3.29,0.52,4.88c0.01,0.05-0.03,0.11-0.08,0.12C0.58,38.04,0.58,38.04,0.57,38.04z"/>
			</g>
			<g>
				<path d="M2.15,37.99c0,0-0.01,0-0.02,0c-0.05-0.01-0.09-0.06-0.08-0.11c0.22-1.47,0.09-2.99-0.04-4.46
					C1.89,31.96,1.76,30.46,1.96,29c0.04-0.3,0.1-0.6,0.15-0.9c0.1-0.52,0.2-1.06,0.22-1.59c0.05-1.27-0.37-2.52-0.78-3.73
					c-0.18-0.54-0.37-1.1-0.51-1.66c-0.75-2.9-0.39-6.1,0.99-8.76l0.1-0.19c0.21-0.39,0.42-0.79,0.48-1.22
					c0.06-0.43-0.03-0.87-0.12-1.31L2.48,9.61C2.25,8.47,2.12,6.99,2.01,5.67C1.96,5.18,1.92,4.71,1.88,4.29
					c-0.01-0.05,0.03-0.1,0.09-0.11c0.06,0,0.1,0.04,0.11,0.09c0.04,0.42,0.08,0.89,0.13,1.38c0.11,1.31,0.24,2.79,0.48,3.92
					l0.01,0.04c0.09,0.45,0.19,0.91,0.12,1.37c-0.07,0.47-0.29,0.89-0.5,1.29l-0.1,0.18c-1.36,2.62-1.72,5.76-0.98,8.61
					c0.14,0.55,0.33,1.11,0.51,1.65c0.41,1.23,0.83,2.49,0.79,3.8c-0.02,0.55-0.12,1.09-0.22,1.62c-0.05,0.29-0.11,0.59-0.15,0.89
					c-0.2,1.44-0.07,2.92,0.05,4.36c0.13,1.48,0.26,3.01,0.04,4.51C2.24,37.95,2.2,37.99,2.15,37.99z"/>
			</g>
			<g>
				<path d="M4.01,38.21c-0.05,0-0.09-0.03-0.1-0.08c-0.43-2.36-0.26-4.8-0.1-7.16c0.11-1.61,0.22-3.27,0.15-4.9
					c-0.01-0.15-0.01-0.29-0.02-0.44c-0.06-1.17-0.13-2.37,0.41-3.41c0.12-0.23,0.27-0.45,0.42-0.66c0.15-0.21,0.3-0.43,0.41-0.66
					c0.48-0.92,0.44-2.03,0.36-3.09c-0.26-3.37-0.76-6.55-1.51-9.47C3.77,7.36,3.4,5.52,3.71,4.26C3.72,4.2,3.78,4.17,3.83,4.18
					C3.88,4.2,3.92,4.25,3.9,4.3C3.6,5.53,3.97,7.33,4.22,8.3c0.75,2.93,1.26,6.12,1.51,9.5c0.08,1.09,0.12,2.24-0.38,3.2
					c-0.12,0.24-0.28,0.46-0.43,0.68c-0.14,0.21-0.29,0.42-0.41,0.64C4,23.3,4.07,24.48,4.13,25.62c0.01,0.15,0.02,0.3,0.02,0.44
					c0.08,1.64-0.04,3.31-0.15,4.92c-0.16,2.35-0.32,4.77,0.1,7.11c0.01,0.05-0.03,0.11-0.08,0.12C4.02,38.21,4.01,38.21,4.01,38.21
					z"/>
			</g>
			<g>
				<path d="M3.44,22.78c-0.04,0-0.07-0.02-0.09-0.05c-1.33-2.28-1.58-5.13-0.69-7.62l0,0c0.02-0.06,0.05-0.13,0.07-0.21
					c0.14-0.42,0.31-0.95,0.68-1.09c0.05-0.02,0.1,0,0.13,0.05c0.19,0.37,0.35,0.78,0.46,1.1c0.7,1.89,0.27,4.05-0.08,5.78
					L3.54,22.7c-0.01,0.04-0.04,0.07-0.08,0.08C3.45,22.78,3.45,22.78,3.44,22.78z M2.85,15.18L2.85,15.18
					c-0.84,2.35-0.64,5.02,0.54,7.22l0.34-1.7c0.34-1.7,0.77-3.83,0.08-5.67c-0.1-0.29-0.24-0.65-0.41-0.99
					c-0.24,0.16-0.38,0.6-0.49,0.92C2.9,15.04,2.88,15.11,2.85,15.18z"/>
			</g>
			<g>
				<path d="M3.13,19.54c-0.04,0-0.08-0.02-0.09-0.06C2.78,18.8,2.94,18.09,3.1,17.4c0.11-0.48,0.23-0.98,0.2-1.46
					c0-0.06,0.04-0.1,0.09-0.11c0.05,0,0.1,0.04,0.11,0.09c0.03,0.51-0.09,1.02-0.2,1.52c-0.16,0.69-0.31,1.34-0.08,1.96
					c0.02,0.05-0.01,0.11-0.06,0.13C3.15,19.54,3.14,19.54,3.13,19.54z"/>
			</g>
			<g class="st6">
				<path d="M7.33,37.88C7.33,37.88,7.33,37.88,7.33,37.88c-0.06,0-0.1-0.05-0.1-0.1c0.06-1.2-0.03-2.43-0.11-3.62
					C7,32.65,6.89,31.08,7.09,29.55c0.08-0.58,0.2-1.17,0.32-1.73c0.06-0.31,0.13-0.62,0.19-0.93c0.48-2.56,0.47-5.2,0.43-7.48
					C7.93,14.46,7.58,9.47,6.99,4.57c-0.01-0.05,0.03-0.1,0.09-0.11c0.05,0,0.1,0.03,0.11,0.09c0.59,4.91,0.94,9.91,1.03,14.86
					c0.04,2.29,0.05,4.94-0.43,7.52c-0.06,0.31-0.12,0.62-0.19,0.93C7.48,28.42,7.36,29,7.29,29.57c-0.2,1.51-0.08,3.07,0.03,4.57
					c0.09,1.19,0.18,2.43,0.12,3.64C7.43,37.84,7.38,37.88,7.33,37.88z"/>
			</g>
			<g class="st6">
				<path d="M9.1,37.86c-0.05,0-0.09-0.03-0.1-0.08c-0.28-1.2-0.17-2.45-0.06-3.66c0.05-0.55,0.1-1.12,0.11-1.67
					c0.02-0.77-0.04-1.55-0.09-2.31c-0.08-1.24-0.17-2.52,0.05-3.76c0.07-0.38,0.16-0.76,0.26-1.13c0.13-0.52,0.27-1.05,0.32-1.59
					c0.05-0.5,0.03-1.02,0-1.52C9.57,21.76,9.55,21.38,9.57,21c0.02-0.48,0.08-0.96,0.14-1.43c0.08-0.58,0.15-1.18,0.14-1.77
					c-0.02-0.64-0.14-1.28-0.26-1.9c-0.04-0.22-0.09-0.45-0.12-0.67c-0.27-1.6-0.31-3.25-0.35-4.84c-0.05-1.92-0.09-3.9-0.55-5.78
					C8.55,4.55,8.58,4.5,8.64,4.49c0.05,0,0.11,0.02,0.12,0.07c0.46,1.91,0.51,3.9,0.55,5.82c0.04,1.59,0.08,3.23,0.35,4.81
					c0.04,0.22,0.08,0.44,0.12,0.67c0.12,0.63,0.25,1.28,0.26,1.93c0.01,0.6-0.06,1.21-0.14,1.8C9.84,20.05,9.78,20.53,9.77,21
					c-0.01,0.37,0.01,0.76,0.02,1.12c0.02,0.51,0.05,1.03,0,1.55c-0.05,0.55-0.19,1.09-0.33,1.62c-0.09,0.36-0.19,0.74-0.25,1.11
					c-0.21,1.22-0.13,2.49-0.04,3.71c0.05,0.76,0.11,1.55,0.09,2.33c-0.01,0.56-0.06,1.13-0.11,1.69c-0.11,1.19-0.22,2.43,0.06,3.6
					c0.01,0.05-0.02,0.11-0.07,0.12C9.12,37.86,9.11,37.86,9.1,37.86z"/>
			</g>
			<g class="st6">
				<path d="M10.9,37.9c-0.05,0-0.09-0.03-0.1-0.08c-0.33-1.48-0.49-3-0.47-4.52c0.01-0.45,0.03-0.9,0.05-1.33
					c0.03-0.56,0.06-1.14,0.05-1.71c0-0.53-0.04-1.07-0.07-1.59c-0.06-0.97-0.12-1.97,0-2.95c0.08-0.62,0.23-1.23,0.37-1.83
					c0.05-0.21,0.1-0.43,0.15-0.64c0.76-3.34,0.74-6.86-0.07-10.19c-0.05-0.19-0.09-0.38-0.14-0.57c-0.18-0.71-0.37-1.45-0.42-2.2
					c-0.06-0.88,0.08-1.77,0.21-2.62c0.15-0.96,0.3-1.94,0.18-2.91c-0.01-0.05,0.03-0.1,0.09-0.11c0.06,0,0.1,0.03,0.11,0.09
					c0.13,0.99-0.03,1.99-0.18,2.96c-0.13,0.85-0.27,1.72-0.21,2.58c0.05,0.73,0.23,1.46,0.41,2.16c0.05,0.19,0.1,0.38,0.14,0.57
					c0.81,3.36,0.84,6.91,0.07,10.28c-0.05,0.22-0.1,0.43-0.15,0.65c-0.14,0.59-0.29,1.2-0.37,1.8c-0.12,0.96-0.06,1.96,0,2.91
					c0.03,0.53,0.07,1.07,0.07,1.6c0,0.58-0.03,1.16-0.05,1.72c-0.02,0.44-0.05,0.89-0.05,1.33c-0.02,1.5,0.13,3.01,0.46,4.47
					c0.01,0.05-0.02,0.11-0.08,0.12C10.91,37.9,10.91,37.9,10.9,37.9z"/>
			</g>
			<g class="st6">
				<path d="M13.01,38.03c-0.04,0-0.08-0.02-0.09-0.06c-0.34-0.86-0.24-1.93,0.3-3.17c0.14-0.31,0.29-0.63,0.44-0.93
					c0.31-0.64,0.64-1.29,0.81-1.99c0.31-1.27,0.08-2.61-0.11-3.8c-0.1-0.64-0.22-1.36-0.46-2.02c-0.06-0.16-0.12-0.31-0.18-0.46
					c-0.12-0.3-0.25-0.61-0.32-0.93c-0.13-0.55-0.1-1.12-0.08-1.67c0.01-0.23,0.02-0.48,0.02-0.71c-0.01-0.85-0.17-1.71-0.33-2.54
					c-0.12-0.65-0.25-1.32-0.31-1.99c-0.04-0.56-0.04-1.12-0.03-1.67c0.01-0.63,0.01-1.28-0.06-1.91c-0.05-0.41-0.13-0.83-0.21-1.23
					c-0.07-0.37-0.15-0.76-0.2-1.14c-0.15-1.18-0.05-2.39,0.05-3.56l0.3-3.71c0-0.06,0.04-0.09,0.11-0.09c0.05,0,0.1,0.05,0.09,0.11
					l-0.3,3.71c-0.09,1.16-0.19,2.35-0.05,3.52c0.05,0.38,0.12,0.76,0.19,1.13c0.08,0.41,0.16,0.83,0.21,1.25
					c0.07,0.64,0.07,1.3,0.06,1.93c-0.01,0.54-0.01,1.1,0.03,1.65c0.05,0.66,0.18,1.33,0.31,1.97c0.16,0.84,0.33,1.71,0.33,2.58
					c0,0.24-0.01,0.49-0.02,0.72c-0.02,0.54-0.05,1.09,0.07,1.61c0.07,0.31,0.19,0.61,0.31,0.9c0.06,0.16,0.13,0.31,0.18,0.47
					c0.24,0.68,0.36,1.41,0.47,2.06c0.2,1.21,0.43,2.58,0.11,3.88c-0.17,0.71-0.5,1.38-0.82,2.03c-0.15,0.3-0.3,0.61-0.44,0.92
					c-0.52,1.2-0.62,2.21-0.3,3.02c0.02,0.05,0,0.11-0.06,0.13C13.03,38.03,13.02,38.03,13.01,38.03z"/>
			</g>
			<g class="st6">
				<path d="M12.06,35.27C12.06,35.27,12.06,35.27,12.06,35.27c-0.05,0-0.09-0.04-0.1-0.08c-0.47-2.63-0.85-6.52,0.02-10.09
					c0.01-0.04,0.05-0.09,0.1-0.08c0.04,0,0.08,0.03,0.1,0.07c0.17,0.54,0.39,1.08,0.62,1.6c0.32,0.74,0.64,1.51,0.8,2.3
					c0.19,0.93,0.09,1.98-0.3,3.21c-0.18,0.57-0.4,1.13-0.62,1.67c-0.17,0.43-0.35,0.88-0.51,1.33
					C12.14,35.24,12.1,35.27,12.06,35.27z M12.09,25.49c-0.72,3.28-0.42,6.78,0,9.29c0.12-0.33,0.26-0.66,0.38-0.99
					c0.22-0.54,0.44-1.1,0.62-1.66c0.38-1.2,0.48-2.22,0.3-3.11c-0.15-0.77-0.48-1.53-0.79-2.26
					C12.43,26.35,12.24,25.92,12.09,25.49z"/>
			</g>
			<g class="st6">
				<path d="M12.59,31.25c-0.05,0-0.1-0.04-0.1-0.1c-0.01-0.17-0.01-0.34-0.01-0.51c-0.01-0.54-0.01-1.09-0.13-2.02
					c-0.01-0.05,0.03-0.11,0.09-0.11c0.06,0,0.1,0.03,0.11,0.09c0.12,0.94,0.12,1.5,0.13,2.04c0,0.17,0,0.33,0.01,0.5
					C12.69,31.21,12.65,31.25,12.59,31.25C12.59,31.25,12.59,31.25,12.59,31.25z"/>
			</g>
			<g class="st6">
				<path d="M15.13,37.76c-0.04,0-0.08-0.02-0.09-0.06c-0.52-1.19-0.21-2.5,0.1-3.77c0.09-0.38,0.18-0.76,0.25-1.14
					c0.19-1.04,0.19-2.09,0.17-2.98c-0.05-2.15-0.3-4.32-0.54-6.42c-0.15-1.27-0.3-2.58-0.4-3.88c-0.4-4.94-0.19-9.98,0.02-14.85
					c0-0.05,0.05-0.09,0.1-0.1c0.06,0,0.1,0.05,0.1,0.1c-0.21,4.87-0.42,9.9-0.02,14.83c0.11,1.29,0.26,2.6,0.4,3.87
					c0.24,2.11,0.49,4.28,0.54,6.44c0.02,0.9,0.02,1.96-0.17,3.02c-0.07,0.38-0.16,0.77-0.25,1.15c-0.3,1.23-0.6,2.51-0.11,3.64
					c0.02,0.05,0,0.11-0.05,0.13C15.16,37.76,15.15,37.76,15.13,37.76z"/>
			</g>
			<g class="st6">
				<path d="M16.83,37.68c-0.04,0-0.08-0.03-0.1-0.07c-0.36-1.12-0.35-2.48,0.02-4.04c0.74-3.1,0.42-6.28,0.11-9.36
					c-0.09-0.88-0.18-1.79-0.25-2.68c-0.06-0.86-0.03-1.72-0.01-2.57c0.03-0.8,0.06-1.63,0-2.45c-0.04-0.64-0.12-1.29-0.19-1.92
					c-0.09-0.75-0.18-1.52-0.21-2.29c-0.06-1.29,0.04-2.59,0.13-3.85l0.28-3.88c0-0.05,0.05-0.09,0.11-0.09
					c0.06,0,0.1,0.05,0.09,0.11l-0.28,3.87c-0.09,1.26-0.19,2.56-0.13,3.83c0.03,0.76,0.12,1.53,0.21,2.28
					c0.07,0.63,0.15,1.28,0.19,1.93c0.05,0.82,0.03,1.66,0,2.47c-0.03,0.83-0.06,1.7,0,2.54c0.07,0.89,0.16,1.8,0.25,2.67
					c0.31,3.1,0.64,6.3-0.11,9.43c-0.36,1.52-0.37,2.84-0.03,3.93c0.02,0.05-0.01,0.11-0.06,0.13
					C16.85,37.68,16.84,37.68,16.83,37.68z"/>
			</g>
			<g class="st6">
				<path d="M18.69,37.26C18.69,37.26,18.69,37.26,18.69,37.26c-0.06,0-0.1-0.05-0.1-0.1c0.12-2.55,0.09-4.97,0.06-7.31
					c-0.03-2.34-0.06-4.76,0.06-7.31c0.09-1.86,0.18-3.78-0.03-5.65c-0.09-0.76-0.23-1.53-0.36-2.27c-0.12-0.66-0.25-1.35-0.33-2.03
					c-0.35-2.73-0.12-5.52,0.09-8.21c0-0.06,0.04-0.1,0.11-0.09c0.05,0,0.1,0.05,0.09,0.11c-0.22,2.68-0.44,5.46-0.1,8.17
					c0.09,0.68,0.21,1.36,0.33,2.02c0.14,0.75,0.28,1.52,0.36,2.28c0.22,1.89,0.12,3.82,0.03,5.69c-0.12,2.55-0.09,4.96-0.06,7.3
					c0.03,2.34,0.06,4.76-0.06,7.32C18.79,37.22,18.74,37.26,18.69,37.26z"/>
			</g>
			<g>
				<path d="M21.5,11.16L21.5,11.16c-0.05,0-0.09-0.04-0.1-0.08c-0.07-0.46-0.3-0.88-0.53-1.29c-0.08-0.14-0.15-0.28-0.22-0.42
					c-0.78-1.56-0.9-3.47-0.32-5.11c0.02-0.05,0.08-0.08,0.13-0.06c0.05,0.02,0.08,0.08,0.06,0.13c-0.56,1.59-0.45,3.45,0.31,4.96
					c0.07,0.14,0.14,0.27,0.22,0.41c0.16,0.29,0.32,0.58,0.43,0.9l0.18-1.07c0.09-0.52,0.2-1.01,0.57-1.32
					c0.11-0.1,0.25-0.17,0.37-0.24c0.18-0.1,0.36-0.2,0.46-0.35c0.11-0.17,0.12-0.39,0.14-0.59l0.18-2.72c0-0.05,0.05-0.09,0.1-0.09
					c0,0,0,0,0.01,0c0.06,0,0.1,0.05,0.09,0.11L23.4,7.04c-0.01,0.21-0.03,0.47-0.17,0.68c-0.13,0.2-0.34,0.31-0.53,0.42
					c-0.12,0.07-0.24,0.13-0.34,0.21c-0.32,0.27-0.42,0.72-0.5,1.2l-0.26,1.52C21.59,11.13,21.55,11.16,21.5,11.16z"/>
			</g>
			<g>
				<path d="M21.35,7.88C21.35,7.88,21.35,7.88,21.35,7.88c-0.05,0-0.08-0.03-0.09-0.06l-0.31-0.75c-0.05-0.12-0.11-0.26-0.13-0.41
					c-0.05-0.31,0.03-0.6,0.11-0.89c0.02-0.07,0.04-0.14,0.06-0.21c0.1-0.39,0.13-0.79,0.08-1.19c-0.01-0.05,0.03-0.1,0.09-0.11
					c0.06,0,0.1,0.04,0.11,0.09c0.05,0.43,0.02,0.85-0.09,1.26c-0.02,0.07-0.04,0.15-0.06,0.22c-0.08,0.28-0.15,0.54-0.11,0.8
					c0.02,0.12,0.07,0.25,0.12,0.37l0.24,0.58c0.08-0.11,0.17-0.21,0.26-0.31c0.1-0.12,0.21-0.24,0.3-0.37
					c0.49-0.71,0.49-1.65,0.44-2.62c0-0.06,0.04-0.1,0.1-0.1c0.06,0.01,0.1,0.04,0.1,0.09c0.05,1.02,0.05,1.99-0.48,2.75
					c-0.1,0.14-0.21,0.27-0.32,0.39c-0.13,0.14-0.25,0.28-0.35,0.44C21.42,7.87,21.39,7.88,21.35,7.88z"/>
			</g>
			<g>
				<path d="M24.26,38.12c0,0-0.01,0-0.01,0c-0.05-0.01-0.09-0.06-0.09-0.11c0.2-1.58-0.3-3.08-0.84-4.67
					c-0.34-1-0.69-2.04-0.83-3.09c-0.08-0.6-0.1-1.22-0.12-1.82l-0.01-0.31c-0.05-1.45-0.17-2.93-0.28-4.37
					c-0.33-4.2-0.67-8.54,0.61-12.58c0.13-0.39,0.27-0.79,0.41-1.17c0.17-0.48,0.35-0.98,0.5-1.47c0.38-1.29,0.55-2.63,0.51-3.98
					c0-0.06,0.04-0.1,0.1-0.1c0.05,0.01,0.1,0.04,0.1,0.1c0.04,1.37-0.14,2.73-0.52,4.04c-0.15,0.5-0.33,1-0.5,1.48
					c-0.14,0.38-0.28,0.77-0.4,1.17c-1.27,4.01-0.93,8.33-0.6,12.51c0.11,1.44,0.23,2.93,0.28,4.38l0.01,0.31
					c0.02,0.59,0.04,1.2,0.12,1.79c0.14,1.03,0.49,2.06,0.82,3.06c0.52,1.54,1.05,3.12,0.84,4.75
					C24.35,38.08,24.31,38.12,24.26,38.12z"/>
			</g>
			<g>
				<path d="M22.53,37.84c0,0-0.01,0-0.01,0c-0.05-0.01-0.09-0.06-0.09-0.11c0.07-0.54-0.04-1.1-0.3-1.57
					c-0.07-0.12-0.15-0.25-0.23-0.37c-0.13-0.2-0.27-0.4-0.36-0.62c-0.05,0.16-0.12,0.31-0.18,0.47c-0.07,0.16-0.14,0.33-0.19,0.5
					c-0.15,0.5-0.17,1.03-0.04,1.54c0.01,0.05-0.02,0.11-0.07,0.12c-0.06,0.01-0.11-0.02-0.12-0.07c-0.14-0.54-0.12-1.11,0.04-1.64
					c0.05-0.18,0.13-0.35,0.19-0.52c0.12-0.29,0.23-0.55,0.26-0.84c0.01-0.05,0.05-0.08,0.1-0.09c0.05,0,0.09,0.04,0.1,0.09
					c0.02,0.35,0.22,0.64,0.43,0.96c0.08,0.12,0.17,0.25,0.24,0.38c0.29,0.51,0.4,1.12,0.32,1.7C22.62,37.8,22.58,37.84,22.53,37.84
					z"/>
			</g>
			<g>
				<path d="M25.35,37.87C25.35,37.87,25.35,37.87,25.35,37.87c-0.06,0-0.1-0.05-0.1-0.11c0.11-1.46-0.13-2.95-0.36-4.38
					c-0.06-0.38-0.12-0.76-0.18-1.14c-0.19-1.33-0.31-2.68-0.35-4.01c-0.01-0.24-0.01-0.48-0.02-0.72
					c-0.01-0.51-0.02-1.04-0.06-1.56c-0.07-1.01-0.24-2.02-0.4-3.01c-0.17-1.02-0.34-2.07-0.4-3.12c-0.18-2.72,0.34-5.45,0.84-8.09
					c0.45-2.38,0.91-4.84,0.87-7.28c0-0.06,0.04-0.1,0.1-0.1c0,0,0,0,0,0c0.05,0,0.1,0.04,0.1,0.1c0.04,2.46-0.42,4.93-0.87,7.32
					c-0.5,2.63-1.01,5.35-0.84,8.04c0.07,1.04,0.24,2.09,0.4,3.1c0.16,0.99,0.33,2.01,0.4,3.03c0.04,0.52,0.05,1.06,0.06,1.57
					c0.01,0.24,0.01,0.48,0.02,0.72c0.04,1.33,0.16,2.67,0.35,3.99c0.05,0.38,0.11,0.76,0.17,1.14c0.23,1.45,0.47,2.94,0.36,4.43
					C25.45,37.83,25.4,37.87,25.35,37.87z"/>
			</g>
			<g>
				<path d="M26.81,38.81c-0.05,0-0.09-0.03-0.1-0.08c-0.17-1.04-0.17-2.12-0.16-3.15l0-0.36c0.02-3.98-0.26-7.99-0.83-11.92
					l-0.02-0.17c-0.13-0.87-0.25-1.77-0.17-2.66c0.04-0.47,0.15-0.93,0.25-1.38c0.07-0.29,0.13-0.6,0.18-0.9
					c0.13-0.77,0.15-1.57,0.16-2.34L26.4,4.44c0-0.05,0.05-0.1,0.1-0.1c0,0,0,0,0,0c0.06,0,0.1,0.05,0.1,0.1l-0.27,11.41
					c-0.02,0.78-0.04,1.59-0.17,2.37c-0.05,0.31-0.12,0.61-0.19,0.91c-0.1,0.44-0.2,0.9-0.24,1.36c-0.08,0.87,0.05,1.75,0.17,2.61
					l0.02,0.17c0.57,3.94,0.85,7.96,0.83,11.95l0,0.36c-0.01,1.03-0.01,2.09,0.16,3.12c0.01,0.05-0.03,0.11-0.08,0.12
					C26.82,38.81,26.82,38.81,26.81,38.81z"/>
			</g>
			<g>
				<path d="M27.93,37.67c-0.01,0-0.01,0-0.02,0c-0.05-0.01-0.09-0.06-0.08-0.12c0.26-1.42,0.53-2.89,0.35-4.35
					c-0.03-0.21-0.06-0.41-0.09-0.62c-0.05-0.29-0.1-0.59-0.12-0.89c-0.05-0.58,0.01-1.16,0.06-1.73c0.02-0.27,0.05-0.56,0.06-0.84
					c0.07-1.38-0.14-2.77-0.34-4.12c-0.05-0.34-0.1-0.69-0.15-1.03c-0.11-0.8-0.21-1.72-0.07-2.61c0.04-0.25,0.1-0.49,0.16-0.73
					c0.09-0.35,0.17-0.71,0.2-1.08c0.03-0.47-0.05-0.95-0.12-1.42c-0.02-0.12-0.04-0.25-0.06-0.37c-0.16-1.07-0.17-2.14-0.17-3.33
					c-0.01-3.25,0.06-6.55,0.12-9.75c0-0.05,0.05-0.1,0.1-0.1c0,0,0,0,0,0c0.06,0,0.1,0.04,0.1,0.1v0
					c-0.06,3.19-0.13,6.49-0.12,9.74c0,1.18,0.02,2.24,0.17,3.3c0.02,0.12,0.04,0.25,0.06,0.37c0.08,0.48,0.16,0.97,0.12,1.47
					c-0.02,0.38-0.12,0.75-0.2,1.11c-0.06,0.23-0.12,0.47-0.16,0.71c-0.14,0.86-0.04,1.77,0.07,2.55c0.05,0.34,0.1,0.69,0.15,1.03
					c0.2,1.36,0.41,2.76,0.34,4.16c-0.01,0.28-0.04,0.57-0.06,0.84c-0.05,0.56-0.1,1.13-0.06,1.7c0.02,0.29,0.07,0.59,0.12,0.88
					c0.03,0.21,0.07,0.42,0.09,0.63c0.18,1.49-0.09,2.97-0.36,4.41C28.02,37.63,27.98,37.67,27.93,37.67z"/>
			</g>
		</g>
	</g>
</g>
</svg>
