<?xml version="1.0" encoding="utf-8"?>
<!-- Generator: Adobe Illustrator 26.2.1, SVG Export Plug-In . SVG Version: 6.00 Build 0)  -->
<svg version="1.1" id="Layer_1" xmlns="http://www.w3.org/2000/svg" xmlns:xlink="http://www.w3.org/1999/xlink" x="0px" y="0px"
	 viewBox="0 0 43.99 43.99" style="enable-background:new 0 0 43.99 43.99;" xml:space="preserve">
<style type="text/css">
	.st0{fill:#71C1C2;}
	.st1{fill:#FFFFFF;}
	.st2{fill:#010101;}
	.st3{opacity:0.5;}
</style>
<g>
	<path class="st0" d="M41.65,43.99H2.34C1.05,43.99,0,42.95,0,41.65V2.34C0,1.05,1.05,0,2.34,0h39.31C42.95,0,44,1.05,44,2.34v39.31
		C44,42.95,42.95,43.99,41.65,43.99z"/>
</g>
<g>
	<polygon class="st1" points="26.42,23.39 26.42,25.35 29.77,22 26.42,18.65 26.42,20.6 17.57,20.6 17.57,18.65 14.22,22 
		17.57,25.35 17.57,23.39 	"/>
</g>
<g>
	<g>
		<path class="st1" d="M31.05,3.77v37.04h3.8V3.77H31.05z"/>
		<path class="st2" d="M34.86,40.99h-3.8c-0.1,0-0.17-0.08-0.17-0.17V3.77c0-0.1,0.08-0.17,0.17-0.17h3.8c0.1,0,0.17,0.08,0.17,0.17
			v37.04C35.03,40.91,34.95,40.99,34.86,40.99z M31.23,40.64h3.46V3.95h-3.46V40.64z"/>
	</g>
	<g>
		
			<rect x="38.91" y="37.08" transform="matrix(-1 -4.420521e-11 4.420521e-11 -1 79.9131 74.6331)" class="st0" width="2.1" height="0.46"/>
		<path d="M41.01,37.65h-2.1c-0.06,0-0.1-0.04-0.1-0.1v-0.46c0-0.06,0.04-0.1,0.1-0.1h2.1c0.06,0,0.1,0.04,0.1,0.1v0.46
			C41.11,37.6,41.06,37.65,41.01,37.65z M39.01,37.45h1.9v-0.26h-1.9V37.45z"/>
	</g>
	<g>
		
			<rect x="36.81" y="16.83" transform="matrix(-1 -4.526702e-11 4.526702e-11 -1 74.8624 35.2546)" class="st0" width="1.25" height="1.6"/>
		<path d="M38.05,18.53h-1.25c-0.06,0-0.1-0.04-0.1-0.1v-1.6c0-0.06,0.04-0.1,0.1-0.1h1.25c0.06,0,0.1,0.04,0.1,0.1v1.6
			C38.15,18.48,38.11,18.53,38.05,18.53z M36.91,18.33h1.05v-1.4h-1.05V18.33z"/>
	</g>
	<g>
		
			<rect x="38.48" y="15.79" transform="matrix(-1 -4.572888e-11 4.572888e-11 -1 77.5179 34.3041)" class="st0" width="0.56" height="2.73"/>
		<path d="M39.04,18.62h-0.56c-0.06,0-0.1-0.04-0.1-0.1v-2.73c0-0.06,0.04-0.1,0.1-0.1h0.56c0.06,0,0.1,0.04,0.1,0.1v2.73
			C39.14,18.57,39.09,18.62,39.04,18.62z M38.58,18.42h0.36v-2.53h-0.36V18.42z"/>
	</g>
	<g>
		
			<rect x="35.82" y="15.79" transform="matrix(-1 -4.572888e-11 4.572888e-11 -1 72.2069 34.3041)" class="st0" width="0.56" height="2.73"/>
		<path d="M36.38,18.62h-0.56c-0.06,0-0.1-0.04-0.1-0.1v-2.73c0-0.06,0.04-0.1,0.1-0.1h0.56c0.06,0,0.1,0.04,0.1,0.1v2.73
			C36.48,18.57,36.44,18.62,36.38,18.62z M35.92,18.42h0.36v-2.53h-0.36V18.42z"/>
	</g>
	<g>
		
			<rect x="38.95" y="19.03" transform="matrix(-1 -4.515600e-11 4.515600e-11 -1 78.906 39.5937)" class="st0" width="1.01" height="1.53"/>
		<path d="M39.96,20.66h-1.01c-0.06,0-0.1-0.04-0.1-0.1v-1.53c0-0.06,0.04-0.1,0.1-0.1h1.01c0.06,0,0.1,0.04,0.1,0.1v1.53
			C40.06,20.62,40.01,20.66,39.96,20.66z M39.05,20.46h0.81v-1.33h-0.81V20.46z"/>
	</g>
	<g>
		
			<rect x="38.95" y="33.67" transform="matrix(-1 -4.154333e-11 4.154333e-11 -1 78.906 68.8617)" class="st0" width="1.01" height="1.53"/>
		<path d="M39.96,35.3h-1.01c-0.06,0-0.1-0.04-0.1-0.1v-1.53c0-0.06,0.04-0.1,0.1-0.1h1.01c0.06,0,0.1,0.04,0.1,0.1v1.53
			C40.06,35.25,40.01,35.3,39.96,35.3z M39.05,35.1h0.81v-1.33h-0.81V35.1z"/>
	</g>
	<g>
		
			<rect x="35.39" y="18.29" transform="matrix(-1 -4.437263e-11 4.437263e-11 -1 74.8476 57.1352)" class="st0" width="4.06" height="20.55"/>
		<path d="M39.45,38.94h-4.06c-0.06,0-0.1-0.04-0.1-0.1V18.29c0-0.06,0.04-0.1,0.1-0.1h4.06c0.06,0,0.1,0.04,0.1,0.1v20.55
			C39.55,38.9,39.51,38.94,39.45,38.94z M35.49,38.74h3.86V18.39h-3.86V38.74z"/>
	</g>
	<g>
		<path class="st0" d="M34.86,36.42h3.1c0.55,0,0.99-0.44,0.99-0.99V20.09c0-0.55-0.44-0.99-0.99-0.99h-3.1V36.42z"/>
		<path d="M37.96,36.52h-3.1c-0.06,0-0.1-0.04-0.1-0.1V19.09c0-0.06,0.04-0.1,0.1-0.1h3.1c0.6,0,1.09,0.49,1.09,1.09v15.34
			C39.05,36.03,38.56,36.52,37.96,36.52z M34.96,36.32h3c0.49,0,0.89-0.4,0.89-0.89V20.09c0-0.49-0.4-0.89-0.89-0.89h-3V36.32z"/>
	</g>
	<g class="st3">
		<path d="M37.79,21.13c-0.31,0-0.57-0.25-0.57-0.57s0.25-0.57,0.57-0.57s0.57,0.25,0.57,0.57S38.1,21.13,37.79,21.13z M37.79,20.19
			c-0.2,0-0.37,0.17-0.37,0.37s0.17,0.37,0.37,0.37s0.37-0.17,0.37-0.37S37.99,20.19,37.79,20.19z"/>
	</g>
	<g class="st3">
		<path d="M37.79,32.9c-0.31,0-0.57-0.25-0.57-0.57s0.25-0.57,0.57-0.57s0.57,0.25,0.57,0.57S38.1,32.9,37.79,32.9z M37.79,31.96
			c-0.2,0-0.37,0.17-0.37,0.37s0.17,0.37,0.37,0.37s0.37-0.17,0.37-0.37S37.99,31.96,37.79,31.96z"/>
	</g>
	<g>
		
			<rect x="36.38" y="16.36" transform="matrix(-1 -4.420521e-11 4.420521e-11 -1 74.8624 33.1895)" class="st0" width="2.1" height="0.46"/>
		<path d="M38.48,16.93h-2.1c-0.06,0-0.1-0.04-0.1-0.1v-0.46c0-0.06,0.04-0.1,0.1-0.1h2.1c0.06,0,0.1,0.04,0.1,0.1v0.46
			C38.58,16.88,38.54,16.93,38.48,16.93z M36.48,16.73h1.9v-0.26h-1.9V16.73z"/>
	</g>
	<g>
		
			<rect x="36.81" y="15.37" transform="matrix(-1 -4.380686e-11 4.380686e-11 -1 74.8624 31.7352)" class="st0" width="1.25" height="0.99"/>
		<path d="M38.05,16.46h-1.25c-0.06,0-0.1-0.04-0.1-0.1v-0.99c0-0.06,0.04-0.1,0.1-0.1h1.25c0.06,0,0.1,0.04,0.1,0.1v0.99
			C38.15,16.42,38.11,16.46,38.05,16.46z M36.91,16.26h1.05v-0.79h-1.05V16.26z"/>
	</g>
</g>
<g>
	<g>
		<g>
			<rect x="2.99" y="37.08" class="st0" width="2.1" height="0.46"/>
			<path d="M5.09,37.65h-2.1c-0.06,0-0.1-0.04-0.1-0.1v-0.46c0-0.06,0.04-0.1,0.1-0.1h2.1c0.06,0,0.1,0.04,0.1,0.1v0.46
				C5.19,37.6,5.14,37.65,5.09,37.65z M3.09,37.45h1.9v-0.26h-1.9V37.45z"/>
		</g>
		<g>
			<rect x="5.94" y="16.83" class="st0" width="1.25" height="1.6"/>
			<path d="M7.19,18.53H5.94c-0.06,0-0.1-0.04-0.1-0.1v-1.6c0-0.06,0.04-0.1,0.1-0.1h1.25c0.06,0,0.1,0.04,0.1,0.1v1.6
				C7.29,18.48,7.24,18.53,7.19,18.53z M6.04,18.33h1.05v-1.4H6.04V18.33z"/>
		</g>
		<g>
			<rect x="4.96" y="15.79" class="st0" width="0.56" height="2.73"/>
			<path d="M5.51,18.62H4.96c-0.06,0-0.1-0.04-0.1-0.1v-2.73c0-0.06,0.04-0.1,0.1-0.1h0.56c0.06,0,0.1,0.04,0.1,0.1v2.73
				C5.61,18.57,5.57,18.62,5.51,18.62z M5.06,18.42h0.36v-2.53H5.06V18.42z"/>
		</g>
		<g>
			<rect x="7.61" y="15.79" class="st0" width="0.56" height="2.73"/>
			<path d="M8.17,18.62H7.61c-0.06,0-0.1-0.04-0.1-0.1v-2.73c0-0.06,0.04-0.1,0.1-0.1h0.56c0.06,0,0.1,0.04,0.1,0.1v2.73
				C8.27,18.57,8.23,18.62,8.17,18.62z M7.71,18.42h0.36v-2.53H7.71V18.42z"/>
		</g>
		<g>
			<rect x="4.04" y="19.03" class="st0" width="1.01" height="1.53"/>
			<path d="M5.05,20.66H4.04c-0.06,0-0.1-0.04-0.1-0.1v-1.53c0-0.06,0.04-0.1,0.1-0.1h1.01c0.06,0,0.1,0.04,0.1,0.1v1.53
				C5.15,20.62,5.1,20.66,5.05,20.66z M4.14,20.46h0.81v-1.33H4.14V20.46z"/>
		</g>
		<g>
			<rect x="4.04" y="33.67" class="st0" width="1.01" height="1.53"/>
			<path d="M5.05,35.3H4.04c-0.06,0-0.1-0.04-0.1-0.1v-1.53c0-0.06,0.04-0.1,0.1-0.1h1.01c0.06,0,0.1,0.04,0.1,0.1v1.53
				C5.15,35.25,5.1,35.3,5.05,35.3z M4.14,35.1h0.81v-1.33H4.14V35.1z"/>
		</g>
		<g>
			<rect x="4.54" y="18.29" class="st0" width="4.06" height="20.55"/>
			<path d="M8.6,38.94H4.54c-0.06,0-0.1-0.04-0.1-0.1V18.29c0-0.06,0.04-0.1,0.1-0.1H8.6c0.06,0,0.1,0.04,0.1,0.1v20.55
				C8.7,38.9,8.66,38.94,8.6,38.94z M4.64,38.74H8.5V18.39H4.64V38.74z"/>
		</g>
		<g>
			<rect x="5.51" y="16.36" class="st0" width="2.1" height="0.46"/>
			<path d="M7.61,16.93h-2.1c-0.06,0-0.1-0.04-0.1-0.1v-0.46c0-0.06,0.04-0.1,0.1-0.1h2.1c0.06,0,0.1,0.04,0.1,0.1v0.46
				C7.71,16.88,7.67,16.93,7.61,16.93z M5.61,16.73h1.9v-0.26h-1.9V16.73z"/>
		</g>
		<g>
			<rect x="5.94" y="15.37" class="st0" width="1.25" height="0.99"/>
			<path d="M7.19,16.46H5.94c-0.06,0-0.1-0.04-0.1-0.1v-0.99c0-0.06,0.04-0.1,0.1-0.1h1.25c0.06,0,0.1,0.04,0.1,0.1v0.99
				C7.29,16.42,7.24,16.46,7.19,16.46z M6.04,16.26h1.05v-0.79H6.04V16.26z"/>
		</g>
	</g>
	<g>
		<path class="st1" d="M9.14,3.77v37.04h3.8V3.77H9.14z"/>
		<path class="st2" d="M12.94,40.99h-3.8c-0.1,0-0.17-0.08-0.17-0.17V3.77c0-0.1,0.08-0.17,0.17-0.17h3.8c0.1,0,0.17,0.08,0.17,0.17
			v37.04C13.12,40.91,13.04,40.99,12.94,40.99z M9.31,40.64h3.45V3.95H9.31V40.64z"/>
	</g>
</g>
<g>
	<circle class="st0" cx="11.04" cy="5.54" r="0.44"/>
	<path d="M11.04,6.07c-0.3,0-0.54-0.24-0.54-0.54S10.74,5,11.04,5c0.3,0,0.54,0.24,0.54,0.54S11.34,6.07,11.04,6.07z M11.04,5.2
		c-0.19,0-0.34,0.15-0.34,0.34s0.15,0.34,0.34,0.34s0.34-0.15,0.34-0.34S11.23,5.2,11.04,5.2z"/>
</g>
<g>
	<path class="st0" d="M11.04,6.85c0.24,0,0.44,0.2,0.44,0.44s-0.2,0.44-0.44,0.44c-0.24,0-0.44-0.2-0.44-0.44S10.8,6.85,11.04,6.85z
		"/>
	<path d="M11.04,7.82c-0.3,0-0.54-0.24-0.54-0.54s0.24-0.54,0.54-0.54c0.3,0,0.54,0.24,0.54,0.54S11.34,7.82,11.04,7.82z
		 M11.04,6.94c-0.19,0-0.34,0.15-0.34,0.34s0.15,0.34,0.34,0.34s0.34-0.15,0.34-0.34S11.23,6.94,11.04,6.94z"/>
</g>
<g>
	<path class="st0" d="M11.04,8.59c0.24,0,0.44,0.2,0.44,0.44c0,0.24-0.2,0.44-0.44,0.44c-0.24,0-0.44-0.2-0.44-0.44
		C10.6,8.79,10.8,8.59,11.04,8.59z"/>
	<path d="M11.04,9.57c-0.3,0-0.54-0.24-0.54-0.54s0.24-0.54,0.54-0.54c0.3,0,0.54,0.24,0.54,0.54S11.34,9.57,11.04,9.57z
		 M11.04,8.69c-0.19,0-0.34,0.15-0.34,0.34s0.15,0.34,0.34,0.34s0.34-0.15,0.34-0.34S11.23,8.69,11.04,8.69z"/>
</g>
<g>
	<path class="st0" d="M11.04,10.34c0.24,0,0.44,0.2,0.44,0.44c0,0.24-0.2,0.44-0.44,0.44c-0.24,0-0.44-0.2-0.44-0.44
		C10.6,10.53,10.8,10.34,11.04,10.34z"/>
	<path d="M11.04,11.31c-0.3,0-0.54-0.24-0.54-0.54s0.24-0.54,0.54-0.54c0.3,0,0.54,0.24,0.54,0.54S11.34,11.31,11.04,11.31z
		 M11.04,10.44c-0.19,0-0.34,0.15-0.34,0.34s0.15,0.34,0.34,0.34s0.34-0.15,0.34-0.34S11.23,10.44,11.04,10.44z"/>
</g>
<g>
	<path class="st0" d="M11.04,12.09c0.24,0,0.44,0.2,0.44,0.44c0,0.24-0.2,0.44-0.44,0.44c-0.24,0-0.44-0.2-0.44-0.44
		C10.6,12.28,10.8,12.09,11.04,12.09z"/>
	<path d="M11.04,13.06c-0.3,0-0.54-0.24-0.54-0.54s0.24-0.54,0.54-0.54c0.3,0,0.54,0.24,0.54,0.54S11.34,13.06,11.04,13.06z
		 M11.04,12.19c-0.19,0-0.34,0.15-0.34,0.34c0,0.19,0.15,0.34,0.34,0.34s0.34-0.15,0.34-0.34C11.38,12.34,11.23,12.19,11.04,12.19z"
		/>
</g>
<g>
	<circle class="st0" cx="11.04" cy="14.22" r="0.44"/>
	<path d="M11.04,14.76c-0.3,0-0.54-0.24-0.54-0.54s0.24-0.54,0.54-0.54c0.3,0,0.54,0.24,0.54,0.54S11.34,14.76,11.04,14.76z
		 M11.04,13.89c-0.19,0-0.34,0.15-0.34,0.34s0.15,0.34,0.34,0.34s0.34-0.15,0.34-0.34S11.23,13.89,11.04,13.89z"/>
</g>
<g>
	<circle class="st0" cx="11.04" cy="15.93" r="0.44"/>
	<path d="M11.04,16.46c-0.3,0-0.54-0.24-0.54-0.54s0.24-0.54,0.54-0.54c0.3,0,0.54,0.24,0.54,0.54S11.34,16.46,11.04,16.46z
		 M11.04,15.59c-0.19,0-0.34,0.15-0.34,0.34s0.15,0.34,0.34,0.34s0.34-0.15,0.34-0.34S11.23,15.59,11.04,15.59z"/>
</g>
<g>
	<circle class="st0" cx="11.04" cy="17.63" r="0.44"/>
	<path d="M11.04,18.16c-0.3,0-0.54-0.24-0.54-0.54s0.24-0.54,0.54-0.54c0.3,0,0.54,0.24,0.54,0.54S11.34,18.16,11.04,18.16z
		 M11.04,17.29c-0.19,0-0.34,0.15-0.34,0.34c0,0.19,0.15,0.34,0.34,0.34s0.34-0.15,0.34-0.34C11.38,17.44,11.23,17.29,11.04,17.29z"
		/>
</g>
<g>
	<path class="st0" d="M11.48,39.42c0,0.24-0.2,0.44-0.44,0.44c-0.24,0-0.44-0.2-0.44-0.44v-2.08c0-0.24,0.2-0.44,0.44-0.44
		c0.24,0,0.44,0.2,0.44,0.44V39.42z"/>
	<path d="M11.04,39.96c-0.3,0-0.54-0.24-0.54-0.54v-2.08c0-0.3,0.24-0.54,0.54-0.54c0.3,0,0.54,0.24,0.54,0.54v2.08
		C11.58,39.72,11.34,39.96,11.04,39.96z M11.04,37c-0.19,0-0.34,0.15-0.34,0.34v2.08c0,0.19,0.15,0.34,0.34,0.34
		s0.34-0.15,0.34-0.34v-2.08C11.38,37.15,11.23,37,11.04,37z"/>
</g>
<g>
	<path class="st0" d="M11.48,35.88c0,0.24-0.2,0.44-0.44,0.44c-0.24,0-0.44-0.2-0.44-0.44v-2.08c0-0.24,0.2-0.44,0.44-0.44
		c0.24,0,0.44,0.2,0.44,0.44V35.88z"/>
	<path d="M11.04,36.41c-0.3,0-0.54-0.24-0.54-0.54v-2.08c0-0.3,0.24-0.54,0.54-0.54c0.3,0,0.54,0.24,0.54,0.54v2.08
		C11.58,36.17,11.34,36.41,11.04,36.41z M11.04,33.46c-0.19,0-0.34,0.15-0.34,0.34v2.08c0,0.19,0.15,0.34,0.34,0.34
		s0.34-0.15,0.34-0.34v-2.08C11.38,33.61,11.23,33.46,11.04,33.46z"/>
</g>
<g>
	<path class="st0" d="M11.48,32.33c0,0.24-0.2,0.44-0.44,0.44c-0.24,0-0.44-0.2-0.44-0.44v-2.08c0-0.24,0.2-0.44,0.44-0.44
		c0.24,0,0.44,0.2,0.44,0.44V32.33z"/>
	<path d="M11.04,32.87c-0.3,0-0.54-0.24-0.54-0.54v-2.08c0-0.3,0.24-0.54,0.54-0.54c0.3,0,0.54,0.24,0.54,0.54v2.08
		C11.58,32.63,11.34,32.87,11.04,32.87z M11.04,29.91c-0.19,0-0.34,0.15-0.34,0.34v2.08c0,0.19,0.15,0.34,0.34,0.34
		s0.34-0.15,0.34-0.34v-2.08C11.38,30.06,11.23,29.91,11.04,29.91z"/>
</g>
<g>
	<path class="st0" d="M11.48,28.78c0,0.24-0.2,0.44-0.44,0.44c-0.24,0-0.44-0.2-0.44-0.44V26.7c0-0.24,0.2-0.44,0.44-0.44
		c0.24,0,0.44,0.2,0.44,0.44V28.78z"/>
	<path d="M11.04,29.32c-0.3,0-0.54-0.24-0.54-0.54V26.7c0-0.3,0.24-0.54,0.54-0.54c0.3,0,0.54,0.24,0.54,0.54v2.08
		C11.58,29.08,11.34,29.32,11.04,29.32z M11.04,26.36c-0.19,0-0.34,0.15-0.34,0.34v2.08c0,0.19,0.15,0.34,0.34,0.34
		s0.34-0.15,0.34-0.34V26.7C11.38,26.52,11.23,26.36,11.04,26.36z"/>
</g>
<g>
	<path class="st0" d="M11.48,25.24c0,0.24-0.2,0.44-0.44,0.44c-0.24,0-0.44-0.2-0.44-0.44v-2.08c0-0.24,0.2-0.44,0.44-0.44
		c0.24,0,0.44,0.2,0.44,0.44V25.24z"/>
	<path d="M11.04,25.77c-0.3,0-0.54-0.24-0.54-0.54v-2.08c0-0.3,0.24-0.54,0.54-0.54c0.3,0,0.54,0.24,0.54,0.54v2.08
		C11.58,25.53,11.34,25.77,11.04,25.77z M11.04,22.82c-0.19,0-0.34,0.15-0.34,0.34v2.08c0,0.19,0.15,0.34,0.34,0.34
		s0.34-0.15,0.34-0.34v-2.08C11.38,22.97,11.23,22.82,11.04,22.82z"/>
</g>
<g>
	<polygon class="st0" points="11.24,20.32 11.24,20.97 10.84,20.97 10.84,20.32 10.52,20.32 11.04,19.22 11.56,20.32 	"/>
	<path d="M11.24,21.07h-0.4c-0.06,0-0.1-0.04-0.1-0.1v-0.54h-0.22c-0.03,0-0.07-0.02-0.08-0.05c-0.02-0.03-0.02-0.07-0.01-0.1
		l0.52-1.1c0.02-0.04,0.05-0.06,0.09-0.06l0,0c0.04,0,0.07,0.02,0.09,0.06l0.52,1.1c0.01,0.03,0.01,0.07-0.01,0.1
		c-0.02,0.03-0.05,0.05-0.08,0.05h-0.22v0.54C11.34,21.02,11.3,21.07,11.24,21.07z M10.94,20.87h0.2v-0.54c0-0.06,0.04-0.1,0.1-0.1
		h0.16l-0.36-0.77l-0.36,0.77h0.16c0.06,0,0.1,0.04,0.1,0.1V20.87z"/>
</g>
<g>
	<path class="st0" d="M33.39,12.52c0,0.24-0.2,0.44-0.44,0.44c-0.24,0-0.44-0.2-0.44-0.44c0-0.24,0.2-0.44,0.44-0.44
		C33.2,12.09,33.39,12.28,33.39,12.52z"/>
	<path d="M32.95,13.06c-0.3,0-0.54-0.24-0.54-0.54s0.24-0.54,0.54-0.54s0.54,0.24,0.54,0.54S33.25,13.06,32.95,13.06z M32.95,12.19
		c-0.19,0-0.34,0.15-0.34,0.34c0,0.19,0.15,0.34,0.34,0.34s0.34-0.15,0.34-0.34C33.29,12.34,33.14,12.19,32.95,12.19z"/>
</g>
<g>
	<path class="st0" d="M33.39,10.78c0,0.24-0.2,0.44-0.44,0.44c-0.24,0-0.44-0.2-0.44-0.44c0-0.24,0.2-0.44,0.44-0.44
		C33.2,10.34,33.39,10.54,33.39,10.78z"/>
	<path d="M32.95,11.31c-0.3,0-0.54-0.24-0.54-0.54s0.24-0.54,0.54-0.54s0.54,0.24,0.54,0.54S33.25,11.31,32.95,11.31z M32.95,10.44
		c-0.19,0-0.34,0.15-0.34,0.34s0.15,0.34,0.34,0.34s0.34-0.15,0.34-0.34S33.14,10.44,32.95,10.44z"/>
</g>
<g>
	<path class="st0" d="M33.39,9.03c0,0.24-0.2,0.44-0.44,0.44c-0.24,0-0.44-0.2-0.44-0.44c0-0.24,0.2-0.44,0.44-0.44
		C33.2,8.59,33.39,8.79,33.39,9.03z"/>
	<path d="M32.95,9.57c-0.3,0-0.54-0.24-0.54-0.54s0.24-0.54,0.54-0.54s0.54,0.24,0.54,0.54S33.25,9.57,32.95,9.57z M32.95,8.69
		c-0.19,0-0.34,0.15-0.34,0.34s0.15,0.34,0.34,0.34s0.34-0.15,0.34-0.34S33.14,8.69,32.95,8.69z"/>
</g>
<g>
	<path class="st0" d="M33.39,7.28c0,0.24-0.2,0.44-0.44,0.44c-0.24,0-0.44-0.2-0.44-0.44c0-0.24,0.2-0.44,0.44-0.44
		C33.2,6.85,33.39,7.04,33.39,7.28z"/>
	<path d="M32.95,7.82c-0.3,0-0.54-0.24-0.54-0.54s0.24-0.54,0.54-0.54s0.54,0.24,0.54,0.54S33.25,7.82,32.95,7.82z M32.95,6.94
		c-0.19,0-0.34,0.15-0.34,0.34s0.15,0.34,0.34,0.34s0.34-0.15,0.34-0.34S33.14,6.94,32.95,6.94z"/>
</g>
<g>
	<path class="st0" d="M33.39,5.54c0,0.24-0.2,0.44-0.44,0.44c-0.24,0-0.44-0.2-0.44-0.44c0-0.24,0.2-0.44,0.44-0.44
		C33.2,5.1,33.39,5.29,33.39,5.54z"/>
	<path d="M32.95,6.07c-0.3,0-0.54-0.24-0.54-0.54S32.66,5,32.95,5s0.54,0.24,0.54,0.54S33.25,6.07,32.95,6.07z M32.95,5.2
		c-0.19,0-0.34,0.15-0.34,0.34s0.15,0.34,0.34,0.34s0.34-0.15,0.34-0.34S33.14,5.2,32.95,5.2z"/>
</g>
<g>
	<path class="st0" d="M33.39,14.22c0,0.24-0.2,0.44-0.44,0.44c-0.24,0-0.44-0.2-0.44-0.44c0-0.24,0.2-0.44,0.44-0.44
		C33.2,13.79,33.39,13.98,33.39,14.22z"/>
	<path d="M32.95,14.76c-0.3,0-0.54-0.24-0.54-0.54s0.24-0.54,0.54-0.54s0.54,0.24,0.54,0.54S33.25,14.76,32.95,14.76z M32.95,13.89
		c-0.19,0-0.34,0.15-0.34,0.34s0.15,0.34,0.34,0.34s0.34-0.15,0.34-0.34S33.14,13.89,32.95,13.89z"/>
</g>
<g>
	<path class="st0" d="M33.39,15.93c0,0.24-0.2,0.44-0.44,0.44c-0.24,0-0.44-0.2-0.44-0.44c0-0.24,0.2-0.44,0.44-0.44
		C33.2,15.49,33.39,15.68,33.39,15.93z"/>
	<path d="M32.95,16.46c-0.3,0-0.54-0.24-0.54-0.54s0.24-0.54,0.54-0.54s0.54,0.24,0.54,0.54S33.25,16.46,32.95,16.46z M32.95,15.59
		c-0.19,0-0.34,0.15-0.34,0.34s0.15,0.34,0.34,0.34s0.34-0.15,0.34-0.34S33.14,15.59,32.95,15.59z"/>
</g>
<g>
	<path class="st0" d="M33.39,17.63c0,0.24-0.2,0.44-0.44,0.44c-0.24,0-0.44-0.2-0.44-0.44c0-0.24,0.2-0.44,0.44-0.44
		C33.2,17.19,33.39,17.38,33.39,17.63z"/>
	<path d="M32.95,18.16c-0.3,0-0.54-0.24-0.54-0.54s0.24-0.54,0.54-0.54s0.54,0.24,0.54,0.54S33.25,18.16,32.95,18.16z M32.95,17.29
		c-0.19,0-0.34,0.15-0.34,0.34c0,0.19,0.15,0.34,0.34,0.34s0.34-0.15,0.34-0.34C33.29,17.44,33.14,17.29,32.95,17.29z"/>
</g>
<g>
	<path class="st0" d="M32.52,37.34c0-0.24,0.2-0.44,0.44-0.44c0.24,0,0.44,0.2,0.44,0.44v2.08c0,0.24-0.2,0.44-0.44,0.44
		c-0.24,0-0.44-0.2-0.44-0.44V37.34z"/>
	<path d="M32.95,39.96c-0.3,0-0.54-0.24-0.54-0.54v-2.08c0-0.3,0.24-0.54,0.54-0.54s0.54,0.24,0.54,0.54v2.08
		C33.49,39.72,33.25,39.96,32.95,39.96z M32.95,37c-0.19,0-0.34,0.15-0.34,0.34v2.08c0,0.19,0.15,0.34,0.34,0.34
		s0.34-0.15,0.34-0.34v-2.08C33.29,37.15,33.14,37,32.95,37z"/>
</g>
<g>
	<path class="st0" d="M32.52,33.79c0-0.24,0.2-0.44,0.44-0.44c0.24,0,0.44,0.2,0.44,0.44v2.08c0,0.24-0.2,0.44-0.44,0.44
		c-0.24,0-0.44-0.2-0.44-0.44V33.79z"/>
	<path d="M32.95,36.41c-0.3,0-0.54-0.24-0.54-0.54v-2.08c0-0.3,0.24-0.54,0.54-0.54s0.54,0.24,0.54,0.54v2.08
		C33.49,36.17,33.25,36.41,32.95,36.41z M32.95,33.46c-0.19,0-0.34,0.15-0.34,0.34v2.08c0,0.19,0.15,0.34,0.34,0.34
		s0.34-0.15,0.34-0.34v-2.08C33.29,33.61,33.14,33.46,32.95,33.46z"/>
</g>
<g>
	<path class="st0" d="M32.52,30.25c0-0.24,0.2-0.44,0.44-0.44c0.24,0,0.44,0.2,0.44,0.44v2.08c0,0.24-0.2,0.44-0.44,0.44
		c-0.24,0-0.44-0.2-0.44-0.44V30.25z"/>
	<path d="M32.95,32.87c-0.3,0-0.54-0.24-0.54-0.54v-2.08c0-0.3,0.24-0.54,0.54-0.54s0.54,0.24,0.54,0.54v2.08
		C33.49,32.63,33.25,32.87,32.95,32.87z M32.95,29.91c-0.19,0-0.34,0.15-0.34,0.34v2.08c0,0.19,0.15,0.34,0.34,0.34
		s0.34-0.15,0.34-0.34v-2.08C33.29,30.06,33.14,29.91,32.95,29.91z"/>
</g>
<g>
	<path class="st0" d="M32.52,26.7c0-0.24,0.2-0.44,0.44-0.44c0.24,0,0.44,0.2,0.44,0.44v2.08c0,0.24-0.2,0.44-0.44,0.44
		c-0.24,0-0.44-0.2-0.44-0.44V26.7z"/>
	<path d="M32.95,29.32c-0.3,0-0.54-0.24-0.54-0.54V26.7c0-0.3,0.24-0.54,0.54-0.54s0.54,0.24,0.54,0.54v2.08
		C33.49,29.08,33.25,29.32,32.95,29.32z M32.95,26.36c-0.19,0-0.34,0.15-0.34,0.34v2.08c0,0.19,0.15,0.34,0.34,0.34
		s0.34-0.15,0.34-0.34V26.7C33.29,26.52,33.14,26.36,32.95,26.36z"/>
</g>
<g>
	<path class="st0" d="M32.52,23.16c0-0.24,0.2-0.44,0.44-0.44c0.24,0,0.44,0.2,0.44,0.44v2.08c0,0.24-0.2,0.44-0.44,0.44
		c-0.24,0-0.44-0.2-0.44-0.44V23.16z"/>
	<path d="M32.95,25.77c-0.3,0-0.54-0.24-0.54-0.54v-2.08c0-0.3,0.24-0.54,0.54-0.54s0.54,0.24,0.54,0.54v2.08
		C33.49,25.53,33.25,25.77,32.95,25.77z M32.95,22.82c-0.19,0-0.34,0.15-0.34,0.34v2.08c0,0.19,0.15,0.34,0.34,0.34
		s0.34-0.15,0.34-0.34v-2.08C33.29,22.97,33.14,22.82,32.95,22.82z"/>
</g>
<g>
	<polygon class="st0" points="32.44,20.32 32.95,19.22 33.47,20.32 33.16,20.32 33.16,20.97 32.75,20.97 32.75,20.32 	"/>
	<path d="M33.16,21.07h-0.4c-0.06,0-0.1-0.04-0.1-0.1v-0.54h-0.22c-0.03,0-0.07-0.02-0.08-0.05c-0.02-0.03-0.02-0.07-0.01-0.1
		l0.52-1.1c0.03-0.07,0.15-0.07,0.18,0l0.52,1.1c0.01,0.03,0.01,0.07-0.01,0.1c-0.02,0.03-0.05,0.05-0.08,0.05h-0.22v0.54
		C33.26,21.02,33.21,21.07,33.16,21.07z M32.85,20.87h0.2v-0.54c0-0.06,0.04-0.1,0.1-0.1h0.16l-0.36-0.77l-0.36,0.77h0.16
		c0.06,0,0.1,0.04,0.1,0.1V20.87z"/>
</g>
<g>
	<path class="st0" d="M9.14,36.42h-3.1c-0.55,0-0.99-0.44-0.99-0.99V20.09c0-0.55,0.44-0.99,0.99-0.99h3.1V36.42z"/>
	<path d="M9.14,36.52h-3.1c-0.6,0-1.09-0.49-1.09-1.09V20.09c0-0.6,0.49-1.09,1.09-1.09h3.1c0.06,0,0.1,0.04,0.1,0.1v17.33
		C9.24,36.48,9.19,36.52,9.14,36.52z M6.04,19.19c-0.49,0-0.89,0.4-0.89,0.89v15.34c0,0.49,0.4,0.89,0.89,0.89h3V19.19H6.04z"/>
</g>
<g class="st3">
	<path d="M6.21,21.13c-0.31,0-0.57-0.25-0.57-0.57s0.25-0.57,0.57-0.57s0.57,0.25,0.57,0.57S6.52,21.13,6.21,21.13z M6.21,20.19
		c-0.2,0-0.37,0.17-0.37,0.37S6,20.93,6.21,20.93s0.37-0.17,0.37-0.37S6.41,20.19,6.21,20.19z"/>
</g>
<g class="st3">
	<path d="M6.21,32.9c-0.31,0-0.57-0.25-0.57-0.57s0.25-0.57,0.57-0.57s0.57,0.25,0.57,0.57S6.52,32.9,6.21,32.9z M6.21,31.96
		c-0.2,0-0.37,0.17-0.37,0.37S6,32.7,6.21,32.7s0.37-0.17,0.37-0.37S6.41,31.96,6.21,31.96z"/>
</g>
</svg>
