<?xml version="1.0" encoding="utf-8"?>
<!-- Generator: Adobe Illustrator 26.2.1, SVG Export Plug-In . SVG Version: 6.00 Build 0)  -->
<svg version="1.1" id="Layer_1" xmlns="http://www.w3.org/2000/svg" xmlns:xlink="http://www.w3.org/1999/xlink" x="0px" y="0px"
	 viewBox="0 0 43.99 43.99" style="enable-background:new 0 0 43.99 43.99;" xml:space="preserve">
<style type="text/css">
	.st0{fill:#71C1C2;}
	.st1{fill:#FFFFFF;}
	.st2{fill:#010101;}
	.st3{opacity:0.15;}
	.st4{fill:#221F20;}
</style>
<g>
	<path class="st0" d="M41.65,43.99H2.34C1.05,43.99,0,42.95,0,41.65V2.34C0,1.05,1.05,0,2.34,0h39.31C42.95,0,44,1.05,44,2.34v39.31
		C44,42.95,42.95,43.99,41.65,43.99z"/>
</g>
<g>
	<g>
		<rect x="7.45" y="13" class="st1" width="29.08" height="18"/>
		<path class="st2" d="M36.53,31.17H7.45c-0.1,0-0.17-0.08-0.17-0.17V13c0-0.1,0.08-0.17,0.17-0.17h29.08c0.1,0,0.17,0.08,0.17,0.17
			v18C36.71,31.09,36.63,31.17,36.53,31.17z M7.63,30.82h28.73V13.17H7.63V30.82z"/>
	</g>
	<g class="st3">
		<polygon class="st4" points="36.53,16.5 7.43,26.5 7.43,13 36.53,13 		"/>
	</g>
</g>
</svg>
