<?xml version="1.0" encoding="utf-8"?>
<!-- Generator: Adobe Illustrator 26.2.1, SVG Export Plug-In . SVG Version: 6.00 Build 0)  -->
<svg version="1.1" id="Layer_1" xmlns="http://www.w3.org/2000/svg" xmlns:xlink="http://www.w3.org/1999/xlink" x="0px" y="0px"
	 viewBox="0 0 43.99 43.99" style="enable-background:new 0 0 43.99 43.99;" xml:space="preserve">
<style type="text/css">
	.st0{fill:#71C1C2;}
	.st1{fill:#FFFFFF;}
	.st2{fill:#010101;}
	.st3{opacity:0.5;}
</style>
<g>
	<path class="st0" d="M41.65,43.99H2.34C1.05,43.99,0,42.95,0,41.65V2.34C0,1.05,1.05,0,2.34,0h39.31C42.95,0,44,1.05,44,2.34v39.31
		C44,42.95,42.95,43.99,41.65,43.99z"/>
</g>
<g>
	<polygon class="st1" points="23.39,17.57 25.35,17.57 22,14.22 18.65,17.57 20.6,17.57 20.6,26.42 18.65,26.42 22,29.77 
		25.35,26.42 23.39,26.42 	"/>
</g>
<g>
	<g>
		<g>
			<g>
				<path class="st1" d="M12.25,7.45v33.37h3.8V7.45H12.25z"/>
				<path class="st2" d="M16.05,40.99h-3.8c-0.1,0-0.17-0.08-0.17-0.17V7.45c0-0.1,0.08-0.17,0.17-0.17h3.8
					c0.1,0,0.17,0.08,0.17,0.17v33.37C16.23,40.91,16.15,40.99,16.05,40.99z M12.42,40.64h3.46V7.62h-3.46V40.64z"/>
			</g>
			<g>
				<rect x="6.1" y="37.08" class="st0" width="2.1" height="0.46"/>
				<path d="M8.2,37.65H6.1c-0.06,0-0.1-0.04-0.1-0.1v-0.46c0-0.06,0.04-0.1,0.1-0.1h2.1c0.06,0,0.1,0.04,0.1,0.1v0.46
					C8.3,37.6,8.25,37.65,8.2,37.65z M6.2,37.45h1.9v-0.26H6.2V37.45z"/>
			</g>
			<g>
				<rect x="9.05" y="16.83" class="st0" width="1.25" height="1.6"/>
				<path d="M10.3,18.53H9.05c-0.06,0-0.1-0.04-0.1-0.1v-1.6c0-0.06,0.04-0.1,0.1-0.1h1.25c0.06,0,0.1,0.04,0.1,0.1v1.6
					C10.4,18.48,10.35,18.53,10.3,18.53z M9.15,18.33h1.05v-1.4H9.15V18.33z"/>
			</g>
			<g>
				<rect x="8.07" y="15.79" class="st0" width="0.56" height="2.73"/>
				<path d="M8.62,18.62H8.07c-0.06,0-0.1-0.04-0.1-0.1v-2.73c0-0.06,0.04-0.1,0.1-0.1h0.56c0.06,0,0.1,0.04,0.1,0.1v2.73
					C8.72,18.57,8.68,18.62,8.62,18.62z M8.17,18.42h0.36v-2.53H8.17V18.42z"/>
			</g>
			<g>
				<rect x="10.72" y="15.79" class="st0" width="0.56" height="2.73"/>
				<path d="M11.28,18.62h-0.56c-0.06,0-0.1-0.04-0.1-0.1v-2.73c0-0.06,0.04-0.1,0.1-0.1h0.56c0.06,0,0.1,0.04,0.1,0.1v2.73
					C11.38,18.57,11.34,18.62,11.28,18.62z M10.82,18.42h0.36v-2.53h-0.36V18.42z"/>
			</g>
			<g>
				<rect x="7.15" y="19.03" class="st0" width="1.01" height="1.53"/>
				<path d="M8.16,20.66H7.15c-0.06,0-0.1-0.04-0.1-0.1v-1.53c0-0.06,0.04-0.1,0.1-0.1h1.01c0.06,0,0.1,0.04,0.1,0.1v1.53
					C8.26,20.62,8.21,20.66,8.16,20.66z M7.25,20.46h0.81v-1.33H7.25V20.46z"/>
			</g>
			<g>
				<rect x="7.15" y="33.67" class="st0" width="1.01" height="1.53"/>
				<path d="M8.16,35.3H7.15c-0.06,0-0.1-0.04-0.1-0.1v-1.53c0-0.06,0.04-0.1,0.1-0.1h1.01c0.06,0,0.1,0.04,0.1,0.1v1.53
					C8.26,35.25,8.21,35.3,8.16,35.3z M7.25,35.1h0.81v-1.33H7.25V35.1z"/>
			</g>
			<g>
				<rect x="7.65" y="18.29" class="st0" width="4.06" height="20.55"/>
				<path d="M11.71,38.94H7.65c-0.06,0-0.1-0.04-0.1-0.1V18.29c0-0.06,0.04-0.1,0.1-0.1h4.06c0.06,0,0.1,0.04,0.1,0.1v20.55
					C11.81,38.9,11.77,38.94,11.71,38.94z M7.75,38.74h3.86V18.39H7.75V38.74z"/>
			</g>
			<g>
				<path class="st0" d="M12.25,36.42h-3.1c-0.55,0-0.99-0.44-0.99-0.99V20.09c0-0.55,0.44-0.99,0.99-0.99h3.1V36.42z"/>
				<path d="M12.25,36.52h-3.1c-0.6,0-1.09-0.49-1.09-1.09V20.09c0-0.6,0.49-1.09,1.09-1.09h3.1c0.06,0,0.1,0.04,0.1,0.1v17.33
					C12.35,36.48,12.3,36.52,12.25,36.52z M9.15,19.19c-0.49,0-0.89,0.4-0.89,0.89v15.34c0,0.49,0.4,0.89,0.89,0.89h3V19.19H9.15z"
					/>
			</g>
			<g class="st3">
				<circle class="st1" cx="9.32" cy="20.56" r="0.47"/>
				<path d="M9.32,21.13c-0.31,0-0.57-0.25-0.57-0.57S9,19.99,9.32,19.99s0.57,0.25,0.57,0.57S9.63,21.13,9.32,21.13z M9.32,20.19
					c-0.2,0-0.37,0.17-0.37,0.37s0.17,0.37,0.37,0.37s0.37-0.17,0.37-0.37S9.52,20.19,9.32,20.19z"/>
			</g>
			<g class="st3">
				<circle class="st1" cx="9.32" cy="32.33" r="0.47"/>
				<path d="M9.32,32.9c-0.31,0-0.57-0.25-0.57-0.57S9,31.76,9.32,31.76s0.57,0.25,0.57,0.57S9.63,32.9,9.32,32.9z M9.32,31.96
					c-0.2,0-0.37,0.17-0.37,0.37s0.17,0.37,0.37,0.37s0.37-0.17,0.37-0.37S9.52,31.96,9.32,31.96z"/>
			</g>
			<path class="st1" d="M11.83,0v11.38h4.65V0H11.83z"/>
			<g>
				<rect x="8.63" y="16.36" class="st0" width="2.1" height="0.46"/>
				<path d="M10.72,16.93h-2.1c-0.06,0-0.1-0.04-0.1-0.1v-0.46c0-0.06,0.04-0.1,0.1-0.1h2.1c0.06,0,0.1,0.04,0.1,0.1v0.46
					C10.82,16.88,10.78,16.93,10.72,16.93z M8.72,16.73h1.9v-0.26h-1.9V16.73z"/>
			</g>
			<g>
				<rect x="9.05" y="15.37" class="st0" width="1.25" height="0.99"/>
				<path d="M10.3,16.46H9.05c-0.06,0-0.1-0.04-0.1-0.1v-0.99c0-0.06,0.04-0.1,0.1-0.1h1.25c0.06,0,0.1,0.04,0.1,0.1v0.99
					C10.4,16.42,10.35,16.46,10.3,16.46z M9.15,16.26h1.05v-0.79H9.15V16.26z"/>
			</g>
		</g>
		<g>
			<g>
				<path class="st1" d="M27.94,7.45v33.37h3.8V7.45H27.94z"/>
				<path class="st2" d="M31.75,40.99h-3.8c-0.1,0-0.17-0.08-0.17-0.17V7.45c0-0.1,0.08-0.17,0.17-0.17h3.8
					c0.1,0,0.17,0.08,0.17,0.17v33.37C31.92,40.91,31.84,40.99,31.75,40.99z M28.12,40.64h3.45V7.62h-3.45V40.64z"/>
			</g>
			<g>
				
					<rect x="35.8" y="37.08" transform="matrix(-1 -4.420521e-11 4.420521e-11 -1 73.6923 74.6331)" class="st0" width="2.1" height="0.46"/>
				<path d="M37.9,37.65h-2.1c-0.06,0-0.1-0.04-0.1-0.1v-0.46c0-0.06,0.04-0.1,0.1-0.1h2.1c0.06,0,0.1,0.04,0.1,0.1v0.46
					C38,37.6,37.95,37.65,37.9,37.65z M35.9,37.45h1.9v-0.26h-1.9V37.45z"/>
			</g>
			<g>
				
					<rect x="33.7" y="16.83" transform="matrix(-1 -4.526702e-11 4.526702e-11 -1 68.6416 35.2546)" class="st0" width="1.25" height="1.6"/>
				<path d="M34.94,18.53H33.7c-0.06,0-0.1-0.04-0.1-0.1v-1.6c0-0.06,0.04-0.1,0.1-0.1h1.25c0.06,0,0.1,0.04,0.1,0.1v1.6
					C35.04,18.48,35,18.53,34.94,18.53z M33.8,18.33h1.05v-1.4H33.8V18.33z"/>
			</g>
			<g>
				
					<rect x="35.37" y="15.79" transform="matrix(-1 -4.572888e-11 4.572888e-11 -1 71.2971 34.3041)" class="st0" width="0.56" height="2.73"/>
				<path d="M35.93,18.62h-0.56c-0.06,0-0.1-0.04-0.1-0.1v-2.73c0-0.06,0.04-0.1,0.1-0.1h0.56c0.06,0,0.1,0.04,0.1,0.1v2.73
					C36.03,18.57,35.98,18.62,35.93,18.62z M35.47,18.42h0.36v-2.53h-0.36V18.42z"/>
			</g>
			<g>
				
					<rect x="32.71" y="15.79" transform="matrix(-1 -4.572888e-11 4.572888e-11 -1 65.9861 34.3041)" class="st0" width="0.56" height="2.73"/>
				<path d="M33.27,18.62h-0.56c-0.06,0-0.1-0.04-0.1-0.1v-2.73c0-0.06,0.04-0.1,0.1-0.1h0.56c0.06,0,0.1,0.04,0.1,0.1v2.73
					C33.37,18.57,33.33,18.62,33.27,18.62z M32.81,18.42h0.36v-2.53h-0.36V18.42z"/>
			</g>
			<g>
				
					<rect x="35.84" y="19.03" transform="matrix(-1 -4.515600e-11 4.515600e-11 -1 72.6852 39.5937)" class="st0" width="1.01" height="1.53"/>
				<path d="M36.85,20.66h-1.01c-0.06,0-0.1-0.04-0.1-0.1v-1.53c0-0.06,0.04-0.1,0.1-0.1h1.01c0.06,0,0.1,0.04,0.1,0.1v1.53
					C36.95,20.62,36.9,20.66,36.85,20.66z M35.94,20.46h0.81v-1.33h-0.81V20.46z"/>
			</g>
			<g>
				
					<rect x="35.84" y="33.67" transform="matrix(-1 -4.154333e-11 4.154333e-11 -1 72.6852 68.8617)" class="st0" width="1.01" height="1.53"/>
				<path d="M36.85,35.3h-1.01c-0.06,0-0.1-0.04-0.1-0.1v-1.53c0-0.06,0.04-0.1,0.1-0.1h1.01c0.06,0,0.1,0.04,0.1,0.1v1.53
					C36.95,35.25,36.9,35.3,36.85,35.3z M35.94,35.1h0.81v-1.33h-0.81V35.1z"/>
			</g>
			<g>
				
					<rect x="32.28" y="18.29" transform="matrix(-1 -4.437263e-11 4.437263e-11 -1 68.6268 57.1352)" class="st0" width="4.06" height="20.55"/>
				<path d="M36.34,38.94h-4.06c-0.06,0-0.1-0.04-0.1-0.1V18.29c0-0.06,0.04-0.1,0.1-0.1h4.06c0.06,0,0.1,0.04,0.1,0.1v20.55
					C36.44,38.9,36.4,38.94,36.34,38.94z M32.38,38.74h3.86V18.39h-3.86V38.74z"/>
			</g>
			<g>
				<path class="st0" d="M31.75,36.42h3.1c0.55,0,0.99-0.44,0.99-0.99V20.09c0-0.55-0.44-0.99-0.99-0.99h-3.1V36.42z"/>
				<path d="M34.85,36.52h-3.1c-0.06,0-0.1-0.04-0.1-0.1V19.09c0-0.06,0.04-0.1,0.1-0.1h3.1c0.6,0,1.09,0.49,1.09,1.09v15.34
					C35.94,36.03,35.45,36.52,34.85,36.52z M31.85,36.32h3c0.49,0,0.89-0.4,0.89-0.89V20.09c0-0.49-0.4-0.89-0.89-0.89h-3V36.32z"/>
			</g>
			<g class="st3">
				<circle class="st1" cx="34.68" cy="20.56" r="0.47"/>
				<path d="M34.68,21.13c-0.31,0-0.57-0.25-0.57-0.57s0.25-0.57,0.57-0.57s0.57,0.25,0.57,0.57S34.99,21.13,34.68,21.13z
					 M34.68,20.19c-0.2,0-0.37,0.17-0.37,0.37s0.17,0.37,0.37,0.37s0.37-0.17,0.37-0.37S34.88,20.19,34.68,20.19z"/>
			</g>
			<g class="st3">
				<circle class="st1" cx="34.68" cy="32.33" r="0.47"/>
				<path d="M34.68,32.9c-0.31,0-0.57-0.25-0.57-0.57s0.25-0.57,0.57-0.57s0.57,0.25,0.57,0.57S34.99,32.9,34.68,32.9z M34.68,31.96
					c-0.2,0-0.37,0.17-0.37,0.37s0.17,0.37,0.37,0.37s0.37-0.17,0.37-0.37S34.88,31.96,34.68,31.96z"/>
			</g>
			<g>
				
					<rect x="33.27" y="16.36" transform="matrix(-1 -4.420521e-11 4.420521e-11 -1 68.6416 33.1895)" class="st0" width="2.1" height="0.46"/>
				<path d="M35.37,16.93h-2.1c-0.06,0-0.1-0.04-0.1-0.1v-0.46c0-0.06,0.04-0.1,0.1-0.1h2.1c0.06,0,0.1,0.04,0.1,0.1v0.46
					C35.47,16.88,35.43,16.93,35.37,16.93z M33.37,16.73h1.9v-0.26h-1.9V16.73z"/>
			</g>
			<g>
				
					<rect x="33.7" y="15.37" transform="matrix(-1 -4.380686e-11 4.380686e-11 -1 68.6416 31.7352)" class="st0" width="1.25" height="0.99"/>
				<path d="M34.94,16.46H33.7c-0.06,0-0.1-0.04-0.1-0.1v-0.99c0-0.06,0.04-0.1,0.1-0.1h1.25c0.06,0,0.1,0.04,0.1,0.1v0.99
					C35.04,16.42,35,16.46,34.94,16.46z M33.8,16.26h1.05v-0.79H33.8V16.26z"/>
			</g>
		</g>
	</g>
</g>
<g>
	<path class="st0" d="M30.28,12.52c0,0.24-0.2,0.44-0.44,0.44c-0.24,0-0.44-0.2-0.44-0.44c0-0.24,0.2-0.44,0.44-0.44
		C30.09,12.09,30.28,12.28,30.28,12.52z"/>
	<path d="M29.84,13.06c-0.3,0-0.54-0.24-0.54-0.54s0.24-0.54,0.54-0.54c0.3,0,0.54,0.24,0.54,0.54S30.14,13.06,29.84,13.06z
		 M29.84,12.19c-0.19,0-0.34,0.15-0.34,0.34c0,0.19,0.15,0.34,0.34,0.34s0.34-0.15,0.34-0.34C30.18,12.34,30.03,12.19,29.84,12.19z"
		/>
</g>
<g>
	<path class="st0" d="M30.28,14.22c0,0.24-0.2,0.44-0.44,0.44c-0.24,0-0.44-0.2-0.44-0.44c0-0.24,0.2-0.44,0.44-0.44
		C30.09,13.79,30.28,13.98,30.28,14.22z"/>
	<path d="M29.84,14.76c-0.3,0-0.54-0.24-0.54-0.54s0.24-0.54,0.54-0.54c0.3,0,0.54,0.24,0.54,0.54S30.14,14.76,29.84,14.76z
		 M29.84,13.89c-0.19,0-0.34,0.15-0.34,0.34s0.15,0.34,0.34,0.34s0.34-0.15,0.34-0.34S30.03,13.89,29.84,13.89z"/>
</g>
<g>
	<path class="st0" d="M30.28,15.93c0,0.24-0.2,0.44-0.44,0.44c-0.24,0-0.44-0.2-0.44-0.44c0-0.24,0.2-0.44,0.44-0.44
		C30.09,15.49,30.28,15.68,30.28,15.93z"/>
	<path d="M29.84,16.46c-0.3,0-0.54-0.24-0.54-0.54s0.24-0.54,0.54-0.54c0.3,0,0.54,0.24,0.54,0.54S30.14,16.46,29.84,16.46z
		 M29.84,15.59c-0.19,0-0.34,0.15-0.34,0.34s0.15,0.34,0.34,0.34s0.34-0.15,0.34-0.34S30.03,15.59,29.84,15.59z"/>
</g>
<g>
	<path class="st0" d="M30.28,17.63c0,0.24-0.2,0.44-0.44,0.44c-0.24,0-0.44-0.2-0.44-0.44c0-0.24,0.2-0.44,0.44-0.44
		C30.09,17.19,30.28,17.38,30.28,17.63z"/>
	<path d="M29.84,18.16c-0.3,0-0.54-0.24-0.54-0.54s0.24-0.54,0.54-0.54c0.3,0,0.54,0.24,0.54,0.54S30.14,18.16,29.84,18.16z
		 M29.84,17.29c-0.19,0-0.34,0.15-0.34,0.34c0,0.19,0.15,0.34,0.34,0.34s0.34-0.15,0.34-0.34C30.18,17.44,30.03,17.29,29.84,17.29z"
		/>
</g>
<g>
	<path class="st0" d="M29.41,37.34c0-0.24,0.2-0.44,0.44-0.44c0.24,0,0.44,0.2,0.44,0.44v2.08c0,0.24-0.2,0.44-0.44,0.44
		c-0.24,0-0.44-0.2-0.44-0.44V37.34z"/>
	<path d="M29.84,39.96c-0.3,0-0.54-0.24-0.54-0.54v-2.08c0-0.3,0.24-0.54,0.54-0.54c0.3,0,0.54,0.24,0.54,0.54v2.08
		C30.38,39.72,30.14,39.96,29.84,39.96z M29.84,37c-0.19,0-0.34,0.15-0.34,0.34v2.08c0,0.19,0.15,0.34,0.34,0.34
		s0.34-0.15,0.34-0.34v-2.08C30.18,37.15,30.03,37,29.84,37z"/>
</g>
<g>
	<path class="st0" d="M29.41,33.79c0-0.24,0.2-0.44,0.44-0.44c0.24,0,0.44,0.2,0.44,0.44v2.08c0,0.24-0.2,0.44-0.44,0.44
		c-0.24,0-0.44-0.2-0.44-0.44V33.79z"/>
	<path d="M29.84,36.41c-0.3,0-0.54-0.24-0.54-0.54v-2.08c0-0.3,0.24-0.54,0.54-0.54c0.3,0,0.54,0.24,0.54,0.54v2.08
		C30.38,36.17,30.14,36.41,29.84,36.41z M29.84,33.46c-0.19,0-0.34,0.15-0.34,0.34v2.08c0,0.19,0.15,0.34,0.34,0.34
		s0.34-0.15,0.34-0.34v-2.08C30.18,33.61,30.03,33.46,29.84,33.46z"/>
</g>
<g>
	<path class="st0" d="M29.41,30.25c0-0.24,0.2-0.44,0.44-0.44c0.24,0,0.44,0.2,0.44,0.44v2.08c0,0.24-0.2,0.44-0.44,0.44
		c-0.24,0-0.44-0.2-0.44-0.44V30.25z"/>
	<path d="M29.84,32.87c-0.3,0-0.54-0.24-0.54-0.54v-2.08c0-0.3,0.24-0.54,0.54-0.54c0.3,0,0.54,0.24,0.54,0.54v2.08
		C30.38,32.63,30.14,32.87,29.84,32.87z M29.84,29.91c-0.19,0-0.34,0.15-0.34,0.34v2.08c0,0.19,0.15,0.34,0.34,0.34
		s0.34-0.15,0.34-0.34v-2.08C30.18,30.06,30.03,29.91,29.84,29.91z"/>
</g>
<g>
	<path class="st0" d="M29.41,26.7c0-0.24,0.2-0.44,0.44-0.44c0.24,0,0.44,0.2,0.44,0.44v2.08c0,0.24-0.2,0.44-0.44,0.44
		c-0.24,0-0.44-0.2-0.44-0.44V26.7z"/>
	<path d="M29.84,29.32c-0.3,0-0.54-0.24-0.54-0.54V26.7c0-0.3,0.24-0.54,0.54-0.54c0.3,0,0.54,0.24,0.54,0.54v2.08
		C30.38,29.08,30.14,29.32,29.84,29.32z M29.84,26.36c-0.19,0-0.34,0.15-0.34,0.34v2.08c0,0.19,0.15,0.34,0.34,0.34
		s0.34-0.15,0.34-0.34V26.7C30.18,26.52,30.03,26.36,29.84,26.36z"/>
</g>
<g>
	<path class="st0" d="M29.41,23.16c0-0.24,0.2-0.44,0.44-0.44c0.24,0,0.44,0.2,0.44,0.44v2.08c0,0.24-0.2,0.44-0.44,0.44
		c-0.24,0-0.44-0.2-0.44-0.44V23.16z"/>
	<path d="M29.84,25.77c-0.3,0-0.54-0.24-0.54-0.54v-2.08c0-0.3,0.24-0.54,0.54-0.54c0.3,0,0.54,0.24,0.54,0.54v2.08
		C30.38,25.53,30.14,25.77,29.84,25.77z M29.84,22.82c-0.19,0-0.34,0.15-0.34,0.34v2.08c0,0.19,0.15,0.34,0.34,0.34
		s0.34-0.15,0.34-0.34v-2.08C30.18,22.97,30.03,22.82,29.84,22.82z"/>
</g>
<g>
	<polygon class="st0" points="29.33,20.32 29.84,19.22 30.36,20.32 30.04,20.32 30.04,20.97 29.64,20.97 29.64,20.32 	"/>
	<path d="M30.04,21.07h-0.4c-0.06,0-0.1-0.04-0.1-0.1v-0.54h-0.22c-0.03,0-0.07-0.02-0.08-0.05c-0.02-0.03-0.02-0.07-0.01-0.1
		l0.52-1.1c0.02-0.04,0.05-0.06,0.09-0.06l0,0c0.04,0,0.07,0.02,0.09,0.06l0.52,1.1c0.01,0.03,0.01,0.07-0.01,0.1
		c-0.02,0.03-0.05,0.05-0.08,0.05h-0.22v0.54C30.14,21.02,30.1,21.07,30.04,21.07z M29.74,20.87h0.2v-0.54c0-0.06,0.04-0.1,0.1-0.1
		h0.16l-0.36-0.77l-0.36,0.77h0.16c0.06,0,0.1,0.04,0.1,0.1V20.87z"/>
</g>
<g>
	<path class="st0" d="M14.15,12.09c0.24,0,0.44,0.2,0.44,0.44c0,0.24-0.2,0.44-0.44,0.44c-0.24,0-0.44-0.2-0.44-0.44
		C13.71,12.28,13.91,12.09,14.15,12.09z"/>
	<path d="M14.15,13.06c-0.3,0-0.54-0.24-0.54-0.54s0.24-0.54,0.54-0.54s0.54,0.24,0.54,0.54S14.45,13.06,14.15,13.06z M14.15,12.19
		c-0.19,0-0.34,0.15-0.34,0.34c0,0.19,0.15,0.34,0.34,0.34s0.34-0.15,0.34-0.34C14.49,12.34,14.34,12.19,14.15,12.19z"/>
</g>
<g>
	<path class="st0" d="M14.15,13.79c0.24,0,0.44,0.2,0.44,0.44c0,0.24-0.2,0.44-0.44,0.44c-0.24,0-0.44-0.2-0.44-0.44
		C13.71,13.98,13.91,13.79,14.15,13.79z"/>
	<path d="M14.15,14.76c-0.3,0-0.54-0.24-0.54-0.54s0.24-0.54,0.54-0.54s0.54,0.24,0.54,0.54S14.45,14.76,14.15,14.76z M14.15,13.89
		c-0.19,0-0.34,0.15-0.34,0.34s0.15,0.34,0.34,0.34s0.34-0.15,0.34-0.34S14.34,13.89,14.15,13.89z"/>
</g>
<g>
	<path class="st0" d="M14.15,15.49c0.24,0,0.44,0.2,0.44,0.44c0,0.24-0.2,0.44-0.44,0.44c-0.24,0-0.44-0.2-0.44-0.44
		C13.71,15.68,13.91,15.49,14.15,15.49z"/>
	<path d="M14.15,16.46c-0.3,0-0.54-0.24-0.54-0.54s0.24-0.54,0.54-0.54s0.54,0.24,0.54,0.54S14.45,16.46,14.15,16.46z M14.15,15.59
		c-0.19,0-0.34,0.15-0.34,0.34s0.15,0.34,0.34,0.34s0.34-0.15,0.34-0.34S14.34,15.59,14.15,15.59z"/>
</g>
<g>
	<path class="st0" d="M14.15,17.19c0.24,0,0.44,0.2,0.44,0.44c0,0.24-0.2,0.44-0.44,0.44c-0.24,0-0.44-0.2-0.44-0.44
		C13.71,17.38,13.91,17.19,14.15,17.19z"/>
	<path d="M14.15,18.16c-0.3,0-0.54-0.24-0.54-0.54s0.24-0.54,0.54-0.54s0.54,0.24,0.54,0.54S14.45,18.16,14.15,18.16z M14.15,17.29
		c-0.19,0-0.34,0.15-0.34,0.34c0,0.19,0.15,0.34,0.34,0.34s0.34-0.15,0.34-0.34C14.49,17.44,14.34,17.29,14.15,17.29z"/>
</g>
<g>
	<path class="st0" d="M14.59,39.42c0,0.24-0.2,0.44-0.44,0.44c-0.24,0-0.44-0.2-0.44-0.44v-2.08c0-0.24,0.2-0.44,0.44-0.44
		c0.24,0,0.44,0.2,0.44,0.44V39.42z"/>
	<path d="M14.15,39.96c-0.3,0-0.54-0.24-0.54-0.54v-2.08c0-0.3,0.24-0.54,0.54-0.54s0.54,0.24,0.54,0.54v2.08
		C14.69,39.72,14.45,39.96,14.15,39.96z M14.15,37c-0.19,0-0.34,0.15-0.34,0.34v2.08c0,0.19,0.15,0.34,0.34,0.34
		s0.34-0.15,0.34-0.34v-2.08C14.49,37.15,14.34,37,14.15,37z"/>
</g>
<g>
	<path class="st0" d="M14.59,35.88c0,0.24-0.2,0.44-0.44,0.44c-0.24,0-0.44-0.2-0.44-0.44v-2.08c0-0.24,0.2-0.44,0.44-0.44
		c0.24,0,0.44,0.2,0.44,0.44V35.88z"/>
	<path d="M14.15,36.41c-0.3,0-0.54-0.24-0.54-0.54v-2.08c0-0.3,0.24-0.54,0.54-0.54s0.54,0.24,0.54,0.54v2.08
		C14.69,36.17,14.45,36.41,14.15,36.41z M14.15,33.46c-0.19,0-0.34,0.15-0.34,0.34v2.08c0,0.19,0.15,0.34,0.34,0.34
		s0.34-0.15,0.34-0.34v-2.08C14.49,33.61,14.34,33.46,14.15,33.46z"/>
</g>
<g>
	<path class="st0" d="M14.59,32.33c0,0.24-0.2,0.44-0.44,0.44c-0.24,0-0.44-0.2-0.44-0.44v-2.08c0-0.24,0.2-0.44,0.44-0.44
		c0.24,0,0.44,0.2,0.44,0.44V32.33z"/>
	<path d="M14.15,32.87c-0.3,0-0.54-0.24-0.54-0.54v-2.08c0-0.3,0.24-0.54,0.54-0.54s0.54,0.24,0.54,0.54v2.08
		C14.69,32.63,14.45,32.87,14.15,32.87z M14.15,29.91c-0.19,0-0.34,0.15-0.34,0.34v2.08c0,0.19,0.15,0.34,0.34,0.34
		s0.34-0.15,0.34-0.34v-2.08C14.49,30.06,14.34,29.91,14.15,29.91z"/>
</g>
<g>
	<path class="st0" d="M14.59,28.78c0,0.24-0.2,0.44-0.44,0.44c-0.24,0-0.44-0.2-0.44-0.44V26.7c0-0.24,0.2-0.44,0.44-0.44
		c0.24,0,0.44,0.2,0.44,0.44V28.78z"/>
	<path d="M14.15,29.32c-0.3,0-0.54-0.24-0.54-0.54V26.7c0-0.3,0.24-0.54,0.54-0.54s0.54,0.24,0.54,0.54v2.08
		C14.69,29.08,14.45,29.32,14.15,29.32z M14.15,26.36c-0.19,0-0.34,0.15-0.34,0.34v2.08c0,0.19,0.15,0.34,0.34,0.34
		s0.34-0.15,0.34-0.34V26.7C14.49,26.52,14.34,26.36,14.15,26.36z"/>
</g>
<g>
	<path class="st0" d="M14.59,25.24c0,0.24-0.2,0.44-0.44,0.44c-0.24,0-0.44-0.2-0.44-0.44v-2.08c0-0.24,0.2-0.44,0.44-0.44
		c0.24,0,0.44,0.2,0.44,0.44V25.24z"/>
	<path d="M14.15,25.77c-0.3,0-0.54-0.24-0.54-0.54v-2.08c0-0.3,0.24-0.54,0.54-0.54s0.54,0.24,0.54,0.54v2.08
		C14.69,25.53,14.45,25.77,14.15,25.77z M14.15,22.82c-0.19,0-0.34,0.15-0.34,0.34v2.08c0,0.19,0.15,0.34,0.34,0.34
		s0.34-0.15,0.34-0.34v-2.08C14.49,22.97,14.34,22.82,14.15,22.82z"/>
</g>
<g>
	<polygon class="st0" points="14.35,20.32 14.35,20.97 13.95,20.97 13.95,20.32 13.63,20.32 14.15,19.22 14.67,20.32 	"/>
	<path d="M14.35,21.07h-0.4c-0.06,0-0.1-0.04-0.1-0.1v-0.54h-0.22c-0.03,0-0.07-0.02-0.08-0.05c-0.02-0.03-0.02-0.07-0.01-0.1
		l0.52-1.1c0.03-0.07,0.15-0.07,0.18,0l0.52,1.1c0.01,0.03,0.01,0.07-0.01,0.1c-0.02,0.03-0.05,0.05-0.08,0.05h-0.22v0.54
		C14.45,21.02,14.41,21.07,14.35,21.07z M14.05,20.87h0.2v-0.54c0-0.06,0.04-0.1,0.1-0.1h0.16l-0.36-0.77l-0.36,0.77h0.16
		c0.06,0,0.1,0.04,0.1,0.1V20.87z"/>
</g>
<g>
	<path class="st0" d="M14.15,3.09c-0.24,0-0.44-0.2-0.44-0.44s0.2-0.44,0.44-0.44c0.24,0,0.44,0.2,0.44,0.44S14.39,3.09,14.15,3.09z
		"/>
	<path d="M14.15,3.19c-0.3,0-0.54-0.24-0.54-0.54s0.24-0.54,0.54-0.54s0.54,0.24,0.54,0.54S14.45,3.19,14.15,3.19z M14.15,2.31
		c-0.19,0-0.34,0.15-0.34,0.34s0.15,0.34,0.34,0.34s0.34-0.15,0.34-0.34S14.34,2.31,14.15,2.31z"/>
</g>
<g>
	<path class="st0" d="M14.15,1.23c-0.24,0-0.44-0.2-0.44-0.44s0.2-0.44,0.44-0.44c0.24,0,0.44,0.2,0.44,0.44S14.39,1.23,14.15,1.23z
		"/>
	<path d="M14.15,1.33c-0.3,0-0.54-0.24-0.54-0.54s0.24-0.54,0.54-0.54s0.54,0.24,0.54,0.54S14.45,1.33,14.15,1.33z M14.15,0.46
		c-0.19,0-0.34,0.15-0.34,0.34s0.15,0.34,0.34,0.34s0.34-0.15,0.34-0.34S14.34,0.46,14.15,0.46z"/>
</g>
<g>
	<path class="st2" d="M16.3,0v11.2H12V0h-0.35v11.38c0,0.1,0.08,0.17,0.17,0.17h4.65c0.1,0,0.17-0.08,0.17-0.17V0H16.3z"/>
</g>
<g>
	<rect x="27.69" y="0" class="st1" width="4.3" height="11.2"/>
	<path class="st2" d="M32.17,0v11.38h-4.65V0h-0.17v11.38c0,0.1,0.08,0.17,0.17,0.17h4.65c0.1,0,0.17-0.08,0.17-0.17V0H32.17z"/>
	<polygon class="st2" points="31.99,11.2 27.69,11.2 27.69,0 27.52,0 27.52,11.38 32.17,11.38 32.17,0 31.99,0 	"/>
</g>
<g>
	<path class="st0" d="M29.41,2.65c0-0.24,0.2-0.44,0.44-0.44c0.24,0,0.44,0.2,0.44,0.44s-0.2,0.44-0.44,0.44
		C29.6,3.09,29.41,2.89,29.41,2.65z"/>
	<path d="M29.84,3.19c-0.3,0-0.54-0.24-0.54-0.54s0.24-0.54,0.54-0.54c0.3,0,0.54,0.24,0.54,0.54S30.14,3.19,29.84,3.19z
		 M29.84,2.31c-0.19,0-0.34,0.15-0.34,0.34s0.15,0.34,0.34,0.34s0.34-0.15,0.34-0.34S30.03,2.31,29.84,2.31z"/>
</g>
<g>
	<path class="st0" d="M29.41,0.79c0-0.24,0.2-0.44,0.44-0.44c0.24,0,0.44,0.2,0.44,0.44s-0.2,0.44-0.44,0.44
		C29.6,1.23,29.41,1.04,29.41,0.79z"/>
	<path d="M29.84,1.33c-0.3,0-0.54-0.24-0.54-0.54s0.24-0.54,0.54-0.54c0.3,0,0.54,0.24,0.54,0.54S30.14,1.33,29.84,1.33z
		 M29.84,0.46c-0.19,0-0.34,0.15-0.34,0.34s0.15,0.34,0.34,0.34s0.34-0.15,0.34-0.34S30.03,0.46,29.84,0.46z"/>
</g>
</svg>
