<?xml version="1.0" encoding="utf-8"?>
<!-- Generator: Adobe Illustrator 26.2.1, SVG Export Plug-In . SVG Version: 6.00 Build 0)  -->
<svg version="1.1" id="Layer_1" xmlns="http://www.w3.org/2000/svg" xmlns:xlink="http://www.w3.org/1999/xlink" x="0px" y="0px"
	 viewBox="0 0 43.99 43.99" style="enable-background:new 0 0 43.99 43.99;" xml:space="preserve">
<style type="text/css">
	.st0{fill:#71C1C2;}
	.st1{fill:#FFFFFF;}
	.st2{fill:#010101;}
	.st3{opacity:0.5;}
	
		.st4{opacity:0.5;fill:none;stroke:#000000;stroke-width:0.2;stroke-linecap:round;stroke-linejoin:round;stroke-miterlimit:10;enable-background:new    ;}
	.st5{opacity:0.15;}
	.st6{fill:#221F20;}
	.st7{fill:none;}
	.st8{fill:#030001;}
	.st9{opacity:0.2;fill:#221F20;}
</style>
<g>
	<path class="st0" d="M41.65,43.99H2.34C1.05,43.99,0,42.95,0,41.65V2.34C0,1.05,1.05,0,2.34,0h39.31C42.95,0,44,1.05,44,2.34v39.31
		C44,42.95,42.95,43.99,41.65,43.99z"/>
</g>
<g>
	<g>
		<g>
			<polygon class="st1" points="31.48,23 31.94,22.74 31.94,16.82 31.48,17.09 			"/>
			<path class="st2" d="M31.48,23.18c-0.03,0-0.06-0.01-0.09-0.02c-0.05-0.03-0.09-0.09-0.09-0.15v-5.92c0-0.06,0.03-0.12,0.09-0.15
				l0.46-0.27c0.05-0.03,0.12-0.03,0.18,0c0.05,0.03,0.09,0.09,0.09,0.15v5.92c0,0.06-0.03,0.12-0.09,0.15l-0.46,0.27
				C31.54,23.17,31.51,23.18,31.48,23.18z M31.65,17.19v5.51l0.11-0.06v-5.51L31.65,17.19z"/>
		</g>
		<g>
			<polygon class="st1" points="31.34,22.92 31.48,23 31.48,17.09 31.34,17 			"/>
			<path class="st2" d="M31.48,23.18c-0.03,0-0.06-0.01-0.09-0.02l-0.14-0.08c-0.05-0.03-0.09-0.09-0.09-0.15V17
				c0-0.06,0.03-0.12,0.09-0.15c0.05-0.03,0.12-0.03,0.18,0l0.14,0.08c0.05,0.03,0.09,0.09,0.09,0.15V23c0,0.06-0.03,0.12-0.09,0.15
				C31.54,23.17,31.51,23.18,31.48,23.18z"/>
		</g>
		<g>
			<polygon class="st1" points="31.94,22.57 31.34,22.92 31.34,17 31.94,16.66 			"/>
			<path class="st2" d="M31.34,23.1c-0.03,0-0.06-0.01-0.09-0.02c-0.05-0.03-0.09-0.09-0.09-0.15V17c0-0.06,0.03-0.12,0.09-0.15
				l0.6-0.35c0.05-0.03,0.12-0.03,0.17,0s0.09,0.09,0.09,0.15v5.92c0,0.06-0.03,0.12-0.09,0.15l-0.6,0.35
				C31.4,23.09,31.37,23.1,31.34,23.1z M31.51,17.1v5.51l0.25-0.15v-5.51L31.51,17.1z"/>
		</g>
		<g>
			<polygon class="st1" points="33.8,23.65 31.94,22.57 31.94,16.66 33.8,17.73 			"/>
			<path class="st2" d="M33.8,23.82c-0.03,0-0.06-0.01-0.09-0.02l-1.86-1.07c-0.05-0.03-0.09-0.09-0.09-0.15v-5.92
				c0-0.06,0.03-0.12,0.09-0.15c0.05-0.03,0.12-0.03,0.17,0l1.86,1.07c0.05,0.03,0.09,0.09,0.09,0.15v5.92
				c0,0.06-0.03,0.12-0.09,0.15C33.86,23.81,33.83,23.82,33.8,23.82z M32.11,22.47l1.51,0.87v-5.51l-1.51-0.87V22.47z"/>
		</g>
		<g>
			<polygon class="st1" points="35.99,22.54 35.85,22.46 35.85,16.54 35.99,16.63 			"/>
			<path class="st2" d="M35.99,22.72c-0.03,0-0.06-0.01-0.09-0.02l-0.14-0.08c-0.05-0.03-0.09-0.09-0.09-0.15v-5.92
				c0-0.06,0.03-0.12,0.09-0.15c0.05-0.03,0.12-0.03,0.18,0l0.14,0.08c0.05,0.03,0.09,0.09,0.09,0.15v5.92
				c0,0.06-0.03,0.12-0.09,0.15C36.06,22.71,36.02,22.72,35.99,22.72z"/>
		</g>
		<g>
			<polygon class="st1" points="33.8,23.81 33.8,17.89 31.94,16.82 31.94,22.74 			"/>
			<path class="st2" d="M33.8,23.99c-0.03,0-0.06-0.01-0.09-0.02l-1.86-1.07c-0.05-0.03-0.09-0.09-0.09-0.15v-5.92
				c0-0.06,0.03-0.12,0.09-0.15c0.05-0.03,0.12-0.03,0.17,0l1.86,1.07c0.05,0.03,0.09,0.09,0.09,0.15v5.92
				c0,0.06-0.03,0.12-0.09,0.15C33.86,23.98,33.83,23.99,33.8,23.99z M32.11,22.64l1.51,0.87V18l-1.51-0.87V22.64z"/>
		</g>
		<g>
			<path class="st1" d="M33.8,23.81l2.2-1.27c0,0,0.66-0.41,0.66-2.88S36,16.62,36,16.62l-2.2,1.27V23.81L33.8,23.81z"/>
			<path class="st2" d="M33.8,23.99c-0.03,0-0.06-0.01-0.09-0.02c-0.05-0.03-0.09-0.09-0.09-0.15V17.9c0-0.06,0.03-0.12,0.09-0.15
				l2.2-1.27c0.06-0.04,0.14-0.03,0.2,0.02c0.07,0.06,0.72,0.69,0.72,3.17c0,2.5-0.67,2.98-0.74,3.03l-2.2,1.27
				C33.86,23.98,33.83,23.99,33.8,23.99z M33.97,17.99v5.51l1.93-1.12l0,0c0,0,0.57-0.45,0.57-2.73c0-1.82-0.37-2.57-0.53-2.81
				L33.97,17.99z"/>
		</g>
		<g>
			<polygon class="st1" points="33.8,17.89 35.99,16.63 35.85,16.54 33.8,17.73 31.94,16.66 31.34,17 31.48,17.09 31.94,16.82 			
				"/>
			<path class="st2" d="M33.8,18.07c-0.03,0-0.06-0.01-0.09-0.02l-1.77-1.02l-0.37,0.22c-0.05,0.03-0.12,0.03-0.18,0l-0.14-0.08
				c-0.05-0.03-0.09-0.09-0.09-0.15s0.03-0.12,0.09-0.15l0.6-0.35c0.05-0.03,0.12-0.03,0.17,0l1.77,1.02l1.97-1.13
				c0.05-0.03,0.12-0.03,0.18,0l0.14,0.08c0.05,0.03,0.09,0.09,0.09,0.15s-0.03,0.12-0.09,0.15l-2.2,1.27
				C33.86,18.06,33.83,18.07,33.8,18.07z"/>
		</g>
	</g>
	<g>
		<g>
			<polygon class="st1" points="24.65,24.88 31.33,28.74 16.09,37.54 9.41,33.68 			"/>
			<path class="st2" d="M16.09,37.71c-0.03,0-0.06-0.01-0.09-0.02l-6.68-3.86c-0.05-0.03-0.09-0.09-0.09-0.15s0.03-0.12,0.09-0.15
				l15.24-8.8c0.05-0.03,0.12-0.03,0.17,0l6.68,3.86c0.05,0.03,0.09,0.09,0.09,0.15s-0.03,0.12-0.09,0.15l-15.23,8.8
				C16.15,37.7,16.12,37.71,16.09,37.71z M9.76,33.68l6.33,3.66l14.88-8.59l-6.33-3.66L9.76,33.68z"/>
		</g>
		<g>
			<polygon class="st1" points="24.65,24.88 24.65,6.46 31.33,10.31 31.33,28.74 			"/>
			<path class="st2" d="M31.33,28.92c-0.03,0-0.06-0.01-0.09-0.02l-6.68-3.86c-0.05-0.03-0.09-0.09-0.09-0.15V6.46
				c0-0.06,0.03-0.12,0.09-0.15c0.05-0.03,0.12-0.03,0.17,0l6.68,3.86c0.05,0.03,0.09,0.09,0.09,0.15v18.43
				c0,0.06-0.03,0.12-0.09,0.15C31.39,28.91,31.36,28.92,31.33,28.92z M24.82,24.78l6.33,3.66V10.42l-6.33-3.66V24.78z"/>
		</g>
		<g>
			<polygon class="st1" points="24.65,24.88 9.41,33.68 9.41,15.25 24.65,6.46 			"/>
			<path class="st2" d="M9.41,33.85c-0.03,0-0.06-0.01-0.09-0.02c-0.05-0.03-0.09-0.09-0.09-0.15V15.25c0-0.06,0.03-0.12,0.09-0.15
				l15.24-8.8c0.05-0.03,0.12-0.03,0.17,0s0.09,0.09,0.09,0.15v18.43c0,0.06-0.03,0.12-0.09,0.15L9.5,33.83
				C9.47,33.85,9.44,33.85,9.41,33.85z M9.59,15.35v18.02l14.89-8.59V6.76L9.59,15.35z"/>
		</g>
		<g>
			<polygon class="st1" points="31.33,28.74 31.33,10.31 16.09,19.11 16.09,37.54 			"/>
			<path class="st2" d="M16.09,37.71c-0.03,0-0.06-0.01-0.09-0.02c-0.05-0.03-0.09-0.09-0.09-0.15V19.11c0-0.06,0.03-0.12,0.09-0.15
				l15.23-8.8c0.05-0.03,0.12-0.03,0.17,0s0.09,0.09,0.09,0.15v18.43c0,0.06-0.03,0.12-0.09,0.15l-15.23,8.8
				C16.15,37.7,16.12,37.71,16.09,37.71z M16.27,19.21v18.02l14.89-8.59V10.62L16.27,19.21z"/>
		</g>
		<g>
			<polygon class="st1" points="31.33,28.74 31.33,10.31 16.09,19.11 16.09,37.54 			"/>
			<path class="st2" d="M16.09,37.71c-0.03,0-0.06-0.01-0.09-0.02c-0.05-0.03-0.09-0.09-0.09-0.15V19.11c0-0.06,0.03-0.12,0.09-0.15
				l15.23-8.8c0.05-0.03,0.12-0.03,0.17,0s0.09,0.09,0.09,0.15v18.43c0,0.06-0.03,0.12-0.09,0.15l-15.23,8.8
				C16.15,37.7,16.12,37.71,16.09,37.71z M16.27,19.21v18.02l14.89-8.59V10.62L16.27,19.21z"/>
		</g>
		<g>
			<path class="st1" d="M29.92,14.53l-13.35,7.71c-0.29,0.17-0.47,0.48-0.47,0.82v9.45c0,0.73,0.78,1.18,1.41,0.82l13.35-7.71
				c0.29-0.17,0.47-0.48,0.47-0.82v-9.45C31.33,14.62,30.54,14.17,29.92,14.53z"/>
			<path class="st2" d="M17.04,33.62c-0.19,0-0.38-0.05-0.56-0.15c-0.35-0.2-0.56-0.56-0.56-0.97v-9.45c0-0.4,0.21-0.77,0.56-0.97
				l13.35-7.71l0,0c0.35-0.2,0.77-0.2,1.12,0s0.56,0.56,0.56,0.97v9.45c0,0.4-0.21,0.77-0.56,0.97L17.6,33.47
				C17.42,33.57,17.23,33.62,17.04,33.62z M30,14.68l-13.35,7.71c-0.24,0.14-0.38,0.39-0.38,0.66v9.45c0,0.28,0.14,0.53,0.38,0.66
				s0.53,0.14,0.77,0l13.35-7.71c0.24-0.14,0.38-0.39,0.38-0.67v-9.45c0-0.28-0.14-0.53-0.38-0.67S30.24,14.54,30,14.68z"/>
		</g>
		<g>
			<path class="st1" d="M30.4,14.53l-13.35,7.71c-0.29,0.17-0.47,0.48-0.47,0.82v9.45c0,0.73,0.78,1.18,1.41,0.82l13.35-7.71
				c0.29-0.17,0.47-0.48,0.47-0.82v-9.45C31.82,14.62,31.03,14.17,30.4,14.53z"/>
			<path class="st2" d="M17.52,33.62c-0.19,0-0.38-0.05-0.56-0.15c-0.35-0.2-0.56-0.56-0.56-0.97v-9.45c0-0.4,0.21-0.77,0.56-0.97
				l13.35-7.71l0,0c0.35-0.2,0.77-0.2,1.12,0s0.56,0.56,0.56,0.97v9.45c0,0.4-0.21,0.77-0.56,0.97l-13.35,7.71
				C17.91,33.57,17.71,33.62,17.52,33.62z M30.49,14.68l-13.35,7.71c-0.24,0.14-0.38,0.39-0.38,0.66v9.45
				c0,0.28,0.14,0.53,0.38,0.66c0.24,0.14,0.53,0.14,0.77,0l13.35-7.71c0.24-0.14,0.38-0.39,0.38-0.67v-9.45
				c0-0.28-0.14-0.53-0.38-0.67S30.73,14.54,30.49,14.68z"/>
		</g>
		<g class="st3">
			<path d="M19.98,30.04c-0.12,0-0.24-0.03-0.35-0.09c-0.22-0.12-0.35-0.35-0.35-0.6v-5.96c0-0.25,0.13-0.48,0.35-0.6l8.43-4.87l0,0
				c0.22-0.13,0.48-0.13,0.69,0c0.22,0.12,0.35,0.35,0.35,0.6v5.96c0,0.25-0.13,0.48-0.35,0.6l-8.43,4.87
				C20.22,30,20.1,30.04,19.98,30.04z M28.16,18.08l-8.43,4.87c-0.15,0.09-0.25,0.25-0.25,0.43v5.96c0,0.18,0.09,0.34,0.25,0.43
				s0.34,0.09,0.49,0l8.43-4.87c0.15-0.09,0.25-0.25,0.25-0.43v-5.96c0-0.18-0.09-0.34-0.25-0.43
				C28.5,17.99,28.32,17.99,28.16,18.08z"/>
		</g>
		<g>
			<polygon class="st0" points="24.65,6.46 9.41,15.25 16.09,19.11 31.33,10.31 			"/>
			<path class="st2" d="M16.09,19.29c-0.03,0-0.06-0.01-0.09-0.02L9.32,15.4c-0.05-0.03-0.09-0.09-0.09-0.15s0.03-0.12,0.09-0.15
				l15.24-8.8c0.05-0.03,0.12-0.03,0.17,0l6.68,3.86c0.05,0.03,0.09,0.09,0.09,0.15s-0.03,0.12-0.09,0.15l-15.23,8.8
				C16.15,19.28,16.12,19.29,16.09,19.29z M9.76,15.25l6.33,3.66l14.88-8.59l-6.33-3.66L9.76,15.25z"/>
		</g>
		<g>
			<polygon class="st0" points="9.41,15.25 9.41,33.68 16.09,37.54 16.09,19.11 			"/>
			<path class="st2" d="M16.09,37.71c-0.03,0-0.06-0.01-0.09-0.02l-6.68-3.86c-0.05-0.03-0.09-0.09-0.09-0.15V15.25
				c0-0.06,0.03-0.12,0.09-0.15c0.05-0.03,0.12-0.03,0.17,0l6.68,3.86c0.05,0.03,0.09,0.09,0.09,0.15v18.43
				c0,0.06-0.03,0.12-0.09,0.15C16.15,37.7,16.12,37.71,16.09,37.71z M9.59,33.58l6.33,3.66V19.21l-6.33-3.66V33.58z"/>
		</g>
	</g>
	<g>
		<g>
			<line class="st4" x1="28.02" y1="24.17" x2="28.02" y2="22.4"/>
			<line class="st4" x1="28.02" y1="20.98" x2="28.02" y2="19.2"/>
		</g>
		<g>
			<line class="st4" x1="27.33" y1="24.56" x2="27.33" y2="22.79"/>
			<line class="st4" x1="27.33" y1="21.37" x2="27.33" y2="19.6"/>
		</g>
		<g>
			<line class="st4" x1="26.64" y1="24.96" x2="26.65" y2="23.18"/>
			<line class="st4" x1="26.64" y1="21.77" x2="26.65" y2="19.99"/>
		</g>
		<g>
			<line class="st4" x1="25.96" y1="25.35" x2="25.96" y2="23.58"/>
			<line class="st4" x1="25.96" y1="22.16" x2="25.96" y2="20.39"/>
		</g>
		<g>
			<line class="st4" x1="25.27" y1="25.75" x2="25.27" y2="23.97"/>
			<line class="st4" x1="25.27" y1="22.55" x2="25.27" y2="20.78"/>
		</g>
		<g>
			<line class="st4" x1="24.58" y1="26.14" x2="24.58" y2="24.36"/>
			<line class="st4" x1="24.58" y1="22.95" x2="24.58" y2="21.17"/>
		</g>
		<g>
			<line class="st4" x1="23.89" y1="26.53" x2="23.9" y2="24.76"/>
			<line class="st4" x1="23.89" y1="23.34" x2="23.9" y2="21.57"/>
		</g>
		<g>
			<line class="st4" x1="23.21" y1="26.93" x2="23.21" y2="25.15"/>
			<line class="st4" x1="23.21" y1="23.73" x2="23.21" y2="21.96"/>
		</g>
		<g>
			<line class="st4" x1="22.52" y1="27.32" x2="22.52" y2="25.55"/>
			<line class="st4" x1="22.52" y1="24.13" x2="22.52" y2="22.35"/>
		</g>
		<g>
			<line class="st4" x1="21.83" y1="27.71" x2="21.83" y2="25.94"/>
			<line class="st4" x1="21.83" y1="24.52" x2="21.83" y2="22.75"/>
		</g>
		<g>
			<line class="st4" x1="21.14" y1="28.11" x2="21.15" y2="26.33"/>
			<line class="st4" x1="21.14" y1="24.92" x2="21.15" y2="23.14"/>
		</g>
		<g>
			<line class="st4" x1="20.46" y1="28.5" x2="20.46" y2="26.73"/>
			<line class="st4" x1="20.46" y1="25.31" x2="20.46" y2="23.53"/>
		</g>
	</g>
	<g>
		<line class="st4" x1="10.89" y1="19.79" x2="10.89" y2="17.53"/>
		<line class="st4" x1="11.6" y1="20.2" x2="11.6" y2="17.94"/>
		<line class="st4" x1="12.3" y1="20.6" x2="12.3" y2="18.35"/>
		<line class="st4" x1="13" y1="21.01" x2="13" y2="18.75"/>
		<line class="st4" x1="13.71" y1="21.42" x2="13.71" y2="19.16"/>
		<line class="st4" x1="14.41" y1="21.83" x2="14.41" y2="19.57"/>
	</g>
	<g>
		<line class="st4" x1="10.89" y1="33.07" x2="10.89" y2="31.57"/>
		<line class="st4" x1="11.6" y1="33.48" x2="11.6" y2="31.98"/>
		<line class="st4" x1="12.3" y1="33.88" x2="12.3" y2="32.39"/>
		<line class="st4" x1="13" y1="34.29" x2="13" y2="32.8"/>
		<line class="st4" x1="13.71" y1="34.7" x2="13.71" y2="33.21"/>
		<line class="st4" x1="14.41" y1="35.11" x2="14.41" y2="33.61"/>
	</g>
	<g class="st5">
		<polygon class="st6" points="9.47,33.7 16.03,37.41 16,19.12 9.63,15.36 		"/>
	</g>
	<g>
		<g>
			<g>
				<polyline class="st1" points="15.86,25.51 15.86,31.25 15.86,31.25 				"/>
				<rect x="15.69" y="25.51" class="st2" width="0.35" height="5.74"/>
			</g>
			<g>
				<polygon class="st1" points="16.55,31.01 16.41,30.93 16.41,25.19 16.55,25.27 				"/>
				<path class="st2" d="M16.55,31.18c-0.03,0-0.06-0.01-0.09-0.02l-0.14-0.08c-0.05-0.03-0.09-0.09-0.09-0.15v-5.74
					c0-0.06,0.03-0.12,0.09-0.15c0.05-0.03,0.12-0.03,0.18,0l0.14,0.08c0.05,0.03,0.09,0.09,0.09,0.15v5.74
					c0,0.06-0.03,0.12-0.09,0.15C16.61,31.18,16.58,31.18,16.55,31.18z"/>
			</g>
			<g>
				<polyline class="st1" points="15.86,31.41 15.86,31.41 15.86,25.66 				"/>
				<rect x="15.69" y="25.66" class="st2" width="0.35" height="5.74"/>
			</g>
			<g>
				<polygon class="st1" points="15.86,31.41 16.55,31.01 16.55,25.27 15.86,25.66 				"/>
				<path class="st2" d="M15.86,31.58c-0.03,0-0.06-0.01-0.09-0.02c-0.05-0.03-0.09-0.09-0.09-0.15v-5.74
					c0-0.06,0.03-0.12,0.09-0.15l0.69-0.4c0.05-0.03,0.12-0.03,0.18,0c0.05,0.03,0.09,0.09,0.09,0.15v5.74
					c0,0.06-0.03,0.12-0.09,0.15l-0.69,0.4C15.92,31.58,15.89,31.58,15.86,31.58z M16.04,25.77v5.34l0.34-0.2v-5.34L16.04,25.77z"/>
			</g>
			<g>
				<polyline class="st1" points="15.86,25.66 15.86,25.66 16.55,25.27 16.41,25.19 15.86,25.51 				"/>
				<path class="st2" d="M15.95,25.82l-0.18-0.3l0.07-0.04l-0.07-0.12l0.55-0.32c0.05-0.03,0.12-0.03,0.18,0l0.14,0.08
					c0.05,0.03,0.09,0.09,0.09,0.15s-0.03,0.12-0.09,0.15L15.95,25.82z"/>
			</g>
		</g>
		<g>
			<g>
				<line class="st7" x1="15.82" y1="31.4" x2="15.82" y2="25.66"/>
				<rect x="15.64" y="25.66" class="st2" width="0.35" height="5.74"/>
			</g>
			<g>
				<polyline class="st1" points="15.82,25.5 15.82,31.24 15.82,31.24 				"/>
				<rect x="15.64" y="25.5" class="st2" width="0.35" height="5.74"/>
			</g>
			<g>
				<polyline class="st1" points="17.62,32.28 15.82,31.24 15.82,25.5 17.62,26.54 				"/>
				<path class="st2" d="M17.53,32.44l-1.8-1.04c-0.05-0.03-0.09-0.09-0.09-0.15V25.5c0-0.06,0.03-0.12,0.09-0.15
					c0.05-0.03,0.12-0.03,0.17,0l1.8,1.04l-0.17,0.3l-1.54-0.89v5.34l1.72,0.99L17.53,32.44z"/>
			</g>
			<g>
				<polyline class="st1" points="17.62,26.7 15.82,25.66 15.82,31.4 17.62,32.44 				"/>
				<path class="st2" d="M17.53,32.6l-1.8-1.04c-0.05-0.03-0.09-0.09-0.09-0.15v-5.74c0-0.06,0.03-0.12,0.09-0.15
					c0.05-0.03,0.12-0.03,0.17,0l1.8,1.04l-0.17,0.3l-1.54-0.89v5.34l1.72,0.99L17.53,32.6z"/>
			</g>
			<g>
				<line class="st7" x1="17.62" y1="26.54" x2="15.82" y2="25.5"/>
				
					<rect x="16.54" y="24.98" transform="matrix(0.5001 -0.866 0.866 0.5001 -14.1761 27.4848)" class="st2" width="0.35" height="2.08"/>
			</g>
			<g>
				<line class="st7" x1="15.82" y1="25.66" x2="17.62" y2="26.7"/>
				
					<rect x="16.54" y="25.14" transform="matrix(0.5001 -0.866 0.866 0.5001 -14.3139 27.5652)" class="st2" width="0.35" height="2.08"/>
			</g>
		</g>
		<g>
			<g>
				<polyline class="st1" points="17.55,26.63 15.16,28.11 15.16,33.86 15.16,33.86 17.55,32.38 				"/>
				<path class="st2" d="M15.16,34.03c-0.03,0-0.06-0.01-0.09-0.02c-0.06-0.03-0.09-0.09-0.09-0.15v-5.74
					c0-0.06,0.03-0.12,0.08-0.15l2.4-1.48c0.08-0.05,0.19-0.03,0.24,0.06c0.05,0.08,0.03,0.19-0.06,0.24l-2.31,1.43v5.33l2.13-1.32
					c0.08-0.05,0.19-0.03,0.24,0.06c0.05,0.08,0.03,0.19-0.06,0.24L15.25,34C15.22,34.02,15.19,34.03,15.16,34.03z"/>
			</g>
			<g>
				<polygon class="st1" points="15.02,33.78 15.16,33.86 15.16,28.11 15.02,28.03 				"/>
				<path class="st2" d="M15.16,34.03c-0.03,0-0.06-0.01-0.09-0.02l-0.14-0.08c-0.05-0.03-0.09-0.09-0.09-0.15v-5.74
					c0-0.06,0.03-0.12,0.09-0.15c0.05-0.03,0.12-0.03,0.18,0l0.14,0.08c0.05,0.03,0.09,0.09,0.09,0.15v5.74
					c0,0.06-0.03,0.12-0.09,0.15C15.22,34.02,15.19,34.03,15.16,34.03z"/>
			</g>
			<g>
				<path class="st1" d="M17.55,32.22l-2.53,1.56c0,0-0.67-0.76-0.67-2.88s0.67-2.87,0.67-2.87l2.53-1.56"/>
				<path class="st2" d="M15.02,33.95c-0.05,0-0.1-0.02-0.13-0.06c-0.03-0.03-0.71-0.83-0.71-2.99s0.68-2.95,0.71-2.98
					c0.01-0.01,0.02-0.02,0.04-0.03l2.53-1.56c0.08-0.05,0.19-0.03,0.24,0.06c0.05,0.08,0.03,0.19-0.06,0.24l-2.51,1.54
					c-0.09,0.12-0.61,0.89-0.61,2.73c0,1.56,0.37,2.36,0.54,2.64l2.39-1.47c0.08-0.05,0.19-0.03,0.24,0.06
					c0.05,0.08,0.03,0.19-0.06,0.24l-2.53,1.56C15.08,33.94,15.05,33.95,15.02,33.95z"/>
			</g>
			<g>
				<polyline class="st1" points="17.55,26.47 15.02,28.03 14.88,28.26 17.55,26.63 17.55,32.38 				"/>
				<path class="st2" d="M17.55,32.55c-0.1,0-0.17-0.08-0.17-0.17v-5.43l-2.41,1.47c-0.07,0.04-0.16,0.03-0.22-0.03
					c-0.06-0.06-0.07-0.15-0.02-0.22l0.14-0.23c0.01-0.02,0.03-0.04,0.06-0.06l2.53-1.56c0.08-0.05,0.19-0.03,0.24,0.06
					c0.03,0.05,0.03,0.12,0.01,0.17c0.01,0.02,0.02,0.05,0.02,0.08v5.74C17.73,32.47,17.65,32.55,17.55,32.55z"/>
			</g>
		</g>
	</g>
</g>
<g>
	<g>
		<path class="st0" d="M24.77,12.12c0,1.37-1.92,2.47-4.28,2.47s-4.28-1.11-4.28-2.47v-1.09h8.57V12.12z"/>
		<path class="st8" d="M20.49,14.77c-2.46,0-4.46-1.19-4.46-2.65v-1.26h8.91v1.26C24.94,13.58,22.95,14.77,20.49,14.77z
			 M16.38,11.21v0.91c0,1.27,1.84,2.3,4.11,2.3s4.11-1.03,4.11-2.3v-0.91H16.38z"/>
	</g>
	<g class="st5">
		<polyline class="st6" points="16.18,11.13 16.18,12.04 16.18,12.1 16.18,12.16 16.19,12.22 16.2,12.28 16.21,12.33 16.22,12.39 
			16.24,12.45 16.25,12.51 16.27,12.57 16.3,12.63 16.32,12.69 16.35,12.74 16.38,12.8 16.42,12.86 16.45,12.91 16.49,12.97 
			16.53,13.02 16.57,13.08 16.62,13.13 16.67,13.19 16.72,13.24 16.77,13.3 16.82,13.35 16.88,13.4 16.94,13.45 17,13.5 
			17.07,13.55 17.13,13.6 17.2,13.65 17.28,13.69 17.35,13.74 17.43,13.79 17.51,13.83 17.59,13.87 17.67,13.92 17.75,13.96 
			17.84,14 17.92,14.03 18.01,14.07 18.1,14.1 18.19,14.14 18.28,14.17 18.37,14.2 18.46,14.23 18.56,14.26 18.65,14.28 
			18.75,14.31 18.84,14.33 18.94,14.35 19.04,14.37 19.14,14.39 19.24,14.41 19.34,14.42 19.44,14.44 19.54,14.45 19.64,14.46 
			19.74,14.48 19.84,14.48 19.94,14.49 20.05,14.5 20.15,14.5 20.25,14.51 20.35,14.51 20.46,14.51 20.56,14.51 20.66,14.51 
			20.77,14.5 20.87,14.5 20.97,14.49 21.07,14.48 21.17,14.48 21.28,14.46 21.38,14.45 21.48,14.44 21.58,14.42 21.68,14.41 
			21.78,14.39 21.88,14.37 21.97,14.35 22.07,14.33 22.17,14.31 22.26,14.28 22.36,14.26 22.45,14.23 22.54,14.2 22.63,14.17 
			22.73,14.14 22.81,14.1 22.9,14.07 22.99,14.03 23.08,14 23.16,13.96 23.24,13.92 23.33,13.87 23.41,13.83 23.41,13.83 
			23.49,13.79 23.56,13.74 23.64,13.69 23.71,13.65 23.78,13.6 23.85,13.55 23.91,13.5 23.97,13.45 24.03,13.4 24.09,13.35 
			24.15,13.3 24.2,13.24 24.25,13.19 24.3,13.13 24.34,13.08 24.39,13.03 24.43,12.97 24.46,12.91 24.5,12.86 24.53,12.8 
			24.56,12.74 24.59,12.69 24.62,12.63 24.64,12.57 24.66,12.51 24.68,12.45 24.69,12.39 24.71,12.33 24.72,12.28 24.73,12.22 
			24.73,12.16 24.74,12.1 24.74,12.04 24.74,11.06 		"/>
	</g>
	<g>
		<ellipse class="st0" cx="20.49" cy="11.03" rx="4.28" ry="2.47"/>
		<path class="st8" d="M20.49,13.68c-2.46,0-4.46-1.19-4.46-2.65s2-2.65,4.46-2.65c2.46,0,4.46,1.19,4.46,2.65
			S22.95,13.68,20.49,13.68z M20.49,8.73c-2.26,0-4.11,1.03-4.11,2.3s1.84,2.3,4.11,2.3s4.11-1.03,4.11-2.3S22.75,8.73,20.49,8.73z"
			/>
	</g>
	<g>
		<path class="st0" d="M22.33,10.68c0,0.59-0.83,1.07-1.84,1.07c-1.02,0-1.84-0.48-1.84-1.07V7.09h3.69V10.68z"/>
		<path class="st8" d="M20.49,11.92c-1.13,0-2.02-0.54-2.02-1.24V6.92h4.04v3.77C22.51,11.38,21.62,11.92,20.49,11.92z M18.82,7.27
			v3.42c0,0.48,0.76,0.89,1.67,0.89s1.67-0.41,1.67-0.89V7.27H18.82z"/>
	</g>
	<g>
		<ellipse class="st0" cx="20.49" cy="7.09" rx="1.84" ry="1.07"/>
		<path class="st8" d="M20.49,8.33c-1.13,0-2.02-0.54-2.02-1.24s0.89-1.24,2.02-1.24s2.02,0.54,2.02,1.24S21.62,8.33,20.49,8.33z
			 M20.49,6.2c-0.9,0-1.67,0.41-1.67,0.89c0,0.48,0.76,0.89,1.67,0.89s1.67-0.41,1.67-0.89C22.16,6.61,21.39,6.2,20.49,6.2z"/>
	</g>
	<ellipse class="st9" cx="20.49" cy="7.09" rx="1.84" ry="1.07"/>
</g>
</svg>
