<?xml version="1.0" encoding="utf-8"?>
<!-- Generator: Adobe Illustrator 26.2.1, SVG Export Plug-In . SVG Version: 6.00 Build 0)  -->
<svg version="1.1" id="Layer_1" xmlns="http://www.w3.org/2000/svg" xmlns:xlink="http://www.w3.org/1999/xlink" x="0px" y="0px"
	 viewBox="0 0 43.99 43.99" style="enable-background:new 0 0 43.99 43.99;" xml:space="preserve">
<style type="text/css">
	.st0{fill:#71C1C2;}
	.st1{fill:#FFFFFF;}
	.st2{fill:#010101;}
	.st3{fill:none;stroke:#000000;stroke-width:0.35;stroke-linejoin:round;stroke-miterlimit:10;}
	.st4{opacity:0.15;}
	.st5{fill:#221F20;}
</style>
<g>
	<path class="st0" d="M41.65,43.99H2.34C1.05,43.99,0,42.95,0,41.65V2.34C0,1.05,1.05,0,2.34,0h39.31C42.95,0,44,1.05,44,2.34v39.31
		C44,42.95,42.95,43.99,41.65,43.99z"/>
</g>
<g>
	<g>
		<polygon class="st1" points="7.98,13.7 10.84,12.28 24.68,19.28 24.74,35.91 22.01,37.25 7.98,30.37 		"/>
		<path class="st2" d="M22.01,37.44l-0.08-0.04L7.8,30.48l0-16.88l3.03-1.51l0.08,0.04l13.93,7.04v0.11l0.07,16.75L22.01,37.44z
			 M8.15,30.26l13.86,6.79l2.55-1.25L24.5,19.38l-13.66-6.9l-2.68,1.33L8.15,30.26z"/>
	</g>
	<g>
		<g>
			<path d="M22.02,20.76c-0.03,0-0.05-0.01-0.08-0.02L7.9,13.86c-0.06-0.03-0.1-0.09-0.1-0.16c0-0.07,0.04-0.13,0.1-0.16l14.04-6.96
				c0.05-0.02,0.11-0.02,0.16,0l14.04,6.96c0.06,0.03,0.1,0.09,0.1,0.16c0,0.07-0.04,0.13-0.1,0.16l-14.04,6.88
				C22.07,20.75,22.04,20.76,22.02,20.76z M8.38,13.7l13.64,6.69l13.64-6.69L22.02,6.94L8.38,13.7z"/>
		</g>
		<g>
			<path d="M24.57,35.91l-0.06-16.53l-13.74-6.94l0.16-0.31l13.84,6.99c0.06,0.03,0.1,0.09,0.1,0.16l0.06,16.63L24.57,35.91z"/>
		</g>
		<g>
			<path class="st3" d="M22.02,23.41"/>
		</g>
		<g>
			<path d="M22.02,37.42c-0.03,0-0.05-0.01-0.08-0.02L7.9,30.53c-0.06-0.03-0.1-0.09-0.1-0.16l0-16.66h0.35l0,16.55l13.86,6.79
				l13.86-6.79V13.7h0.35v16.66c0,0.07-0.04,0.13-0.1,0.16l-14.04,6.88C22.07,37.42,22.04,37.42,22.02,37.42z"/>
		</g>
		<g>
			<rect x="21.85" y="20.59" width="0.35" height="16.66"/>
		</g>
		<g>
			<polygon points="35.97,30.52 24.67,24.92 24.82,24.6 36.12,30.21 			"/>
		</g>
	</g>
	<g class="st4">
		<polygon class="st5" points="10.84,12.29 24.68,19.28 24.74,35.91 36.05,30.37 36.05,13.7 22.03,6.74 		"/>
	</g>
</g>
</svg>
