<?xml version="1.0" encoding="utf-8"?>
<!-- Generator: Adobe Illustrator 26.2.1, SVG Export Plug-In . SVG Version: 6.00 Build 0)  -->
<svg version="1.1" id="Layer_1" xmlns="http://www.w3.org/2000/svg" xmlns:xlink="http://www.w3.org/1999/xlink" x="0px" y="0px"
	 viewBox="0 0 43.99 43.99" style="enable-background:new 0 0 43.99 43.99;" xml:space="preserve">
<style type="text/css">
	.st0{fill:#71C1C2;}
	.st1{fill:#FFFFFF;}
	.st2{clip-path:url(#SVGID_00000086654257361407852250000016065190520457062054_);}
	.st3{fill:#010101;}
	.st4{opacity:0.5;fill:none;stroke:#000000;stroke-width:0.2;stroke-linecap:round;stroke-linejoin:round;stroke-miterlimit:10;}
	.st5{opacity:0.5;}
	.st6{opacity:0.15;}
	.st7{fill:#221F20;}
</style>
<g>
	<path class="st0" d="M41.65,43.99H2.34C1.05,43.99,0,42.95,0,41.65V2.34C0,1.05,1.05,0,2.34,0h39.31C42.95,0,44,1.05,44,2.34v39.31
		C44,42.95,42.95,43.99,41.65,43.99z"/>
</g>
<g>
	<polygon class="st1" points="32.36,16.4 34.83,16.4 30.59,12.16 26.36,16.4 28.83,16.4 28.83,27.6 26.36,27.6 30.59,31.83 
		34.83,27.6 32.36,27.6 	"/>
</g>
<g>
	<defs>
		<rect id="SVGID_1_" x="11.17" y="3.7" width="10.12" height="40.29"/>
	</defs>
	<clipPath id="SVGID_00000022526004838397547460000014233961524109331885_">
		<use xlink:href="#SVGID_1_"  style="overflow:visible;"/>
	</clipPath>
	<g style="clip-path:url(#SVGID_00000022526004838397547460000014233961524109331885_);">
		<g>
			<path class="st1" d="M19.98,39.01H12.4v10.43h0c0.03,0.78,1.72,1.41,3.79,1.41s3.75-0.63,3.79-1.41h0V39.01z"/>
			<path class="st3" d="M16.19,51.02c-2.19,0-3.87-0.66-3.96-1.53c0-0.02-0.01-0.03-0.01-0.05V39.01c0-0.1,0.08-0.17,0.17-0.17h7.58
				c0.1,0,0.17,0.08,0.17,0.17v10.43c0,0.02,0,0.03-0.01,0.05C20.07,50.37,18.38,51.02,16.19,51.02z M12.58,49.4
				c0,0.01,0,0.02,0,0.03c0.03,0.6,1.48,1.24,3.61,1.24s3.59-0.64,3.61-1.24c0-0.01,0-0.02,0-0.03V39.18h-7.23V49.4z"/>
		</g>
		<g>
			<path class="st4" d="M19.98,45.91c0,0.29-1.7,1.04-3.79,1.04s-3.79-0.74-3.79-1.04"/>
			<path class="st4" d="M19.98,46.52c0,0.29-1.7,1.04-3.79,1.04s-3.79-0.74-3.79-1.04"/>
			<path class="st4" d="M19.98,47.13c0,0.29-1.7,1.04-3.79,1.04s-3.79-0.74-3.79-1.04"/>
			<path class="st4" d="M19.98,47.74c0,0.29-1.7,1.04-3.79,1.04s-3.79-0.74-3.79-1.04"/>
			<path class="st4" d="M19.98,48.36c0,0.29-1.7,1.04-3.79,1.04s-3.79-0.74-3.79-1.04"/>
			<path class="st4" d="M19.98,48.97c0,0.29-1.7,1.04-3.79,1.04s-3.79-0.74-3.79-1.04"/>
			<path class="st4" d="M19.98,49.58c0,0.29-1.7,1.04-3.79,1.04s-3.79-0.74-3.79-1.04"/>
		</g>
		<g>
			<path class="st1" d="M17.25,39.95v5.91c0,0,0.05,0.36,0.54,0.29c0.49-0.07,1.2-0.27,1.58-0.45c0.38-0.18,0.59-0.51,0.59-0.51
				v-5.82L17.25,39.95z"/>
			<path class="st3" d="M17.67,46.33c-0.15,0-0.28-0.04-0.39-0.12c-0.17-0.13-0.2-0.31-0.2-0.33l0-5.93c0-0.08,0.06-0.15,0.14-0.17
				l2.71-0.57c0.05-0.01,0.11,0,0.15,0.04c0.04,0.03,0.06,0.08,0.06,0.14v5.82c0,0.03-0.01,0.07-0.03,0.09
				c-0.01,0.01-0.24,0.37-0.66,0.57c-0.39,0.18-1.1,0.39-1.63,0.46C17.76,46.33,17.71,46.33,17.67,46.33z M17.42,40.09v5.77
				c0.01,0.02,0.05,0.16,0.34,0.12c0.49-0.07,1.18-0.27,1.53-0.43c0.26-0.12,0.43-0.32,0.49-0.4v-5.55L17.42,40.09z"/>
		</g>
		<g>
			<path class="st1" d="M20.89,14.31l-0.92-3.92l0.01-4.95h-7.6v4.95l-0.98,3.9v24.73c0,0.72,2.13,1.31,4.75,1.31
				c2.62,0,4.75-0.59,4.75-1.31L20.89,14.31z"/>
			<path class="st3" d="M16.16,40.52c-2.39,0-4.93-0.52-4.93-1.49V14.3l0.98-3.95l0-4.9c0-0.1,0.08-0.17,0.17-0.17h7.6
				c0.05,0,0.09,0.02,0.12,0.05c0.03,0.03,0.05,0.08,0.05,0.12l-0.01,4.95l0.92,3.88c0,0.01,0,0.03,0,0.04l0.01,24.72
				C21.08,40,18.54,40.52,16.16,40.52z M12.56,5.63v4.77l-0.98,3.95l0,24.69c0,0.47,1.74,1.14,4.58,1.14s4.58-0.66,4.58-1.14
				l-0.01-24.7l-0.92-3.9l0.01-4.81H12.56z"/>
		</g>
		<g>
			<ellipse class="st1" cx="16.19" cy="5.45" rx="3.79" ry="0.53"/>
			<path class="st3" d="M16.19,6.16c-0.93,0-3.97-0.05-3.97-0.71s3.04-0.71,3.97-0.71s3.97,0.05,3.97,0.71S17.12,6.16,16.19,6.16z
				 M12.64,5.45c0.34,0.16,1.65,0.36,3.55,0.36s3.21-0.2,3.55-0.36c-0.34-0.16-1.65-0.36-3.55-0.36S12.98,5.29,12.64,5.45z"/>
		</g>
		<g>
			<ellipse class="st1" cx="16.19" cy="5.45" rx="3.13" ry="0.26"/>
			<path class="st3" d="M16.19,5.89c-3.3,0-3.3-0.3-3.3-0.44s0-0.44,3.3-0.44s3.3,0.3,3.3,0.44S19.5,5.89,16.19,5.89z M13.86,5.45
				c0.52,0.05,1.33,0.09,2.33,0.09S18,5.5,18.53,5.45C18,5.4,17.2,5.36,16.19,5.36S14.38,5.4,13.86,5.45z"/>
		</g>
		<g>
			<path class="st4" d="M19.98,5.84c0,0.29-1.7,0.53-3.79,0.53S12.4,6.13,12.4,5.84"/>
			<path class="st4" d="M19.98,6.45c0,0.29-1.7,0.53-3.79,0.53S12.4,6.75,12.4,6.45"/>
			<path class="st4" d="M19.98,7.06c0,0.29-1.7,0.53-3.79,0.53S12.4,7.36,12.4,7.06"/>
			<path class="st4" d="M19.98,7.68c0,0.29-1.7,0.53-3.79,0.53S12.4,7.97,12.4,7.68"/>
			<path class="st4" d="M19.98,8.29c0,0.29-1.7,0.53-3.79,0.53S12.4,8.58,12.4,8.29"/>
			<path class="st4" d="M19.98,8.9c0,0.29-1.7,0.53-3.79,0.53S12.4,9.19,12.4,8.9"/>
			<path class="st4" d="M19.98,9.51c0,0.29-1.7,0.53-3.79,0.53S12.4,9.81,12.4,9.51"/>
		</g>
		<g class="st5">
			<path d="M16.14,15.03c-1.68,0-4.85-0.16-4.85-0.77c0-0.06,0.04-0.1,0.1-0.1s0.1,0.04,0.1,0.1c0.04,0.2,1.67,0.57,4.65,0.57
				c2.99,0,4.62-0.37,4.65-0.57c0-0.06,0.04-0.1,0.1-0.1s0.1,0.04,0.1,0.1C21,14.87,17.82,15.03,16.14,15.03z"/>
		</g>
		<g class="st5">
			<path d="M16.14,10.9c-0.16,0-3.9-0.01-3.9-0.63c0-0.06,0.04-0.1,0.1-0.1s0.1,0.04,0.1,0.1c0.08,0.17,1.44,0.43,3.7,0.43
				c2.25,0,3.61-0.26,3.7-0.44c0-0.06,0.04-0.1,0.1-0.1s0.1,0.05,0.1,0.1C20.04,10.89,16.3,10.9,16.14,10.9z"/>
		</g>
		<g class="st6">
			<path class="st7" d="M17.25,45.86c0,0,1.21-0.25,1.63-0.41c0.43-0.16,0.57-0.41,0.57-0.59c0-0.18,0-4.85,0-4.85l-2.23,0.36
				L17.25,45.86z"/>
		</g>
		<g>
			<path class="st3" d="M17.25,46.03c-0.04,0-0.08-0.01-0.11-0.04c-0.04-0.03-0.06-0.08-0.06-0.13l-0.02-5.49
				c0-0.09,0.06-0.16,0.15-0.17l2.09-0.36c0.05,0,0.1,0.01,0.14,0.04c0.04,0.03,0.06,0.08,0.06,0.13v4.85c0,0.19,0,0.55-0.55,0.75
				c-0.44,0.17-1.61,0.41-1.66,0.42C17.27,46.03,17.26,46.03,17.25,46.03z M17.41,40.51l0.02,5.13c0.36-0.08,1.09-0.24,1.4-0.36
				c0.32-0.12,0.32-0.27,0.32-0.43v-4.64L17.41,40.51z"/>
		</g>
	</g>
</g>
</svg>
