<?xml version="1.0" encoding="utf-8"?>
<!-- Generator: Adobe Illustrator 26.3.1, SVG Export Plug-In . SVG Version: 6.00 Build 0)  -->
<svg version="1.1" id="Layer_1" xmlns="http://www.w3.org/2000/svg" xmlns:xlink="http://www.w3.org/1999/xlink" x="0px" y="0px"
	 viewBox="0 0 43.99 43.99" style="enable-background:new 0 0 43.99 43.99;" xml:space="preserve">
<style type="text/css">
	.st0{fill:#66D7D1;}
	.st1{fill:#FFFFFF;}
	.st2{fill:#010101;}
	.st3{opacity:0.15;}
	.st4{fill:#221F20;}
</style>
<g>
	<path class="st0" d="M41.65,43.99H2.34C1.05,43.99,0,42.95,0,41.65V2.34C0,1.05,1.05,0,2.34,0h39.31C42.95,0,44,1.05,44,2.34v39.31
		C44,42.95,42.95,43.99,41.65,43.99z"/>
</g>
<g>
	<g>
		<polygon class="st1" points="7.97,13.7 7.98,16.57 22.02,23.29 36.05,16.41 36.06,13.71 22.02,6.74 		"/>
		<path class="st2" d="M22.02,23.49l-0.08-0.04L7.8,16.68L7.8,13.59l0.1-0.05l14.12-7l0.08,0.04l14.14,7.01l-0.01,2.93L22.02,23.49z
			 M8.15,16.46l13.87,6.64l13.86-6.79l0.01-2.49L22.02,6.94L8.15,13.81L8.15,16.46z"/>
	</g>
	<g>
		<g>
			<path d="M22.02,20.76c-0.03,0-0.05-0.01-0.08-0.02L7.9,13.86c-0.06-0.03-0.1-0.09-0.1-0.16c0-0.07,0.04-0.13,0.1-0.16l14.04-6.96
				c0.05-0.02,0.11-0.02,0.16,0l14.04,6.96c0.06,0.03,0.1,0.09,0.1,0.16c0,0.07-0.04,0.13-0.1,0.16l-14.04,6.88
				C22.07,20.75,22.04,20.76,22.02,20.76z M8.38,13.7l13.64,6.69l13.64-6.69L22.02,6.94L8.38,13.7z"/>
		</g>
		<g>
			<path d="M22.02,37.42c-0.03,0-0.05-0.01-0.08-0.02L7.9,30.53c-0.06-0.03-0.1-0.09-0.1-0.16c0-0.07,0.04-0.13,0.1-0.16l14.04-6.96
				c0.05-0.02,0.11-0.02,0.16,0l14.04,6.96c0.06,0.03,0.1,0.09,0.1,0.16c0,0.07-0.04,0.13-0.1,0.16l-14.04,6.88
				C22.07,37.42,22.04,37.42,22.02,37.42z M8.38,30.37l13.64,6.69l13.64-6.69L22.02,23.6L8.38,30.37z"/>
		</g>
		<g>
			<path d="M22.02,23.47c-0.03,0-0.05-0.01-0.08-0.02L7.9,16.73l0.15-0.32l13.96,6.69l13.96-6.84l0.15,0.31l-14.04,6.88
				C22.07,23.46,22.04,23.47,22.02,23.47z"/>
		</g>
		<g>
			<rect x="35.88" y="13.7" width="0.35" height="16.66"/>
		</g>
		<g>
			<rect x="7.8" y="13.7" width="0.35" height="16.66"/>
		</g>
		<g>
			<rect x="21.85" y="20.59" width="0.35" height="2.81"/>
		</g>
	</g>
	<g class="st3">
		<polygon class="st4" points="7.98,16.57 7.98,30.36 22.02,37.25 36.05,30.37 36.06,16.41 22.02,23.29 		"/>
	</g>
</g>
</svg>
