<?xml version="1.0" encoding="utf-8"?>
<!-- Generator: Adobe Illustrator 26.3.1, SVG Export Plug-In . SVG Version: 6.00 Build 0)  -->
<svg version="1.1" id="Layer_1" xmlns="http://www.w3.org/2000/svg" xmlns:xlink="http://www.w3.org/1999/xlink" x="0px" y="0px"
	 viewBox="0 0 43.99 43.99" style="enable-background:new 0 0 43.99 43.99;" xml:space="preserve">
<style type="text/css">
	.st0{fill:#66D7D1;}
	.st1{fill:#FFFFFF;}
	.st2{opacity:0.15;}
	.st3{fill:#221F20;}
	.st4{opacity:0.5;}
</style>
<g>
	<path class="st0" d="M41.65,43.99H2.34C1.05,43.99,0,42.95,0,41.65V2.34C0,1.05,1.05,0,2.34,0h39.31c1.29,0,2.34,1.05,2.34,2.34
		v39.31C43.99,42.95,42.95,43.99,41.65,43.99z"/>
</g>
<g>
	<g>
		<polygon class="st1" points="22.02,37.24 7.91,30.37 7.96,13.89 22.02,20.54 		"/>
	</g>
	<g class="st2">
		<polygon class="st3" points="36,30.38 22.01,37.25 22.01,20.53 36,13.74 		"/>
	</g>
	<g>
		<path d="M22.01,20.71c-0.03,0-0.05-0.01-0.08-0.02L7.9,13.86c-0.06-0.03-0.1-0.09-0.1-0.16c0-0.07,0.04-0.13,0.1-0.16l14.04-6.96
			c0.05-0.02,0.11-0.02,0.16,0l14.04,6.96c0.06,0.03,0.1,0.09,0.1,0.16c0,0.07-0.04,0.13-0.1,0.16l-14.04,6.83
			C22.06,20.7,22.04,20.71,22.01,20.71z M8.38,13.7l13.64,6.64l13.64-6.64L22.01,6.94L8.38,13.7z"/>
	</g>
	<g>
		<path d="M22.01,37.42c-0.03,0-0.05-0.01-0.08-0.02L7.9,30.52c-0.06-0.03-0.1-0.09-0.1-0.16l0-16.66c0-0.1,0.08-0.17,0.17-0.17
			c0.1,0,0.17,0.08,0.17,0.17l0,16.55l13.86,6.79l13.86-6.79V13.7c0-0.1,0.08-0.17,0.17-0.17s0.17,0.08,0.17,0.17v16.66
			c0,0.07-0.04,0.13-0.1,0.16L22.09,37.4C22.07,37.42,22.04,37.42,22.01,37.42z"/>
	</g>
	<g>
		<rect x="21.84" y="20.54" width="0.35" height="16.71"/>
	</g>
	<g class="st4">
		<path d="M26.79,26.41c-0.06,0-0.1-0.04-0.1-0.1s0.04-0.1,0.1-0.1s0.1,0.04,0.1,0.09v0.01C26.89,26.37,26.85,26.41,26.79,26.41z"/>
	</g>
	<g class="st4">
		<path d="M30.74,28.19c-0.06,0-0.1-0.04-0.1-0.1s0.04-0.1,0.1-0.1s0.1,0.04,0.1,0.1v0.01C30.84,28.14,30.79,28.19,30.74,28.19z"/>
	</g>
	<g class="st4">
		<path d="M30.66,26.04c-0.06,0-0.1-0.04-0.1-0.1s0.04-0.1,0.1-0.1s0.1,0.04,0.1,0.09v0.01C30.76,26,30.72,26.04,30.66,26.04z"/>
	</g>
	<g class="st4">
		<path d="M26.75,31.73c-0.06,0-0.1-0.04-0.1-0.1s0.04-0.1,0.1-0.1s0.1,0.04,0.1,0.09v0.01C26.85,31.69,26.81,31.73,26.75,31.73z"/>
	</g>
	<g class="st4">
		<path d="M13.17,24.95c-0.06,0-0.1-0.04-0.1-0.1s0.04-0.1,0.1-0.1s0.1,0.04,0.1,0.1v0.01C13.27,24.9,13.22,24.95,13.17,24.95z"/>
	</g>
	<g class="st4">
		<path d="M27.71,30.98c-0.06,0-0.1-0.04-0.1-0.1s0.04-0.1,0.1-0.1s0.1,0.04,0.1,0.09v0.01C27.81,30.94,27.76,30.98,27.71,30.98z"/>
	</g>
	<g class="st4">
		<path d="M24.32,30.25c-0.06,0-0.1-0.04-0.1-0.1s0.04-0.1,0.1-0.1s0.1,0.04,0.1,0.09v0.01C24.42,30.21,24.37,30.25,24.32,30.25z"/>
	</g>
	<g class="st4">
		<path d="M25.21,25.43c-0.06,0-0.1-0.04-0.1-0.1s0.04-0.1,0.1-0.1s0.1,0.04,0.1,0.09v0.01C25.31,25.39,25.27,25.43,25.21,25.43z"/>
	</g>
	<g class="st4">
		<path d="M30.4,21.61c-0.06,0-0.1-0.04-0.1-0.1s0.04-0.1,0.1-0.1s0.1,0.04,0.1,0.09v0.01C30.5,21.57,30.45,21.61,30.4,21.61z"/>
	</g>
	<g class="st4">
		<path d="M28.18,18.62c-0.06,0-0.1-0.04-0.1-0.1s0.04-0.1,0.1-0.1s0.1,0.04,0.1,0.09v0.01C28.28,18.57,28.24,18.62,28.18,18.62z"/>
	</g>
	<g class="st4">
		<path d="M34.62,28.77c-0.06,0-0.1-0.04-0.1-0.1s0.04-0.1,0.1-0.1s0.1,0.04,0.1,0.09v0.01C34.72,28.73,34.67,28.77,34.62,28.77z"/>
	</g>
	<g class="st4">
		<path d="M24.1,34.14c-0.06,0-0.1-0.04-0.1-0.1s0.04-0.1,0.1-0.1s0.1,0.04,0.1,0.09v0.01C24.2,34.09,24.16,34.14,24.1,34.14z"/>
	</g>
	<g class="st4">
		<path d="M33.9,17.55c-0.06,0-0.1-0.04-0.1-0.1s0.04-0.1,0.1-0.1s0.1,0.04,0.1,0.1v0.01C34,17.5,33.96,17.55,33.9,17.55z"/>
	</g>
	<g class="st4">
		<path d="M31.92,18.38c-0.06,0-0.1-0.04-0.1-0.1s0.04-0.1,0.1-0.1s0.1,0.04,0.1,0.09v0.01C32.02,18.33,31.97,18.38,31.92,18.38z"/>
	</g>
	<g class="st4">
		<path d="M34.81,18.93c-0.06,0-0.1-0.04-0.1-0.1s0.04-0.1,0.1-0.1s0.1,0.04,0.1,0.09v0.01C34.91,18.89,34.87,18.93,34.81,18.93z"/>
	</g>
	<g class="st4">
		<path d="M33.23,25.67c-0.06,0-0.1-0.04-0.1-0.1v-0.82c0-0.06,0.04-0.1,0.1-0.1s0.1,0.04,0.1,0.1v0.82
			C33.33,25.63,33.29,25.67,33.23,25.67z"/>
	</g>
	<g class="st4">
		<path d="M24.87,22.56c-0.06,0-0.1-0.04-0.1-0.1V21.5c0-0.06,0.04-0.1,0.1-0.1s0.1,0.04,0.1,0.1v0.96
			C24.97,22.51,24.92,22.56,24.87,22.56z"/>
	</g>
	<g class="st4">
		<path d="M11.97,26.33c-0.06,0-0.1-0.04-0.1-0.1s0.04-0.1,0.1-0.1s0.1,0.04,0.1,0.1v0.01C12.07,26.29,12.03,26.33,11.97,26.33z"/>
	</g>
	<g class="st4">
		<path d="M19.64,32.37c-0.06,0-0.1-0.04-0.1-0.1s0.04-0.1,0.1-0.1s0.1,0.04,0.1,0.09v0.01C19.74,32.32,19.7,32.37,19.64,32.37z"/>
	</g>
	<g class="st4">
		<path d="M15.31,28.97c-0.06,0-0.1-0.04-0.1-0.1s0.04-0.1,0.1-0.1s0.1,0.04,0.1,0.09v0.01C15.41,28.93,15.36,28.97,15.31,28.97z"/>
	</g>
	<g class="st4">
		<path d="M16,32.68c-0.06,0-0.1-0.04-0.1-0.1s0.04-0.1,0.1-0.1c0.06,0,0.1,0.04,0.1,0.1v0.01C16.1,32.64,16.05,32.68,16,32.68z"/>
	</g>
	<g class="st4">
		<path d="M10.09,19.92c-0.06,0-0.1-0.04-0.1-0.1s0.04-0.1,0.1-0.1s0.1,0.04,0.1,0.09v0.01C10.19,19.88,10.14,19.92,10.09,19.92z"/>
	</g>
	<g class="st4">
		<path d="M15.75,20.98c-0.06,0-0.1-0.04-0.1-0.1s0.04-0.1,0.1-0.1s0.1,0.04,0.1,0.09v0.01C15.85,20.94,15.81,20.98,15.75,20.98z"/>
	</g>
	<g class="st4">
		<path d="M9.05,27.74c-0.06,0-0.1-0.04-0.1-0.1s0.04-0.1,0.1-0.1s0.1,0.04,0.1,0.09v0.01C9.15,27.69,9.1,27.74,9.05,27.74z"/>
	</g>
	<g class="st4">
		<path d="M16.29,22.6c-0.06,0-0.1-0.04-0.1-0.1s0.04-0.1,0.1-0.1s0.1,0.04,0.1,0.09v0.01C16.39,22.56,16.34,22.6,16.29,22.6z"/>
	</g>
	<g class="st4">
		<path d="M14.13,13.58c-0.06,0-0.1-0.04-0.1-0.1s0.04-0.1,0.1-0.1s0.1,0.04,0.1,0.09v0.01C14.23,13.54,14.18,13.58,14.13,13.58z"/>
	</g>
	<g class="st4">
		<path d="M17.8,9.72c-0.06,0-0.1-0.04-0.1-0.1s0.04-0.1,0.1-0.1s0.1,0.04,0.1,0.09v0.01C17.9,9.67,17.85,9.72,17.8,9.72z"/>
	</g>
	<g class="st4">
		<path d="M29.01,12.58c-0.06,0-0.1-0.04-0.1-0.1s0.04-0.1,0.1-0.1s0.1,0.04,0.1,0.09v0.01C29.11,12.53,29.06,12.58,29.01,12.58z"/>
	</g>
	<g class="st4">
		<path d="M31.99,14.17c-0.06,0-0.1-0.04-0.1-0.1s0.04-0.1,0.1-0.1s0.1,0.04,0.1,0.09v0.01C32.09,14.13,32.05,14.17,31.99,14.17z"/>
	</g>
	<g class="st4">
		<path d="M20.56,10.19c-0.06,0-0.1-0.04-0.1-0.1s0.04-0.1,0.1-0.1s0.1,0.04,0.1,0.09v0.01C20.66,10.14,20.61,10.19,20.56,10.19z"/>
	</g>
	<g class="st4">
		<path d="M16.57,11.88c-0.06,0-0.1-0.04-0.1-0.1s0.04-0.1,0.1-0.1s0.1,0.04,0.1,0.09v0.01C16.67,11.84,16.63,11.88,16.57,11.88z"/>
	</g>
	<g class="st4">
		<path d="M25.17,12.55c-0.06,0-0.1-0.04-0.1-0.1s0.04-0.1,0.1-0.1s0.1,0.04,0.1,0.09v0.01C25.27,12.5,25.22,12.55,25.17,12.55z"/>
	</g>
	<g class="st4">
		<path d="M19.64,13.03c-0.06,0-0.1-0.04-0.1-0.1s0.04-0.1,0.1-0.1s0.1,0.04,0.1,0.09v0.01C19.74,12.98,19.7,13.03,19.64,13.03z"/>
	</g>
	<g class="st4">
		<path d="M21.64,18.49c-0.06,0-0.1-0.04-0.1-0.1s0.04-0.1,0.1-0.1s0.1,0.04,0.1,0.09v0.01C21.74,18.44,21.69,18.49,21.64,18.49z"/>
	</g>
	<g class="st4">
		<path d="M15.64,16.71c-0.06,0-0.1-0.04-0.1-0.1s0.04-0.1,0.1-0.1s0.1,0.04,0.1,0.09v0.01C15.74,16.66,15.69,16.71,15.64,16.71z"/>
	</g>
	<g class="st4">
		<path d="M20.59,22.43c-0.06,0-0.1-0.04-0.1-0.1s0.04-0.1,0.1-0.1s0.1,0.04,0.1,0.09v0.01C20.69,22.39,20.64,22.43,20.59,22.43z"/>
	</g>
	<g class="st4">
		<path d="M18.58,25.01c-0.06,0-0.1-0.04-0.1-0.1v-0.78c0-0.06,0.04-0.1,0.1-0.1s0.1,0.04,0.1,0.1v0.78
			C18.68,24.96,18.64,25.01,18.58,25.01z"/>
	</g>
	<g class="st4">
		<path d="M11.48,16.9c-0.06,0-0.1-0.04-0.1-0.1v-0.96c0-0.06,0.04-0.1,0.1-0.1s0.1,0.04,0.1,0.1v0.96
			C11.58,16.86,11.53,16.9,11.48,16.9z"/>
	</g>
	<g class="st4">
		<path d="M30.08,33.12c-0.06,0-0.1-0.04-0.1-0.1v-1.33c0-0.06,0.04-0.1,0.1-0.1s0.1,0.04,0.1,0.1v1.33
			C30.18,33.08,30.13,33.12,30.08,33.12z"/>
	</g>
	<g class="st4">
		<path d="M9.96,29.6c-0.06,0-0.1-0.04-0.1-0.1v-0.81c0-0.06,0.04-0.1,0.1-0.1s0.1,0.04,0.1,0.1v0.81
			C10.06,29.56,10.02,29.6,9.96,29.6z"/>
	</g>
	<g class="st4">
		<path d="M23.61,8.96c-0.04,0-0.07-0.02-0.09-0.06c-0.02-0.05,0-0.11,0.05-0.13l1.04-0.51c0.05-0.02,0.11-0.01,0.13,0.05
			c0.02,0.05,0,0.11-0.05,0.13l-1.04,0.51C23.64,8.96,23.62,8.96,23.61,8.96z"/>
	</g>
	<g class="st4">
		<path d="M19.49,16.43c-0.04,0-0.07-0.02-0.09-0.05c-0.02-0.05,0-0.11,0.04-0.13l0.67-0.33c0.05-0.02,0.11,0,0.13,0.04
			c0.02,0.05,0,0.11-0.04,0.13l-0.67,0.33C19.52,16.42,19.51,16.43,19.49,16.43z"/>
	</g>
	<g class="st4">
		<path d="M26.38,15.31c-0.04,0-0.07-0.02-0.09-0.06c-0.02-0.05,0-0.11,0.05-0.13l0.93-0.46c0.05-0.02,0.11-0.01,0.13,0.05
			c0.02,0.05,0,0.11-0.05,0.13l-0.93,0.46C26.41,15.31,26.39,15.31,26.38,15.31z"/>
	</g>
</g>
</svg>
