<?xml version="1.0" encoding="utf-8"?>
<!-- Generator: Adobe Illustrator 26.2.1, SVG Export Plug-In . SVG Version: 6.00 Build 0)  -->
<svg version="1.1" id="Layer_1" xmlns="http://www.w3.org/2000/svg" xmlns:xlink="http://www.w3.org/1999/xlink" x="0px" y="0px"
	 viewBox="0 0 43.99 43.99" style="enable-background:new 0 0 43.99 43.99;" xml:space="preserve">
<style type="text/css">
	.st0{fill:#71C1C2;}
	.st1{fill:#FFFFFF;}
	.st2{fill:#010101;}
	.st3{opacity:0.5;}
	
		.st4{opacity:0.5;fill:none;stroke:#000000;stroke-width:0.2;stroke-linecap:round;stroke-linejoin:round;stroke-miterlimit:10;enable-background:new    ;}
	.st5{opacity:0.15;}
	.st6{fill:#221F20;}
	.st7{fill:none;}
	.st8{fill:#030001;}
	.st9{opacity:0.2;fill:#221F20;}
</style>
<path class="st0" d="M41.65,43.99H2.34C1.05,43.99,0,42.95,0,41.65V2.34C0,1.05,1.05,0,2.34,0h39.31C42.95,0,44,1.05,44,2.34v39.31
	C44,42.95,42.95,43.99,41.65,43.99z"/>
<g>
	<g>
		<polygon class="st1" points="32.89,23 33.35,22.74 33.35,16.82 32.89,17.09 		"/>
		<path class="st2" d="M32.89,23.18c-0.03,0-0.06-0.01-0.09-0.02c-0.05-0.03-0.09-0.09-0.09-0.15v-5.92c0-0.06,0.03-0.12,0.09-0.15
			l0.46-0.27c0.05-0.03,0.12-0.03,0.18,0c0.05,0.03,0.09,0.09,0.09,0.15v5.92c0,0.06-0.03,0.12-0.09,0.15l-0.46,0.27
			C32.95,23.17,32.92,23.18,32.89,23.18z M33.06,17.19v5.51l0.11-0.06v-5.51L33.06,17.19z"/>
	</g>
	<g>
		<polygon class="st1" points="32.74,22.92 32.89,23 32.89,17.09 32.74,17 		"/>
		<path class="st2" d="M32.89,23.18c-0.03,0-0.06-0.01-0.09-0.02l-0.14-0.08c-0.05-0.03-0.09-0.09-0.09-0.15V17
			c0-0.06,0.03-0.12,0.09-0.15c0.05-0.03,0.12-0.03,0.18,0l0.14,0.08c0.05,0.03,0.09,0.09,0.09,0.15V23c0,0.06-0.03,0.12-0.09,0.15
			C32.95,23.17,32.92,23.18,32.89,23.18z"/>
	</g>
	<g>
		<polygon class="st1" points="33.35,22.57 32.74,22.92 32.74,17 33.35,16.66 		"/>
		<path class="st2" d="M32.74,23.1c-0.03,0-0.06-0.01-0.09-0.02c-0.05-0.03-0.09-0.09-0.09-0.15V17c0-0.06,0.03-0.12,0.09-0.15
			l0.6-0.35c0.05-0.03,0.12-0.03,0.17,0s0.09,0.09,0.09,0.15v5.92c0,0.06-0.03,0.12-0.09,0.15l-0.6,0.35
			C32.8,23.09,32.77,23.1,32.74,23.1z M32.92,17.1v5.51l0.25-0.15v-5.51L32.92,17.1z"/>
	</g>
	<g>
		<polygon class="st1" points="35.21,23.65 33.35,22.57 33.35,16.66 35.21,17.73 		"/>
		<path class="st2" d="M35.21,23.82c-0.03,0-0.06-0.01-0.09-0.02l-1.86-1.07c-0.05-0.03-0.09-0.09-0.09-0.15v-5.92
			c0-0.06,0.03-0.12,0.09-0.15c0.05-0.03,0.12-0.03,0.17,0l1.86,1.07c0.05,0.03,0.09,0.09,0.09,0.15v5.92
			c0,0.06-0.03,0.12-0.09,0.15C35.27,23.81,35.24,23.82,35.21,23.82z M33.52,22.47l1.51,0.87v-5.51l-1.51-0.87V22.47z"/>
	</g>
	<g>
		<polygon class="st1" points="37.4,22.54 37.26,22.46 37.26,16.54 37.4,16.63 		"/>
		<path class="st2" d="M37.4,22.72c-0.03,0-0.06-0.01-0.09-0.02l-0.14-0.08c-0.05-0.03-0.09-0.09-0.09-0.15v-5.92
			c0-0.06,0.03-0.12,0.09-0.15c0.05-0.03,0.12-0.03,0.18,0l0.14,0.08c0.05,0.03,0.09,0.09,0.09,0.15v5.92
			c0,0.06-0.03,0.12-0.09,0.15C37.46,22.71,37.43,22.72,37.4,22.72z"/>
	</g>
	<g>
		<polygon class="st1" points="35.21,23.81 35.21,17.89 33.35,16.82 33.35,22.74 		"/>
		<path class="st2" d="M35.21,23.99c-0.03,0-0.06-0.01-0.09-0.02l-1.86-1.07c-0.05-0.03-0.09-0.09-0.09-0.15v-5.92
			c0-0.06,0.03-0.12,0.09-0.15c0.05-0.03,0.12-0.03,0.17,0l1.86,1.07c0.05,0.03,0.09,0.09,0.09,0.15v5.92
			c0,0.06-0.03,0.12-0.09,0.15C35.27,23.98,35.24,23.99,35.21,23.99z M33.52,22.64l1.51,0.87V18l-1.51-0.87V22.64z"/>
	</g>
	<g>
		<path class="st1" d="M35.21,23.81l2.2-1.27c0,0,0.66-0.41,0.66-2.88s-0.66-3.04-0.66-3.04l-2.2,1.27V23.81L35.21,23.81z"/>
		<path class="st2" d="M35.21,23.99c-0.03,0-0.06-0.01-0.09-0.02c-0.05-0.03-0.09-0.09-0.09-0.15V17.9c0-0.06,0.03-0.12,0.09-0.15
			l2.2-1.27c0.06-0.04,0.14-0.03,0.2,0.02c0.07,0.06,0.72,0.69,0.72,3.17c0,2.5-0.67,2.98-0.74,3.03l-2.2,1.27
			C35.27,23.98,35.24,23.99,35.21,23.99z M35.38,17.99v5.51l1.93-1.12l0,0c0,0,0.57-0.45,0.57-2.73c0-1.82-0.37-2.57-0.53-2.81
			L35.38,17.99z"/>
	</g>
	<g>
		<polygon class="st1" points="35.21,17.89 37.4,16.63 37.26,16.54 35.21,17.73 33.35,16.66 32.74,17 32.89,17.09 33.35,16.82 		"/>
		<path class="st2" d="M35.21,18.07c-0.03,0-0.06-0.01-0.09-0.02l-1.77-1.02l-0.37,0.22c-0.05,0.03-0.12,0.03-0.18,0l-0.14-0.08
			c-0.05-0.03-0.09-0.09-0.09-0.15s0.03-0.12,0.09-0.15l0.6-0.35c0.05-0.03,0.12-0.03,0.17,0l1.77,1.02l1.97-1.13
			c0.05-0.03,0.12-0.03,0.18,0l0.14,0.08c0.05,0.03,0.09,0.09,0.09,0.15s-0.03,0.12-0.09,0.15l-2.2,1.27
			C35.27,18.06,35.24,18.07,35.21,18.07z"/>
	</g>
</g>
<g>
	<g>
		<polygon class="st1" points="6.74,28.08 8.65,26.92 8.65,21.17 6.74,22.33 		"/>
		<path class="st2" d="M6.74,28.25c-0.03,0-0.06-0.01-0.09-0.02c-0.06-0.03-0.09-0.09-0.09-0.15v-5.74c0-0.06,0.03-0.12,0.08-0.15
			l1.91-1.16c0.05-0.04,0.12-0.04,0.18,0c0.06,0.03,0.09,0.09,0.09,0.15v5.74c0,0.06-0.03,0.12-0.08,0.15l-1.91,1.16
			C6.8,28.24,6.77,28.25,6.74,28.25z M6.91,22.43v5.33l1.56-0.95v-5.33L6.91,22.43z"/>
	</g>
	<g>
		<polygon class="st1" points="6.6,28 6.74,28.08 6.74,22.33 6.6,22.25 		"/>
		<path class="st2" d="M6.74,28.25c-0.03,0-0.06-0.01-0.09-0.02l-0.14-0.08C6.46,28.12,6.42,28.06,6.42,28v-5.74
			c0-0.06,0.03-0.12,0.09-0.15c0.05-0.03,0.12-0.03,0.18,0l0.14,0.08c0.05,0.03,0.09,0.09,0.09,0.15v5.74
			c0,0.06-0.03,0.12-0.09,0.15C6.8,28.24,6.77,28.25,6.74,28.25z"/>
	</g>
	<g>
		<path class="st1" d="M8.65,26.76L6.6,28c0,0-0.67-0.76-0.67-2.88s0.67-2.87,0.67-2.87l2.05-1.24V26.76L8.65,26.76z"/>
		<path class="st2" d="M6.6,28.17c-0.05,0-0.1-0.02-0.13-0.06c-0.03-0.03-0.71-0.83-0.71-2.99s0.68-2.95,0.71-2.98
			c0.01-0.01,0.02-0.02,0.04-0.03l2.05-1.24c0.05-0.04,0.12-0.04,0.18,0c0.06,0.03,0.09,0.09,0.09,0.15v5.74
			c0,0.06-0.03,0.12-0.08,0.15L6.7,28.15C6.66,28.16,6.63,28.17,6.6,28.17z M6.72,22.39c-0.09,0.12-0.61,0.89-0.61,2.73
			c0,1.56,0.37,2.36,0.54,2.64l1.82-1.1v-5.33L6.72,22.39z"/>
	</g>
	<g>
		<polygon class="st1" points="10.45,27.8 8.65,26.76 8.65,21.01 10.45,22.06 		"/>
		<path class="st2" d="M10.45,27.97c-0.03,0-0.06-0.01-0.09-0.02l-1.8-1.04c-0.05-0.03-0.09-0.09-0.09-0.15v-5.74
			c0-0.06,0.03-0.12,0.09-0.15c0.05-0.03,0.12-0.03,0.17,0l1.8,1.04c0.05,0.03,0.09,0.09,0.09,0.15v5.74c0,0.06-0.03,0.12-0.09,0.15
			C10.51,27.97,10.48,27.97,10.45,27.97z M8.82,26.66l1.46,0.84v-5.34l-1.46-0.84V26.66z"/>
	</g>
	<g>
		<polygon class="st1" points="12.58,26.73 12.45,26.65 12.45,20.91 12.58,20.98 		"/>
		<path class="st2" d="M12.58,26.9c-0.03,0-0.06-0.01-0.09-0.02l-0.14-0.08c-0.05-0.03-0.09-0.09-0.09-0.15V20.9
			c0-0.06,0.03-0.12,0.09-0.15c0.05-0.03,0.12-0.03,0.18,0l0.14,0.08c0.05,0.03,0.09,0.09,0.09,0.15v5.74
			c0,0.06-0.03,0.12-0.09,0.15C12.65,26.9,12.61,26.9,12.58,26.9z"/>
	</g>
	<g>
		<polygon class="st1" points="10.45,27.96 10.45,22.22 8.65,21.17 8.65,26.92 		"/>
		<path class="st2" d="M10.45,28.13c-0.03,0-0.06-0.01-0.09-0.02l-1.8-1.04c-0.05-0.03-0.09-0.09-0.09-0.15v-5.74
			c0-0.06,0.03-0.12,0.09-0.15c0.05-0.03,0.12-0.03,0.17,0l1.8,1.04c0.05,0.03,0.09,0.09,0.09,0.15v5.74c0,0.06-0.03,0.12-0.09,0.15
			C10.51,28.13,10.48,28.13,10.45,28.13z M8.82,26.82l1.46,0.84v-5.34l-1.46-0.84V26.82z"/>
	</g>
	<g>
		<polygon class="st1" points="10.45,27.96 12.58,26.73 12.58,20.98 10.45,22.22 		"/>
		<path class="st2" d="M10.45,28.13c-0.03,0-0.06-0.01-0.09-0.02c-0.05-0.03-0.09-0.09-0.09-0.15v-5.74c0-0.06,0.03-0.12,0.09-0.15
			l2.13-1.23c0.05-0.03,0.12-0.03,0.17,0s0.09,0.09,0.09,0.15v5.74c0,0.06-0.03,0.12-0.09,0.15l-2.13,1.23
			C10.51,28.13,10.48,28.13,10.45,28.13z M10.63,22.32v5.34l1.78-1.03v-5.34L10.63,22.32z"/>
	</g>
	<g>
		<polygon class="st1" points="10.45,22.22 12.58,20.98 12.45,20.91 10.45,22.06 8.65,21.01 6.6,22.25 6.46,22.48 8.65,21.17 		"/>
		<path class="st2" d="M6.46,22.65c-0.05,0-0.09-0.02-0.12-0.05c-0.06-0.06-0.07-0.15-0.02-0.22l0.14-0.23
			c0.01-0.02,0.03-0.04,0.06-0.06l2.05-1.24c0.05-0.04,0.12-0.03,0.18,0l1.72,0.99l1.91-1.1c0.05-0.03,0.12-0.03,0.18,0l0.14,0.08
			c0.05,0.03,0.09,0.09,0.09,0.15s-0.03,0.12-0.09,0.15l-2.13,1.23c-0.05,0.03-0.12,0.03-0.17,0l-1.72-0.99l-2.1,1.25
			C6.52,22.65,6.49,22.65,6.46,22.65z"/>
	</g>
</g>
<g>
	<g>
		<polygon class="st1" points="26.05,24.88 32.74,28.74 17.5,37.54 10.82,33.68 		"/>
		<path class="st2" d="M17.5,37.71c-0.03,0-0.06-0.01-0.09-0.02l-6.68-3.86c-0.05-0.03-0.09-0.09-0.09-0.15s0.03-0.12,0.09-0.15
			l15.23-8.8c0.05-0.03,0.12-0.03,0.17,0l6.68,3.86c0.05,0.03,0.09,0.09,0.09,0.15s-0.03,0.12-0.09,0.15l-15.24,8.8
			C17.56,37.7,17.53,37.71,17.5,37.71z M11.17,33.68l6.33,3.66l14.89-8.59l-6.33-3.66L11.17,33.68z"/>
	</g>
	<g>
		<polygon class="st1" points="26.05,24.88 26.05,6.46 32.74,10.31 32.74,28.74 		"/>
		<path class="st2" d="M32.74,28.92c-0.03,0-0.06-0.01-0.09-0.02l-6.68-3.86c-0.05-0.03-0.09-0.09-0.09-0.15V6.46
			c0-0.06,0.03-0.12,0.09-0.15c0.05-0.03,0.12-0.03,0.17,0l6.68,3.86c0.05,0.03,0.09,0.09,0.09,0.15v18.43
			c0,0.06-0.03,0.12-0.09,0.15C32.8,28.91,32.77,28.92,32.74,28.92z M26.23,24.78l6.33,3.66V10.42l-6.33-3.66
			C26.23,6.76,26.23,24.78,26.23,24.78z"/>
	</g>
	<g>
		<polygon class="st1" points="26.05,24.88 10.82,33.68 10.82,15.25 26.05,6.46 		"/>
		<path class="st2" d="M10.82,33.85c-0.03,0-0.06-0.01-0.09-0.02c-0.05-0.03-0.09-0.09-0.09-0.15V15.25c0-0.06,0.03-0.12,0.09-0.15
			l15.23-8.8c0.05-0.03,0.12-0.03,0.17,0s0.09,0.09,0.09,0.15v18.43c0,0.06-0.03,0.12-0.09,0.15l-15.23,8.8
			C10.88,33.85,10.85,33.85,10.82,33.85z M10.99,15.35v18.02l14.89-8.59V6.76L10.99,15.35z"/>
	</g>
	<g>
		<polygon class="st1" points="32.74,28.74 32.74,10.31 17.5,19.11 17.5,37.54 		"/>
		<path class="st2" d="M17.5,37.71c-0.03,0-0.06-0.01-0.09-0.02c-0.05-0.03-0.09-0.09-0.09-0.15V19.11c0-0.06,0.03-0.12,0.09-0.15
			l15.24-8.8c0.05-0.03,0.12-0.03,0.17,0s0.09,0.09,0.09,0.15v18.43c0,0.06-0.03,0.12-0.09,0.15l-15.24,8.8
			C17.56,37.7,17.53,37.71,17.5,37.71z M17.67,19.21v18.02l14.89-8.59V10.62L17.67,19.21z"/>
	</g>
	<g>
		<polygon class="st1" points="32.74,28.74 32.74,10.31 17.5,19.11 17.5,37.54 		"/>
		<path class="st2" d="M17.5,37.71c-0.03,0-0.06-0.01-0.09-0.02c-0.05-0.03-0.09-0.09-0.09-0.15V19.11c0-0.06,0.03-0.12,0.09-0.15
			l15.24-8.8c0.05-0.03,0.12-0.03,0.17,0s0.09,0.09,0.09,0.15v18.43c0,0.06-0.03,0.12-0.09,0.15l-15.24,8.8
			C17.56,37.7,17.53,37.71,17.5,37.71z M17.67,19.21v18.02l14.89-8.59V10.62L17.67,19.21z"/>
	</g>
	<g>
		<path class="st1" d="M31.32,14.53l-13.35,7.71c-0.29,0.17-0.47,0.48-0.47,0.82v9.45c0,0.73,0.78,1.18,1.41,0.82l13.35-7.71
			c0.29-0.17,0.47-0.48,0.47-0.82v-9.45C32.74,14.62,31.95,14.17,31.32,14.53z"/>
		<path class="st2" d="M18.44,33.62c-0.19,0-0.38-0.05-0.56-0.15c-0.35-0.2-0.56-0.56-0.56-0.97v-9.45c0-0.4,0.21-0.77,0.56-0.97
			l13.35-7.71l0,0c0.35-0.2,0.77-0.2,1.12,0c0.35,0.2,0.56,0.56,0.56,0.97v9.45c0,0.4-0.21,0.77-0.56,0.97L19,33.47
			C18.83,33.57,18.63,33.62,18.44,33.62z M31.41,14.68l-13.35,7.71c-0.24,0.14-0.38,0.39-0.38,0.66v9.45c0,0.28,0.14,0.53,0.38,0.66
			c0.24,0.14,0.53,0.14,0.77,0l13.35-7.71c0.24-0.14,0.38-0.39,0.38-0.67v-9.45c0-0.28-0.14-0.53-0.38-0.67
			C31.94,14.54,31.65,14.54,31.41,14.68z"/>
	</g>
	<g>
		<path class="st1" d="M31.81,14.53l-13.35,7.71c-0.29,0.17-0.47,0.48-0.47,0.82v9.45c0,0.73,0.78,1.18,1.41,0.82l13.35-7.71
			c0.29-0.17,0.47-0.48,0.47-0.82v-9.45C33.22,14.62,32.44,14.17,31.81,14.53z"/>
		<path class="st2" d="M18.93,33.62c-0.19,0-0.38-0.05-0.56-0.15c-0.35-0.2-0.56-0.56-0.56-0.97v-9.45c0-0.4,0.21-0.77,0.56-0.97
			l13.35-7.71l0,0c0.35-0.2,0.77-0.2,1.12,0s0.56,0.56,0.56,0.97v9.45c0,0.4-0.21,0.77-0.56,0.97l-13.35,7.71
			C19.31,33.57,19.12,33.62,18.93,33.62z M31.9,14.68l-13.35,7.71c-0.24,0.14-0.38,0.39-0.38,0.66v9.45c0,0.28,0.14,0.53,0.38,0.66
			s0.53,0.14,0.77,0l13.35-7.71c0.24-0.14,0.38-0.39,0.38-0.67v-9.45c0-0.28-0.14-0.53-0.38-0.67S32.14,14.54,31.9,14.68z"/>
	</g>
	<g class="st3">
		<path d="M21.39,30.04c-0.12,0-0.24-0.03-0.35-0.09c-0.22-0.12-0.35-0.35-0.35-0.6v-5.96c0-0.25,0.13-0.48,0.35-0.6l8.43-4.87l0,0
			c0.22-0.12,0.48-0.13,0.69,0c0.22,0.12,0.35,0.35,0.35,0.6v5.96c0,0.25-0.13,0.48-0.35,0.6l-8.43,4.87
			C21.63,30,21.51,30.04,21.39,30.04z M29.57,18.08l-8.43,4.87c-0.15,0.09-0.25,0.25-0.25,0.43v5.96c0,0.18,0.09,0.34,0.25,0.43
			c0.15,0.09,0.34,0.09,0.49,0l8.43-4.87c0.15-0.09,0.25-0.25,0.25-0.43v-5.96c0-0.18-0.09-0.34-0.25-0.43
			C29.91,17.99,29.73,17.99,29.57,18.08z"/>
	</g>
	<g>
		<polygon class="st0" points="26.05,6.46 10.82,15.25 17.5,19.11 32.74,10.31 		"/>
		<path class="st2" d="M17.5,19.29c-0.03,0-0.06-0.01-0.09-0.02l-6.68-3.86c-0.05-0.03-0.09-0.09-0.09-0.15s0.03-0.12,0.09-0.15
			l15.23-8.8c0.05-0.03,0.12-0.03,0.17,0l6.68,3.86c0.05,0.03,0.09,0.09,0.09,0.15s-0.03,0.12-0.09,0.15l-15.24,8.8
			C17.56,19.28,17.53,19.29,17.5,19.29z M11.17,15.25l6.33,3.66l14.89-8.59l-6.33-3.66L11.17,15.25z"/>
	</g>
	<g>
		<polygon class="st0" points="10.82,15.25 10.82,33.68 17.5,37.54 17.5,19.11 		"/>
		<path class="st2" d="M17.5,37.71c-0.03,0-0.06-0.01-0.09-0.02l-6.68-3.86c-0.05-0.03-0.09-0.09-0.09-0.15V15.25
			c0-0.06,0.03-0.12,0.09-0.15c0.05-0.03,0.12-0.03,0.17,0l6.68,3.86c0.05,0.03,0.09,0.09,0.09,0.15v18.43
			c0,0.06-0.03,0.12-0.09,0.15C17.56,37.7,17.53,37.71,17.5,37.71z M10.99,33.58l6.33,3.66V19.21l-6.33-3.66V33.58z"/>
	</g>
</g>
<g>
	<path class="st1" d="M6.72,28c0,0-0.67-0.76-0.67-2.88s0.67-2.87,0.67-2.87"/>
	<path class="st2" d="M6.59,28.11c-0.03-0.03-0.71-0.83-0.71-2.99s0.68-2.95,0.71-2.98l0.26,0.23c-0.01,0.01-0.62,0.74-0.62,2.75
		s0.62,2.75,0.62,2.76L6.59,28.11z"/>
</g>
<g>
	<g>
		<line class="st4" x1="29.43" y1="24.17" x2="29.43" y2="22.4"/>
		<line class="st4" x1="29.43" y1="20.98" x2="29.43" y2="19.2"/>
	</g>
	<g>
		<line class="st4" x1="28.74" y1="24.56" x2="28.74" y2="22.79"/>
		<line class="st4" x1="28.74" y1="21.37" x2="28.74" y2="19.6"/>
	</g>
	<g>
		<line class="st4" x1="28.05" y1="24.96" x2="28.05" y2="23.18"/>
		<line class="st4" x1="28.05" y1="21.77" x2="28.05" y2="19.99"/>
	</g>
	<g>
		<line class="st4" x1="27.36" y1="25.35" x2="27.37" y2="23.58"/>
		<line class="st4" x1="27.36" y1="22.16" x2="27.37" y2="20.39"/>
	</g>
	<g>
		<line class="st4" x1="26.68" y1="25.75" x2="26.68" y2="23.97"/>
		<line class="st4" x1="26.68" y1="22.55" x2="26.68" y2="20.78"/>
	</g>
	<g>
		<line class="st4" x1="25.99" y1="26.14" x2="25.99" y2="24.36"/>
		<line class="st4" x1="25.99" y1="22.95" x2="25.99" y2="21.17"/>
	</g>
	<g>
		<line class="st4" x1="25.3" y1="26.53" x2="25.3" y2="24.76"/>
		<line class="st4" x1="25.3" y1="23.34" x2="25.3" y2="21.57"/>
	</g>
	<g>
		<line class="st4" x1="24.61" y1="26.93" x2="24.62" y2="25.15"/>
		<line class="st4" x1="24.61" y1="23.73" x2="24.62" y2="21.96"/>
	</g>
	<g>
		<line class="st4" x1="23.93" y1="27.32" x2="23.93" y2="25.55"/>
		<line class="st4" x1="23.93" y1="24.13" x2="23.93" y2="22.35"/>
	</g>
	<g>
		<line class="st4" x1="23.24" y1="27.71" x2="23.24" y2="25.94"/>
		<line class="st4" x1="23.24" y1="24.52" x2="23.24" y2="22.75"/>
	</g>
	<g>
		<line class="st4" x1="22.55" y1="28.11" x2="22.55" y2="26.33"/>
		<line class="st4" x1="22.55" y1="24.92" x2="22.55" y2="23.14"/>
	</g>
	<g>
		<line class="st4" x1="21.86" y1="28.5" x2="21.87" y2="26.73"/>
		<line class="st4" x1="21.86" y1="25.31" x2="21.87" y2="23.53"/>
	</g>
</g>
<g>
	<line class="st4" x1="12.3" y1="19.79" x2="12.3" y2="17.53"/>
	<line class="st4" x1="13" y1="20.2" x2="13" y2="17.94"/>
	<line class="st4" x1="13.7" y1="20.6" x2="13.71" y2="18.35"/>
	<line class="st4" x1="14.41" y1="21.01" x2="14.41" y2="18.75"/>
	<line class="st4" x1="15.11" y1="21.42" x2="15.11" y2="19.16"/>
	<line class="st4" x1="15.82" y1="21.83" x2="15.82" y2="19.57"/>
</g>
<g>
	<line class="st4" x1="12.3" y1="33.07" x2="12.3" y2="31.57"/>
	<line class="st4" x1="13" y1="33.48" x2="13" y2="31.98"/>
	<line class="st4" x1="13.7" y1="33.88" x2="13.71" y2="32.39"/>
	<line class="st4" x1="14.41" y1="34.29" x2="14.41" y2="32.8"/>
	<line class="st4" x1="15.11" y1="34.7" x2="15.11" y2="33.21"/>
	<line class="st4" x1="15.82" y1="35.11" x2="15.82" y2="33.61"/>
</g>
<g class="st5">
	<polygon class="st6" points="10.82,33.7 17.38,37.41 17.35,19.12 10.98,15.36 	"/>
</g>
<g>
	<g>
		<g>
			<polyline class="st1" points="17.27,25.51 17.27,31.25 17.27,31.25 			"/>
			<rect x="17.1" y="25.51" class="st2" width="0.35" height="5.74"/>
		</g>
		<g>
			<polygon class="st1" points="17.96,31.01 17.82,30.93 17.82,25.19 17.96,25.27 			"/>
			<path class="st2" d="M17.96,31.18c-0.03,0-0.06-0.01-0.09-0.02l-0.14-0.08c-0.05-0.03-0.09-0.09-0.09-0.15v-5.74
				c0-0.06,0.03-0.12,0.09-0.15c0.05-0.03,0.12-0.03,0.18,0l0.14,0.08c0.05,0.03,0.09,0.09,0.09,0.15v5.74
				c0,0.06-0.03,0.12-0.09,0.15C18.02,31.18,17.99,31.18,17.96,31.18z"/>
		</g>
		<g>
			<polyline class="st1" points="17.27,31.41 17.27,31.41 17.27,25.66 			"/>
			<rect x="17.1" y="25.66" class="st2" width="0.35" height="5.74"/>
		</g>
		<g>
			<polygon class="st1" points="17.27,31.41 17.96,31.01 17.96,25.27 17.27,25.66 			"/>
			<path class="st2" d="M17.27,31.58c-0.03,0-0.06-0.01-0.09-0.02c-0.05-0.03-0.09-0.09-0.09-0.15v-5.74c0-0.06,0.03-0.12,0.09-0.15
				l0.69-0.4c0.05-0.03,0.12-0.03,0.18,0c0.05,0.03,0.09,0.09,0.09,0.15v5.74c0,0.06-0.03,0.12-0.09,0.15l-0.69,0.4
				C17.33,31.58,17.3,31.58,17.27,31.58z M17.44,25.77v5.34l0.34-0.2v-5.34L17.44,25.77z"/>
		</g>
		<g>
			<polyline class="st1" points="17.27,25.66 17.27,25.66 17.96,25.27 17.82,25.19 17.27,25.51 			"/>
			<path class="st2" d="M17.36,25.82l-0.18-0.3l0.07-0.04l-0.07-0.12l0.55-0.32c0.05-0.03,0.12-0.03,0.18,0l0.14,0.08
				c0.05,0.03,0.09,0.09,0.09,0.15s-0.03,0.12-0.09,0.15L17.36,25.82z"/>
		</g>
	</g>
	<g>
		<g>
			<line class="st7" x1="17.22" y1="31.4" x2="17.22" y2="25.66"/>
			<rect x="17.05" y="25.66" class="st2" width="0.35" height="5.74"/>
		</g>
		<g>
			<polyline class="st1" points="17.22,25.5 17.22,31.24 17.22,31.24 			"/>
			<rect x="17.05" y="25.5" class="st2" width="0.35" height="5.74"/>
		</g>
		<g>
			<polyline class="st1" points="19.03,32.28 17.22,31.24 17.22,25.5 19.03,26.54 			"/>
			<path class="st2" d="M18.94,32.44l-1.8-1.04c-0.05-0.03-0.09-0.09-0.09-0.15V25.5c0-0.06,0.03-0.12,0.09-0.15
				c0.05-0.03,0.12-0.03,0.17,0l1.8,1.04l-0.17,0.3L17.4,25.8v5.34l1.72,0.99L18.94,32.44z"/>
		</g>
		<g>
			<polyline class="st1" points="19.03,26.7 17.22,25.66 17.22,31.4 19.03,32.44 			"/>
			<path class="st2" d="M18.94,32.6l-1.8-1.04c-0.05-0.03-0.09-0.09-0.09-0.15v-5.74c0-0.06,0.03-0.12,0.09-0.15
				c0.05-0.03,0.12-0.03,0.17,0l1.8,1.04l-0.17,0.3l-1.54-0.89v5.34l1.72,0.99L18.94,32.6z"/>
		</g>
		<g>
			<line class="st7" x1="19.03" y1="26.54" x2="17.22" y2="25.5"/>
			
				<rect x="17.95" y="24.98" transform="matrix(0.5001 -0.866 0.866 0.5001 -13.4693 28.7027)" class="st2" width="0.35" height="2.08"/>
		</g>
		<g>
			<line class="st7" x1="17.22" y1="25.66" x2="19.03" y2="26.7"/>
			
				<rect x="17.95" y="25.14" transform="matrix(0.5001 -0.866 0.866 0.5001 -13.6072 28.7831)" class="st2" width="0.35" height="2.08"/>
		</g>
	</g>
	<g>
		<g>
			<polyline class="st1" points="18.96,26.63 16.56,28.11 16.56,33.86 16.56,33.86 18.96,32.38 			"/>
			<path class="st2" d="M16.56,34.03c-0.03,0-0.06-0.01-0.09-0.02c-0.06-0.03-0.09-0.09-0.09-0.15v-5.74c0-0.06,0.03-0.12,0.08-0.15
				l2.4-1.48c0.08-0.05,0.19-0.03,0.24,0.06c0.05,0.08,0.03,0.19-0.06,0.24l-2.31,1.43v5.33l2.13-1.32
				c0.08-0.05,0.19-0.03,0.24,0.06c0.05,0.08,0.03,0.19-0.06,0.24L16.66,34C16.63,34.02,16.6,34.03,16.56,34.03z"/>
		</g>
		<g>
			<polygon class="st1" points="16.43,33.78 16.56,33.86 16.56,28.11 16.43,28.03 			"/>
			<path class="st2" d="M16.56,34.03c-0.03,0-0.06-0.01-0.09-0.02l-0.14-0.08c-0.05-0.03-0.09-0.09-0.09-0.15v-5.74
				c0-0.06,0.03-0.12,0.09-0.15c0.05-0.03,0.12-0.03,0.18,0l0.14,0.08c0.05,0.03,0.09,0.09,0.09,0.15v5.74
				c0,0.06-0.03,0.12-0.09,0.15C16.62,34.02,16.59,34.03,16.56,34.03z"/>
		</g>
		<g>
			<path class="st1" d="M18.96,32.22l-2.53,1.56c0,0-0.67-0.76-0.67-2.88s0.67-2.87,0.67-2.87l2.53-1.56"/>
			<path class="st2" d="M16.43,33.95c-0.05,0-0.1-0.02-0.13-0.06c-0.03-0.03-0.71-0.83-0.71-2.99s0.68-2.95,0.71-2.98
				c0.01-0.01,0.02-0.02,0.04-0.03l2.53-1.56c0.08-0.05,0.19-0.03,0.24,0.06c0.05,0.08,0.03,0.19-0.06,0.24l-2.51,1.54
				c-0.09,0.12-0.61,0.89-0.61,2.73c0,1.56,0.37,2.36,0.54,2.64l2.39-1.47c0.08-0.05,0.19-0.03,0.24,0.06
				c0.05,0.08,0.03,0.19-0.06,0.24l-2.53,1.56C16.49,33.94,16.46,33.95,16.43,33.95z"/>
		</g>
		<g>
			<polyline class="st1" points="18.96,26.47 16.43,28.03 16.28,28.26 18.96,26.63 18.96,32.38 			"/>
			<path class="st2" d="M18.96,32.55c-0.1,0-0.17-0.08-0.17-0.17v-5.43l-2.41,1.47c-0.07,0.04-0.16,0.03-0.22-0.03
				c-0.06-0.06-0.07-0.15-0.02-0.22l0.14-0.23c0.01-0.02,0.03-0.04,0.06-0.06l2.53-1.56c0.08-0.05,0.19-0.03,0.24,0.06
				c0.03,0.05,0.03,0.12,0.01,0.17c0.01,0.02,0.02,0.05,0.02,0.08v5.74C19.13,32.47,19.06,32.55,18.96,32.55z"/>
		</g>
	</g>
</g>
<g>
	<g>
		<path class="st0" d="M25.81,12.12c0,1.37-1.92,2.47-4.28,2.47s-4.28-1.11-4.28-2.47v-1.09h8.57V12.12z"/>
		<path class="st8" d="M21.52,14.77c-2.46,0-4.46-1.19-4.46-2.65v-1.26h8.91v1.26C25.98,13.58,23.98,14.77,21.52,14.77z
			 M17.42,11.21v0.91c0,1.27,1.84,2.3,4.11,2.3s4.11-1.03,4.11-2.3v-0.91H17.42z"/>
	</g>
	<g class="st5">
		<polyline class="st6" points="17.22,11.13 17.22,12.04 17.22,12.1 17.22,12.16 17.23,12.22 17.24,12.28 17.25,12.33 17.26,12.39 
			17.28,12.45 17.29,12.51 17.31,12.57 17.34,12.63 17.36,12.69 17.39,12.74 17.42,12.8 17.46,12.86 17.49,12.91 17.53,12.97 
			17.57,13.02 17.61,13.08 17.66,13.13 17.71,13.19 17.76,13.24 17.81,13.3 17.86,13.35 17.92,13.4 17.98,13.45 18.04,13.5 
			18.11,13.55 18.17,13.6 18.24,13.65 18.32,13.69 18.39,13.74 18.47,13.79 18.55,13.83 18.63,13.87 18.71,13.92 18.79,13.96 
			18.88,14 18.96,14.03 19.05,14.07 19.14,14.1 19.23,14.14 19.32,14.17 19.41,14.2 19.5,14.23 19.6,14.26 19.69,14.28 19.79,14.31 
			19.88,14.33 19.98,14.35 20.08,14.37 20.18,14.39 20.28,14.41 20.38,14.42 20.48,14.44 20.58,14.45 20.68,14.46 20.78,14.48 
			20.88,14.48 20.98,14.49 21.09,14.5 21.19,14.5 21.29,14.51 21.39,14.51 21.5,14.51 21.6,14.51 21.7,14.51 21.81,14.5 21.91,14.5 
			22.01,14.49 22.11,14.48 22.21,14.48 22.32,14.46 22.42,14.45 22.52,14.44 22.62,14.42 22.72,14.41 22.82,14.39 22.92,14.37 
			23.01,14.35 23.11,14.33 23.21,14.31 23.3,14.28 23.4,14.26 23.49,14.23 23.58,14.2 23.67,14.17 23.77,14.14 23.85,14.1 
			23.94,14.07 24.03,14.03 24.12,14 24.2,13.96 24.28,13.92 24.37,13.87 24.45,13.83 24.45,13.83 24.53,13.79 24.6,13.74 
			24.68,13.69 24.75,13.65 24.82,13.6 24.89,13.55 24.95,13.5 25.01,13.45 25.07,13.4 25.13,13.35 25.19,13.3 25.24,13.24 
			25.29,13.19 25.34,13.13 25.38,13.08 25.43,13.03 25.47,12.97 25.5,12.91 25.54,12.86 25.57,12.8 25.6,12.74 25.63,12.69 
			25.66,12.63 25.68,12.57 25.7,12.51 25.72,12.45 25.73,12.39 25.75,12.33 25.76,12.28 25.77,12.22 25.77,12.16 25.78,12.1 
			25.78,12.04 25.78,11.06 		"/>
	</g>
	<g>
		<ellipse class="st0" cx="21.52" cy="11.03" rx="4.28" ry="2.47"/>
		<path class="st8" d="M21.52,13.68c-2.46,0-4.46-1.19-4.46-2.65s2-2.65,4.46-2.65c2.46,0,4.46,1.19,4.46,2.65
			S23.98,13.68,21.52,13.68z M21.52,8.73c-2.26,0-4.11,1.03-4.11,2.3s1.84,2.3,4.11,2.3s4.11-1.03,4.11-2.3S23.79,8.73,21.52,8.73z"
			/>
	</g>
	<g>
		<path class="st0" d="M23.37,10.68c0,0.59-0.83,1.07-1.84,1.07s-1.84-0.48-1.84-1.07V7.09h3.69V10.68z"/>
		<path class="st8" d="M21.52,11.92c-1.13,0-2.02-0.54-2.02-1.24V6.92h4.04v3.77C23.54,11.38,22.66,11.92,21.52,11.92z M19.86,7.27
			v3.42c0,0.48,0.76,0.89,1.67,0.89s1.67-0.41,1.67-0.89V7.27H19.86z"/>
	</g>
	<g>
		<ellipse class="st0" cx="21.52" cy="7.09" rx="1.84" ry="1.07"/>
		<path class="st8" d="M21.52,8.33c-1.13,0-2.02-0.54-2.02-1.24s0.89-1.24,2.02-1.24s2.02,0.54,2.02,1.24S22.66,8.33,21.52,8.33z
			 M21.52,6.2c-0.9,0-1.67,0.41-1.67,0.89c0,0.48,0.76,0.89,1.67,0.89s1.67-0.41,1.67-0.89C23.19,6.61,22.43,6.2,21.52,6.2z"/>
	</g>
	<ellipse class="st9" cx="21.52" cy="7.09" rx="1.84" ry="1.07"/>
</g>
</svg>
