<?xml version="1.0" encoding="utf-8"?>
<!-- Generator: Adobe Illustrator 26.3.1, SVG Export Plug-In . SVG Version: 6.00 Build 0)  -->
<svg version="1.1" id="Layer_1" xmlns="http://www.w3.org/2000/svg" xmlns:xlink="http://www.w3.org/1999/xlink" x="0px" y="0px"
	 viewBox="0 0 43.99 43.99" style="enable-background:new 0 0 43.99 43.99;" xml:space="preserve">
<style type="text/css">
	.st0{fill:#66D7D1;}
	.st1{fill:#FFFFFF;}
	.st2{fill:#010101;}
	.st3{opacity:0.5;}
	.st4{opacity:0.15;}
	.st5{fill:#221F20;}
</style>
<path class="st0" d="M41.65,43.99H2.34C1.05,43.99,0,42.95,0,41.65V2.34C0,1.05,1.05,0,2.34,0h39.31C42.95,0,44,1.05,44,2.34v39.31
	C44,42.95,42.95,43.99,41.65,43.99z"/>
<g>
	<g>
		<polygon class="st1" points="32.89,23 33.35,22.74 33.35,16.82 32.89,17.09 32.89,23 		"/>
		<path class="st2" d="M32.89,23.18c-0.03,0-0.06-0.01-0.09-0.02c-0.05-0.03-0.09-0.09-0.09-0.15v-5.92c0-0.06,0.03-0.12,0.09-0.15
			l0.46-0.27c0.05-0.03,0.12-0.03,0.18,0c0.05,0.03,0.09,0.09,0.09,0.15v5.92c0,0.06-0.03,0.12-0.09,0.15l-0.46,0.27
			C32.95,23.17,32.92,23.18,32.89,23.18z M33.06,17.19v5.51l0.11-0.06v-5.51L33.06,17.19z"/>
	</g>
	<g>
		<polygon class="st1" points="32.74,22.92 32.89,23 32.89,17.09 32.74,17 32.74,22.92 		"/>
		<path class="st2" d="M32.89,23.18c-0.03,0-0.06-0.01-0.09-0.02l-0.14-0.08c-0.05-0.03-0.09-0.09-0.09-0.15V17
			c0-0.06,0.03-0.12,0.09-0.15c0.05-0.03,0.12-0.03,0.18,0l0.14,0.08c0.05,0.03,0.09,0.09,0.09,0.15V23c0,0.06-0.03,0.12-0.09,0.15
			C32.95,23.17,32.92,23.18,32.89,23.18z"/>
	</g>
	<g>
		<polygon class="st1" points="33.35,22.57 32.74,22.92 32.74,17 33.35,16.66 33.35,22.57 		"/>
		<path class="st2" d="M32.74,23.1c-0.03,0-0.06-0.01-0.09-0.02c-0.05-0.03-0.09-0.09-0.09-0.15V17c0-0.06,0.03-0.12,0.09-0.15
			l0.6-0.35c0.05-0.03,0.12-0.03,0.17,0c0.05,0.03,0.09,0.09,0.09,0.15v5.92c0,0.06-0.03,0.12-0.09,0.15l-0.6,0.35
			C32.8,23.09,32.77,23.1,32.74,23.1z M32.92,17.1v5.51l0.25-0.15v-5.51L32.92,17.1z"/>
	</g>
	<g>
		<polygon class="st1" points="35.21,23.65 33.35,22.57 33.35,16.66 35.21,17.73 35.21,23.65 		"/>
		<path class="st2" d="M35.21,23.82c-0.03,0-0.06-0.01-0.09-0.02l-1.86-1.07c-0.05-0.03-0.09-0.09-0.09-0.15v-5.92
			c0-0.06,0.03-0.12,0.09-0.15c0.05-0.03,0.12-0.03,0.17,0l1.86,1.07c0.05,0.03,0.09,0.09,0.09,0.15v5.92
			c0,0.06-0.03,0.12-0.09,0.15C35.27,23.81,35.24,23.82,35.21,23.82z M33.52,22.47l1.51,0.87v-5.51l-1.51-0.87V22.47z"/>
	</g>
	<g>
		<polygon class="st1" points="37.4,22.54 37.26,22.46 37.26,16.54 37.4,16.63 37.4,22.54 		"/>
		<path class="st2" d="M37.4,22.72c-0.03,0-0.06-0.01-0.09-0.02l-0.14-0.08c-0.05-0.03-0.09-0.09-0.09-0.15v-5.92
			c0-0.06,0.03-0.12,0.09-0.15c0.05-0.03,0.12-0.03,0.18,0l0.14,0.08c0.05,0.03,0.09,0.09,0.09,0.15v5.92
			c0,0.06-0.03,0.12-0.09,0.15C37.46,22.71,37.43,22.72,37.4,22.72z"/>
	</g>
	<g>
		<polygon class="st1" points="35.21,23.81 35.21,17.89 33.35,16.82 33.35,22.74 35.21,23.81 		"/>
		<path class="st2" d="M35.21,23.99c-0.03,0-0.06-0.01-0.09-0.02l-1.86-1.07c-0.05-0.03-0.09-0.09-0.09-0.15v-5.92
			c0-0.06,0.03-0.12,0.09-0.15c0.05-0.03,0.12-0.03,0.17,0l1.86,1.07c0.05,0.03,0.09,0.09,0.09,0.15v5.92
			c0,0.06-0.03,0.12-0.09,0.15C35.27,23.98,35.24,23.99,35.21,23.99z M33.52,22.64l1.51,0.87v-5.51l-1.51-0.87V22.64z"/>
	</g>
	<g>
		<path class="st1" d="M35.21,23.81l2.2-1.27c0,0,0.66-0.41,0.66-2.88s-0.66-3.04-0.66-3.04l-2.2,1.27V23.81L35.21,23.81z"/>
		<path class="st2" d="M35.21,23.99c-0.03,0-0.06-0.01-0.09-0.02c-0.05-0.03-0.09-0.09-0.09-0.15v-5.92c0-0.06,0.03-0.12,0.09-0.15
			l2.2-1.27c0.06-0.04,0.14-0.03,0.2,0.02c0.07,0.06,0.72,0.69,0.72,3.17c0,2.5-0.67,2.98-0.74,3.03l-2.2,1.27
			C35.27,23.98,35.24,23.99,35.21,23.99z M35.38,17.99v5.51l1.93-1.12l0,0c0,0,0.57-0.45,0.57-2.73c0-1.82-0.37-2.57-0.53-2.81
			L35.38,17.99z"/>
	</g>
	<g>
		<polygon class="st1" points="35.21,17.89 37.4,16.63 37.26,16.54 35.21,17.73 33.35,16.66 32.74,17 32.89,17.09 33.35,16.82 
			35.21,17.89 		"/>
		<path class="st2" d="M35.21,18.07c-0.03,0-0.06-0.01-0.09-0.02l-1.77-1.02l-0.37,0.22c-0.05,0.03-0.12,0.03-0.18,0l-0.14-0.08
			c-0.05-0.03-0.09-0.09-0.09-0.15c0-0.06,0.03-0.12,0.09-0.15l0.6-0.35c0.05-0.03,0.12-0.03,0.17,0l1.77,1.02l1.97-1.13
			c0.05-0.03,0.12-0.03,0.18,0l0.14,0.08c0.05,0.03,0.09,0.09,0.09,0.15c0,0.06-0.03,0.12-0.09,0.15l-2.2,1.27
			C35.27,18.06,35.24,18.07,35.21,18.07z"/>
	</g>
</g>
<g>
	<g>
		<polygon class="st1" points="6.74,28.08 8.65,26.92 8.65,21.17 6.74,22.33 6.74,28.08 		"/>
		<path class="st2" d="M6.74,28.25c-0.03,0-0.06-0.01-0.09-0.02c-0.06-0.03-0.09-0.09-0.09-0.15v-5.74c0-0.06,0.03-0.12,0.08-0.15
			l1.91-1.16c0.05-0.04,0.12-0.04,0.18,0c0.06,0.03,0.09,0.09,0.09,0.15v5.74c0,0.06-0.03,0.12-0.08,0.15l-1.91,1.16
			C6.8,28.24,6.77,28.25,6.74,28.25z M6.91,22.43v5.33l1.56-0.95v-5.33L6.91,22.43z"/>
	</g>
	<g>
		<polygon class="st1" points="6.6,28 6.74,28.08 6.74,22.33 6.6,22.25 6.6,28 		"/>
		<path class="st2" d="M6.74,28.25c-0.03,0-0.06-0.01-0.09-0.02l-0.14-0.08C6.46,28.12,6.42,28.06,6.42,28v-5.74
			c0-0.06,0.03-0.12,0.09-0.15c0.05-0.03,0.12-0.03,0.18,0l0.14,0.08c0.05,0.03,0.09,0.09,0.09,0.15v5.74
			c0,0.06-0.03,0.12-0.09,0.15C6.8,28.24,6.77,28.25,6.74,28.25z"/>
	</g>
	<g>
		<path class="st1" d="M8.65,26.76L6.6,28c0,0-0.67-0.76-0.67-2.88s0.67-2.87,0.67-2.87l2.05-1.24V26.76L8.65,26.76z"/>
		<path class="st2" d="M6.6,28.17c-0.05,0-0.1-0.02-0.13-0.06c-0.03-0.03-0.71-0.83-0.71-2.99c0-2.16,0.68-2.95,0.71-2.98
			c0.01-0.01,0.02-0.02,0.04-0.03l2.05-1.24c0.05-0.04,0.12-0.04,0.18,0c0.06,0.03,0.09,0.09,0.09,0.15v5.74
			c0,0.06-0.03,0.12-0.08,0.15l-2.05,1.24C6.66,28.16,6.63,28.17,6.6,28.17z M6.72,22.39c-0.09,0.12-0.61,0.89-0.61,2.73
			c0,1.56,0.37,2.36,0.54,2.64l1.82-1.1v-5.33L6.72,22.39z"/>
	</g>
	<g>
		<polygon class="st1" points="10.45,27.8 8.65,26.76 8.65,21.01 10.45,22.06 10.45,27.8 		"/>
		<path class="st2" d="M10.45,27.97c-0.03,0-0.06-0.01-0.09-0.02l-1.8-1.04c-0.05-0.03-0.09-0.09-0.09-0.15v-5.74
			c0-0.06,0.03-0.12,0.09-0.15c0.05-0.03,0.12-0.03,0.17,0l1.8,1.04c0.05,0.03,0.09,0.09,0.09,0.15v5.74c0,0.06-0.03,0.12-0.09,0.15
			C10.51,27.97,10.48,27.97,10.45,27.97z M8.82,26.66l1.46,0.84v-5.34l-1.46-0.84V26.66z"/>
	</g>
	<g>
		<polygon class="st1" points="12.58,26.73 12.45,26.65 12.45,20.91 12.58,20.98 12.58,26.73 		"/>
		<path class="st2" d="M12.58,26.9c-0.03,0-0.06-0.01-0.09-0.02l-0.14-0.08c-0.05-0.03-0.09-0.09-0.09-0.15V20.9
			c0-0.06,0.03-0.12,0.09-0.15c0.05-0.03,0.12-0.03,0.18,0l0.14,0.08c0.05,0.03,0.09,0.09,0.09,0.15v5.74
			c0,0.06-0.03,0.12-0.09,0.15C12.65,26.9,12.61,26.9,12.58,26.9z"/>
	</g>
	<g>
		<polygon class="st1" points="10.45,27.96 10.45,22.22 8.65,21.17 8.65,26.92 10.45,27.96 		"/>
		<path class="st2" d="M10.45,28.13c-0.03,0-0.06-0.01-0.09-0.02l-1.8-1.04c-0.05-0.03-0.09-0.09-0.09-0.15v-5.74
			c0-0.06,0.03-0.12,0.09-0.15c0.05-0.03,0.12-0.03,0.17,0l1.8,1.04c0.05,0.03,0.09,0.09,0.09,0.15v5.74c0,0.06-0.03,0.12-0.09,0.15
			C10.51,28.13,10.48,28.13,10.45,28.13z M8.82,26.82l1.46,0.84v-5.34l-1.46-0.84V26.82z"/>
	</g>
	<g>
		<polygon class="st1" points="10.45,27.96 12.58,26.73 12.58,20.98 10.45,22.22 10.45,27.96 		"/>
		<path class="st2" d="M10.45,28.13c-0.03,0-0.06-0.01-0.09-0.02c-0.05-0.03-0.09-0.09-0.09-0.15v-5.74c0-0.06,0.03-0.12,0.09-0.15
			l2.13-1.23c0.05-0.03,0.12-0.03,0.17,0c0.05,0.03,0.09,0.09,0.09,0.15v5.74c0,0.06-0.03,0.12-0.09,0.15l-2.13,1.23
			C10.51,28.13,10.48,28.13,10.45,28.13z M10.63,22.32v5.34l1.78-1.03v-5.34L10.63,22.32z"/>
	</g>
	<g>
		<polygon class="st1" points="10.45,22.22 12.58,20.98 12.45,20.91 10.45,22.06 8.65,21.01 6.6,22.25 6.46,22.48 8.65,21.17 
			10.45,22.22 		"/>
		<path class="st2" d="M6.46,22.65c-0.05,0-0.09-0.02-0.12-0.05c-0.06-0.06-0.07-0.15-0.02-0.22l0.14-0.23
			c0.01-0.02,0.03-0.04,0.06-0.06l2.05-1.24c0.05-0.04,0.12-0.03,0.18,0l1.72,0.99l1.91-1.1c0.05-0.03,0.12-0.03,0.18,0l0.14,0.08
			c0.05,0.03,0.09,0.09,0.09,0.15c0,0.06-0.03,0.12-0.09,0.15l-2.13,1.23c-0.05,0.03-0.12,0.03-0.17,0l-1.72-0.99l-2.1,1.25
			C6.52,22.65,6.49,22.65,6.46,22.65z"/>
	</g>
</g>
<g>
	<g>
		<polygon class="st1" points="26.05,24.88 32.74,28.74 17.5,37.54 10.82,33.68 26.05,24.88 		"/>
		<path class="st2" d="M17.5,37.71c-0.03,0-0.06-0.01-0.09-0.02l-6.68-3.86c-0.05-0.03-0.09-0.09-0.09-0.15s0.03-0.12,0.09-0.15
			l15.23-8.8c0.05-0.03,0.12-0.03,0.17,0l6.68,3.86c0.05,0.03,0.09,0.09,0.09,0.15s-0.03,0.12-0.09,0.15l-15.24,8.8
			C17.56,37.7,17.53,37.71,17.5,37.71z M11.17,33.68l6.33,3.66l14.89-8.59l-6.33-3.66L11.17,33.68z"/>
	</g>
	<g>
		<polygon class="st1" points="26.05,24.88 26.05,6.46 32.74,10.31 32.74,28.74 26.05,24.88 		"/>
		<path class="st2" d="M32.74,28.92c-0.03,0-0.06-0.01-0.09-0.02l-6.68-3.86c-0.05-0.03-0.09-0.09-0.09-0.15V6.46
			c0-0.06,0.03-0.12,0.09-0.15c0.05-0.03,0.12-0.03,0.17,0l6.68,3.86c0.05,0.03,0.09,0.09,0.09,0.15v18.43
			c0,0.06-0.03,0.12-0.09,0.15C32.8,28.91,32.77,28.92,32.74,28.92z M26.23,24.78l6.33,3.66V10.42l-6.33-3.66V24.78z"/>
	</g>
	<g>
		<polygon class="st1" points="26.05,24.88 10.82,33.68 10.82,15.25 26.05,6.46 26.05,24.88 		"/>
		<path class="st2" d="M10.82,33.85c-0.03,0-0.06-0.01-0.09-0.02c-0.05-0.03-0.09-0.09-0.09-0.15V15.25c0-0.06,0.03-0.12,0.09-0.15
			l15.23-8.8c0.05-0.03,0.12-0.03,0.17,0c0.05,0.03,0.09,0.09,0.09,0.15v18.43c0,0.06-0.03,0.12-0.09,0.15l-15.23,8.8
			C10.88,33.85,10.85,33.85,10.82,33.85z M10.99,15.35v18.02l14.89-8.59V6.76L10.99,15.35z"/>
	</g>
	<g>
		<polygon class="st1" points="32.74,28.74 32.74,10.31 17.5,19.11 17.5,37.54 32.74,28.74 		"/>
		<path class="st2" d="M17.5,37.71c-0.03,0-0.06-0.01-0.09-0.02c-0.05-0.03-0.09-0.09-0.09-0.15V19.11c0-0.06,0.03-0.12,0.09-0.15
			l15.24-8.8c0.05-0.03,0.12-0.03,0.17,0c0.05,0.03,0.09,0.09,0.09,0.15v18.43c0,0.06-0.03,0.12-0.09,0.15l-15.24,8.8
			C17.56,37.7,17.53,37.71,17.5,37.71z M17.67,19.21v18.02l14.89-8.59V10.62L17.67,19.21z"/>
	</g>
	<g>
		<polygon class="st1" points="32.74,28.74 32.74,10.31 17.5,19.11 17.5,37.54 32.74,28.74 		"/>
		<path class="st2" d="M17.5,37.71c-0.03,0-0.06-0.01-0.09-0.02c-0.05-0.03-0.09-0.09-0.09-0.15V19.11c0-0.06,0.03-0.12,0.09-0.15
			l15.24-8.8c0.05-0.03,0.12-0.03,0.17,0c0.05,0.03,0.09,0.09,0.09,0.15v18.43c0,0.06-0.03,0.12-0.09,0.15l-15.24,8.8
			C17.56,37.7,17.53,37.71,17.5,37.71z M17.67,19.21v18.02l14.89-8.59V10.62L17.67,19.21z"/>
	</g>
	<g>
		<path class="st1" d="M31.32,14.53l-13.35,7.71c-0.29,0.17-0.47,0.48-0.47,0.82v9.45c0,0.73,0.78,1.18,1.41,0.82l13.35-7.71
			c0.29-0.17,0.47-0.48,0.47-0.82v-9.45C32.74,14.62,31.95,14.17,31.32,14.53z"/>
		<path class="st2" d="M18.44,33.62c-0.19,0-0.38-0.05-0.56-0.15c-0.35-0.2-0.56-0.56-0.56-0.97v-9.45c0-0.4,0.21-0.77,0.56-0.97
			l13.35-7.71l0,0c0.35-0.2,0.77-0.2,1.12,0c0.35,0.2,0.56,0.56,0.56,0.97v9.45c0,0.4-0.21,0.77-0.56,0.97L19,33.47
			C18.83,33.57,18.63,33.62,18.44,33.62z M31.41,14.68l-13.35,7.71c-0.24,0.14-0.38,0.39-0.38,0.66v9.45c0,0.28,0.14,0.53,0.38,0.66
			c0.24,0.14,0.53,0.14,0.77,0l13.35-7.71c0.24-0.14,0.38-0.39,0.38-0.67v-9.45c0-0.28-0.14-0.53-0.38-0.67
			C31.94,14.54,31.65,14.54,31.41,14.68z"/>
	</g>
	<g>
		<path class="st1" d="M31.81,14.53l-13.35,7.71c-0.29,0.17-0.47,0.48-0.47,0.82v9.45c0,0.73,0.78,1.18,1.41,0.82l13.35-7.71
			c0.29-0.17,0.47-0.48,0.47-0.82v-9.45C33.22,14.62,32.44,14.17,31.81,14.53z"/>
		<path class="st2" d="M18.93,33.62c-0.19,0-0.38-0.05-0.56-0.15c-0.35-0.2-0.56-0.56-0.56-0.97v-9.45c0-0.4,0.21-0.77,0.56-0.97
			l13.35-7.71l0,0c0.35-0.2,0.77-0.2,1.12,0c0.35,0.2,0.56,0.56,0.56,0.97v9.45c0,0.4-0.21,0.77-0.56,0.97l-13.35,7.71
			C19.31,33.57,19.12,33.62,18.93,33.62z M31.9,14.68l-13.35,7.71c-0.24,0.14-0.38,0.39-0.38,0.66v9.45c0,0.28,0.14,0.53,0.38,0.66
			s0.53,0.14,0.77,0l13.35-7.71c0.24-0.14,0.38-0.39,0.38-0.67v-9.45c0-0.28-0.14-0.53-0.38-0.67S32.14,14.54,31.9,14.68z"/>
	</g>
	<g class="st3">
		<path d="M21.39,30.04c-0.12,0-0.24-0.03-0.35-0.09c-0.22-0.12-0.35-0.35-0.35-0.6v-5.96c0-0.25,0.13-0.48,0.35-0.6l8.43-4.87l0,0
			c0.22-0.12,0.48-0.13,0.69,0c0.22,0.12,0.35,0.35,0.35,0.6v5.96c0,0.25-0.13,0.48-0.35,0.6l-8.43,4.87
			C21.63,30,21.51,30.04,21.39,30.04z M29.57,18.08l-8.43,4.87c-0.15,0.09-0.25,0.25-0.25,0.43v5.96c0,0.18,0.09,0.34,0.25,0.43
			c0.15,0.09,0.34,0.09,0.49,0l8.43-4.87c0.15-0.09,0.25-0.25,0.25-0.43v-5.96c0-0.18-0.09-0.34-0.25-0.43
			C29.91,17.99,29.73,17.99,29.57,18.08z"/>
	</g>
	<g>
		<polygon class="st0" points="26.05,6.46 10.82,15.25 17.5,19.11 32.74,10.31 26.05,6.46 		"/>
		<path class="st2" d="M17.5,19.29c-0.03,0-0.06-0.01-0.09-0.02l-6.68-3.86c-0.05-0.03-0.09-0.09-0.09-0.15s0.03-0.12,0.09-0.15
			l15.23-8.8c0.05-0.03,0.12-0.03,0.17,0l6.68,3.86c0.05,0.03,0.09,0.09,0.09,0.15s-0.03,0.12-0.09,0.15l-15.24,8.8
			C17.56,19.28,17.53,19.29,17.5,19.29z M11.17,15.25l6.33,3.66l14.89-8.59l-6.33-3.66L11.17,15.25z"/>
	</g>
	<g>
		<polygon class="st0" points="10.82,15.25 10.82,33.68 17.5,37.54 17.5,19.11 10.82,15.25 		"/>
		<path class="st2" d="M17.5,37.71c-0.03,0-0.06-0.01-0.09-0.02l-6.68-3.86c-0.05-0.03-0.09-0.09-0.09-0.15V15.25
			c0-0.06,0.03-0.12,0.09-0.15c0.05-0.03,0.12-0.03,0.17,0l6.68,3.86c0.05,0.03,0.09,0.09,0.09,0.15v18.43
			c0,0.06-0.03,0.12-0.09,0.15C17.56,37.7,17.53,37.71,17.5,37.71z M10.99,33.58l6.33,3.66V19.21l-6.33-3.66V33.58z"/>
	</g>
</g>
<g>
	<path class="st1" d="M6.72,28c0,0-0.67-0.76-0.67-2.88s0.67-2.87,0.67-2.87"/>
	<path class="st2" d="M6.59,28.11c-0.03-0.03-0.71-0.83-0.71-2.99c0-2.16,0.68-2.95,0.71-2.98l0.26,0.23
		c-0.01,0.01-0.62,0.74-0.62,2.75s0.62,2.75,0.62,2.76L6.59,28.11z"/>
</g>
<g>
	<g>
		<path class="st3" d="M29.43,24.27L29.43,24.27c-0.06,0-0.1-0.04-0.1-0.1l0-1.77c0-0.06,0.04-0.1,0.1-0.1l0,0
			c0.06,0,0.1,0.04,0.1,0.1l0,1.77C29.53,24.23,29.48,24.27,29.43,24.27z"/>
		<path class="st3" d="M29.43,21.08L29.43,21.08c-0.06,0-0.1-0.04-0.1-0.1l0-1.77c0-0.06,0.04-0.1,0.1-0.1l0,0
			c0.06,0,0.1,0.04,0.1,0.1l0,1.77C29.53,21.03,29.48,21.08,29.43,21.08z"/>
	</g>
	<g>
		<path class="st3" d="M28.74,24.66L28.74,24.66c-0.06,0-0.1-0.04-0.1-0.1l0-1.77c0-0.06,0.04-0.1,0.1-0.1l0,0
			c0.06,0,0.1,0.04,0.1,0.1l0,1.77C28.84,24.62,28.79,24.66,28.74,24.66z"/>
		<path class="st3" d="M28.74,21.47L28.74,21.47c-0.06,0-0.1-0.04-0.1-0.1l0-1.77c0-0.06,0.04-0.1,0.1-0.1l0,0
			c0.06,0,0.1,0.04,0.1,0.1l0,1.77C28.84,21.43,28.79,21.47,28.74,21.47z"/>
	</g>
	<g>
		<path class="st3" d="M28.05,25.06L28.05,25.06c-0.06,0-0.1-0.04-0.1-0.1l0-1.77c0-0.06,0.04-0.1,0.1-0.1l0,0
			c0.06,0,0.1,0.04,0.1,0.1l0,1.77C28.15,25.01,28.11,25.06,28.05,25.06z"/>
		<path class="st3" d="M28.05,21.87L28.05,21.87c-0.06,0-0.1-0.04-0.1-0.1l0-1.77c0-0.06,0.04-0.1,0.1-0.1l0,0
			c0.06,0,0.1,0.04,0.1,0.1l0,1.77C28.15,21.82,28.11,21.87,28.05,21.87z"/>
	</g>
	<g>
		<path class="st3" d="M27.36,25.45L27.36,25.45c-0.06,0-0.1-0.04-0.1-0.1l0-1.77c0-0.06,0.04-0.1,0.1-0.1l0,0
			c0.06,0,0.1,0.04,0.1,0.1l0,1.77C27.46,25.41,27.42,25.45,27.36,25.45z"/>
		<path class="st3" d="M27.36,22.26L27.36,22.26c-0.06,0-0.1-0.04-0.1-0.1l0-1.77c0-0.06,0.04-0.1,0.1-0.1l0,0
			c0.06,0,0.1,0.04,0.1,0.1l0,1.77C27.46,22.22,27.42,22.26,27.36,22.26z"/>
	</g>
	<g>
		<path class="st3" d="M26.68,25.85L26.68,25.85c-0.06,0-0.1-0.04-0.1-0.1l0-1.78c0-0.06,0.04-0.1,0.1-0.1l0,0
			c0.06,0,0.1,0.04,0.1,0.1l0,1.78C26.78,25.8,26.73,25.85,26.68,25.85z"/>
		<path class="st3" d="M26.68,22.65L26.68,22.65c-0.06,0-0.1-0.04-0.1-0.1l0-1.77c0-0.06,0.04-0.1,0.1-0.1l0,0
			c0.06,0,0.1,0.04,0.1,0.1l0,1.77C26.78,22.61,26.73,22.65,26.68,22.65z"/>
	</g>
	<g>
		<path class="st3" d="M25.99,26.24L25.99,26.24c-0.06,0-0.1-0.04-0.1-0.1l0-1.78c0-0.06,0.04-0.1,0.1-0.1l0,0
			c0.06,0,0.1,0.04,0.1,0.1l0,1.78C26.09,26.2,26.04,26.24,25.99,26.24z"/>
		<path class="st3" d="M25.99,23.05L25.99,23.05c-0.06,0-0.1-0.04-0.1-0.1l0-1.77c0-0.06,0.04-0.1,0.1-0.1l0,0
			c0.06,0,0.1,0.04,0.1,0.1l0,1.77C26.09,23,26.04,23.05,25.99,23.05z"/>
	</g>
	<g>
		<path class="st3" d="M25.3,26.63L25.3,26.63c-0.06,0-0.1-0.04-0.1-0.1l0-1.78c0-0.06,0.04-0.1,0.1-0.1l0,0
			c0.06,0,0.1,0.04,0.1,0.1l0,1.78C25.4,26.59,25.36,26.63,25.3,26.63z"/>
		<path class="st3" d="M25.3,23.44L25.3,23.44c-0.06,0-0.1-0.04-0.1-0.1l0-1.77c0-0.06,0.04-0.1,0.1-0.1l0,0
			c0.06,0,0.1,0.04,0.1,0.1l0,1.77C25.4,23.4,25.36,23.44,25.3,23.44z"/>
	</g>
	<g>
		<path class="st3" d="M24.61,27.03L24.61,27.03c-0.06,0-0.1-0.04-0.1-0.1l0-1.78c0-0.06,0.04-0.1,0.1-0.1l0,0
			c0.06,0,0.1,0.04,0.1,0.1l0,1.78C24.71,26.98,24.67,27.03,24.61,27.03z"/>
		<path class="st3" d="M24.61,23.83L24.61,23.83c-0.06,0-0.1-0.04-0.1-0.1l0-1.78c0-0.06,0.04-0.1,0.1-0.1l0,0
			c0.06,0,0.1,0.04,0.1,0.1l0,1.78C24.71,23.79,24.67,23.83,24.61,23.83z"/>
	</g>
	<g>
		<path class="st3" d="M23.93,27.42L23.93,27.42c-0.06,0-0.1-0.04-0.1-0.1l0-1.77c0-0.06,0.04-0.1,0.1-0.1l0,0
			c0.06,0,0.1,0.04,0.1,0.1l0,1.77C24.03,27.38,23.98,27.42,23.93,27.42z"/>
		<path class="st3" d="M23.93,24.23L23.93,24.23c-0.06,0-0.1-0.04-0.1-0.1l0-1.77c0-0.06,0.04-0.1,0.1-0.1l0,0
			c0.06,0,0.1,0.04,0.1,0.1l0,1.77C24.03,24.18,23.98,24.23,23.93,24.23z"/>
	</g>
	<g>
		<path class="st3" d="M23.24,27.81L23.24,27.81c-0.06,0-0.1-0.04-0.1-0.1l0-1.77c0-0.06,0.04-0.1,0.1-0.1l0,0
			c0.06,0,0.1,0.04,0.1,0.1l0,1.77C23.34,27.77,23.29,27.81,23.24,27.81z"/>
		<path class="st3" d="M23.24,24.62L23.24,24.62c-0.06,0-0.1-0.04-0.1-0.1l0-1.77c0-0.06,0.04-0.1,0.1-0.1l0,0
			c0.06,0,0.1,0.04,0.1,0.1l0,1.77C23.34,24.58,23.29,24.62,23.24,24.62z"/>
	</g>
	<g>
		<path class="st3" d="M22.55,28.21L22.55,28.21c-0.06,0-0.1-0.04-0.1-0.1l0-1.77c0-0.06,0.04-0.1,0.1-0.1l0,0
			c0.06,0,0.1,0.04,0.1,0.1l0,1.77C22.65,28.16,22.61,28.21,22.55,28.21z"/>
		<path class="st3" d="M22.55,25.02L22.55,25.02c-0.06,0-0.1-0.04-0.1-0.1l0-1.77c0-0.06,0.04-0.1,0.1-0.1l0,0
			c0.06,0,0.1,0.04,0.1,0.1l0,1.77C22.65,24.97,22.61,25.02,22.55,25.02z"/>
	</g>
	<g>
		<path class="st3" d="M21.86,28.6L21.86,28.6c-0.06,0-0.1-0.04-0.1-0.1l0-1.77c0-0.06,0.04-0.1,0.1-0.1l0,0
			c0.06,0,0.1,0.04,0.1,0.1l0,1.77C21.96,28.56,21.92,28.6,21.86,28.6z"/>
		<path class="st3" d="M21.86,25.41L21.86,25.41c-0.06,0-0.1-0.04-0.1-0.1l0-1.77c0-0.06,0.04-0.1,0.1-0.1l0,0
			c0.06,0,0.1,0.04,0.1,0.1l0,1.77C21.96,25.37,21.92,25.41,21.86,25.41z"/>
	</g>
</g>
<g>
	<path class="st3" d="M12.3,19.89L12.3,19.89c-0.06,0-0.1-0.04-0.1-0.1l0-2.26c0-0.06,0.04-0.1,0.1-0.1l0,0c0.06,0,0.1,0.04,0.1,0.1
		l0,2.26C12.4,19.84,12.35,19.89,12.3,19.89z"/>
	<path class="st3" d="M13,20.3L13,20.3c-0.06,0-0.1-0.04-0.1-0.1l0-2.26c0-0.06,0.04-0.1,0.1-0.1l0,0c0.06,0,0.1,0.04,0.1,0.1
		l0,2.26C13.1,20.25,13.06,20.3,13,20.3z"/>
	<path class="st3" d="M13.71,20.7L13.71,20.7c-0.06,0-0.1-0.04-0.1-0.1l0-2.26c0-0.06,0.04-0.1,0.1-0.1l0,0c0.06,0,0.1,0.04,0.1,0.1
		l0,2.26C13.81,20.66,13.76,20.7,13.71,20.7z"/>
	<path class="st3" d="M14.41,21.11L14.41,21.11c-0.06,0-0.1-0.04-0.1-0.1l0-2.26c0-0.06,0.04-0.1,0.1-0.1l0,0
		c0.06,0,0.1,0.04,0.1,0.1l0,2.26C14.51,21.07,14.46,21.11,14.41,21.11z"/>
	<path class="st3" d="M15.11,21.52L15.11,21.52c-0.06,0-0.1-0.04-0.1-0.1l0-2.26c0-0.06,0.04-0.1,0.1-0.1l0,0
		c0.06,0,0.1,0.04,0.1,0.1l0,2.26C15.21,21.48,15.17,21.52,15.11,21.52z"/>
	<path class="st3" d="M15.82,21.93L15.82,21.93c-0.06,0-0.1-0.04-0.1-0.1l0-2.26c0-0.06,0.04-0.1,0.1-0.1l0,0
		c0.06,0,0.1,0.04,0.1,0.1l0,2.26C15.92,21.89,15.87,21.93,15.82,21.93z"/>
</g>
<g>
	<path class="st3" d="M12.3,33.17L12.3,33.17c-0.06,0-0.1-0.04-0.1-0.1l0-1.5c0-0.06,0.04-0.1,0.1-0.1l0,0c0.06,0,0.1,0.04,0.1,0.1
		l0,1.5C12.4,33.12,12.35,33.17,12.3,33.17z"/>
	<path class="st3" d="M13,33.58L13,33.58c-0.06,0-0.1-0.04-0.1-0.1l0-1.5c0-0.06,0.04-0.1,0.1-0.1l0,0c0.06,0,0.1,0.04,0.1,0.1
		l0,1.5C13.1,33.53,13.06,33.58,13,33.58z"/>
	<path class="st3" d="M13.71,33.98L13.71,33.98c-0.06,0-0.1-0.04-0.1-0.1l0-1.5c0-0.06,0.04-0.1,0.1-0.1l0,0
		c0.06,0,0.1,0.04,0.1,0.1l0,1.5C13.81,33.94,13.76,33.98,13.71,33.98z"/>
	<path class="st3" d="M14.41,34.39L14.41,34.39c-0.06,0-0.1-0.04-0.1-0.1l0-1.5c0-0.06,0.04-0.1,0.1-0.1l0,0
		c0.06,0,0.1,0.04,0.1,0.1l0,1.5C14.51,34.35,14.46,34.39,14.41,34.39z"/>
	<path class="st3" d="M15.11,34.8L15.11,34.8c-0.06,0-0.1-0.04-0.1-0.1l0-1.5c0-0.06,0.04-0.1,0.1-0.1l0,0c0.06,0,0.1,0.04,0.1,0.1
		l0,1.5C15.21,34.76,15.17,34.8,15.11,34.8z"/>
	<path class="st3" d="M15.82,35.21L15.82,35.21c-0.06,0-0.1-0.04-0.1-0.1l0-1.5c0-0.06,0.04-0.1,0.1-0.1l0,0
		c0.06,0,0.1,0.04,0.1,0.1l0,1.5C15.92,35.17,15.87,35.21,15.82,35.21z"/>
</g>
<g class="st4">
	<polygon class="st5" points="10.82,33.7 17.38,37.41 17.35,19.12 10.98,15.36 	"/>
</g>
<g>
	<g>
		<g>
			<polyline class="st1" points="17.27,25.51 17.27,31.25 17.27,31.25 			"/>
			<rect x="17.1" y="25.51" class="st2" width="0.35" height="5.74"/>
		</g>
		<g>
			<polygon class="st1" points="17.96,31.01 17.82,30.93 17.82,25.19 17.96,25.27 17.96,31.01 			"/>
			<path class="st2" d="M17.96,31.18c-0.03,0-0.06-0.01-0.09-0.02l-0.14-0.08c-0.05-0.03-0.09-0.09-0.09-0.15v-5.74
				c0-0.06,0.03-0.12,0.09-0.15c0.05-0.03,0.12-0.03,0.18,0l0.14,0.08c0.05,0.03,0.09,0.09,0.09,0.15v5.74
				c0,0.06-0.03,0.12-0.09,0.15C18.02,31.18,17.99,31.18,17.96,31.18z"/>
		</g>
		<g>
			<polyline class="st1" points="17.27,31.41 17.27,31.41 17.27,25.66 			"/>
			<rect x="17.1" y="25.66" class="st2" width="0.35" height="5.74"/>
		</g>
		<g>
			<polygon class="st1" points="17.27,31.41 17.96,31.01 17.96,25.27 17.27,25.66 17.27,31.41 			"/>
			<path class="st2" d="M17.27,31.58c-0.03,0-0.06-0.01-0.09-0.02c-0.05-0.03-0.09-0.09-0.09-0.15v-5.74c0-0.06,0.03-0.12,0.09-0.15
				l0.69-0.4c0.05-0.03,0.12-0.03,0.18,0c0.05,0.03,0.09,0.09,0.09,0.15v5.74c0,0.06-0.03,0.12-0.09,0.15l-0.69,0.4
				C17.33,31.58,17.3,31.58,17.27,31.58z M17.44,25.77v5.34l0.34-0.2v-5.34L17.44,25.77z"/>
		</g>
		<g>
			<polyline class="st1" points="17.27,25.66 17.27,25.66 17.96,25.27 17.82,25.19 17.27,25.51 			"/>
			<path class="st2" d="M17.36,25.82l-0.18-0.3l0.07-0.04l-0.07-0.12l0.55-0.32c0.05-0.03,0.12-0.03,0.18,0l0.14,0.08
				c0.05,0.03,0.09,0.09,0.09,0.15c0,0.06-0.03,0.12-0.09,0.15L17.36,25.82z"/>
		</g>
	</g>
	<g>
		<g>
			<line class="st1" x1="17.22" y1="31.4" x2="17.22" y2="25.66"/>
			<rect x="17.05" y="25.66" class="st2" width="0.35" height="5.74"/>
		</g>
		<g>
			<polyline class="st1" points="17.22,25.5 17.22,31.24 17.22,31.24 			"/>
			<rect x="17.05" y="25.5" class="st2" width="0.35" height="5.74"/>
		</g>
		<g>
			<polyline class="st1" points="19.03,32.28 17.22,31.24 17.22,25.5 19.03,26.54 			"/>
			<path class="st2" d="M18.94,32.44l-1.8-1.04c-0.05-0.03-0.09-0.09-0.09-0.15V25.5c0-0.06,0.03-0.12,0.09-0.15
				c0.05-0.03,0.12-0.03,0.17,0l1.8,1.04l-0.17,0.3L17.4,25.8v5.34l1.72,0.99L18.94,32.44z"/>
		</g>
		<g>
			<polyline class="st1" points="19.03,26.7 17.22,25.66 17.22,31.4 19.03,32.44 			"/>
			<path class="st2" d="M18.94,32.6l-1.8-1.04c-0.05-0.03-0.09-0.09-0.09-0.15v-5.74c0-0.06,0.03-0.12,0.09-0.15
				c0.05-0.03,0.12-0.03,0.17,0l1.8,1.04l-0.17,0.3l-1.54-0.89v5.34l1.72,0.99L18.94,32.6z"/>
		</g>
		<g>
			<line class="st1" x1="19.03" y1="26.54" x2="17.22" y2="25.5"/>
			
				<rect x="17.95" y="24.98" transform="matrix(0.5001 -0.866 0.866 0.5001 -13.4722 28.7011)" class="st2" width="0.35" height="2.08"/>
		</g>
		<g>
			<line class="st1" x1="17.22" y1="25.66" x2="19.03" y2="26.7"/>
			
				<rect x="17.95" y="25.14" transform="matrix(0.5001 -0.866 0.866 0.5001 -13.61 28.7807)" class="st2" width="0.35" height="2.08"/>
		</g>
	</g>
	<g>
		<g>
			<polyline class="st1" points="18.96,26.63 16.56,28.11 16.56,33.86 16.56,33.86 18.96,32.38 			"/>
			<path class="st2" d="M16.56,34.03c-0.03,0-0.06-0.01-0.09-0.02c-0.06-0.03-0.09-0.09-0.09-0.15v-5.74c0-0.06,0.03-0.12,0.08-0.15
				l2.4-1.48c0.08-0.05,0.19-0.03,0.24,0.06c0.05,0.08,0.03,0.19-0.06,0.24l-2.31,1.43v5.33l2.13-1.32
				c0.08-0.05,0.19-0.03,0.24,0.06c0.05,0.08,0.03,0.19-0.06,0.24L16.66,34C16.63,34.02,16.6,34.03,16.56,34.03z"/>
		</g>
		<g>
			<polygon class="st1" points="16.43,33.78 16.56,33.86 16.56,28.11 16.43,28.03 16.43,33.78 			"/>
			<path class="st2" d="M16.56,34.03c-0.03,0-0.06-0.01-0.09-0.02l-0.14-0.08c-0.05-0.03-0.09-0.09-0.09-0.15v-5.74
				c0-0.06,0.03-0.12,0.09-0.15c0.05-0.03,0.12-0.03,0.18,0l0.14,0.08c0.05,0.03,0.09,0.09,0.09,0.15v5.74
				c0,0.06-0.03,0.12-0.09,0.15C16.62,34.02,16.59,34.03,16.56,34.03z"/>
		</g>
		<g>
			<path class="st1" d="M18.96,32.22l-2.53,1.56c0,0-0.67-0.76-0.67-2.88s0.67-2.87,0.67-2.87l2.53-1.56"/>
			<path class="st2" d="M16.43,33.95c-0.05,0-0.1-0.02-0.13-0.06c-0.03-0.03-0.71-0.83-0.71-2.99s0.68-2.95,0.71-2.98
				c0.01-0.01,0.02-0.02,0.04-0.03l2.53-1.56c0.08-0.05,0.19-0.03,0.24,0.06c0.05,0.08,0.03,0.19-0.06,0.24l-2.51,1.54
				c-0.09,0.12-0.61,0.89-0.61,2.73c0,1.56,0.37,2.36,0.54,2.64l2.39-1.47c0.08-0.05,0.19-0.03,0.24,0.06
				c0.05,0.08,0.03,0.19-0.06,0.24l-2.53,1.56C16.49,33.94,16.46,33.95,16.43,33.95z"/>
		</g>
		<g>
			<polyline class="st1" points="18.96,26.47 16.43,28.03 16.28,28.26 18.96,26.63 18.96,32.38 			"/>
			<path class="st2" d="M18.96,32.55c-0.1,0-0.17-0.08-0.17-0.17v-5.43l-2.41,1.47c-0.07,0.04-0.16,0.03-0.22-0.03
				c-0.06-0.06-0.07-0.15-0.02-0.22l0.14-0.23c0.01-0.02,0.03-0.04,0.06-0.06l2.53-1.56c0.08-0.05,0.19-0.03,0.24,0.06
				c0.03,0.05,0.03,0.12,0.01,0.17c0.01,0.02,0.02,0.05,0.02,0.08v5.74C19.13,32.47,19.06,32.55,18.96,32.55z"/>
		</g>
	</g>
</g>
<g>
	<path class="st0" d="M26.09,11.2v1.06c0,1.34-1.93,2.42-4.31,2.42s-4.31-1.09-4.31-2.42V11.2"/>
	<path d="M21.78,14.86c-2.48,0-4.49-1.17-4.49-2.6v-1.06h0.35v1.06c0,1.24,1.86,2.25,4.14,2.25s4.14-1.01,4.14-2.25v-1.06h0.35v1.06
		C26.27,13.7,24.25,14.86,21.78,14.86z"/>
</g>
<g class="st4">
	<polyline class="st5" points="17.48,11.13 17.48,12.04 17.48,12.1 17.48,12.16 17.49,12.21 17.49,12.27 17.51,12.33 17.52,12.39 
		17.54,12.45 17.55,12.51 17.57,12.57 17.6,12.63 17.62,12.68 17.65,12.74 17.68,12.8 17.71,12.86 17.75,12.91 17.79,12.97 
		17.83,13.02 17.87,13.08 17.92,13.13 17.96,13.19 18.01,13.24 18.07,13.29 18.12,13.35 18.18,13.4 18.24,13.45 18.3,13.5 
		18.37,13.55 18.43,13.6 18.5,13.65 18.58,13.69 18.65,13.74 18.73,13.79 18.81,13.83 18.89,13.87 18.97,13.91 19.05,13.95 
		19.14,13.99 19.22,14.03 19.31,14.07 19.4,14.1 19.49,14.13 19.58,14.17 19.67,14.2 19.76,14.23 19.86,14.25 19.95,14.28 
		20.05,14.3 20.14,14.33 20.24,14.35 20.34,14.37 20.44,14.39 20.54,14.41 20.64,14.42 20.74,14.44 20.84,14.45 20.94,14.46 
		21.04,14.47 21.14,14.48 21.24,14.49 21.35,14.5 21.45,14.5 21.55,14.51 21.65,14.51 21.76,14.51 21.86,14.51 21.96,14.51 
		22.06,14.5 22.17,14.5 22.27,14.49 22.37,14.48 22.47,14.47 22.58,14.46 22.68,14.45 22.78,14.44 22.88,14.42 22.98,14.41 
		23.08,14.39 23.17,14.37 23.27,14.35 23.37,14.33 23.47,14.3 23.56,14.28 23.66,14.25 23.75,14.23 23.84,14.2 23.93,14.17 
		24.02,14.13 24.11,14.1 24.2,14.07 24.29,14.03 24.38,13.99 24.46,13.95 24.54,13.91 24.63,13.87 24.71,13.83 24.71,13.83 
		24.79,13.79 24.86,13.74 24.94,13.69 25.01,13.65 25.08,13.6 25.15,13.55 25.21,13.5 25.27,13.45 25.33,13.4 25.39,13.35 
		25.45,13.29 25.5,13.24 25.55,13.19 25.6,13.13 25.64,13.08 25.68,13.02 25.72,12.97 25.76,12.91 25.8,12.86 25.83,12.8 
		25.86,12.74 25.89,12.68 25.92,12.63 25.94,12.57 25.96,12.51 25.98,12.45 25.99,12.39 26.01,12.33 26.02,12.27 26.03,12.21 
		26.03,12.16 26.04,12.1 26.04,12.04 26.04,11.06 	"/>
</g>
<g>
	<ellipse class="st0" cx="21.78" cy="11.2" rx="4.31" ry="2.42"/>
	<path d="M21.78,13.8c-2.48,0-4.49-1.17-4.49-2.6c0-1.43,2.01-2.6,4.49-2.6c2.48,0,4.49,1.17,4.49,2.6
		C26.27,12.64,24.25,13.8,21.78,13.8z M21.78,8.96c-2.28,0-4.14,1.01-4.14,2.25c0,1.24,1.86,2.25,4.14,2.25s4.14-1.01,4.14-2.25
		C25.92,9.96,24.06,8.96,21.78,8.96z"/>
</g>
<g>
	<g>
		<path class="st0" d="M23.58,7.9v3.08c0,0.56-0.81,1.01-1.8,1.01c-0.99,0-1.8-0.45-1.8-1.01V7.9"/>
		<path d="M21.78,12.16c-1.11,0-1.97-0.52-1.97-1.19V7.9h0.35v3.08c0,0.45,0.74,0.84,1.62,0.84c0.88,0,1.62-0.38,1.62-0.84V7.9h0.35
			v3.08C23.75,11.64,22.88,12.16,21.78,12.16z"/>
	</g>
	<g>
		<ellipse class="st0" cx="21.78" cy="7.9" rx="1.8" ry="1.01"/>
		<path d="M21.78,9.08c-1.11,0-1.97-0.52-1.97-1.19c0-0.66,0.87-1.19,1.97-1.19c1.11,0,1.97,0.52,1.97,1.19
			C23.75,8.56,22.88,9.08,21.78,9.08z M21.78,7.06c-0.88,0-1.62,0.38-1.62,0.84c0,0.45,0.74,0.84,1.62,0.84
			c0.88,0,1.62-0.38,1.62-0.84C23.4,7.45,22.66,7.06,21.78,7.06z"/>
	</g>
</g>
<g class="st4">
	<polygon class="st5" points="23.01,8.64 23.05,8.62 23.08,8.6 23.11,8.58 23.14,8.56 23.17,8.54 23.2,8.52 23.22,8.5 23.25,8.48 
		23.28,8.46 23.3,8.44 23.32,8.41 23.35,8.39 23.37,8.37 23.39,8.35 23.41,8.32 23.42,8.3 23.44,8.28 23.46,8.25 23.47,8.23 
		23.48,8.21 23.5,8.18 23.51,8.16 23.52,8.13 23.53,8.11 23.54,8.09 23.55,8.06 23.55,8.04 23.56,8.01 23.56,7.99 23.57,7.96 
		23.57,7.94 23.57,7.91 23.57,7.89 23.57,7.86 23.57,7.84 23.57,7.81 23.56,7.79 23.56,7.76 23.55,7.74 23.55,7.71 23.54,7.69 
		23.53,7.66 23.52,7.64 23.51,7.62 23.5,7.59 23.48,7.57 23.47,7.54 23.46,7.52 23.44,7.5 23.42,7.47 23.41,7.45 23.39,7.43 
		23.37,7.41 23.35,7.38 23.32,7.36 23.3,7.34 23.28,7.32 23.25,7.3 23.22,7.27 23.2,7.25 23.17,7.23 23.14,7.21 23.11,7.19 
		23.08,7.17 23.05,7.15 23.01,7.14 22.98,7.12 22.94,7.1 22.91,7.08 22.87,7.07 22.84,7.05 22.8,7.04 22.76,7.02 22.73,7.01 
		22.69,6.99 22.65,6.98 22.61,6.97 22.57,6.96 22.53,6.95 22.49,6.94 22.45,6.93 22.41,6.92 22.37,6.91 22.33,6.9 22.29,6.89 
		22.25,6.89 22.2,6.88 22.16,6.88 22.12,6.87 22.08,6.87 22.03,6.86 21.99,6.86 21.95,6.86 21.91,6.85 21.86,6.85 21.82,6.85 
		21.78,6.85 21.73,6.85 21.69,6.85 21.65,6.85 21.6,6.86 21.56,6.86 21.52,6.86 21.48,6.87 21.43,6.87 21.39,6.88 21.35,6.88 
		21.31,6.89 21.27,6.89 21.22,6.9 21.18,6.91 21.14,6.92 21.1,6.93 21.06,6.94 21.02,6.95 20.98,6.96 20.94,6.97 20.9,6.98 
		20.86,6.99 20.83,7.01 20.79,7.02 20.75,7.04 20.72,7.05 20.68,7.07 20.64,7.08 20.61,7.1 20.57,7.12 20.54,7.14 20.51,7.15 
		20.48,7.17 20.44,7.19 20.41,7.21 20.38,7.23 20.36,7.25 20.33,7.27 20.3,7.3 20.28,7.32 20.25,7.34 20.23,7.36 20.21,7.38 
		20.19,7.41 20.17,7.43 20.15,7.45 20.13,7.47 20.11,7.5 20.1,7.52 20.08,7.54 20.07,7.57 20.06,7.59 20.04,7.62 20.03,7.64 
		20.02,7.66 20.02,7.69 20.01,7.71 20,7.74 20,7.76 19.99,7.79 19.99,7.81 19.98,7.84 19.98,7.86 19.98,7.89 19.98,7.91 19.98,7.94 
		19.99,7.96 19.99,7.99 20,8.01 20,8.04 20.01,8.06 20.02,8.09 20.02,8.11 20.03,8.13 20.04,8.16 20.06,8.18 20.07,8.21 20.08,8.23 
		20.1,8.25 20.11,8.28 20.13,8.3 20.15,8.32 20.17,8.35 20.19,8.37 20.21,8.39 20.23,8.41 20.25,8.44 20.28,8.46 20.3,8.48 
		20.33,8.5 20.36,8.52 20.38,8.54 20.41,8.56 20.44,8.58 20.48,8.6 20.51,8.62 20.54,8.64 20.57,8.66 20.61,8.67 20.64,8.69 
		20.68,8.71 20.72,8.72 20.75,8.74 20.79,8.75 20.83,8.77 20.86,8.78 20.9,8.79 20.94,8.8 20.98,8.82 21.02,8.83 21.06,8.84 
		21.1,8.85 21.14,8.86 21.18,8.87 21.22,8.87 21.27,8.88 21.31,8.89 21.35,8.89 21.39,8.9 21.43,8.9 21.48,8.91 21.52,8.91 
		21.56,8.92 21.6,8.92 21.65,8.92 21.69,8.92 21.73,8.92 21.78,8.92 21.82,8.92 21.86,8.92 21.91,8.92 21.95,8.92 21.99,8.92 
		22.03,8.91 22.08,8.91 22.12,8.9 22.16,8.9 22.2,8.89 22.25,8.89 22.29,8.88 22.33,8.87 22.37,8.87 22.41,8.86 22.45,8.85 
		22.49,8.84 22.53,8.83 22.57,8.82 22.61,8.8 22.65,8.79 22.69,8.78 22.73,8.77 22.76,8.75 22.8,8.74 22.84,8.72 22.87,8.71 
		22.91,8.69 22.95,8.67 22.98,8.66 23.01,8.64 	"/>
</g>
</svg>
