<?xml version="1.0" encoding="utf-8"?>
<!-- Generator: Adobe Illustrator 26.3.1, SVG Export Plug-In . SVG Version: 6.00 Build 0)  -->
<svg version="1.1" id="Layer_1" xmlns="http://www.w3.org/2000/svg" xmlns:xlink="http://www.w3.org/1999/xlink" x="0px" y="0px"
	 viewBox="0 0 43.99 43.99" style="enable-background:new 0 0 43.99 43.99;" xml:space="preserve">
<style type="text/css">
	.st0{fill:#66D7D1;}
	.st1{enable-background:new    ;}
	.st2{fill:none;stroke:#000000;stroke-width:0.35;stroke-linejoin:round;stroke-miterlimit:10;}
	.st3{fill:#FFFFFF;}
	.st4{fill:#010101;}
	.st5{opacity:0.15;}
	.st6{fill:#221F20;}
</style>
<g>
	<path class="st0" d="M41.65,43.99H2.34C1.05,43.99,0,42.95,0,41.65V2.34C0,1.05,1.05,0,2.34,0h39.31C42.95,0,44,1.05,44,2.34v39.31
		C44,42.95,42.95,43.99,41.65,43.99z"/>
</g>
<g>
	<g>
		<g class="st1">
			<g>
				<g>
					<rect x="8.12" y="29.73" transform="matrix(0.8648 -0.5021 0.5021 0.8648 -13.7157 8.8657)" width="2.97" height="0.35"/>
				</g>
				<g>
					<path class="st2" d="M31.3,19.66"/>
				</g>
			</g>
			<g>
				<g>
					<path d="M15.28,34.84c-0.04,0-0.07-0.01-0.1-0.03l-2.31-1.63c-0.05-0.03-0.08-0.09-0.07-0.15c0-0.06,0.04-0.11,0.09-0.14
						l20.68-12.02c0.06-0.03,0.13-0.03,0.19,0.01l2.31,1.63c0.05,0.03,0.08,0.09,0.07,0.15c0,0.06-0.04,0.11-0.09,0.14L15.36,34.82
						C15.34,34.83,15.31,34.84,15.28,34.84z M13.29,33.05l1.99,1.41l20.34-11.82l-1.99-1.41L13.29,33.05z"/>
				</g>
			</g>
			<g>
				<g>
					<path d="M15.27,37.08c-0.03,0-0.06-0.01-0.09-0.02c-0.05-0.03-0.09-0.09-0.09-0.15l0.01-2.24c0-0.06,0.03-0.12,0.09-0.15
						L35.87,22.5c0.05-0.03,0.12-0.03,0.18,0c0.05,0.03,0.09,0.09,0.09,0.15l-0.01,2.24c0,0.06-0.03,0.12-0.09,0.15L15.36,37.05
						C15.33,37.07,15.3,37.08,15.27,37.08z M15.45,34.77l-0.01,1.83l20.33-11.81l0.01-1.83L15.45,34.77z"/>
				</g>
			</g>
			<g>
				<g>
					<path d="M12.97,33.21c-0.03,0-0.06-0.01-0.09-0.02c-0.05-0.03-0.09-0.09-0.09-0.15l0.03-9.36h0.35l-0.03,9.05l20.33-11.81
						l0.03-6.73h0.35l-0.03,6.83c0,0.06-0.03,0.12-0.09,0.15L13.06,33.18C13.03,33.2,13,33.21,12.97,33.21z"/>
				</g>
			</g>
			<g>
				<g>
					<polygon class="st3" points="15.31,22.46 15.31,24.7 13,23.67 12.97,33.03 15.28,34.66 15.27,36.9 8.31,32.88 8.32,30.65 
						10.63,31.68 10.65,22.32 8.34,20.68 8.35,18.44 					"/>
					<path class="st4" d="M15.27,37.08c-0.03,0-0.06-0.01-0.09-0.02l-6.96-4.02C8.17,33,8.13,32.95,8.14,32.88l0.01-2.24
						c0-0.06,0.03-0.11,0.08-0.15c0.05-0.03,0.11-0.04,0.17-0.01l2.06,0.92l0.03-9l-2.23-1.59c-0.05-0.03-0.07-0.09-0.07-0.14
						l0.01-2.24c0-0.06,0.03-0.12,0.09-0.15c0.05-0.03,0.12-0.03,0.17,0l6.96,4.02c0.05,0.03,0.09,0.09,0.09,0.15l-0.01,2.24
						c0,0.06-0.03,0.11-0.08,0.15c-0.05,0.03-0.11,0.04-0.17,0.01l-2.06-0.91l-0.03,9l2.23,1.58c0.05,0.03,0.07,0.09,0.07,0.14
						l-0.01,2.24c0,0.06-0.03,0.12-0.09,0.15C15.33,37.07,15.3,37.08,15.27,37.08z M8.49,32.78l6.61,3.82l0.01-1.85l-2.23-1.58
						c-0.05-0.03-0.07-0.09-0.07-0.14l0.03-9.36c0-0.06,0.03-0.11,0.08-0.15c0.05-0.03,0.11-0.04,0.17-0.01l2.06,0.91l0.01-1.87
						l-6.61-3.82l-0.01,1.85l2.23,1.59c0.05,0.03,0.07,0.09,0.07,0.14l-0.03,9.36c0,0.06-0.03,0.11-0.08,0.15
						c-0.05,0.03-0.11,0.04-0.17,0.01L8.5,30.91L8.49,32.78z"/>
				</g>
			</g>
			<g>
				<g>
					<path d="M15.31,24.87c-0.03,0-0.06-0.01-0.09-0.02c-0.05-0.03-0.09-0.09-0.09-0.15l0.01-2.24c0-0.06,0.03-0.12,0.09-0.15
						L35.9,10.29c0.05-0.03,0.12-0.03,0.18,0c0.05,0.03,0.09,0.09,0.09,0.15l-0.01,2.24c0,0.06-0.03,0.12-0.09,0.15L15.39,24.85
						C15.37,24.86,15.34,24.87,15.31,24.87z M15.49,22.56l-0.01,1.83l20.33-11.81l0.01-1.83L15.49,22.56z"/>
				</g>
			</g>
			<g>
				<g>
					<path d="M15.22,22.61l-6.96-4.02c-0.05-0.03-0.09-0.09-0.09-0.15s0.03-0.12,0.09-0.15L28.94,6.27c0.05-0.03,0.12-0.03,0.18,0
						l6.96,4.02l-0.17,0.3l-6.87-3.97L8.7,18.44l6.7,3.87L15.22,22.61z"/>
				</g>
			</g>
		</g>
	</g>
	<g class="st5">
		<polygon class="st6" points="35.96,10.48 35.9,12.52 33.56,14.05 33.68,20.78 12.98,32.88 13.01,23.77 15.23,24.64 15.31,22.46 		
			"/>
	</g>
	<g class="st5">
		<polygon class="st6" points="15.18,34.46 15.23,36.91 36.05,24.81 35.9,22.71 		"/>
	</g>
</g>
</svg>
