<?xml version="1.0" encoding="utf-8"?>
<!-- Generator: Adobe Illustrator 26.2.1, SVG Export Plug-In . SVG Version: 6.00 Build 0)  -->
<svg version="1.1" id="Layer_1" xmlns="http://www.w3.org/2000/svg" xmlns:xlink="http://www.w3.org/1999/xlink" x="0px" y="0px"
	 viewBox="0 0 43.99 43.99" style="enable-background:new 0 0 43.99 43.99;" xml:space="preserve">
<style type="text/css">
	.st0{fill:#71C1C2;}
	.st1{clip-path:url(#SVGID_00000000204346850123842760000013140475713671603364_);}
	.st2{fill:#FFFFFF;}
	.st3{fill:#010101;}
	.st4{opacity:0.15;}
	.st5{fill:#221F20;}
</style>
<g>
	<path class="st0" d="M41.65,43.99H2.34C1.05,43.99,0,42.95,0,41.65V2.34C0,1.05,1.05,0,2.34,0h39.31C42.95,0,44,1.05,44,2.34v39.31
		C44,42.95,42.95,43.99,41.65,43.99z"/>
</g>
<g>
	<g>
		<defs>
			<rect id="SVGID_1_" x="-0.01" y="12" width="44" height="20"/>
		</defs>
		<clipPath id="SVGID_00000122719919917350353060000003516285021271223483_">
			<use xlink:href="#SVGID_1_"  style="overflow:visible;"/>
		</clipPath>
		<g style="clip-path:url(#SVGID_00000122719919917350353060000003516285021271223483_);">
			<g>
				<g>
					<rect x="-7.86" y="15.5" class="st2" width="18" height="13"/>
					<path class="st3" d="M10.14,28.67h-18c-0.1,0-0.17-0.08-0.17-0.17v-13c0-0.1,0.08-0.17,0.17-0.17h18c0.1,0,0.17,0.08,0.17,0.17
						v13C10.32,28.59,10.24,28.67,10.14,28.67z M-7.68,28.32H9.97V15.67H-7.68V28.32z"/>
				</g>
				<g class="st4">
					<polygon class="st5" points="10.14,17.57 -7.86,24 -7.86,15.32 10.14,15.32 					"/>
				</g>
			</g>
			<g>
				<g>
					<rect x="13" y="15.5" class="st2" width="18" height="13"/>
					<path class="st3" d="M31,28.67H13c-0.1,0-0.17-0.08-0.17-0.17v-13c0-0.1,0.08-0.17,0.17-0.17h18c0.1,0,0.17,0.08,0.17,0.17v13
						C31.17,28.59,31.09,28.67,31,28.67z M13.17,28.32h17.65V15.67H13.17V28.32z"/>
				</g>
				<g class="st4">
					<polygon class="st5" points="31,17.57 13,24 13,15.32 31,15.32 					"/>
				</g>
			</g>
			<g>
				<g>
					<rect x="33.85" y="15.5" class="st2" width="18" height="13"/>
					<path class="st3" d="M51.85,28.67h-18c-0.1,0-0.17-0.08-0.17-0.17v-13c0-0.1,0.08-0.17,0.17-0.17h18c0.1,0,0.17,0.08,0.17,0.17
						v13C52.03,28.59,51.95,28.67,51.85,28.67z M34.03,28.32h17.65V15.67H34.03V28.32z"/>
				</g>
				<g class="st4">
					<polygon class="st5" points="51.85,17.57 33.85,24 33.85,15.32 51.85,15.32 					"/>
				</g>
			</g>
		</g>
	</g>
</g>
</svg>
