<?xml version="1.0" encoding="utf-8"?>
<!-- Generator: Adobe Illustrator 26.3.1, SVG Export Plug-In . SVG Version: 6.00 Build 0)  -->
<svg version="1.1" id="Layer_1" xmlns="http://www.w3.org/2000/svg" xmlns:xlink="http://www.w3.org/1999/xlink" x="0px" y="0px"
	 viewBox="0 0 43.99 43.99" style="enable-background:new 0 0 43.99 43.99;" xml:space="preserve">
<style type="text/css">
	.st0{fill:#66D7D1;}
	.st1{fill:#FFFFFF;}
	.st2{fill:#010101;}
	.st3{opacity:0.5;}
	.st4{opacity:0.15;}
	.st5{fill:#221F20;}
</style>
<g>
	<path class="st0" d="M41.65,43.99H2.34C1.05,43.99,0,42.95,0,41.65V2.34C0,1.05,1.05,0,2.34,0h39.31C42.95,0,44,1.05,44,2.34v39.31
		C44,42.95,42.95,43.99,41.65,43.99z"/>
</g>
<g>
	<g>
		<polygon class="st1" points="31.48,23 31.94,22.74 31.94,16.82 31.48,17.09 31.48,23 		"/>
		<path class="st2" d="M31.48,23.18c-0.03,0-0.06-0.01-0.09-0.02c-0.05-0.03-0.09-0.09-0.09-0.15v-5.92c0-0.06,0.03-0.12,0.09-0.15
			l0.46-0.27c0.05-0.03,0.12-0.03,0.18,0c0.05,0.03,0.09,0.09,0.09,0.15v5.92c0,0.06-0.03,0.12-0.09,0.15l-0.46,0.27
			C31.54,23.17,31.51,23.18,31.48,23.18z M31.65,17.19v5.51l0.11-0.06v-5.51L31.65,17.19z"/>
	</g>
	<g>
		<polygon class="st1" points="31.34,22.92 31.48,23 31.48,17.09 31.34,17 31.34,22.92 		"/>
		<path class="st2" d="M31.48,23.18c-0.03,0-0.06-0.01-0.09-0.02l-0.14-0.08c-0.05-0.03-0.09-0.09-0.09-0.15V17
			c0-0.06,0.03-0.12,0.09-0.15c0.05-0.03,0.12-0.03,0.18,0l0.14,0.08c0.05,0.03,0.09,0.09,0.09,0.15V23c0,0.06-0.03,0.12-0.09,0.15
			C31.54,23.17,31.51,23.18,31.48,23.18z"/>
	</g>
	<g>
		<polygon class="st1" points="31.94,22.57 31.34,22.92 31.34,17 31.94,16.66 31.94,22.57 		"/>
		<path class="st2" d="M31.34,23.1c-0.03,0-0.06-0.01-0.09-0.02c-0.05-0.03-0.09-0.09-0.09-0.15V17c0-0.06,0.03-0.12,0.09-0.15
			l0.6-0.35c0.05-0.03,0.12-0.03,0.17,0c0.05,0.03,0.09,0.09,0.09,0.15v5.92c0,0.06-0.03,0.12-0.09,0.15l-0.6,0.35
			C31.4,23.09,31.37,23.1,31.34,23.1z M31.51,17.1v5.51l0.25-0.15v-5.51L31.51,17.1z"/>
	</g>
	<g>
		<polygon class="st1" points="33.8,23.65 31.94,22.57 31.94,16.66 33.8,17.73 33.8,23.65 		"/>
		<path class="st2" d="M33.8,23.82c-0.03,0-0.06-0.01-0.09-0.02l-1.86-1.07c-0.05-0.03-0.09-0.09-0.09-0.15v-5.92
			c0-0.06,0.03-0.12,0.09-0.15c0.05-0.03,0.12-0.03,0.17,0l1.86,1.07c0.05,0.03,0.09,0.09,0.09,0.15v5.92
			c0,0.06-0.03,0.12-0.09,0.15C33.86,23.81,33.83,23.82,33.8,23.82z M32.11,22.47l1.51,0.87v-5.51l-1.51-0.87V22.47z"/>
	</g>
	<g>
		<polygon class="st1" points="35.99,22.54 35.85,22.46 35.85,16.54 35.99,16.63 35.99,22.54 		"/>
		<path class="st2" d="M35.99,22.72c-0.03,0-0.06-0.01-0.09-0.02l-0.14-0.08c-0.05-0.03-0.09-0.09-0.09-0.15v-5.92
			c0-0.06,0.03-0.12,0.09-0.15c0.05-0.03,0.12-0.03,0.18,0l0.14,0.08c0.05,0.03,0.09,0.09,0.09,0.15v5.92
			c0,0.06-0.03,0.12-0.09,0.15C36.06,22.71,36.02,22.72,35.99,22.72z"/>
	</g>
	<g>
		<polygon class="st1" points="33.8,23.81 33.8,17.89 31.94,16.82 31.94,22.74 33.8,23.81 		"/>
		<path class="st2" d="M33.8,23.99c-0.03,0-0.06-0.01-0.09-0.02l-1.86-1.07c-0.05-0.03-0.09-0.09-0.09-0.15v-5.92
			c0-0.06,0.03-0.12,0.09-0.15c0.05-0.03,0.12-0.03,0.17,0l1.86,1.07c0.05,0.03,0.09,0.09,0.09,0.15v5.92
			c0,0.06-0.03,0.12-0.09,0.15C33.86,23.98,33.83,23.99,33.8,23.99z M32.11,22.64l1.51,0.87v-5.51l-1.51-0.87V22.64z"/>
	</g>
	<g>
		<path class="st1" d="M33.8,23.81l2.2-1.27c0,0,0.66-0.41,0.66-2.88s-0.66-3.04-0.66-3.04l-2.2,1.27V23.81L33.8,23.81z"/>
		<path class="st2" d="M33.8,23.99c-0.03,0-0.06-0.01-0.09-0.02c-0.05-0.03-0.09-0.09-0.09-0.15v-5.92c0-0.06,0.03-0.12,0.09-0.15
			l2.2-1.27c0.06-0.04,0.14-0.03,0.2,0.02c0.07,0.06,0.72,0.69,0.72,3.17c0,2.5-0.67,2.98-0.74,3.03l-2.2,1.27
			C33.86,23.98,33.83,23.99,33.8,23.99z M33.97,17.99v5.51l1.93-1.12l0,0c0,0,0.57-0.45,0.57-2.73c0-1.82-0.37-2.57-0.53-2.81
			L33.97,17.99z"/>
	</g>
	<g>
		<polygon class="st1" points="33.8,17.89 35.99,16.63 35.85,16.54 33.8,17.73 31.94,16.66 31.34,17 31.48,17.09 31.94,16.82 
			33.8,17.89 		"/>
		<path class="st2" d="M33.8,18.07c-0.03,0-0.06-0.01-0.09-0.02l-1.77-1.02l-0.37,0.22c-0.05,0.03-0.12,0.03-0.18,0l-0.14-0.08
			c-0.05-0.03-0.09-0.09-0.09-0.15c0-0.06,0.03-0.12,0.09-0.15l0.6-0.35c0.05-0.03,0.12-0.03,0.17,0l1.77,1.02l1.97-1.13
			c0.05-0.03,0.12-0.03,0.18,0l0.14,0.08c0.05,0.03,0.09,0.09,0.09,0.15c0,0.06-0.03,0.12-0.09,0.15l-2.2,1.27
			C33.86,18.06,33.83,18.07,33.8,18.07z"/>
	</g>
</g>
<g>
	<g>
		<polygon class="st1" points="24.65,24.88 31.33,28.74 16.09,37.54 9.41,33.68 24.65,24.88 		"/>
		<path class="st2" d="M16.09,37.71c-0.03,0-0.06-0.01-0.09-0.02l-6.68-3.86c-0.05-0.03-0.09-0.09-0.09-0.15s0.03-0.12,0.09-0.15
			l15.24-8.8c0.05-0.03,0.12-0.03,0.17,0l6.68,3.86c0.05,0.03,0.09,0.09,0.09,0.15s-0.03,0.12-0.09,0.15l-15.23,8.8
			C16.15,37.7,16.12,37.71,16.09,37.71z M9.76,33.68l6.33,3.66l14.88-8.59l-6.33-3.66L9.76,33.68z"/>
	</g>
	<g>
		<polygon class="st1" points="24.65,24.88 24.65,6.46 31.33,10.31 31.33,28.74 24.65,24.88 		"/>
		<path class="st2" d="M31.33,28.92c-0.03,0-0.06-0.01-0.09-0.02l-6.68-3.86c-0.05-0.03-0.09-0.09-0.09-0.15V6.46
			c0-0.06,0.03-0.12,0.09-0.15c0.05-0.03,0.12-0.03,0.17,0l6.68,3.86c0.05,0.03,0.09,0.09,0.09,0.15v18.43
			c0,0.06-0.03,0.12-0.09,0.15C31.39,28.91,31.36,28.92,31.33,28.92z M24.82,24.78l6.33,3.66V10.42l-6.33-3.66V24.78z"/>
	</g>
	<g>
		<polygon class="st1" points="24.65,24.88 9.41,33.68 9.41,15.25 24.65,6.46 24.65,24.88 		"/>
		<path class="st2" d="M9.41,33.85c-0.03,0-0.06-0.01-0.09-0.02c-0.05-0.03-0.09-0.09-0.09-0.15V15.25c0-0.06,0.03-0.12,0.09-0.15
			l15.24-8.8c0.05-0.03,0.12-0.03,0.17,0c0.05,0.03,0.09,0.09,0.09,0.15v18.43c0,0.06-0.03,0.12-0.09,0.15L9.5,33.83
			C9.47,33.85,9.44,33.85,9.41,33.85z M9.59,15.35v18.02l14.89-8.59V6.76L9.59,15.35z"/>
	</g>
	<g>
		<polygon class="st1" points="31.33,28.74 31.33,10.31 16.09,19.11 16.09,37.54 31.33,28.74 		"/>
		<path class="st2" d="M16.09,37.71c-0.03,0-0.06-0.01-0.09-0.02c-0.05-0.03-0.09-0.09-0.09-0.15V19.11c0-0.06,0.03-0.12,0.09-0.15
			l15.23-8.8c0.05-0.03,0.12-0.03,0.17,0c0.05,0.03,0.09,0.09,0.09,0.15v18.43c0,0.06-0.03,0.12-0.09,0.15l-15.23,8.8
			C16.15,37.7,16.12,37.71,16.09,37.71z M16.27,19.21v18.02l14.89-8.59V10.62L16.27,19.21z"/>
	</g>
	<g>
		<polygon class="st1" points="31.33,28.74 31.33,10.31 16.09,19.11 16.09,37.54 31.33,28.74 		"/>
		<path class="st2" d="M16.09,37.71c-0.03,0-0.06-0.01-0.09-0.02c-0.05-0.03-0.09-0.09-0.09-0.15V19.11c0-0.06,0.03-0.12,0.09-0.15
			l15.23-8.8c0.05-0.03,0.12-0.03,0.17,0c0.05,0.03,0.09,0.09,0.09,0.15v18.43c0,0.06-0.03,0.12-0.09,0.15l-15.23,8.8
			C16.15,37.7,16.12,37.71,16.09,37.71z M16.27,19.21v18.02l14.89-8.59V10.62L16.27,19.21z"/>
	</g>
	<g>
		<path class="st1" d="M29.92,14.53l-13.35,7.71c-0.29,0.17-0.47,0.48-0.47,0.82l0,9.45c0,0.73,0.78,1.18,1.41,0.82l13.35-7.71
			c0.29-0.17,0.47-0.48,0.47-0.82l0-9.45C31.33,14.62,30.54,14.17,29.92,14.53z"/>
		<path class="st2" d="M17.04,33.62c-0.19,0-0.38-0.05-0.56-0.15c-0.35-0.2-0.56-0.56-0.56-0.97v-9.45c0-0.4,0.21-0.77,0.56-0.97
			l13.35-7.71l0,0c0.35-0.2,0.77-0.2,1.12,0c0.35,0.2,0.56,0.56,0.56,0.97v9.45c0,0.4-0.21,0.77-0.56,0.97l-13.35,7.71
			C17.42,33.57,17.23,33.62,17.04,33.62z M30,14.68l-13.35,7.71c-0.24,0.14-0.38,0.39-0.38,0.66v9.45c0,0.28,0.14,0.53,0.38,0.66
			s0.53,0.14,0.77,0l13.35-7.71c0.24-0.14,0.38-0.39,0.38-0.67v-9.45c0-0.28-0.14-0.53-0.38-0.67S30.24,14.54,30,14.68z"/>
	</g>
	<g>
		<path class="st1" d="M30.4,14.53l-13.35,7.71c-0.29,0.17-0.47,0.48-0.47,0.82l0,9.45c0,0.73,0.78,1.18,1.41,0.82l13.35-7.71
			c0.29-0.17,0.47-0.48,0.47-0.82l0-9.45C31.82,14.62,31.03,14.17,30.4,14.53z"/>
		<path class="st2" d="M17.52,33.62c-0.19,0-0.38-0.05-0.56-0.15c-0.35-0.2-0.56-0.56-0.56-0.97v-9.45c0-0.4,0.21-0.77,0.56-0.97
			l13.35-7.71l0,0c0.35-0.2,0.77-0.2,1.12,0c0.35,0.2,0.56,0.56,0.56,0.97v9.45c0,0.4-0.21,0.77-0.56,0.97l-13.35,7.71
			C17.91,33.57,17.71,33.62,17.52,33.62z M30.49,14.68l-13.35,7.71c-0.24,0.14-0.38,0.39-0.38,0.66v9.45c0,0.28,0.14,0.53,0.38,0.66
			c0.24,0.14,0.53,0.14,0.77,0l13.35-7.71c0.24-0.14,0.38-0.39,0.38-0.67v-9.45c0-0.28-0.14-0.53-0.38-0.67S30.73,14.54,30.49,14.68
			z"/>
	</g>
	<g class="st3">
		<path d="M19.98,30.04c-0.12,0-0.24-0.03-0.35-0.09c-0.22-0.12-0.35-0.35-0.35-0.6v-5.96c0-0.25,0.13-0.48,0.35-0.6l8.43-4.87l0,0
			c0.22-0.13,0.48-0.13,0.69,0c0.22,0.12,0.35,0.35,0.35,0.6v5.96c0,0.25-0.13,0.48-0.35,0.6l-8.43,4.87
			C20.22,30,20.1,30.04,19.98,30.04z M28.16,18.08l-8.43,4.87c-0.15,0.09-0.25,0.25-0.25,0.43v5.96c0,0.18,0.09,0.34,0.25,0.43
			c0.16,0.09,0.34,0.09,0.49,0l8.43-4.87c0.15-0.09,0.25-0.25,0.25-0.43v-5.96c0-0.18-0.09-0.34-0.25-0.43
			C28.5,17.99,28.32,17.99,28.16,18.08z"/>
	</g>
	<g>
		<polygon class="st0" points="24.65,6.46 9.41,15.25 16.09,19.11 31.33,10.31 24.65,6.46 		"/>
		<path class="st2" d="M16.09,19.29c-0.03,0-0.06-0.01-0.09-0.02L9.32,15.4c-0.05-0.03-0.09-0.09-0.09-0.15s0.03-0.12,0.09-0.15
			l15.24-8.8c0.05-0.03,0.12-0.03,0.17,0l6.68,3.86c0.05,0.03,0.09,0.09,0.09,0.15s-0.03,0.12-0.09,0.15l-15.23,8.8
			C16.15,19.28,16.12,19.29,16.09,19.29z M9.76,15.25l6.33,3.66l14.88-8.59l-6.33-3.66L9.76,15.25z"/>
	</g>
	<g>
		<polygon class="st0" points="9.41,15.25 9.41,33.68 16.09,37.54 16.09,19.11 9.41,15.25 		"/>
		<path class="st2" d="M16.09,37.71c-0.03,0-0.06-0.01-0.09-0.02l-6.68-3.86c-0.05-0.03-0.09-0.09-0.09-0.15V15.25
			c0-0.06,0.03-0.12,0.09-0.15c0.05-0.03,0.12-0.03,0.17,0l6.68,3.86c0.05,0.03,0.09,0.09,0.09,0.15v18.43
			c0,0.06-0.03,0.12-0.09,0.15C16.15,37.7,16.12,37.71,16.09,37.71z M9.59,33.58l6.33,3.66V19.21l-6.33-3.66V33.58z"/>
	</g>
</g>
<g>
	<g>
		<path class="st3" d="M28.02,24.27L28.02,24.27c-0.06,0-0.1-0.04-0.1-0.1l0-1.77c0-0.06,0.04-0.1,0.1-0.1l0,0
			c0.06,0,0.1,0.04,0.1,0.1l0,1.77C28.12,24.23,28.08,24.27,28.02,24.27z"/>
		<path class="st3" d="M28.02,21.08L28.02,21.08c-0.06,0-0.1-0.04-0.1-0.1l0-1.77c0-0.06,0.04-0.1,0.1-0.1l0,0
			c0.06,0,0.1,0.04,0.1,0.1l0,1.77C28.12,21.03,28.08,21.08,28.02,21.08z"/>
	</g>
	<g>
		<path class="st3" d="M27.33,24.66L27.33,24.66c-0.06,0-0.1-0.04-0.1-0.1l0-1.77c0-0.06,0.04-0.1,0.1-0.1l0,0
			c0.06,0,0.1,0.04,0.1,0.1l0,1.77C27.43,24.62,27.39,24.66,27.33,24.66z"/>
		<path class="st3" d="M27.33,21.47L27.33,21.47c-0.06,0-0.1-0.04-0.1-0.1l0-1.77c0-0.06,0.04-0.1,0.1-0.1l0,0
			c0.06,0,0.1,0.04,0.1,0.1l0,1.77C27.43,21.43,27.39,21.47,27.33,21.47z"/>
	</g>
	<g>
		<path class="st3" d="M26.64,25.06L26.64,25.06c-0.06,0-0.1-0.04-0.1-0.1l0-1.77c0-0.06,0.04-0.1,0.1-0.1l0,0
			c0.06,0,0.1,0.04,0.1,0.1l0,1.77C26.74,25.01,26.7,25.06,26.64,25.06z"/>
		<path class="st3" d="M26.64,21.87L26.64,21.87c-0.06,0-0.1-0.04-0.1-0.1l0-1.77c0-0.06,0.04-0.1,0.1-0.1l0,0
			c0.06,0,0.1,0.04,0.1,0.1l0,1.77C26.74,21.82,26.7,21.87,26.64,21.87z"/>
	</g>
	<g>
		<path class="st3" d="M25.96,25.45L25.96,25.45c-0.06,0-0.1-0.04-0.1-0.1l0-1.77c0-0.06,0.04-0.1,0.1-0.1l0,0
			c0.06,0,0.1,0.04,0.1,0.1l0,1.77C26.06,25.41,26.01,25.45,25.96,25.45z"/>
		<path class="st3" d="M25.96,22.26L25.96,22.26c-0.06,0-0.1-0.04-0.1-0.1l0-1.77c0-0.06,0.04-0.1,0.1-0.1l0,0
			c0.06,0,0.1,0.04,0.1,0.1l0,1.77C26.06,22.22,26.01,22.26,25.96,22.26z"/>
	</g>
	<g>
		<path class="st3" d="M25.27,25.85L25.27,25.85c-0.06,0-0.1-0.04-0.1-0.1l0-1.78c0-0.06,0.04-0.1,0.1-0.1l0,0
			c0.06,0,0.1,0.04,0.1,0.1l0,1.78C25.37,25.8,25.33,25.85,25.27,25.85z"/>
		<path class="st3" d="M25.27,22.65L25.27,22.65c-0.06,0-0.1-0.04-0.1-0.1l0-1.77c0-0.06,0.04-0.1,0.1-0.1l0,0
			c0.06,0,0.1,0.04,0.1,0.1l0,1.77C25.37,22.61,25.33,22.65,25.27,22.65z"/>
	</g>
	<g>
		<path class="st3" d="M24.58,26.24L24.58,26.24c-0.06,0-0.1-0.04-0.1-0.1l0-1.78c0-0.06,0.04-0.1,0.1-0.1l0,0
			c0.06,0,0.1,0.04,0.1,0.1l0,1.78C24.68,26.2,24.64,26.24,24.58,26.24z"/>
		<path class="st3" d="M24.58,23.05L24.58,23.05c-0.06,0-0.1-0.04-0.1-0.1l0-1.77c0-0.06,0.04-0.1,0.1-0.1l0,0
			c0.06,0,0.1,0.04,0.1,0.1l0,1.77C24.68,23,24.64,23.05,24.58,23.05z"/>
	</g>
	<g>
		<path class="st3" d="M23.89,26.63L23.89,26.63c-0.06,0-0.1-0.04-0.1-0.1l0-1.78c0-0.06,0.04-0.1,0.1-0.1l0,0
			c0.06,0,0.1,0.04,0.1,0.1l0,1.78C23.99,26.59,23.95,26.63,23.89,26.63z"/>
		<path class="st3" d="M23.89,23.44L23.89,23.44c-0.06,0-0.1-0.04-0.1-0.1l0-1.77c0-0.06,0.04-0.1,0.1-0.1l0,0
			c0.06,0,0.1,0.04,0.1,0.1l0,1.77C23.99,23.4,23.95,23.44,23.89,23.44z"/>
	</g>
	<g>
		<path class="st3" d="M23.21,27.03L23.21,27.03c-0.06,0-0.1-0.04-0.1-0.1l0-1.78c0-0.06,0.04-0.1,0.1-0.1l0,0
			c0.06,0,0.1,0.04,0.1,0.1l0,1.78C23.31,26.98,23.26,27.03,23.21,27.03z"/>
		<path class="st3" d="M23.21,23.83L23.21,23.83c-0.06,0-0.1-0.04-0.1-0.1l0-1.78c0-0.06,0.04-0.1,0.1-0.1l0,0
			c0.06,0,0.1,0.04,0.1,0.1l0,1.78C23.31,23.79,23.26,23.83,23.21,23.83z"/>
	</g>
	<g>
		<path class="st3" d="M22.52,27.42L22.52,27.42c-0.06,0-0.1-0.04-0.1-0.1l0-1.77c0-0.06,0.04-0.1,0.1-0.1l0,0
			c0.06,0,0.1,0.04,0.1,0.1l0,1.77C22.62,27.38,22.57,27.42,22.52,27.42z"/>
		<path class="st3" d="M22.52,24.23L22.52,24.23c-0.06,0-0.1-0.04-0.1-0.1l0-1.77c0-0.06,0.04-0.1,0.1-0.1l0,0
			c0.06,0,0.1,0.04,0.1,0.1l0,1.77C22.62,24.18,22.57,24.23,22.52,24.23z"/>
	</g>
	<g>
		<path class="st3" d="M21.83,27.81L21.83,27.81c-0.06,0-0.1-0.04-0.1-0.1l0-1.77c0-0.06,0.04-0.1,0.1-0.1l0,0
			c0.06,0,0.1,0.04,0.1,0.1l0,1.77C21.93,27.77,21.89,27.81,21.83,27.81z"/>
		<path class="st3" d="M21.83,24.62L21.83,24.62c-0.06,0-0.1-0.04-0.1-0.1l0-1.77c0-0.06,0.04-0.1,0.1-0.1l0,0
			c0.06,0,0.1,0.04,0.1,0.1l0,1.77C21.93,24.58,21.89,24.62,21.83,24.62z"/>
	</g>
	<g>
		<path class="st3" d="M21.14,28.21L21.14,28.21c-0.06,0-0.1-0.04-0.1-0.1l0-1.77c0-0.06,0.04-0.1,0.1-0.1l0,0
			c0.06,0,0.1,0.04,0.1,0.1l0,1.77C21.24,28.16,21.2,28.21,21.14,28.21z"/>
		<path class="st3" d="M21.14,25.02L21.14,25.02c-0.06,0-0.1-0.04-0.1-0.1l0-1.77c0-0.06,0.04-0.1,0.1-0.1l0,0
			c0.06,0,0.1,0.04,0.1,0.1l0,1.77C21.24,24.97,21.2,25.02,21.14,25.02z"/>
	</g>
	<g>
		<path class="st3" d="M20.46,28.6L20.46,28.6c-0.06,0-0.1-0.04-0.1-0.1l0-1.77c0-0.06,0.04-0.1,0.1-0.1l0,0
			c0.06,0,0.1,0.04,0.1,0.1l0,1.77C20.56,28.56,20.51,28.6,20.46,28.6z"/>
		<path class="st3" d="M20.46,25.41L20.46,25.41c-0.06,0-0.1-0.04-0.1-0.1l0-1.77c0-0.06,0.04-0.1,0.1-0.1l0,0
			c0.06,0,0.1,0.04,0.1,0.1l0,1.77C20.56,25.37,20.51,25.41,20.46,25.41z"/>
	</g>
</g>
<g>
	<path class="st3" d="M10.89,19.89L10.89,19.89c-0.06,0-0.1-0.04-0.1-0.1l0-2.26c0-0.06,0.04-0.1,0.1-0.1l0,0
		c0.06,0,0.1,0.04,0.1,0.1l0,2.26C10.99,19.84,10.95,19.89,10.89,19.89z"/>
	<path class="st3" d="M11.6,20.3L11.6,20.3c-0.06,0-0.1-0.04-0.1-0.1l0-2.26c0-0.06,0.04-0.1,0.1-0.1l0,0c0.06,0,0.1,0.04,0.1,0.1
		l0,2.26C11.7,20.25,11.65,20.3,11.6,20.3z"/>
	<path class="st3" d="M12.3,20.7L12.3,20.7c-0.06,0-0.1-0.04-0.1-0.1l0-2.26c0-0.06,0.04-0.1,0.1-0.1l0,0c0.06,0,0.1,0.04,0.1,0.1
		l0,2.26C12.4,20.66,12.35,20.7,12.3,20.7z"/>
	<path class="st3" d="M13,21.11L13,21.11c-0.06,0-0.1-0.04-0.1-0.1l0-2.26c0-0.06,0.04-0.1,0.1-0.1l0,0c0.06,0,0.1,0.04,0.1,0.1
		l0,2.26C13.1,21.07,13.06,21.11,13,21.11z"/>
	<path class="st3" d="M13.71,21.52L13.71,21.52c-0.06,0-0.1-0.04-0.1-0.1l0-2.26c0-0.06,0.04-0.1,0.1-0.1l0,0
		c0.06,0,0.1,0.04,0.1,0.1l0,2.26C13.81,21.48,13.76,21.52,13.71,21.52z"/>
	<path class="st3" d="M14.41,21.93L14.41,21.93c-0.06,0-0.1-0.04-0.1-0.1l0-2.26c0-0.06,0.04-0.1,0.1-0.1l0,0
		c0.06,0,0.1,0.04,0.1,0.1l0,2.26C14.51,21.89,14.46,21.93,14.41,21.93z"/>
</g>
<g>
	<path class="st3" d="M10.89,33.17L10.89,33.17c-0.06,0-0.1-0.04-0.1-0.1l0-1.5c0-0.06,0.04-0.1,0.1-0.1l0,0
		c0.06,0,0.1,0.04,0.1,0.1l0,1.5C10.99,33.12,10.95,33.17,10.89,33.17z"/>
	<path class="st3" d="M11.6,33.58L11.6,33.58c-0.06,0-0.1-0.04-0.1-0.1l0-1.5c0-0.06,0.04-0.1,0.1-0.1l0,0c0.06,0,0.1,0.04,0.1,0.1
		l0,1.5C11.7,33.53,11.65,33.58,11.6,33.58z"/>
	<path class="st3" d="M12.3,33.98L12.3,33.98c-0.06,0-0.1-0.04-0.1-0.1l0-1.5c0-0.06,0.04-0.1,0.1-0.1l0,0c0.06,0,0.1,0.04,0.1,0.1
		l0,1.5C12.4,33.94,12.35,33.98,12.3,33.98z"/>
	<path class="st3" d="M13,34.39L13,34.39c-0.06,0-0.1-0.04-0.1-0.1l0-1.5c0-0.06,0.04-0.1,0.1-0.1l0,0c0.06,0,0.1,0.04,0.1,0.1
		l0,1.5C13.1,34.35,13.06,34.39,13,34.39z"/>
	<path class="st3" d="M13.71,34.8L13.71,34.8c-0.06,0-0.1-0.04-0.1-0.1l0-1.5c0-0.06,0.04-0.1,0.1-0.1l0,0c0.06,0,0.1,0.04,0.1,0.1
		l0,1.5C13.81,34.76,13.76,34.8,13.71,34.8z"/>
	<path class="st3" d="M14.41,35.21L14.41,35.21c-0.06,0-0.1-0.04-0.1-0.1l0-1.5c0-0.06,0.04-0.1,0.1-0.1l0,0
		c0.06,0,0.1,0.04,0.1,0.1l0,1.5C14.51,35.17,14.46,35.21,14.41,35.21z"/>
</g>
<g class="st4">
	<polygon class="st5" points="9.47,33.7 16.03,37.41 16,19.12 9.63,15.36 	"/>
</g>
<g>
	<g>
		<g>
			<polyline class="st1" points="15.86,25.51 15.86,31.25 15.86,31.25 			"/>
			<rect x="15.69" y="25.51" class="st2" width="0.35" height="5.74"/>
		</g>
		<g>
			<polygon class="st1" points="16.55,31.01 16.41,30.93 16.41,25.19 16.55,25.27 16.55,31.01 			"/>
			<path class="st2" d="M16.55,31.18c-0.03,0-0.06-0.01-0.09-0.02l-0.14-0.08c-0.05-0.03-0.09-0.09-0.09-0.15v-5.74
				c0-0.06,0.03-0.12,0.09-0.15c0.05-0.03,0.12-0.03,0.18,0l0.14,0.08c0.05,0.03,0.09,0.09,0.09,0.15v5.74
				c0,0.06-0.03,0.12-0.09,0.15C16.61,31.18,16.58,31.18,16.55,31.18z"/>
		</g>
		<g>
			<polyline class="st1" points="15.86,31.41 15.86,31.41 15.86,25.66 			"/>
			<rect x="15.69" y="25.66" class="st2" width="0.35" height="5.74"/>
		</g>
		<g>
			<polygon class="st1" points="15.86,31.41 16.55,31.01 16.55,25.27 15.86,25.66 15.86,31.41 			"/>
			<path class="st2" d="M15.86,31.58c-0.03,0-0.06-0.01-0.09-0.02c-0.05-0.03-0.09-0.09-0.09-0.15v-5.74c0-0.06,0.03-0.12,0.09-0.15
				l0.69-0.4c0.05-0.03,0.12-0.03,0.18,0c0.05,0.03,0.09,0.09,0.09,0.15v5.74c0,0.06-0.03,0.12-0.09,0.15l-0.69,0.4
				C15.92,31.58,15.89,31.58,15.86,31.58z M16.04,25.77v5.34l0.34-0.2v-5.34L16.04,25.77z"/>
		</g>
		<g>
			<polyline class="st1" points="15.86,25.66 15.86,25.66 16.55,25.27 16.41,25.19 15.86,25.51 			"/>
			<path class="st2" d="M15.95,25.82l-0.18-0.3l0.07-0.04l-0.07-0.12l0.55-0.32c0.05-0.03,0.12-0.03,0.18,0l0.14,0.08
				c0.05,0.03,0.09,0.09,0.09,0.15c0,0.06-0.03,0.12-0.09,0.15L15.95,25.82z"/>
		</g>
	</g>
	<g>
		<g>
			<line class="st1" x1="15.82" y1="31.4" x2="15.82" y2="25.66"/>
			<rect x="15.64" y="25.66" class="st2" width="0.35" height="5.74"/>
		</g>
		<g>
			<polyline class="st1" points="15.82,25.5 15.82,31.24 15.82,31.24 			"/>
			<rect x="15.64" y="25.5" class="st2" width="0.35" height="5.74"/>
		</g>
		<g>
			<polyline class="st1" points="17.62,32.28 15.82,31.24 15.82,25.5 17.62,26.54 			"/>
			<path class="st2" d="M17.53,32.44l-1.8-1.04c-0.05-0.03-0.09-0.09-0.09-0.15V25.5c0-0.06,0.03-0.12,0.09-0.15
				c0.05-0.03,0.12-0.03,0.17,0l1.8,1.04l-0.17,0.3l-1.54-0.89v5.34l1.72,0.99L17.53,32.44z"/>
		</g>
		<g>
			<polyline class="st1" points="17.62,26.7 15.82,25.66 15.82,31.4 17.62,32.44 			"/>
			<path class="st2" d="M17.53,32.6l-1.8-1.04c-0.05-0.03-0.09-0.09-0.09-0.15v-5.74c0-0.06,0.03-0.12,0.09-0.15
				c0.05-0.03,0.12-0.03,0.17,0l1.8,1.04l-0.17,0.3l-1.54-0.89v5.34l1.72,0.99L17.53,32.6z"/>
		</g>
		<g>
			<line class="st1" x1="17.62" y1="26.54" x2="15.82" y2="25.5"/>
			
				<rect x="16.54" y="24.98" transform="matrix(0.5001 -0.866 0.866 0.5001 -14.1753 27.4832)" class="st2" width="0.35" height="2.08"/>
		</g>
		<g>
			<line class="st1" x1="15.82" y1="25.66" x2="17.62" y2="26.7"/>
			
				<rect x="16.54" y="25.14" transform="matrix(0.5001 -0.866 0.866 0.5001 -14.3131 27.5628)" class="st2" width="0.35" height="2.08"/>
		</g>
	</g>
	<g>
		<g>
			<polyline class="st1" points="17.55,26.63 15.16,28.11 15.16,33.86 15.16,33.86 17.55,32.38 			"/>
			<path class="st2" d="M15.16,34.03c-0.03,0-0.06-0.01-0.09-0.02c-0.06-0.03-0.09-0.09-0.09-0.15v-5.74c0-0.06,0.03-0.12,0.08-0.15
				l2.4-1.48c0.08-0.05,0.19-0.03,0.24,0.06c0.05,0.08,0.03,0.19-0.06,0.24l-2.31,1.43v5.33l2.13-1.32
				c0.08-0.05,0.19-0.03,0.24,0.06c0.05,0.08,0.03,0.19-0.06,0.24L15.25,34C15.22,34.02,15.19,34.03,15.16,34.03z"/>
		</g>
		<g>
			<polygon class="st1" points="15.02,33.78 15.16,33.86 15.16,28.11 15.02,28.03 15.02,33.78 			"/>
			<path class="st2" d="M15.16,34.03c-0.03,0-0.06-0.01-0.09-0.02l-0.14-0.08c-0.05-0.03-0.09-0.09-0.09-0.15v-5.74
				c0-0.06,0.03-0.12,0.09-0.15c0.05-0.03,0.12-0.03,0.18,0l0.14,0.08c0.05,0.03,0.09,0.09,0.09,0.15v5.74
				c0,0.06-0.03,0.12-0.09,0.15C15.22,34.02,15.19,34.03,15.16,34.03z"/>
		</g>
		<g>
			<path class="st1" d="M17.55,32.22l-2.53,1.56c0,0-0.67-0.76-0.67-2.88s0.67-2.87,0.67-2.87l2.53-1.56"/>
			<path class="st2" d="M15.02,33.95c-0.05,0-0.1-0.02-0.13-0.06c-0.03-0.03-0.71-0.83-0.71-2.99s0.68-2.95,0.71-2.98
				c0.01-0.01,0.02-0.02,0.04-0.03l2.53-1.56c0.08-0.05,0.19-0.03,0.24,0.06c0.05,0.08,0.03,0.19-0.06,0.24l-2.51,1.54
				c-0.09,0.12-0.61,0.89-0.61,2.73c0,1.56,0.37,2.36,0.54,2.64l2.39-1.47c0.08-0.05,0.19-0.03,0.24,0.06
				c0.05,0.08,0.03,0.19-0.06,0.24l-2.53,1.56C15.08,33.94,15.05,33.95,15.02,33.95z"/>
		</g>
		<g>
			<polyline class="st1" points="17.55,26.47 15.02,28.03 14.88,28.26 17.55,26.63 17.55,32.38 			"/>
			<path class="st2" d="M17.55,32.55c-0.1,0-0.17-0.08-0.17-0.17v-5.43l-2.41,1.47c-0.07,0.04-0.16,0.03-0.22-0.03
				c-0.06-0.06-0.07-0.15-0.02-0.22l0.14-0.23c0.01-0.02,0.03-0.04,0.06-0.06l2.53-1.56c0.08-0.05,0.19-0.03,0.24,0.06
				c0.03,0.05,0.03,0.12,0.01,0.17c0.01,0.02,0.02,0.05,0.02,0.08v5.74C17.73,32.47,17.65,32.55,17.55,32.55z"/>
		</g>
	</g>
</g>
<g>
	<path class="st0" d="M24.82,11.2v1.06c0,1.34-1.93,2.42-4.31,2.42s-4.31-1.09-4.31-2.42V11.2"/>
	<path d="M20.51,14.86c-2.48,0-4.49-1.17-4.49-2.6v-1.06h0.35v1.06c0,1.24,1.86,2.25,4.14,2.25s4.14-1.01,4.14-2.25v-1.06H25v1.06
		C25,13.7,22.98,14.86,20.51,14.86z"/>
</g>
<g class="st4">
	<polyline class="st5" points="16.21,11.13 16.21,12.04 16.21,12.1 16.21,12.16 16.22,12.21 16.23,12.27 16.24,12.33 16.25,12.39 
		16.27,12.45 16.28,12.51 16.3,12.57 16.33,12.63 16.35,12.68 16.38,12.74 16.41,12.8 16.45,12.86 16.48,12.91 16.52,12.97 
		16.56,13.02 16.6,13.08 16.65,13.13 16.7,13.19 16.75,13.24 16.8,13.29 16.85,13.35 16.91,13.4 16.97,13.45 17.03,13.5 17.1,13.55 
		17.16,13.6 17.23,13.65 17.31,13.69 17.38,13.74 17.46,13.79 17.54,13.83 17.62,13.87 17.7,13.91 17.78,13.95 17.87,13.99 
		17.95,14.03 18.04,14.07 18.13,14.1 18.22,14.13 18.31,14.17 18.4,14.2 18.49,14.23 18.59,14.25 18.68,14.28 18.78,14.3 
		18.87,14.33 18.97,14.35 19.07,14.37 19.17,14.39 19.27,14.41 19.37,14.42 19.47,14.44 19.57,14.45 19.67,14.46 19.77,14.47 
		19.87,14.48 19.97,14.49 20.08,14.5 20.18,14.5 20.28,14.51 20.38,14.51 20.49,14.51 20.59,14.51 20.69,14.51 20.8,14.5 20.9,14.5 
		21,14.49 21.1,14.48 21.2,14.47 21.31,14.46 21.41,14.45 21.51,14.44 21.61,14.42 21.71,14.41 21.81,14.39 21.91,14.37 22,14.35 
		22.1,14.33 22.2,14.3 22.29,14.28 22.39,14.25 22.48,14.23 22.57,14.2 22.66,14.17 22.76,14.13 22.84,14.1 22.93,14.07 
		23.02,14.03 23.11,13.99 23.19,13.95 23.27,13.91 23.36,13.87 23.44,13.83 23.44,13.83 23.52,13.79 23.59,13.74 23.67,13.69 
		23.74,13.65 23.81,13.6 23.88,13.55 23.94,13.5 24,13.45 24.06,13.4 24.12,13.35 24.18,13.29 24.23,13.24 24.28,13.19 24.33,13.13 
		24.37,13.08 24.42,13.02 24.46,12.97 24.49,12.91 24.53,12.86 24.56,12.8 24.59,12.74 24.62,12.68 24.65,12.63 24.67,12.57 
		24.69,12.51 24.71,12.45 24.72,12.39 24.74,12.33 24.75,12.27 24.76,12.21 24.76,12.16 24.77,12.1 24.77,12.04 24.77,11.06 	"/>
</g>
<g>
	<ellipse class="st0" cx="20.51" cy="11.2" rx="4.31" ry="2.42"/>
	<path d="M20.51,13.8c-2.48,0-4.49-1.17-4.49-2.6c0-1.43,2.01-2.6,4.49-2.6S25,9.77,25,11.21C25,12.64,22.98,13.8,20.51,13.8z
		 M20.51,8.96c-2.28,0-4.14,1.01-4.14,2.25c0,1.24,1.86,2.25,4.14,2.25s4.14-1.01,4.14-2.25C24.65,9.96,22.79,8.96,20.51,8.96z"/>
</g>
<g>
	<g>
		<path class="st0" d="M22.31,7.9v3.08c0,0.56-0.81,1.01-1.8,1.01s-1.8-0.45-1.8-1.01V7.9"/>
		<path d="M20.51,12.16c-1.11,0-1.97-0.52-1.97-1.19V7.9h0.35v3.08c0,0.45,0.74,0.84,1.62,0.84s1.62-0.38,1.62-0.84V7.9h0.35v3.08
			C22.48,11.64,21.61,12.16,20.51,12.16z"/>
	</g>
	<g>
		<ellipse class="st0" cx="20.51" cy="7.9" rx="1.8" ry="1.01"/>
		<path d="M20.51,9.08c-1.11,0-1.97-0.52-1.97-1.19c0-0.66,0.87-1.19,1.97-1.19s1.97,0.52,1.97,1.19
			C22.48,8.56,21.61,9.08,20.51,9.08z M20.51,7.06c-0.88,0-1.62,0.38-1.62,0.84c0,0.45,0.74,0.84,1.62,0.84s1.62-0.38,1.62-0.84
			C22.13,7.45,21.39,7.06,20.51,7.06z"/>
	</g>
</g>
<g class="st4">
	<polygon class="st5" points="21.74,8.64 21.78,8.62 21.81,8.6 21.84,8.58 21.87,8.56 21.9,8.54 21.93,8.52 21.96,8.5 21.98,8.48 
		22.01,8.46 22.03,8.44 22.05,8.41 22.08,8.39 22.1,8.37 22.12,8.35 22.14,8.32 22.15,8.3 22.17,8.28 22.19,8.25 22.2,8.23 
		22.22,8.21 22.23,8.18 22.24,8.16 22.25,8.13 22.26,8.11 22.27,8.09 22.28,8.06 22.28,8.04 22.29,8.01 22.29,7.99 22.3,7.96 
		22.3,7.94 22.3,7.91 22.3,7.89 22.3,7.86 22.3,7.84 22.3,7.81 22.29,7.79 22.29,7.76 22.28,7.74 22.28,7.71 22.27,7.69 22.26,7.66 
		22.25,7.64 22.24,7.62 22.23,7.59 22.22,7.57 22.2,7.54 22.19,7.52 22.17,7.5 22.15,7.47 22.14,7.45 22.12,7.43 22.1,7.41 
		22.08,7.38 22.05,7.36 22.03,7.34 22.01,7.32 21.98,7.3 21.96,7.27 21.93,7.25 21.9,7.23 21.87,7.21 21.84,7.19 21.81,7.17 
		21.78,7.15 21.74,7.14 21.71,7.12 21.68,7.1 21.64,7.08 21.61,7.07 21.57,7.05 21.53,7.04 21.5,7.02 21.46,7.01 21.42,6.99 
		21.38,6.98 21.34,6.97 21.3,6.96 21.26,6.95 21.22,6.94 21.18,6.93 21.14,6.92 21.1,6.91 21.06,6.9 21.02,6.89 20.98,6.89 
		20.94,6.88 20.89,6.88 20.85,6.87 20.81,6.87 20.77,6.86 20.72,6.86 20.68,6.86 20.64,6.85 20.59,6.85 20.55,6.85 20.51,6.85 
		20.46,6.85 20.42,6.85 20.38,6.85 20.34,6.86 20.29,6.86 20.25,6.86 20.21,6.87 20.16,6.87 20.12,6.88 20.08,6.88 20.04,6.89 
		20,6.89 19.95,6.9 19.91,6.91 19.87,6.92 19.83,6.93 19.79,6.94 19.75,6.95 19.71,6.96 19.67,6.97 19.63,6.98 19.59,6.99 
		19.56,7.01 19.52,7.02 19.48,7.04 19.45,7.05 19.41,7.07 19.37,7.08 19.34,7.1 19.3,7.12 19.27,7.14 19.24,7.15 19.21,7.17 
		19.17,7.19 19.14,7.21 19.12,7.23 19.09,7.25 19.06,7.27 19.03,7.3 19.01,7.32 18.98,7.34 18.96,7.36 18.94,7.38 18.92,7.41 
		18.9,7.43 18.88,7.45 18.86,7.47 18.84,7.5 18.83,7.52 18.81,7.54 18.8,7.57 18.79,7.59 18.78,7.62 18.76,7.64 18.75,7.66 
		18.75,7.69 18.74,7.71 18.73,7.74 18.73,7.76 18.72,7.79 18.72,7.81 18.72,7.84 18.71,7.86 18.71,7.89 18.71,7.91 18.72,7.94 
		18.72,7.96 18.72,7.99 18.73,8.01 18.73,8.04 18.74,8.06 18.75,8.09 18.75,8.11 18.76,8.13 18.78,8.16 18.79,8.18 18.8,8.21 
		18.81,8.23 18.83,8.25 18.84,8.28 18.86,8.3 18.88,8.32 18.9,8.35 18.92,8.37 18.94,8.39 18.96,8.41 18.98,8.44 19.01,8.46 
		19.03,8.48 19.06,8.5 19.09,8.52 19.12,8.54 19.14,8.56 19.17,8.58 19.21,8.6 19.24,8.62 19.27,8.64 19.3,8.66 19.34,8.67 
		19.37,8.69 19.41,8.71 19.45,8.72 19.48,8.74 19.52,8.75 19.56,8.77 19.6,8.78 19.63,8.79 19.67,8.8 19.71,8.82 19.75,8.83 
		19.79,8.84 19.83,8.85 19.87,8.86 19.91,8.87 19.95,8.87 20,8.88 20.04,8.89 20.08,8.89 20.12,8.9 20.16,8.9 20.21,8.91 
		20.25,8.91 20.29,8.92 20.34,8.92 20.38,8.92 20.42,8.92 20.46,8.92 20.51,8.92 20.55,8.92 20.59,8.92 20.64,8.92 20.68,8.92 
		20.72,8.92 20.77,8.91 20.81,8.91 20.85,8.9 20.89,8.9 20.94,8.89 20.98,8.89 21.02,8.88 21.06,8.87 21.1,8.87 21.14,8.86 
		21.18,8.85 21.22,8.84 21.26,8.83 21.3,8.82 21.34,8.8 21.38,8.79 21.42,8.78 21.46,8.77 21.5,8.75 21.53,8.74 21.57,8.72 
		21.61,8.71 21.64,8.69 21.68,8.67 21.71,8.66 21.74,8.64 	"/>
</g>
</svg>
