<?xml version="1.0" encoding="utf-8"?>
<!-- Generator: Adobe Illustrator 26.3.1, SVG Export Plug-In . SVG Version: 6.00 Build 0)  -->
<svg version="1.1" id="Layer_1" xmlns="http://www.w3.org/2000/svg" xmlns:xlink="http://www.w3.org/1999/xlink" x="0px" y="0px"
	 viewBox="0 0 43.99 43.99" style="enable-background:new 0 0 43.99 43.99;" xml:space="preserve">
<style type="text/css">
	.st0{fill:#66D7D1;}
	.st1{clip-path:url(#SVGID_00000033342635683026802600000013624091678159977344_);}
	.st2{fill:#FFFFFF;}
	.st3{fill:#010101;}
	.st4{opacity:0.5;}
	.st5{opacity:0.15;}
	.st6{fill:#221F20;}
</style>
<g>
	<path class="st0" d="M41.65,43.99H2.34C1.05,43.99,0,42.95,0,41.65V2.34C0,1.05,1.05,0,2.34,0h39.31C42.95,0,44,1.05,44,2.34v39.31
		C44,42.95,42.95,43.99,41.65,43.99z"/>
</g>
<g>
	<defs>
		<path id="SVGID_1_" d="M41.65,43.99H2.34C1.05,43.99,0,42.95,0,41.65V2.34C0,1.05,1.05,0,2.34,0H44v41.65
			C44,42.95,42.95,43.99,41.65,43.99z"/>
	</defs>
	<clipPath id="SVGID_00000026858968466295997770000002684275520754459832_">
		<use xlink:href="#SVGID_1_"  style="overflow:visible;"/>
	</clipPath>
	<g style="clip-path:url(#SVGID_00000026858968466295997770000002684275520754459832_);">
		<g>
			<g>
				<g>
					<polygon class="st2" points="59.45,7.39 57.02,5.99 57.02,-9.41 59.45,-8.01 59.45,7.39 					"/>
					<path class="st3" d="M59.45,7.56c-0.03,0-0.06-0.01-0.09-0.02l-2.42-1.4c-0.05-0.03-0.09-0.09-0.09-0.15v-15.4
						c0-0.06,0.03-0.12,0.09-0.15c0.05-0.03,0.12-0.03,0.18,0l2.42,1.4c0.05,0.03,0.09,0.09,0.09,0.15v15.4
						c0,0.06-0.03,0.12-0.09,0.15C59.51,7.56,59.48,7.56,59.45,7.56z M57.2,5.89l2.08,1.2V-7.91l-2.08-1.2V5.89z"/>
				</g>
				<g>
					<polygon class="st2" points="57.02,-9.41 57.02,5.99 6.11,35.38 6.11,19.98 57.02,-9.41 					"/>
					<path class="st3" d="M6.11,35.56c-0.03,0-0.06-0.01-0.09-0.02c-0.05-0.03-0.09-0.09-0.09-0.15v-15.4
						c0-0.06,0.03-0.12,0.09-0.15L56.94-9.56c0.05-0.03,0.12-0.03,0.18,0c0.05,0.03,0.09,0.09,0.09,0.15v15.4
						c0,0.06-0.03,0.12-0.09,0.15L6.2,35.53C6.17,35.55,6.14,35.56,6.11,35.56z M6.29,20.08v15L56.85,5.89v-15L6.29,20.08z"/>
				</g>
				<g>
					<polygon class="st0" points="59.45,-8.01 57.02,-9.41 6.11,19.98 8.54,21.38 59.45,-8.01 					"/>
					<path class="st3" d="M8.54,21.56c-0.03,0-0.06-0.01-0.09-0.02l-2.42-1.4c-0.05-0.03-0.09-0.09-0.09-0.15s0.03-0.12,0.09-0.15
						L56.94-9.56c0.05-0.03,0.12-0.03,0.18,0l2.42,1.4c0.05,0.03,0.09,0.09,0.09,0.15s-0.03,0.12-0.09,0.15L8.62,21.54
						C8.6,21.55,8.57,21.56,8.54,21.56z M6.46,19.98l2.08,1.2L59.1-8.01l-2.08-1.2L6.46,19.98z"/>
				</g>
				<g>
					<polygon class="st2" points="59.45,7.39 8.54,36.78 6.11,35.38 57.02,5.99 59.45,7.39 					"/>
					<path class="st3" d="M8.54,36.96c-0.03,0-0.06-0.01-0.09-0.02l-2.42-1.4c-0.05-0.03-0.09-0.09-0.09-0.15s0.03-0.12,0.09-0.15
						L56.94,5.84c0.05-0.03,0.12-0.03,0.18,0l2.42,1.4c0.05,0.03,0.09,0.09,0.09,0.15s-0.03,0.12-0.09,0.15L8.62,36.93
						C8.6,36.95,8.57,36.96,8.54,36.96z M6.46,35.38l2.08,1.2L59.1,7.39l-2.08-1.2L6.46,35.38z"/>
				</g>
				<g>
					<polygon class="st2" points="59.45,7.39 59.45,-8.01 8.54,21.38 8.54,36.78 59.45,7.39 					"/>
					<path class="st3" d="M8.54,36.96c-0.03,0-0.06-0.01-0.09-0.02c-0.05-0.03-0.09-0.09-0.09-0.15v-15.4
						c0-0.06,0.03-0.12,0.09-0.15L59.36-8.16c0.05-0.03,0.12-0.03,0.18,0c0.05,0.03,0.09,0.09,0.09,0.15v15.4
						c0,0.06-0.03,0.12-0.09,0.15L8.62,36.93C8.6,36.95,8.57,36.96,8.54,36.96z M8.71,21.49v15L59.27,7.29V-7.71L8.71,21.49z"/>
				</g>
				<g>
					<polygon class="st0" points="8.54,36.78 8.54,21.38 6.11,19.98 6.11,35.38 8.54,36.78 					"/>
					<path class="st3" d="M8.54,36.96c-0.03,0-0.06-0.01-0.09-0.02l-2.42-1.4c-0.05-0.03-0.09-0.09-0.09-0.15v-15.4
						c0-0.06,0.03-0.12,0.09-0.15c0.05-0.03,0.12-0.03,0.18,0l2.42,1.4c0.05,0.03,0.09,0.09,0.09,0.15v15.4
						c0,0.06-0.03,0.12-0.09,0.15C8.6,36.95,8.57,36.96,8.54,36.96z M6.29,35.28l2.08,1.2v-15l-2.08-1.2V35.28z"/>
				</g>
			</g>
			<g class="st4">
				<path d="M8.54,35.28c-0.02,0-0.03,0-0.05-0.01c-0.03-0.02-0.05-0.05-0.05-0.09v-1.04c0-0.04,0.02-0.07,0.05-0.09L59.4,4.66
					c0.03-0.02,0.07-0.02,0.1,0c0.03,0.02,0.05,0.05,0.05,0.09v1.04c0,0.04-0.02,0.07-0.05,0.09L8.59,35.27
					C8.57,35.28,8.55,35.28,8.54,35.28z M8.64,34.2v0.81L59.35,5.73V4.92L8.64,34.2z"/>
			</g>
			<g class="st4">
				<path d="M8.54,29.76c-0.02,0-0.03,0-0.05-0.01c-0.03-0.02-0.05-0.05-0.05-0.09v-1.04c0-0.04,0.02-0.07,0.05-0.09L59.4-0.85
					c0.03-0.02,0.07-0.02,0.1,0c0.03,0.02,0.05,0.05,0.05,0.09v1.04c0,0.04-0.02,0.07-0.05,0.09L8.59,29.75
					C8.57,29.76,8.55,29.76,8.54,29.76z M8.64,28.68v0.81L59.35,0.21v-0.81L8.64,28.68z"/>
			</g>
			<g class="st4">
				<path d="M8.54,24.25c-0.02,0-0.03,0-0.05-0.01c-0.03-0.02-0.05-0.05-0.05-0.09v-1.04c0-0.04,0.02-0.07,0.05-0.09L59.4-6.37
					c0.03-0.02,0.07-0.02,0.1,0c0.03,0.02,0.05,0.05,0.05,0.09v1.04c0,0.04-0.02,0.07-0.05,0.09L8.59,24.23
					C8.57,24.24,8.55,24.25,8.54,24.25z M8.64,23.17v0.81L59.35-5.3v-0.81L8.64,23.17z"/>
			</g>
		</g>
		<g>
			<g>
				<polygon class="st2" points="27.55,18.73 13.31,26.95 12.63,26.56 26.87,18.34 27.55,18.73 				"/>
				<path class="st3" d="M13.31,27.13c-0.03,0-0.06-0.01-0.09-0.02l-0.68-0.39c-0.05-0.03-0.09-0.09-0.09-0.15s0.03-0.12,0.09-0.15
					l14.24-8.22c0.05-0.03,0.12-0.03,0.18,0l0.68,0.39c0.05,0.03,0.09,0.09,0.09,0.15s-0.03,0.12-0.09,0.15L13.4,27.1
					C13.37,27.12,13.34,27.13,13.31,27.13z M12.98,26.56l0.33,0.19l13.89-8.02l-0.33-0.19L12.98,26.56z"/>
			</g>
			<g>
				<polygon class="st2" points="27.55,18.73 27.55,17.68 13.31,25.91 13.31,26.95 27.55,18.73 				"/>
				<path class="st3" d="M13.31,27.13c-0.03,0-0.06-0.01-0.09-0.02c-0.05-0.03-0.09-0.09-0.09-0.15v-1.04
					c0-0.06,0.03-0.12,0.09-0.15l14.24-8.22c0.05-0.03,0.12-0.03,0.18,0c0.05,0.03,0.09,0.09,0.09,0.15v1.04
					c0,0.06-0.03,0.12-0.09,0.15L13.4,27.1C13.37,27.12,13.34,27.13,13.31,27.13z M13.49,26.01v0.64l13.89-8.02v-0.64L13.49,26.01z"
					/>
			</g>
			<g>
				<polygon class="st2" points="13.31,26.95 13.31,25.91 12.63,26.34 12.63,26.56 13.31,26.95 				"/>
				<path class="st3" d="M13.31,27.13c-0.03,0-0.06-0.01-0.09-0.02l-0.68-0.39c-0.05-0.03-0.09-0.09-0.09-0.15v-0.22
					c0-0.06,0.03-0.12,0.08-0.15l0.68-0.43c0.05-0.04,0.12-0.04,0.18-0.01c0.06,0.03,0.09,0.09,0.09,0.15v1.04
					c0,0.06-0.03,0.12-0.09,0.15C13.37,27.12,13.34,27.13,13.31,27.13z M12.81,26.46l0.33,0.19v-0.42L12.81,26.46z"/>
			</g>
		</g>
		<g>
			<g>
				<polygon class="st2" points="27.55,13.15 13.31,21.37 12.63,20.98 26.87,12.76 27.55,13.15 				"/>
				<path class="st3" d="M13.31,21.55c-0.03,0-0.06-0.01-0.09-0.02l-0.68-0.39c-0.05-0.03-0.09-0.09-0.09-0.15s0.03-0.12,0.09-0.15
					l14.24-8.22c0.05-0.03,0.12-0.03,0.18,0L27.64,13c0.05,0.03,0.09,0.09,0.09,0.15s-0.03,0.12-0.09,0.15L13.4,21.53
					C13.37,21.54,13.34,21.55,13.31,21.55z M12.98,20.98l0.33,0.19l13.89-8.02l-0.33-0.19L12.98,20.98z"/>
			</g>
			<g>
				<polygon class="st2" points="27.55,13.15 27.55,12.11 13.31,20.33 13.31,21.37 27.55,13.15 				"/>
				<path class="st3" d="M13.31,21.55c-0.03,0-0.06-0.01-0.09-0.02c-0.05-0.03-0.09-0.09-0.09-0.15v-1.05
					c0-0.06,0.03-0.12,0.09-0.15l14.24-8.22c0.05-0.03,0.12-0.03,0.18,0c0.05,0.03,0.09,0.09,0.09,0.15v1.05
					c0,0.06-0.03,0.12-0.09,0.15L13.4,21.53C13.37,21.54,13.34,21.55,13.31,21.55z M13.49,20.43v0.64l13.89-8.02v-0.64L13.49,20.43z
					"/>
			</g>
			<g>
				<polygon class="st2" points="13.31,21.37 13.31,20.33 12.63,20.76 12.63,20.98 13.31,21.37 				"/>
				<path class="st3" d="M13.31,21.55c-0.03,0-0.06-0.01-0.09-0.02l-0.68-0.39c-0.05-0.03-0.09-0.09-0.09-0.15v-0.22
					c0-0.06,0.03-0.12,0.08-0.15l0.68-0.43c0.05-0.04,0.12-0.04,0.18-0.01c0.06,0.03,0.09,0.09,0.09,0.15v1.05
					c0,0.06-0.03,0.12-0.09,0.15C13.37,21.54,13.34,21.55,13.31,21.55z M12.81,20.88l0.33,0.19v-0.42L12.81,20.88z"/>
			</g>
		</g>
		<g>
			<g>
				<polygon class="st2" points="27.55,24.17 13.31,32.39 12.63,32 26.87,23.78 27.55,24.17 				"/>
				<path class="st3" d="M13.31,32.57c-0.03,0-0.06-0.01-0.09-0.02l-0.68-0.39c-0.05-0.03-0.09-0.09-0.09-0.15
					c0-0.06,0.03-0.12,0.09-0.15l14.24-8.22c0.05-0.03,0.12-0.03,0.18,0l0.68,0.39c0.05,0.03,0.09,0.09,0.09,0.15
					s-0.03,0.12-0.09,0.15L13.4,32.54C13.37,32.56,13.34,32.57,13.31,32.57z M12.98,32l0.33,0.19l13.89-8.02l-0.33-0.19L12.98,32z"
					/>
			</g>
			<g>
				<polygon class="st2" points="27.55,24.17 27.55,23.12 13.31,31.34 13.31,32.39 27.55,24.17 				"/>
				<path class="st3" d="M13.31,32.57c-0.03,0-0.06-0.01-0.09-0.02c-0.05-0.03-0.09-0.09-0.09-0.15v-1.05
					c0-0.06,0.03-0.12,0.09-0.15l14.24-8.22c0.05-0.03,0.12-0.03,0.18,0c0.05,0.03,0.09,0.09,0.09,0.15v1.05
					c0,0.06-0.03,0.12-0.09,0.15L13.4,32.54C13.37,32.56,13.34,32.57,13.31,32.57z M13.49,31.45v0.64l13.89-8.02v-0.64L13.49,31.45z
					"/>
			</g>
			<g>
				<polygon class="st2" points="13.31,32.39 13.31,31.34 12.63,31.78 12.63,32 13.31,32.39 				"/>
				<path class="st3" d="M13.31,32.57c-0.03,0-0.06-0.01-0.09-0.02l-0.68-0.39c-0.05-0.03-0.09-0.09-0.09-0.15v-0.22
					c0-0.06,0.03-0.12,0.08-0.15l0.68-0.43c0.05-0.04,0.12-0.04,0.18-0.01c0.06,0.03,0.09,0.09,0.09,0.15v1.05
					c0,0.06-0.03,0.12-0.09,0.15C13.37,32.56,13.34,32.57,13.31,32.57z M12.81,31.9l0.33,0.19v-0.42L12.81,31.9z"/>
			</g>
		</g>
		<g>
			
				<ellipse transform="matrix(0.058 -0.9983 0.9983 0.058 -19.5818 36.4921)" class="st2" cx="9.55" cy="28.62" rx="0.86" ry="0.63"/>
			<path class="st3" d="M9.52,29.66c-0.11,0-0.23-0.03-0.33-0.09c-0.22-0.13-0.38-0.39-0.43-0.7c-0.09-0.55,0.17-1.09,0.59-1.24
				c0.18-0.06,0.38-0.05,0.55,0.06c0.22,0.13,0.38,0.39,0.43,0.7c0.09,0.55-0.17,1.09-0.59,1.24C9.67,29.64,9.59,29.66,9.52,29.66z
				 M9.57,27.94c-0.03,0-0.07,0.01-0.1,0.02c-0.26,0.09-0.42,0.48-0.36,0.85c0.03,0.21,0.13,0.38,0.26,0.45
				c0.08,0.05,0.17,0.06,0.26,0.03c0.26-0.09,0.42-0.48,0.36-0.85l0,0c-0.03-0.21-0.13-0.38-0.26-0.45
				C9.67,27.95,9.62,27.94,9.57,27.94z"/>
		</g>
	</g>
</g>
<g class="st5">
	<polygon class="st6" points="6.08,35.31 8.48,36.75 8.62,21.52 6.09,20.02 	"/>
</g>
</svg>
