<?xml version="1.0" encoding="utf-8"?>
<!-- Generator: Adobe Illustrator 26.3.1, SVG Export Plug-In . SVG Version: 6.00 Build 0)  -->
<svg version="1.1" id="Layer_1" xmlns="http://www.w3.org/2000/svg" xmlns:xlink="http://www.w3.org/1999/xlink" x="0px" y="0px"
	 viewBox="0 0 43.99 43.99" style="enable-background:new 0 0 43.99 43.99;" xml:space="preserve">
<style type="text/css">
	.st0{fill:#66D7D1;}
	.st1{enable-background:new    ;}
	.st2{fill:#FFFFFF;}
	.st3{fill:#010101;}
	.st4{opacity:0.15;}
	.st5{fill:#221F20;}
</style>
<g>
	<path class="st0" d="M41.65,43.99H2.34C1.05,43.99,0,42.95,0,41.65V2.34C0,1.05,1.05,0,2.34,0h39.31C42.95,0,44,1.05,44,2.34v39.31
		C44,42.95,42.95,43.99,41.65,43.99z"/>
</g>
<g>
	<g>
		<g class="st1">
			<g>
				<g>
					<path d="M9.62,31.93c-0.03,0-0.06-0.01-0.09-0.02c-0.05-0.03-0.09-0.09-0.09-0.15l0.01-2.25c0-0.06,0.03-0.12,0.09-0.15
						l4.17-2.4l0.17,0.3L9.8,29.61l-0.01,1.85l4.85-2.81l0.17,0.3L9.7,31.91C9.68,31.92,9.65,31.93,9.62,31.93z"/>
				</g>
			</g>
			<g>
				<g>
					<path d="M8.14,28.83c-0.03,0-0.06-0.01-0.09-0.02C8,28.77,7.97,28.71,7.97,28.65l0.01-4.8l0.35,0l-0.01,4.49l3.91-2.25
						l0.17,0.3l-4.17,2.4C8.2,28.82,8.17,28.83,8.14,28.83z"/>
				</g>
			</g>
			<g>
				<g>
					<path d="M14.6,32.58l-1.48-0.86c-0.05-0.03-0.09-0.09-0.09-0.15s0.03-0.12,0.09-0.15l1.48-0.85l0.17,0.3l-1.22,0.7l1.22,0.7
						L14.6,32.58z"/>
				</g>
			</g>
			<g>
				<g>
					<polygon class="st2" points="16.67,26.51 16.64,35.81 13.2,33.83 13.2,31.57 14.69,32.43 14.7,27.63 8.16,23.85 8.14,28.65 
						9.62,29.51 9.62,31.76 6.18,29.77 6.2,20.47 					"/>
					<path class="st3" d="M16.64,35.99c-0.03,0-0.06-0.01-0.09-0.02l-3.44-1.99c-0.05-0.03-0.09-0.09-0.09-0.15l0.01-2.25
						c0-0.06,0.03-0.12,0.09-0.15c0.05-0.03,0.12-0.03,0.17,0l1.22,0.7l0.01-4.39l-6.19-3.58l-0.01,4.39l1.39,0.8
						c0.05,0.03,0.09,0.09,0.09,0.15l-0.01,2.25c0,0.06-0.03,0.12-0.09,0.15c-0.05,0.03-0.12,0.03-0.17,0l-3.44-1.99
						C6.03,29.89,6,29.83,6,29.77l0.03-9.3c0-0.06,0.03-0.12,0.09-0.15c0.05-0.03,0.12-0.03,0.17,0l10.46,6.04
						c0.05,0.03,0.09,0.09,0.09,0.15l-0.03,9.3c0,0.06-0.03,0.12-0.09,0.15C16.7,35.98,16.67,35.99,16.64,35.99z M13.37,33.73
						l3.09,1.78l0.03-8.9L6.38,20.77l-0.03,8.9l3.09,1.78l0.01-1.85l-1.39-0.8C8,28.77,7.97,28.71,7.97,28.65l0.01-4.8
						c0-0.06,0.03-0.12,0.09-0.15c0.05-0.03,0.12-0.03,0.17,0l6.54,3.78c0.05,0.03,0.09,0.09,0.09,0.15l-0.01,4.8
						c0,0.06-0.03,0.12-0.09,0.15c-0.05,0.03-0.12,0.03-0.17,0l-1.22-0.7L13.37,33.73z"/>
				</g>
			</g>
			<g>
				<g>
					<path d="M16.64,35.99c-0.03,0-0.06-0.01-0.09-0.02c-0.05-0.03-0.09-0.09-0.09-0.15l0.03-9.3c0-0.06,0.03-0.12,0.09-0.15
						l21.14-12.29c0.05-0.03,0.12-0.03,0.18,0c0.05,0.03,0.09,0.09,0.09,0.15l-0.03,9.3c0,0.06-0.03,0.12-0.09,0.15L16.73,35.96
						C16.7,35.98,16.67,35.99,16.64,35.99z M16.84,26.61l-0.03,8.9l20.79-12.08l0.03-8.9L16.84,26.61z"/>
				</g>
			</g>
			<g>
				<g>
					<path d="M16.67,26.68c-0.03,0-0.06-0.01-0.09-0.02L6.11,20.62c-0.05-0.03-0.09-0.09-0.09-0.15c0-0.06,0.03-0.12,0.09-0.15
						L27.26,8.03c0.05-0.03,0.12-0.03,0.18,0l10.46,6.04c0.05,0.03,0.09,0.09,0.09,0.15c0,0.06-0.03,0.12-0.09,0.15L16.75,26.66
						C16.73,26.68,16.7,26.68,16.67,26.68z M6.55,20.47l10.11,5.84l20.8-12.08L27.35,8.38L6.55,20.47z"/>
				</g>
			</g>
		</g>
	</g>
	<g class="st4">
		<polygon class="st5" points="16.7,26.52 16.7,35.79 37.83,23.58 37.83,14.23 		"/>
	</g>
	<g class="st4">
		<polygon class="st5" points="8.15,23.85 8.14,28.64 9.62,29.5 9.61,31.75 14.7,28.8 14.7,27.63 		"/>
	</g>
</g>
</svg>
